<svg xmlns="http://www.w3.org/2000/svg" viewBox="0 0 124 176">
  <path fill="var(--body)" d="m9.1 62 .8-10.25c.01-.068.027-.135.05-.2a5.985 5.985 0 0 1 4.15-1.7l-.05 4.1c.125 4.07.51 8.128 1.15 12.15.433 2.633.933 5.733 1.5 9.3a13.995 13.995 0 0 0 1.1 4.05c.533 1.233.95 5.283 1.25 12.15.165 1.93.432 3.849.8 5.75a54.71 54.71 0 0 1 .85 5.55c.242 1.05.526 2.067.85 3.05-.031.01-.514.194-1.45.55-.98.379-2.863-.055-5.65-1.3-2.776-1.236-4.526-3.803-5.25-7.7a49.683 49.683 0 0 1-1.15-8.7c0-.333.2-3.35.6-9.05.272-3.98.422-8.263.45-12.85v-.05c.017-1.58.017-3.196 0-4.85m97.35 24.7c1.9-2.2 3.717-4.483 5.45-6.85a18.173 18.173 0 0 0 2.3-4.45c.06-.16.127-.326.2-.5.133 1.519.2 3.335.2 5.45a30.879 30.879 0 0 1-6.45 19.15 34.749 34.749 0 0 1-12.05 10.1 52.305 52.305 0 0 1-4.95 2.8 141.92 141.92 0 0 1-3.95 1.9c-1.2.533-3.65 1.917-7.35 4.15-.933.53-1.866 1.046-2.8 1.55a17.46 17.46 0 0 1-10.4 2.15c-1.56.277-3.127.527-4.7.75H56.1c-10.455-1.211-18.372-5.894-23.75-14.05v-.1c-.126-.167-.26-.333-.4-.5a38.675 38.675 0 0 1-1.55-2.7 14.245 14.245 0 0 1-.7-1.55 53.878 53.878 0 0 1-2.45-12.7A80.004 80.004 0 0 0 25.8 79c-.5-2.1-.8-3.467-.9-4.1-.167-.767-.45-2.683-.85-5.75-.7-5.5-1.15-10.017-1.35-13.55-.2-4.033-.233-9.167-.1-15.4v-.35c.433-2 .95-3.983 1.55-5.95a35.162 35.162 0 0 1 2.15-5.35c-.217.886-.433 1.77-.65 2.65a5.447 5.447 0 0 0-.15 1.65 3.767 3.767 0 0 0-.3 1.5c.033.7.05 1.383.05 2.05v.75a2.01 2.01 0 0 0-.25.75 4.11 4.11 0 0 0-.1.75c-.067.4-.233 1.65-.5 3.75.093 4.162.528 8.31 1.3 12.4a92.963 92.963 0 0 0 5.85 20.45c7.833 18.367 20.133 27.55 36.9 27.55 3.881.06 7.757-.325 11.55-1.15a114.948 114.948 0 0 0 14.4-4.95 43.327 43.327 0 0 0 7.3-5.25 63.873 63.873 0 0 0 4.75-4.75ZM87.2 109.25a4.993 4.993 0 0 1 1.8-1.3 1.948 1.948 0 0 0 1.2-1.2 9.871 9.871 0 0 1 1.3-4.1c.83-1.47 4.83-4.654 12-9.55 1.657-1.122 2.94-2.056 3.85-2.8a9.562 9.562 0 0 1 4.25 4.35 7.326 7.326 0 0 0-.5 3.1c.05 1.073.251 2.134.6 3.15.063.176.13.343.2.5.033.154.066.304.1.45.302 1.263.602 2.53.9 3.8a35.23 35.23 0 0 0-3.45-1.3 10.987 10.987 0 0 0-4.3.35c-.6.2-1.158.504-1.65.9l-.1.2a7.307 7.307 0 0 1-.85.9 16.16 16.16 0 0 0-.75.8.327.327 0 0 0-.15.15 15.437 15.437 0 0 1-1.3 3.3 11.482 11.482 0 0 0-.85 1.95 31.996 31.996 0 0 1-.45 1.7 111.111 111.111 0 0 1 0 .4c-.033.1-.067.217-.1.35a.444.444 0 0 0-.05.2v.2a1.107 1.107 0 0 0-.05.35.445.445 0 0 0-.05.2c0 .07-.018.138-.05.2-.102.24-.169.492-.2.75a.86.86 0 0 1-.2.55c-.132.164-.234.35-.3.55 0 .07-.018.138-.05.2 0 1.256.1 2.51.3 3.75.367 2.55.485 5.128.35 7.7-.033 1.3-.117 2.6-.25 3.9l-.1.2c0 .07-.018.138-.05.2.033.249.033.501 0 .75-.033.133-.067.25-.1.35 0 .204-.034.407-.1.6a.204.204 0 0 1-.05.15v.2a5.39 5.39 0 0 1-.05.75c-.033.2-.067.383-.1.55l-.1.6a.204.204 0 0 1-.05.15c.001.386-.032.77-.1 1.15-.2.7-.4 1.383-.6 2.05a6.975 6.975 0 0 0-.3 1.7c-.038.322-.105.64-.2.95-.003.118-.02.236-.05.35a2.81 2.81 0 0 0-.05.55c0 .339-.051.676-.15 1a2.767 2.767 0 0 1-.2.7c0 .07-.018.138-.05.2a111.111 111.111 0 0 0 0 .75 111.111 111.111 0 0 0 0 .75v.2c.1.233.2.483.3.75l.2.6c.103.204.238.39.4.55a.16.16 0 0 1 .1.15l.5.4a8.228 8.228 0 0 0 3.3 2.1c1.167.367 2.333.717 3.5 1.05h2.05c1.59-.43 3.145-.981 4.65-1.65l1.75-.75a25.366 25.366 0 0 1-1 2 21.178 21.178 0 0 1-2.7 3.85 16.8 16.8 0 0 1-13.15 5.6c-4.2 0-7.417-1-9.65-3a7.277 7.277 0 0 1-2.55-4.5 55.873 55.873 0 0 1-.6-6.35c0-1.7.333-5.467 1-11.3a50.96 50.96 0 0 0-.05-6.7 30.56 30.56 0 0 0-.25-2.3 20.328 20.328 0 0 0-3.2-7.85 4.028 4.028 0 0 0-.65-.35 3.5 3.5 0 0 0-.5-.25 4.972 4.972 0 0 0-1.85-.25c-.15.005-.3.005-.45 0a8.582 8.582 0 0 1 .05-2.8 6.072 6.072 0 0 1 2.25-3.75 8.635 8.635 0 0 1 1.75-2.2 9.56 9.56 0 0 1 6-2.55ZM62.55 117.65a3.27 3.27 0 0 0-.35-.2 8.673 8.673 0 0 0-1.3-.75 8.834 8.834 0 0 1-.95-.55 1.955 1.955 0 0 0-.65-.3.384.384 0 0 0-.15-.05.628.628 0 0 1-.25-.15 4.555 4.555 0 0 1-.5-.35l-.2-.2c-.667-.067-1.317-.133-1.95-.2a17.669 17.669 0 0 0-1.85-.1 8.15 8.15 0 0 0-2.55 1.35 8.252 8.252 0 0 0-3.55 6.65c-.033 1-.05 2-.05 3 .032.062.05.13.05.2a.384.384 0 0 1 .05.15v.2c.033.2.067.383.1.55l.2.6c.033.1.067.217.1.35l.1.4c.025.055.06.106.1.15v.4c0 .07.018.138.05.2a60.764 60.764 0 0 0 0 .55c.032.062.05.13.05.2a.384.384 0 0 1 .05.15 18.73 18.73 0 0 1-.35 7.35 20.753 20.753 0 0 1-2.05 5.4c-.9 1.6-1.717 3.233-2.45 4.9v.2a.444.444 0 0 0-.05.2.383.383 0 0 1-.05.15v.2a.443.443 0 0 0-.05.2c0 .07-.018.138-.05.2a.383.383 0 0 1-.05.15 111.111 111.111 0 0 0 0 .55 1.63 1.63 0 0 0-.05.4c-.033.133-.067.25-.1.35l-.1.4a111.111 111.111 0 0 0 0 .75l.1.4c.033.264.118.52.25.75.103.174.187.358.25.55.067.167.133.35.2.55 0 .07.018.138.05.2a12.475 12.475 0 0 0 5.15 2.85 56.91 56.91 0 0 1 2.55.75 49.346 49.346 0 0 0 6.3-1.2c-.237.29-.47.573-.7.85-1.401 1.688-2.601 3.055-3.6 4.1a16.837 16.837 0 0 1-2.65 2.4c-2.9 1.933-7.083 2.9-12.55 2.9-6.6 0-10.817-1.167-12.65-3.5-.6-.733-.9-2.1-.9-4.1.07-1.864.287-3.72.65-5.55a40.44 40.44 0 0 1 1.3-5.4c1.5-3.767 2.683-6.8 3.55-9.1 1.6-4.233 2.333-7.317 2.2-9.25.495-4.382.595-8.8.3-13.2a.546.546 0 0 1-.05-.2 30.986 30.986 0 0 0-1.75-8.25 17.815 17.815 0 0 1 4.15-1.8 25.82 25.82 0 0 1 8.3-1.05c5.144-.67 10.367.33 14.9 2.85a46.17 46.17 0 0 1 6.8 4.65 17.87 17.87 0 0 1 5.85 8.1 3.215 3.215 0 0 0-2.25.6c-.14.071-.274.155-.4.25a.229.229 0 0 1-.1.05 1.847 1.847 0 0 1-.15.15A5.477 5.477 0 0 0 67.6 125c-.004.21-.004.41 0 .6a28.342 28.342 0 0 1-1.15-2.65 8.527 8.527 0 0 0-1.7-2.8c-.333-.367-.65-.75-.95-1.15l-.5-.4-.1-.2a.327.327 0 0 0-.15-.15l-.3-.4-.2-.2Z"/>
  <path fill="var(--shadow)" d="M101.65 107.65A.327.327 0 01101.8 107.5C102.033 107.233 102.283 106.967 102.55 106.7 102.858 106.425 103.143 106.124 103.4 105.8L103.5 105.6A5.31 5.31 0 01105.15 104.7C106.546 104.3 108.008 104.181 109.45 104.35A35.23 35.23 0 01112.9 105.65C113.078 106.563 113.262 107.48 113.45 108.4 113.697 109.605 113.963 110.805 114.25 112 115.483 117.233 116.1 124.533 116.1 133.9 116.1 141.068 114.983 147.084 112.75 151.95L111 152.7A32.082 32.082 0 01106.35 154.35H104.3A139.527 139.527 0 01100.8 153.3 8.228 8.228 0 0197.5 151.2L97 150.8A.16.16 0 0096.9 150.65 2.11 2.11 0 0196.5 150.1L96.3 149.5C96.2 149.233 96.1 148.983 96 148.75V147.05A.443.443 0 0096.05 146.85 2.79 2.79 0 0096.25 146.15C96.349 145.826 96.4 145.489 96.4 145.15A2.81 2.81 0 0196.45 144.6C96.48 144.486 96.497 144.368 96.5 144.25 96.595 143.94 96.662 143.622 96.7 143.3 96.73 142.723 96.83 142.152 97 141.6 97.2 140.933 97.4 140.25 97.6 139.55 97.668 139.17 97.701 138.786 97.7 138.4A.204.204 0 0097.75 138.25L97.85 137.65C97.883 137.483 97.917 137.3 97.95 137.1 97.984 136.852 98.001 136.6 98 136.35V136.15A.204.204 0 0098.05 136C98.116 135.807 98.15 135.604 98.15 135.4 98.183 135.3 98.217 135.183 98.25 135.05A2.822 2.822 0 0098.25 134.3.443.443 0 0098.3 134.1L98.4 133.9C98.533 132.6 98.617 131.3 98.65 130 98.785 127.428 98.667 124.85 98.3 122.3 98.1 121.06 98 119.806 98 118.55A.443.443 0 0098.05 118.35C98.116 118.15 98.218 117.964 98.35 117.8A.86.86 0 0098.55 117.25C98.581 116.992 98.648 116.74 98.75 116.5A.443.443 0 0098.8 116.3C98.8 116.23 98.818 116.162 98.85 116.1A1.107 1.107 0 0198.9 115.75V115.55C98.9 115.48 98.918 115.412 98.95 115.35 98.983 115.217 99.017 115.1 99.05 115A111.111 111.111 0 0099.05 114.6C99.217 114.033 99.367 113.467 99.5 112.9 99.722 112.225 100.007 111.572 100.35 110.95A15.437 15.437 0 00101.65 107.65ZM66.359 124.657C67.715 124.908 67.172 124.737 67.6 125.6A71.22 71.22 0 0067.6 128.85C67.59 129.075 67.59 129.292 67.6 129.5A44.86 44.86 0 0165.65 141.05 43.536 43.536 0 0158.6 156.15 49.346 49.346 0 0152.3 157.35 56.91 56.91 0 0049.75 156.6 12.475 12.475 0 0144.6 153.75.445.445 0 0144.55 153.55 10.11 10.11 0 0044.35 153 2.767 2.767 0 0044.1 152.45 1.995 1.995 0 0143.85 151.7L43.75 151.3V150.55L43.85 150.15C43.883 150.05 43.917 149.933 43.95 149.8 43.95 149.665 43.967 149.53 44 149.4A338.542 338.542 0 0144 148.85.383.383 0 0044.05 148.7.444.444 0 0044.1 148.5C44.1 148.43 44.118 148.362 44.15 148.3V148.1A.383.383 0 0044.2 147.95C44.2 147.88 44.218 147.812 44.25 147.75V147.55C44.983 145.883 45.8 144.25 46.7 142.65A20.753 20.753 0 0048.75 137.25 18.73 18.73 0 0049.1 129.9.384.384 0 0049.05 129.75.443.443 0 0049 129.55 111.111 111.111 0 0149 129 .444.444 0 0148.95 128.8V128.4A.582.582 0 0148.85 128.25L48.75 127.85A4.813 4.813 0 0048.65 127.5L48.45 126.9C48.417 126.733 48.383 126.55 48.35 126.35V126.15A.384.384 0 0048.3 126 .443.443 0 0048.25 125.8 8.252 8.252 0 0148.288 122.749ZM14.75 38.45A.702.702 0 0014.7 38.6C14.667 39 14.633 39.383 14.6 39.75V42A5.891 5.891 0 0014.15 44.25 15.24 15.24 0 0014.15 45.05L14.1 49.85A5.985 5.985 0 009.95 51.55C10.409 48.318 11.092 44.851 12 41.15 12.133 40.842 12.283 40.541 12.45 40.25 12.95 39.783 13.45 39.35 13.95 38.95 14.205 38.765 14.472 38.598 14.75 38.45M72.4 10.45A142.6 142.6 0 0175.7 12.5 8.401 8.401 0 0177.65 14.65C78.28 15.586 81.33 18.436 86.8 23.2A.085.085 0 0186.75 23.15C93.46 29.138 99.544 37.254 105 47.5A206.7 206.7 0 01107.1 51.55C107.16 51.687 107.226 51.82 107.3 51.95 107.319 52.008 107.353 52.06 107.4 52.1A.79.79 0 00107.5 52.35C107.527 52.404 107.56 52.454 107.6 52.5 107.651 52.64 107.718 52.775 107.8 52.9A.3.3 0 00107.85 53.05C107.923 53.222 108.007 53.389 108.1 53.55 108.14 53.654 108.19 53.755 108.25 53.85L112.9 67.05C113.04 67.794 113.14 68.494 113.2 69.15 113.312 70.131 113.565 71.09 113.95 72 114.163 72.956 114.313 73.925 114.4 74.9 114.327 75.074 114.26 75.24 114.2 75.4A18.173 18.173 0 01111.9 79.85 109.088 109.088 0 01106.45 86.7 63.873 63.873 0 01101.7 91.45 43.327 43.327 0 0194.4 96.7 114.948 114.948 0 0180 101.65 50.626 50.626 0 0168.45 102.8C51.683 102.8 39.383 93.617 31.55 75.25A92.963 92.963 0 0125.7 54.8 75.998 75.998 0 0124.4 42.4C24.667 40.3 24.833 39.05 24.9 38.65A4.11 4.11 0 0125 37.9C25.032 37.636 25.117 37.38 25.25 37.15V36.4C25.25 35.733 25.233 35.05 25.2 34.35A3.767 3.767 0 0125.5 32.85 5.447 5.447 0 0125.65 31.2C25.867 30.32 26.083 29.436 26.3 28.55A.148.148 0 0126.35 28.5 29.785 29.785 0 0127.9 25.75 120.998 120.998 0 0132.95 18.5L33.55 17.8C33.77 17.553 34.003 17.32 34.25 17.1A23.055 23.055 0 0140.5 13.2 52.555 52.555 0 0146 11.15L47.7 10.6C49.667 10.067 52.7 9.333 56.8 8.4L61.4 8.1C67.231 8.786 70.898 9.57 72.4 10.45M33.15 20.15 33.05 20.35 32.95 20.55V20.75C33.048 20.508 33.148 20.258 33.25 20 33.327 19.792 33.41 19.575 33.5 19.35L33.45 19.4A1.955 1.955 0 0033.3 19.8 1.12 1.12 0 0033.15 20.15Z"/>
  <path fill="var(--outline)" d="M 91.15 15.35 A 114.256 114.256 0 0 1 99.35 24.9 C 99.617 25.3 103.017 30.45 109.55 40.35 C 116.02 50.987 119.837 58.137 121 61.8 A 47.64 47.64 0 0 1 123.05 72.35 A 60.13 60.13 0 0 1 123.15 80.2 L 122.7 86.5 C 122.525 88.837 121.325 92.204 119.1 96.6 A 45.094 45.094 0 0 1 112.95 106.2 A 47.727 47.727 0 0 1 105 112.8 A 86.842 86.842 0 0 1 90.75 121.6 A 65.611 65.611 0 0 1 82.35 125 C 82.194 125.09 82.044 125.173 81.9 125.25 A 48.39 48.39 0 0 1 47.6 129.65 A 76.845 76.845 0 0 1 36.65 124.4 A 32.992 32.992 0 0 1 25.4 113.95 A 34.055 34.055 0 0 1 17.95 113.75 C 10.517 113.317 5.35 109.583 2.45 102.55 A 35.789 35.789 0 0 1 0.05 88.9 C 0.05 87.2 0.317 84.067 0.85 79.5 S 1.65 71.817 1.65 70.15 A 88.49 88.49 0 0 1 1.15 57 C 1.239 55.345 1.389 53.445 1.6 51.3 C 1.868 50.026 2.568 47.159 3.7 42.7 C 4.808 38.272 6.408 35.189 8.5 33.45 C 11.2 31.386 14.202 29.75 17.4 28.6 C 17.468 28.418 17.535 28.235 17.6 28.05 A 25.573 25.573 0 0 1 19.65 23.55 A 23.08 23.08 0 0 1 21.75 18.95 A 43.299 43.299 0 0 1 27.4 11.35 C 30.09 8.35 35.29 5.7 43 3.4 C 50.703 1.133 56.57 0 60.6 0 C 61.267 0 61.55 0.033 61.45 0.1 C 64.847 0.228 68.211 0.817 71.45 1.85 A 23.948 23.948 0 0 1 77.65 5.25 A 24.4 24.4 0 0 0 82.8 8.4 C 84.823 9.345 87.606 11.662 91.15 15.35 M 75.7 12.5 A 142.6 142.6 0 0 0 72.4 10.45 C 70.898 9.57 67.232 8.786 61.4 8.1 L 56.8 8.4 C 52.7 9.333 49.667 10.067 47.7 10.6 L 46 11.15 A 52.555 52.555 0 0 0 40.5 13.2 A 23.055 23.055 0 0 0 34.25 17.1 C 34.003 17.32 33.77 17.553 33.55 17.8 L 32.95 18.5 A 121.012 121.012 0 0 0 27.9 25.75 A 29.793 29.793 0 0 0 26.35 28.5 A 0.148 0.148 0 0 0 26.3 28.55 A 35.162 35.162 0 0 0 24.15 33.9 A 74.262 74.262 0 0 0 22.6 39.85 V 40.2 C 22.467 46.433 22.5 51.567 22.7 55.6 C 22.9 59.133 23.35 63.65 24.05 69.15 C 24.45 72.217 24.733 74.133 24.9 74.9 C 25 75.533 25.3 76.9 25.8 79 A 80.004 80.004 0 0 1 27.25 91.3 A 53.878 53.878 0 0 0 29.7 104 C 29.902 104.53 30.136 105.048 30.4 105.55 C 30.893 106.492 31.41 107.392 31.95 108.25 C 32.09 108.417 32.224 108.583 32.35 108.75 V 108.85 C 37.728 117.006 45.645 121.69 56.1 122.9 H 61.95 C 63.523 122.677 65.09 122.427 66.65 122.15 C 70.256 122.53 73.89 121.78 77.05 120 C 77.984 119.496 78.917 118.98 79.85 118.45 C 83.55 116.217 86 114.833 87.2 114.3 A 141.92 141.92 0 0 0 91.15 112.4 A 52.305 52.305 0 0 0 96.1 109.6 A 34.749 34.749 0 0 0 108.15 99.5 A 30.879 30.879 0 0 0 114.6 80.35 C 114.6 78.235 114.533 76.419 114.4 74.9 A 22.518 22.518 0 0 0 113.95 72 A 10.29 10.29 0 0 1 113.2 69.15 A 22.99 22.99 0 0 0 112.9 67.05 L 108.25 53.85 C 107.7667 52.8833 107.579 52.542 107.1 51.55 A 207.65 207.65 0 0 0 105 47.5 C 99.544 37.254 93.46 29.138 86.75 23.15 A 0.085 0.085 0 0 0 86.8 23.2 C 81.33 18.436 78.28 15.586 77.65 14.65 A 8.401 8.401 0 0 0 75.7 12.5 M 14.7 38.6 A 0.702 0.702 0 0 1 14.75 38.45 A 6.789 6.789 0 0 0 13.95 38.95 C 13.45 39.35 12.95 39.783 12.45 40.25 A 8.896 8.896 0 0 0 12 41.15 C 11.092 44.851 10.409 48.318 9.95 51.55 C 9.927 51.615 9.91 51.682 9.9 51.75 L 9.1 62 C 9.117 63.654 9.117 65.27 9.1 66.85 V 66.9 C 9.072 71.487 8.922 75.77 8.65 79.75 C 8.25 85.45 8.05 88.467 8.05 88.8 A 49.61 49.61 0 0 0 9.2 97.5 C 9.924 101.397 11.674 103.964 14.45 105.2 C 17.237 106.445 19.12 106.879 20.1 106.5 C 21.036 106.144 21.519 105.96 21.55 105.95 C 21.225 104.967 20.942 103.95 20.7 102.9 A 54.712 54.712 0 0 0 19.85 97.35 A 54.823 54.823 0 0 1 19.05 91.6 C 18.75 84.733 18.333 80.683 17.8 79.45 A 13.995 13.995 0 0 1 16.7 75.4 C 16.133 71.833 15.633 68.733 15.2 66.1 A 95.918 95.918 0 0 1 14.05 53.95 L 14.1 49.85 L 14.15 45.05 A 14.942 14.942 0 0 1 14.15 44.25 A 5.891 5.891 0 0 1 14.6 42 V 39.75 C 14.633 39.383 14.667 39 14.7 38.6 Z M 71.428 126.146 A 46.83 46.83 0 0 1 75.65 128.75 V 129.5 A 86.126 86.126 0 0 1 67.05 157.15 C 63.283 164.392 58.217 169.408 51.85 172.2 L 51 172.55 C 50.372 172.79 49.755 173.007 49.15 173.2 A 32.303 32.303 0 0 1 38.8 175.1 C 31.5 175.1 26.233 173.617 23 170.65 C 20.2 168.083 18.6 166.283 18.2 165.25 C 17.733 164.05 17.5 160.917 17.5 155.85 A 20.44 20.44 0 0 1 18.55 149.8 C 18.976 148.56 19.31 147.29 19.55 146 C 21.449 140.946 22.549 138.196 22.85 137.75 A 0.945 0.945 0 0 0 23 137.35 C 23.533 136.874 24.016 135.507 24.45 133.25 C 24.851 131.019 25.151 129.169 25.35 127.7 C 25.5 126.472 25.584 125.237 25.6 124 V 122.15 A 46.911 46.911 0 0 1 24.8 114.65 A 50.828 50.828 0 0 0 24.35 108.65 C 33.504 116.17 33.52 116.237 33.55 116.3 C 33.845 120.7 33.744 125.118 33.25 129.5 C 33.383 131.433 32.65 134.517 31.05 138.75 C 30.183 141.05 29 144.083 27.5 147.85 A 40.44 40.44 0 0 0 26.2 153.25 A 35.282 35.282 0 0 0 25.55 158.8 C 25.55 160.8 25.85 162.167 26.45 162.9 C 28.283 165.233 32.5 166.4 39.1 166.4 C 44.567 166.4 48.75 165.433 51.65 163.5 A 16.837 16.837 0 0 0 54.3 161.1 C 55.299 160.055 56.499 158.688 57.9 157 C 58.13 156.723 58.363 156.44 58.6 156.15 A 43.536 43.536 0 0 0 65.65 141.05 A 44.86 44.86 0 0 0 67.6 129.5 A 6.522 6.522 0 0 1 67.6 128.85 A 71.22 71.22 0 0 1 67.6 125.6 C 67.596 125.41 67.596 125.21 67.6 125 Z M 83.8 129.25 C 83.912 130.007 83.995 130.774 84.05 131.55 C 84.214 133.78 84.23 136.018 84.1 138.25 C 83.433 144.083 83.1 147.85 83.1 149.55 C 83.179 151.676 83.38 153.796 83.7 155.9 A 7.277 7.277 0 0 0 86.25 160.4 C 88.483 162.4 91.7 163.4 95.9 163.4 A 16.8 16.8 0 0 0 109.05 157.8 A 21.178 21.178 0 0 0 111.75 153.95 C 112.105 153.314 112.438 152.647 112.75 151.95 C 114.983 147.084 116.1 141.068 116.1 133.9 C 116.1 124.533 115.483 117.233 114.25 112 A 110.741 110.741 0 0 1 113.45 108.4 C 113.262 107.48 113.078 106.563 112.9 105.65 C 112.602 104.38 112.302 103.113 112 101.85 A 5.05 5.05 0 0 1 118.6 97.55 A 6.653 6.653 0 0 1 120.4 101.2 C 121.002 104.792 121.602 108.392 122.2 112 C 122.533 114.1 122.917 117.617 123.35 122.55 C 123.783 126.95 124 129.517 124 130.25 C 124 157.85 114.583 171.65 95.75 171.65 C 87.783 171.65 82.133 169.267 78.8 164.5 C 76.3 160.9 75.05 155.75 75.05 149.05 C 75.065 146.741 75.232 144.436 75.55 142.15 C 75.917 139.65 76.1 138.35 76.1 138.25 A 209.663 209.663 0 0 0 76.05 134.4 C 76.05 133.533 76.067 132.667 76.1 131.8 L 76 131.4 A 25.04 25.04 0 0 0 74.3 127 A 4.972 4.972 0 0 1 82.196 124.336 A 20.328 20.328 0 0 1 83.8 129.25 Z"/>
  <path fill="#422E8B" d="m33.05 20.35.1-.2c.03-.124.08-.243.15-.35.035-.138.086-.273.15-.4l.05-.05c-.09.225-.173.442-.25.65-.102.258-.202.508-.3.75v-.2l.1-.2Z"/>
  <path fill="#4E7A8D" d="M53.735 20.016a8.419 8.419 0 0 0-1.47 3.76l-.01.149a.214.214 0 0 0-.085.142.214.214 0 0 1-.085.143l-.05.666c-.069.265-.09.541-.06.814a.687.687 0 0 1-.033.444.21.21 0 0 1 .063.153c.035.201.068.427.099.677l-.033.444-.016.222c.203.67.48 1.314.825 1.922a4.59 4.59 0 0 0 1.73 1.765 16.302 16.302 0 0 0 4.473 1.894c.654.15 1.318.248 1.987.296a.214.214 0 0 1 .154-.063 156.937 156.937 0 0 0 13.039-2.234 86.648 86.648 0 0 1 22.893-1.654 3.13 3.13 0 0 0 1.025-1.784l.038-.518.104-1.406.055-.74a8.461 8.461 0 0 0-.334-1.513 12.09 12.09 0 0 1 1.554 6.142c.024.347.023.695-.003 1.042l-.005.074c-.051.69-.122 1.306-.211 1.845-.236 1.173-.583 1.842-1.042 2.006-1.129.512-5.073.517-11.833.017a27.574 27.574 0 0 0-11.663 1.74 34.424 34.424 0 0 0-3.382 1.462.863.863 0 0 1-.233.131 47.986 47.986 0 0 1-5.077 2.229 23.781 23.781 0 0 1-4.095 1.036 15.18 15.18 0 0 1-3.812.239l-.519-.039-1.4-.178a15.783 15.783 0 0 1-6.85-2.963 9.76 9.76 0 0 1-4.021-9.004l2.29-4.816c.38-.418.782-.835 1.21-1.25l.392-.268.08-.069a26.753 26.753 0 0 1 4.31-2.955Z"/>
  <path fill="#90C3D0" d="M52.266 23.777a8.419 8.419 0 0 1 1.469-3.761A61.269 61.269 0 0 1 57.6 18.07a50.5 50.5 0 0 1 16.032-4.47.313.313 0 0 0-.154.063 8.665 8.665 0 0 0-1.825.535 4.846 4.846 0 0 0-.551.406.214.214 0 0 0-.085.142.066.066 0 0 0-.08.069.214.214 0 0 1-.085.142.214.214 0 0 1-.085.143l-.01.148a1.4 1.4 0 0 0-.108.438l-.01.148-.006.074-.011.148c0 .058.022.113.063.154l-.011.148c.04.04.063.096.063.153a.22.22 0 0 1 .063.154c0 .057.022.113.063.153 0 .058.022.113.063.154.19.27.462.473.776.578.493.187 1.011.3 1.537.337a79.929 79.929 0 0 0 3.432-.118 5.72 5.72 0 0 0 2.056.376l.148.01c.116.053.239.088.365.102.49.086.98.147 1.474.184.975.271 1.92.64 2.82 1.102a34.764 34.764 0 0 0 4.633 1.757c.407.129.838.16 1.258.093a2.402 2.402 0 0 0 1.851-1.872l.011-.148a.214.214 0 0 1 .085-.143l.011-.148.011-.148a.066.066 0 0 1-.069-.08l.011-.147.011-.148a.214.214 0 0 1-.063-.154l.011-.148a.214.214 0 0 1-.063-.153 4.054 4.054 0 0 0-1.387-1.368 20.745 20.745 0 0 0-6.296-2.401 24.75 24.75 0 0 1-1.982-.37c-2.019-.2-4.017-.347-5.994-.444a3.44 3.44 0 0 0-.672.025l-.222-.017a39.97 39.97 0 0 1 5.954-.005 23.953 23.953 0 0 1 12.74 4.812 15.97 15.97 0 0 1 4.67 5.258c.158.493.27 1 .335 1.513l-.055.74-.104 1.406-.038.518a3.13 3.13 0 0 1-1.025 1.784c-7.67-.466-15.37.09-22.893 1.654a156.937 156.937 0 0 1-13.04 2.234.214.214 0 0 0-.153.063 13.165 13.165 0 0 1-1.987-.296 16.302 16.302 0 0 1-4.474-1.894 4.59 4.59 0 0 1-1.73-1.765 9.46 9.46 0 0 1-.824-1.921l.016-.222.033-.444a14.48 14.48 0 0 0-.099-.677.214.214 0 0 0-.063-.154.687.687 0 0 0 .033-.444 2.254 2.254 0 0 1 .06-.814l.05-.666a.214.214 0 0 0 .085-.143.214.214 0 0 1 .085-.142l.01-.148Z"/>
  <path fill="#091628" d="M38.106 30.095c.423-5.723 3.302-10.769 8.636-15.136 8.132-6.64 20.292-9.064 36.48-7.27a7.9 7.9 0 0 1 1.105.156c.44.082.856.163 1.247.241.822.158 1.626.392 2.404.7.298.072.59.168.872.287 7.225 2.916 12.189 7.575 14.89 13.976a24.548 24.548 0 0 1 1.875 6.836c.151.939.206 1.89.161 2.84a14.245 14.245 0 0 1-2.505 7.702c-2.317 3.153-5.98 4.047-10.988 2.684-4.28-1.16-10.213-.434-17.798 2.18-8.35 2.903-14.327 4.222-17.929 3.955-5.18-.383-9.693-2.751-13.538-7.104-3.57-4.035-5.208-8.05-4.912-12.047M57.6 18.07a61.265 61.265 0 0 0-3.865 1.946 26.753 26.753 0 0 0-4.312 2.955l-.08.069-.391.268c-.428.415-.83.832-1.21 1.25l-2.29 4.816a9.76 9.76 0 0 0 4.02 9.004 15.783 15.783 0 0 0 6.85 2.963l1.401.178.519.039c1.275.082 2.557.002 3.812-.239a23.781 23.781 0 0 0 4.095-1.036 47.986 47.986 0 0 0 5.077-2.229.863.863 0 0 0 .233-.131c1.1-.547 2.23-1.035 3.382-1.461a27.574 27.574 0 0 1 11.663-1.741c6.76.5 10.704.495 11.833-.017.459-.164.806-.833 1.042-2.006.09-.54.16-1.154.21-1.845l.006-.074c.026-.347.027-.695.003-1.042.037-2.149-.5-4.27-1.554-6.142a15.97 15.97 0 0 0-4.671-5.258 23.953 23.953 0 0 0-12.74-4.812 39.97 39.97 0 0 0-5.954.005 2.18 2.18 0 0 0-.524.036 1.4 1.4 0 0 0-.45.04l-.073-.005A50.5 50.5 0 0 0 57.6 18.07Z"/>
  <path fill="#FFF" d="M74.9 13.547a3.44 3.44 0 0 1 .672-.025c1.978.097 3.976.245 5.995.444.634.146 1.295.27 1.982.37a20.745 20.745 0 0 1 6.296 2.4 4.054 4.054 0 0 1 1.387 1.369c0 .057.022.112.063.153l-.01.148a.211.211 0 0 0 .062.154l-.01.148-.012.148a.066.066 0 0 0 .069.079l-.011.148-.011.148a.214.214 0 0 0-.085.143l-.011.148a2.403 2.403 0 0 1-1.85 1.872 2.727 2.727 0 0 1-1.259-.093 34.543 34.543 0 0 1-4.632-1.757c-.9-.462-1.846-.83-2.82-1.102a14.908 14.908 0 0 1-1.475-.184 1.221 1.221 0 0 1-.365-.101l-.148-.011a5.72 5.72 0 0 1-2.056-.376c-1.145.064-2.29.104-3.431.118a5.395 5.395 0 0 1-1.538-.337 1.56 1.56 0 0 1-.776-.578.214.214 0 0 1-.063-.154.214.214 0 0 1-.063-.153.214.214 0 0 0-.063-.154.214.214 0 0 0-.063-.153l.011-.148a.214.214 0 0 1-.063-.154l.011-.148.005-.074.011-.148a1.4 1.4 0 0 1 .107-.438l.011-.148a.214.214 0 0 0 .085-.143.214.214 0 0 0 .085-.142.066.066 0 0 1 .08-.069.214.214 0 0 1 .085-.142c.174-.148.358-.284.55-.406a8.701 8.701 0 0 1 1.826-.534.313.313 0 0 1 .154-.063l.074.005a1.4 1.4 0 0 1 .45-.041 2.18 2.18 0 0 1 .523-.036l.222.017Z"/>  
</svg>
