<svg xmlns="http://www.w3.org/2000/svg" viewBox="0 0 130 147">
  <path fill="var(--body)" d="M50.427 7.652c.098.028.198.045.3.05l4.65.9c.254.077.52.143.8.2-.25.026-.5.026-.75 0a49.879 49.879 0 0 0-7.4-.15 78.79 78.79 0 0 0-8.15 1.15c-1.208.334-3.175.984-5.9 1.95a19.364 19.364 0 0 0-6.6 3.65 14.75 14.75 0 0 1-.5.75c-.2.267-.4.517-.6.75-.13.128-.232.281-.3.45a6.633 6.633 0 0 1-.8 1.1 1.13 1.13 0 0 0-.15.35l-.1.4-.2.7a.888.888 0 0 1-.1.4 4.68 4.68 0 0 1-.1.35v9.05c.2.335.32.712.35 1.1.033.367.067.75.1 1.15.033.6.05 1.217.05 1.85v1.9c.174.38.375.748.6 1.1.191.343.326.715.4 1.1a5.53 5.53 0 0 0 .4 1.5l.3.8c.13.355.215.724.25 1.1.033.131.05.266.05.4.165.232.3.484.4.75a25.832 25.832 0 0 0 1.15 2.95c.428.984.762 2.005 1 3.05.202.772.47 1.525.8 2.25.265.462.435.972.5 1.5a11.554 11.554 0 0 1 1.65 3.7 9.117 9.117 0 0 0 1.75 3.5c.6.734 1.233 1.45 1.9 2.15.426.422.75.935.95 1.5.993.86 1.883 1.833 2.65 2.9 1.033 1.434 2 2.9 2.9 4.4.566.934 1.15 1.9 1.75 2.9.266.467.55.95.85 1.45a6.571 6.571 0 0 1 2.15 3.35c.5 1.734 1.05 3.5 1.65 5.3a75.23 75.23 0 0 0 1.85 4.8c.3.737.502 1.51.6 2.3a30.772 30.772 0 0 0 8.85 11.35 21.833 21.833 0 0 1 5.6 2.35c3.236.4 6.506.434 9.75.1a33.777 33.777 0 0 0 16.6-6.25 19.366 19.366 0 0 0 2.55-2.15 32.893 32.893 0 0 0 7.95-12.4 6.292 6.292 0 0 0 .45-2.05l.05-.5a33.474 33.474 0 0 1-1.15 7.85 78.705 78.705 0 0 1-2.65 8.15 57.16 57.16 0 0 1-.7 1.8c-1.217 2.823-5.017 6.073-11.4 9.75-.286.16-.57.31-.85.45-6.9 3.898-11.166 5.848-12.8 5.85a35.209 35.209 0 0 0-4.2.65l-.8.15a27.123 27.123 0 0 1-4.25.5c-7.333 0-13.083-1.25-17.25-3.75-4.4-2.666-8.233-7.383-11.5-14.15-.733-1.5-2.717-5.983-5.95-13.45-2.433-5.666-4-8.966-4.7-9.9-2.7-3.533-5.683-9.6-8.95-18.2-2.833-7.466-4.25-11.85-4.25-13.15-.003-7.548 1.514-13.948 4.55-19.2a29.203 29.203 0 0 1 5-6.4c6.365-6.097 12.182-9.38 17.45-9.85a78.167 78.167 0 0 1 11.5-.35ZM53.327 91.052a.402.402 0 0 0 .1-.1c.251-.204.54-.357.85-.45.062.033.13.05.2.05h.15l.1.1.2.1a.044.044 0 0 1 .05.05l.1.1.1.1a.71.71 0 0 1 .1.4v.25a10.71 10.71 0 0 0 1.7 3.7 70.054 70.054 0 0 0 3.35 4.35 85.032 85.032 0 0 1 2.1-2.95c.067-.09.134-.173.2-.25a1.76 1.76 0 0 1 .35-1.2c.093-.063.194-.113.3-.15.128-.064.262-.114.4-.15.062.033.13.05.2.05h.15l.1.1c.055.026.106.06.15.1.033 0 .067.034.1.1a.044.044 0 0 1 .05.05l.1.1c.032.062.05.13.05.2.03.026.048.062.05.1a.14.14 0 0 0 .05.1v.1c.04.081.073.165.1.25.031.195.1.381.2.55a.537.537 0 0 1 .1.3l.3 1.7c.068.473.168.941.3 1.4.219.938.419 1.87.6 2.8-.084.25-.168.482-.25.7l-1.15 1.8a.765.765 0 0 0-.05.05c-.066-.333-.116-.65-.15-.95v-.55l-.1-.2a.444.444 0 0 0-.05-.2v-3.95a1.469 1.469 0 0 0-.1-.55l-.15-.15a.566.566 0 0 0-.2-.2 5.9 5.9 0 0 1-.4-.35.282.282 0 0 1-.1-.05c-.166-.033-.35-.066-.55-.1-.149.03-.299.064-.45.1a.113.113 0 0 1-.05.05 1.11 1.11 0 0 0-.35.15l-.2.2a1.372 1.372 0 0 0-.25.35c-.09.174-.158.36-.2.55a16.86 16.86 0 0 0-.55.75 15.92 15.92 0 0 0-1.1 1.75 2.253 2.253 0 0 0-.2.3.144.144 0 0 0-.05.1 27.368 27.368 0 0 1-1.8-1.55l-2.55-2.7a1.28 1.28 0 0 1-.15-.25c-.007.035-.007.051 0 .05a16.525 16.525 0 0 1-.45-.55.204.204 0 0 1-.15-.05 1.94 1.94 0 0 1-.25-.1 1.372 1.372 0 0 0-.35.25c-.066.1-.15.217-.25.35-.07.141-.154.275-.25.4-.073.13-.14.264-.2.4a4.1 4.1 0 0 0-.15.35 4.952 4.952 0 0 0-.25.75.183.183 0 0 0 .05.1.556.556 0 0 0 .05.25.33.33 0 0 0 .05.2l.65 2.3c.08.274.18.542.3.8a10.401 10.401 0 0 1-1.1-2.2 8.883 8.883 0 0 1-.55-2.05 15.394 15.394 0 0 1-.05-5.1c.167-.6.334-1.166.5-1.7a.58.58 0 0 1 .05-.1.717.717 0 0 1 0-.2c.07-.427.261-.826.55-1.15-.011-.01-.011-.026 0-.05m-10.15-8.05a69.39 69.39 0 0 0-3.5.55c-.924.2-1.874.417-2.85.65a6.87 6.87 0 0 0-2.45 1.15c-.49.371-.958.772-1.4 1.2-.22.23-.455.447-.7.65a39.92 39.92 0 0 1-.75 2.15 12.993 12.993 0 0 0-.8 2.35c-.2.767-.416 1.517-.65 2.25a1.47 1.47 0 0 0-.05.35v1.9a85.59 85.59 0 0 0 1.25 4.55 27.04 27.04 0 0 0 3.55 7.65c.867 1.3 1.717 2.6 2.55 3.9a18.423 18.423 0 0 0 7.8 4.65c1.7.467 3.4.967 5.1 1.5h5.1c1.263-.303 2.53-.603 3.8-.9v.4a6.46 6.46 0 0 0-.3 1.15 6.574 6.574 0 0 1-.4 1.3 16.528 16.528 0 0 1-1.8 3.15c-1.866 1.6-5.333 2.4-10.4 2.4a14.311 14.311 0 0 1-8.15-2.35c-2.374-1.528-4.874-4.295-7.5-8.3-.11-.228-.227-.462-.35-.7a210.047 210.047 0 0 1-1.95-6.55c-1.133-3.933-1.583-6.483-1.35-7.65.03-1.696.214-3.386.55-5.05a22.754 22.754 0 0 1 5.65-11.3c.2-.066.417-.133.65-.2.267-.1.55-.2.85-.3.234-.066.484-.15.75-.25.081-.039.165-.072.25-.1a45.59 45.59 0 0 1 7.5-.2ZM75.427 21.752c.702-.01 1.404-.06 2.1-.15.926-.14 1.776-.273 2.55-.4l4.95-.7h.25a21.36 21.36 0 0 1 4.9.55 88.408 88.408 0 0 1 12.35 15 86.818 86.818 0 0 1 11.5 26.15l.3.7a8.7 8.7 0 0 1 .7 3.1c1.972-.07 3.946.03 5.9.3.03.295.046.579.05.85a22.725 22.725 0 0 1-.65 6.35c-.13.431-.296.85-.5 1.25a41.138 41.138 0 0 1-4.85 6.8c-3.138 3.774-4.788 5.824-4.95 6.15a2.02 2.02 0 0 1-.4.3 1.694 1.694 0 0 1-.6.3h-5.1a8.739 8.739 0 0 1-2.15-1.1 14.018 14.018 0 0 1-1.6-1.55c-.2-.233-.417-.466-.65-.7a47.946 47.946 0 0 1-1.4-7.5 38.233 38.233 0 0 0-2.8-10.5 1.572 1.572 0 0 0-.3-.4c-1.433-3.5-2.883-7-4.35-10.5a46.135 46.135 0 0 0-6.9-11.65 52.662 52.662 0 0 1-2.85-5.25 27.857 27.857 0 0 0-4.75-7.1c-.3-.633-.567-1.266-.8-1.9a10.677 10.677 0 0 0-1.6-3.05 6.621 6.621 0 0 1-.75-1.45c.282-.215.535-.467.75-.75.167-.233.35-.466.55-.7l.6-.8c.033-.1.067-.216.1-.35a1.89 1.89 0 0 0 .15-.4c.033-.1.067-.216.1-.35v-.4a1.97 1.97 0 0 0 .15-.15ZM84.456 98.767a65.726 65.726 0 0 0 3.21-1.738 24.51 24.51 0 0 1 3.492-1.553c.229.799.508 1.582.835 2.346.375.784.762 1.62 1.158 2.507l.325.563a27.005 27.005 0 0 0 5.088 6.012 35.237 35.237 0 0 0 3.529 2.812c-.522.224-1.03.48-1.523.763a69.546 69.546 0 0 0-1.714 3.53 80.187 80.187 0 0 1-1.457 2.978c.009.157.003.315-.016.471a1.77 1.77 0 0 0 .015.626 5 5 0 0 0 .158.775.44.44 0 0 1 .057.198l.175.303.1.173.1.174a44.176 44.176 0 0 0 2.093 2.024c1.1.993 2.3 1.867 3.584 2.608a46.63 46.63 0 0 1 3.153 2.163c.23.061.452.146.665.251.266.121.521.263.765.425.295.177.57.386.821.622a.809.809 0 0 0 .23.099 11.094 11.094 0 0 0 5.802.749 4.851 4.851 0 0 0 1.084-.222 19.001 19.001 0 0 0 5.848-2.972l-.201.752-.846 2.335a1.98 1.98 0 0 0-.135.367 27.1 27.1 0 0 1-1.438 2.909 12.173 12.173 0 0 1-3.713 4.568 17.636 17.636 0 0 1-6.061 2.402 12.895 12.895 0 0 1-7.478-1.052 93.908 93.908 0 0 0-9.137-3.327c-3.607-1.112-5.975-1.881-7.105-2.306a48.046 48.046 0 0 1-6.153-4.358c-3.46-2.66-5.307-4.191-5.54-4.595-1.952-4.647-2.795-7.875-2.53-9.683.02-.17.017-.344-.009-.514a3.547 3.547 0 0 1-.095-.465.823.823 0 0 1-.081-.241c.17-.256.357-.5.56-.728 4.091-4.248 8.22-8.498 12.385-12.75Z"/>
  <path fill="var(--shadow)" d="M102.527 36.052a88.408 88.408 0 0 0-12.35-15 18.533 18.533 0 0 1 9.4 5.95c3.77 4.33 6.453 7.63 8.05 9.9a84.174 84.174 0 0 1 4.7 7.75c1.535 2.936 3.352 6.77 5.45 11.5a34.34 34.34 0 0 1 3.15 10.15 34.097 34.097 0 0 0-5.9-.3 8.7 8.7 0 0 0-.7-3.1l-.3-.7a86.818 86.818 0 0 0-11.5-26.15ZM97.383 117.458c.02-.156.025-.314.016-.471.508-.987.994-1.979 1.457-2.977a69.495 69.495 0 0 1 1.714-3.53c.492-.285 1-.54 1.523-.764a46.775 46.775 0 0 0 7.597 4.159c3.645 1.513 6.182 2.608 7.611 3.284 2.383 1.126 3.924 2.296 4.624 3.508.7 1.213.669 3.059-.093 5.539l.2-.752a19.001 19.001 0 0 1-5.847 2.972c-.351.115-.715.19-1.084.222-1.966.274-3.97.015-5.802-.75a.783.783 0 0 1-.23-.098 4.776 4.776 0 0 0-.821-.622 5.572 5.572 0 0 0-.765-.425 3.603 3.603 0 0 0-.665-.251 46.65 46.65 0 0 0-3.153-2.163 21.081 21.081 0 0 1-3.584-2.608 44.214 44.214 0 0 1-2.093-2.024l-.1-.174-.1-.173-.175-.303a.444.444 0 0 0-.057-.198 4.953 4.953 0 0 1-.158-.775 1.77 1.77 0 0 1-.015-.626ZM55.427 8.802c.25.026.5.026.75 0a9.066 9.066 0 0 1-.8-.2c1.371.365 2.871.815 4.5 1.35a71.436 71.436 0 0 1 7.25 2.75c.916.5 1.833 1.016 2.75 1.55a82.902 82.902 0 0 1 7.25 5.65c1.5 1.234 3.633 3.834 6.4 7.8.3.434 1.733 2.75 4.3 6.95 2.033 3.467 4.433 7.934 7.2 13.4l2.05 5.1a62.792 62.792 0 0 1 3.05 10.5c.233 1.234.817 3.5 1.75 6.8a46.85 46.85 0 0 1 1.4 8.15c.046.762.063 1.529.05 2.3l-.05.5a6.292 6.292 0 0 1-.45 2.05 32.893 32.893 0 0 1-7.95 12.4 19.366 19.366 0 0 1-2.55 2.15 33.777 33.777 0 0 1-16.6 6.25 43.31 43.31 0 0 1-9.75-.1 21.833 21.833 0 0 0-5.6-2.35 30.772 30.772 0 0 1-8.85-11.35 8.99 8.99 0 0 0-.6-2.3 75.27 75.27 0 0 1-1.85-4.8c-.6-1.8-1.15-3.566-1.65-5.3a6.571 6.571 0 0 0-2.15-3.35c-.3-.5-.583-.983-.85-1.45-.6-1-1.184-1.966-1.75-2.9a62.84 62.84 0 0 0-2.9-4.4 16.807 16.807 0 0 0-2.65-2.9 3.963 3.963 0 0 0-.95-1.5c-.667-.7-1.3-1.416-1.9-2.15a9.117 9.117 0 0 1-1.75-3.5 11.554 11.554 0 0 0-1.65-3.7 3.991 3.991 0 0 0-.5-1.5 13.912 13.912 0 0 1-.8-2.25 17.184 17.184 0 0 0-1-3.05 25.832 25.832 0 0 1-1.15-2.95 3.254 3.254 0 0 0-.4-.75c0-.134-.017-.269-.05-.4a4.363 4.363 0 0 0-.25-1.1l-.3-.8a5.53 5.53 0 0 1-.4-1.5 3.666 3.666 0 0 0-.4-1.1 8.952 8.952 0 0 1-.6-1.1v-1.9c0-.633-.017-1.25-.05-1.85a155.3 155.3 0 0 0-.1-1.15 2.512 2.512 0 0 0-.35-1.1v-9.05c.033-.1.067-.216.1-.35a.888.888 0 0 0 .1-.4l.2-.7.1-.4c.03-.124.08-.242.15-.35a6.55 6.55 0 0 0 .8-1.1c.068-.168.17-.322.3-.45.2-.233.4-.483.6-.75.167-.233.333-.483.5-.75a19.364 19.364 0 0 1 6.6-3.65c2.725-.966 4.692-1.616 5.9-1.95a78.624 78.624 0 0 1 8.15-1.15 49.879 49.879 0 0 1 7.4.15ZM55.127 98.102c.04.09.09.173.15.25a3.317 3.317 0 0 1-.15-.2c-.007.001-.007-.015 0-.05m-15.45-14.55c.889-.17 2.055-.353 3.5-.55a39.875 39.875 0 0 1 18.95 6.3l.05.05a25.48 25.48 0 0 0 7.15 3.15 27.23 27.23 0 0 1-1.15 3.4 23.382 23.382 0 0 0-1.35 4.85 11.363 11.363 0 0 1-.8 2.95c.082-.218.165-.45.25-.7a78.523 78.523 0 0 0-.6-2.8 10.443 10.443 0 0 1-.3-1.4l-.3-1.7a.537.537 0 0 0-.1-.3 1.556 1.556 0 0 1-.2-.55 1.962 1.962 0 0 0-.1-.25v-.1a.144.144 0 0 1-.05-.1.144.144 0 0 0-.05-.1.444.444 0 0 0-.05-.2l-.1-.1a.044.044 0 0 0-.05-.05c-.033-.066-.067-.1-.1-.1a.583.583 0 0 0-.15-.1l-.1-.1h-.15a.443.443 0 0 1-.2-.05 1.952 1.952 0 0 0-.4.15 1.263 1.263 0 0 0-.3.15 1.76 1.76 0 0 0-.35 1.2 4.15 4.15 0 0 0-.2.25 84.96 84.96 0 0 0-2.1 2.95 70.09 70.09 0 0 1-3.35-4.35 10.725 10.725 0 0 1-1.7-3.7v-.25a.711.711 0 0 0-.1-.4l-.1-.1-.1-.1a.044.044 0 0 0-.05-.05l-.2-.1-.1-.1h-.15a.443.443 0 0 1-.2-.05c-.31.093-.599.246-.85.45a.402.402 0 0 1-.1.1c-.012.024-.012.04 0 .05-.29.324-.48.722-.55 1.15a.717.717 0 0 0 0 .2.58.58 0 0 0-.05.1 55.87 55.87 0 0 0-.5 1.7 15.394 15.394 0 0 0 .05 5.1c.1.703.285 1.391.55 2.05.278.775.647 1.513 1.1 2.2a5.569 5.569 0 0 1-.3-.8 20.254 20.254 0 0 0 2.85 5.35 11.688 11.688 0 0 1 2.2 5.3c.068.64.237 1.264.5 1.85v2.25c-1.271.297-2.538.597-3.8.9h-5.1c-1.7-.533-3.4-1.033-5.1-1.5a18.423 18.423 0 0 1-7.8-4.65c-.834-1.3-1.684-2.6-2.55-3.9a27.04 27.04 0 0 1-3.55-7.65 84.734 84.734 0 0 1-1.25-4.55v-1.9a1.47 1.47 0 0 1 .05-.35c.233-.733.45-1.483.65-2.25.19-.807.459-1.594.8-2.35.266-.7.516-1.416.75-2.15.245-.203.479-.42.7-.65.441-.428.909-.829 1.4-1.2a6.87 6.87 0 0 1 2.45-1.15c.976-.233 1.926-.45 2.85-.65Z"/>
  <path fill="var(--outline)" d="M95.828 105.964C101.064 98.667 103.159 100.729 106.646 103.103 107.766 103.843 109.796 105.057 112.734 106.748 116.358 108.158 119.067 109.25 120.86 110.023A14.122 14.122 0 01127.913 115.94C129.847 119.288 130.436 123.643 129.683 129.005 128.929 134.367 125.188 139.086 118.459 143.164 111.729 147.241 103.753 147.459 94.529 143.816 85.317 140.127 78.549 136.703 74.222 133.543 70.377 130.683 67.837 128.184 66.604 126.048L65.709 124.198C71.431 115.275 72.274 118.503 74.226 123.15 74.459 123.554 76.306 125.086 79.766 127.745A48.046 48.046 0 0085.919 132.103C87.049 132.528 89.418 133.296 93.024 134.409 96.124 135.359 99.174 136.47 102.161 137.736A12.895 12.895 0 00109.639 138.788 17.636 17.636 0 00115.699 136.386 12.173 12.173 0 00119.413 131.818 27.1 27.1 0 00120.851 128.908 1.98 1.98 0 01120.986 128.542L121.832 126.207C122.594 123.727 122.625 121.881 121.925 120.668 121.225 119.456 119.684 118.286 117.301 117.16 115.871 116.484 113.335 115.39 109.69 113.876A46.775 46.775 0 01102.093 109.717ZM78.378 12.468C79.183 12.302 80.875 12.068 82.577 12.002 87.147 11.999 92.697 13.865 99.227 17.602 105.717 21.38 111.334 27.43 116.077 35.752A133.537 133.537 0 01126.077 56.452C128.007 61.956 128.974 66.222 128.977 69.252 128.977 73.919 126.927 79.069 122.827 84.702 118.927 90.036 114.827 93.702 110.527 95.702 106.84 97.082 106.309 96.407 107.419 95.924L109.011 80.294C110.189 87.376 107.178 86.759 114.977 81.552A41.138 41.138 0 00119.827 74.752C120.03 74.352 120.197 73.933 120.327 73.502A22.74 22.74 0 00120.977 67.152 9.747 9.747 0 00120.927 66.302 34.34 34.34 0 00117.777 56.152C115.679 51.422 113.862 47.588 112.327 44.652A84.174 84.174 0 00107.627 36.902C106.03 34.632 103.347 31.332 99.577 27.002A18.529 18.529 0 0090.177 21.052 21.36 21.36 0 0085.277 20.502ZM38.727.402C48.313-.472 55.88.078 61.427 2.052A81.906 81.906 0 0174.177 7.602C77.13 9.352 81.13 12.619 86.177 17.402 91.235 22.219 96.567 31.269 102.177 44.552 107.746 57.882 110.529 69.749 110.527 80.152 110.527 93.619 106.494 103.836 98.427 110.802A49.334 49.334 0 0187.377 117.802C84.844 119.036 81.244 120.652 76.577 122.652 68.533 124.164 63.383 124.864 61.127 124.752 55.807 136.698 25.715 135.078 20.941 102.514A7185.805 7185.805 0 0021.727 87.152C16.894 76.986 13.46 70.302 11.427 67.102 9.46 64.036 7.61 59.419 5.877 53.252 4.544 47.652 3.877 44.819 3.877 44.752 3.877 31.984 7.294 21.617 14.127 13.652 20.937 5.69 29.137 1.274 38.727.402M50.727 7.702A1.364 1.364 0 0150.427 7.652 78.102 78.102 0 0038.927 8.002C33.659 8.472 27.843 11.755 21.477 17.852A29.203 29.203 0 0016.477 24.252C13.441 29.504 11.924 35.904 11.927 43.452 11.927 44.752 13.344 49.136 16.177 56.602 19.444 65.202 22.427 71.269 25.127 74.802 25.827 75.736 27.394 79.036 29.827 84.702 23.669 93.818 23.925 96.972 26.738 106.52 32.62 135.163 60.069 129.537 62.243 115.264A27.123 27.123 0 0068.777 115.552L69.577 115.402A35.209 35.209 0 0173.777 114.752C75.411 114.75 79.677 112.8 86.577 108.902 86.857 108.762 87.141 108.612 87.427 108.452 93.811 104.775 97.611 101.525 98.827 98.702A57.03 57.03 0 0099.527 96.902 78.705 78.705 0 00102.177 88.752 33.474 33.474 0 00103.327 80.902 29.59 29.59 0 00103.277 78.602 46.85 46.85 0 00101.877 70.452C100.944 67.152 100.36 64.886 100.127 63.652A62.792 62.792 0 0097.077 53.152L95.027 48.052C92.26 42.586 89.86 38.119 87.827 34.652 85.26 30.452 83.827 28.136 83.527 27.702 80.76 23.736 78.627 21.136 77.127 19.902A82.902 82.902 0 0069.877 14.252 114.04 114.04 0 0067.127 12.702 71.436 71.436 0 0059.877 9.952 81.161 81.161 0 0055.377 8.602L50.727 7.702ZM35.677 83.202C35.591 83.23 35.507 83.263 35.427 83.302A9.89 9.89 0 0134.677 83.552C34.377 83.652 34.094 83.752 33.827 83.852A17.6 17.6 0 0033.177 84.052 22.754 22.754 0 0027.527 95.352 27.974 27.974 0 0026.977 100.402C26.744 101.569 27.194 104.119 28.327 108.052A209.722 209.722 0 0030.277 114.602C30.4 114.84 30.517 115.074 30.627 115.302 33.253 119.307 35.753 122.074 38.127 123.602A14.311 14.311 0 0046.277 125.952C51.344 125.952 54.81 125.152 56.677 123.552A16.528 16.528 0 0058.477 120.402 6.56 6.56 0 0058.877 119.102 6.46 6.46 0 0159.177 117.952V115.302A6.103 6.103 0 0158.677 113.452 11.688 11.688 0 0056.477 108.152 20.254 20.254 0 0153.627 102.802L52.977 100.502A.324.324 0 0152.927 100.302.556.556 0 0152.877 100.052.183.183 0 0152.827 99.952C52.89 99.696 52.974 99.445 53.077 99.202 53.122 99.082 53.172 98.965 53.227 98.852 53.287 98.716 53.353 98.582 53.427 98.452 53.522 98.327 53.606 98.192 53.677 98.052 53.777 97.919 53.86 97.802 53.927 97.702 54.03 97.601 54.147 97.516 54.277 97.452 54.358 97.492 54.442 97.525 54.527 97.552A.204.204 0 0054.677 97.602C54.828 97.795 54.978 97.978 55.127 98.152 55.179 98.226 55.229 98.293 55.277 98.352L57.827 101.052C58.394 101.586 58.994 102.102 59.627 102.602A.144.144 0 0159.677 102.502C59.736 102.397 59.802 102.297 59.877 102.202A15.92 15.92 0 0160.977 100.452C61.145 100.208 61.328 99.958 61.527 99.702 61.569 99.511 61.637 99.326 61.727 99.152 61.791 99.023 61.875 98.905 61.977 98.802L62.177 98.602C62.284 98.532 62.403 98.482 62.527 98.452A.113.113 0 0062.577 98.402C62.727 98.365 62.877 98.332 63.027 98.302 63.227 98.336 63.41 98.369 63.577 98.402 63.607 98.426 63.641 98.442 63.677 98.452 63.805 98.574 63.937 98.692 64.077 98.802A.566.566 0 0164.277 99.002L64.427 99.152C64.495 99.328 64.529 99.514 64.527 99.702V103.652C64.559 103.714 64.577 103.782 64.577 103.852L64.677 104.052V104.602C64.71 104.902 64.76 105.219 64.827 105.552 64.894 105.786 64.96 106.036 65.027 106.302 65.088 106.482 65.138 106.666 65.177 106.852 65.277 107.152 65.377 107.436 65.477 107.702A28.905 28.905 0 0166.927 119.702 14.339 14.339 0 0162.427 127.902C62.129 128.178 61.829 128.444 61.527 128.702A15.705 15.705 0 0154.227 133.052 23.546 23.546 0 0147.727 133.952 22.893 22.893 0 0137.777 131.502 60.946 60.946 0 0132.327 128.502C28.951 125.604 25.935 121.154 23.277 115.152 20.58 109.185 19.147 104.268 18.977 100.402A35.82 35.82 0 0122.227 85.302 16.603 16.603 0 0131.627 76.252 26.317 26.317 0 0146.527 75.052 64.271 64.271 0 0164.377 80.852C64.938 80.96 65.507 81.027 66.077 81.052 66.417 81.062 66.767 81.062 67.127 81.052A20.28 20.28 0 0074.277 81.552V82.102C73.987 82.662 73.449 83.052 72.827 83.152 71.857 83.345 70.905 83.612 69.977 83.952 70.052 84.029 70.137 84.096 70.227 84.152A17.32 17.32 0 0173.477 86.752C74.241 87.348 74.991 87.948 75.727 88.552 76.041 88.765 76.327 89.017 76.577 89.302 76.807 89.525 76.933 89.832 76.927 90.152A.145.145 0 0176.877 90.252V90.502A.294.294 0 0176.727 90.752 8.206 8.206 0 0174.727 91.502C73.522 91.68 71.722 92.014 69.327 92.502A25.48 25.48 0 0162.177 89.352L62.127 89.302A39.875 39.875 0 0043.177 83.002 45.59 45.59 0 0035.677 83.202Z"/>
  <path fill="#091628" d="M52.377 16.802c4.167 1.1 8.317 4.317 12.45 9.65 4.1 5.234 6 10.167 5.7 14.8-.3 4.6-2.2 7.584-5.7 8.95a58.573 58.573 0 0 1-9.55 2.8c-2.833.534-5.1.95-6.8 1.25-2.133.367-9.183 2.167-21.15 5.4a18.292 18.292 0 0 0-4.55 2.05c-.2.067-1.317.667-3.35 1.8a15.713 15.713 0 0 1-5.65 1.85c-4.166.3-7.45-1.683-9.85-5.95a30.078 30.078 0 0 1-3.45-12.95c-.133-2.1-.183-3.683-.15-4.75a11.48 11.48 0 0 1 1.2-5.1 17.245 17.245 0 0 1 2.35-4.45 26.196 26.196 0 0 1 6.9-6.25 62.912 62.912 0 0 1 5.8-3.5 70.528 70.528 0 0 1 10.55-3.7 82.999 82.999 0 0 1 13.05-2.85c4.09-.493 8.236-.17 12.2.95m9.5 17.9a20.17 20.17 0 0 0-4-5.3 17.832 17.832 0 0 0-14.45-5.25 63.132 63.132 0 0 0-21.4 5.15 2.92 2.92 0 0 1-.2.1l-.4.15a3.93 3.93 0 0 1-.4.2h.05c-.314.137-.614.27-.9.4a32.87 32.87 0 0 0-6.85 4.05c-.172.164-.338.314-.5.45l-1.25 1.25a11.91 11.91 0 0 0-3.1 4.95 11.958 11.958 0 0 0-.75 4.6c.082 2.072.61 4.102 1.55 5.95 1.267 2.534 3.1 3.717 5.5 3.55a13.326 13.326 0 0 0 6.05-1.6 26.49 26.49 0 0 1 5.8-2.75c1.403-.433 3.22-.916 5.45-1.45h.05c.314-.055.647-.121 1-.2l1-.25c.798-.15 1.648-.317 2.55-.5 4.1-.833 7.85-1.5 11.25-2a46.842 46.842 0 0 0 11.65-3.35c2.467-1.2 3.667-2.3 3.6-3.3a13.785 13.785 0 0 0-1.34.85Z"/>
  <path fill="#4E7A8D" d="M21.027 29.752a3.93 3.93 0 0 0 .4-.2l.4-.15c.058-.025.125-.059.2-.1-.28.217-.605.37-.95.45h-.05m40.45 7.55c.409-.8.55-1.713.4-2.6a13.785 13.785 0 0 1 1.3 4.85c.067 1-1.133 2.1-3.6 3.3a46.842 46.842 0 0 1-11.65 3.35c-3.4.5-7.15 1.167-11.25 2-.902.183-1.752.35-2.55.5l-1 .25c-.353.079-.686.145-1 .2h-.05c-2.23.534-4.047 1.017-5.45 1.45a26.49 26.49 0 0 0-5.8 2.75 13.326 13.326 0 0 1-6.05 1.6c-2.4.167-4.233-1.016-5.5-3.55a14.384 14.384 0 0 1-1.55-5.95c-.054-1.567.2-3.13.75-4.6a11.91 11.91 0 0 1 3.1-4.95l1.25-1.25c.162-.136.328-.286.5-.45a32.87 32.87 0 0 1 6.85-4.05c-.5.567-1.017 1.15-1.55 1.75a1.534 1.534 0 0 1-.15.15 11.114 11.114 0 0 0-2.2 5.85 5.748 5.748 0 0 0 2.45 4.8c2.1 1.6 5.433 2.417 10 2.45 1.854.073 3.71-.01 5.55-.25a134.42 134.42 0 0 1 7.25-1.5c2.233-.398 5.45-.965 9.65-1.7 4.2-.702 6.884-1.468 8.05-2.3a8.225 8.225 0 0 0 2.25-2.1Z"/>
  <path fill="#90C3D0" d="M61.877 34.702c.15.888.01 1.8-.4 2.6a8.225 8.225 0 0 1-2.25 2.1c-1.166.832-3.85 1.598-8.05 2.3-4.2.735-7.417 1.302-9.65 1.7-2.433.434-4.85.934-7.25 1.5-1.84.24-3.696.323-5.55.25-4.567-.033-7.9-.85-10-2.45a5.748 5.748 0 0 1-2.45-4.8c.159-2.12.922-4.15 2.2-5.85.053-.046.104-.096.15-.15.533-.6 1.05-1.183 1.55-1.75.286-.13.586-.263.9-.4.345-.08.67-.233.95-.45a63.132 63.132 0 0 1 21.4-5.15 17.832 17.832 0 0 1 14.45 5.25 20.17 20.17 0 0 1 4 5.3m-21.15-3.9c.279-.003.553-.071.8-.2 3.7.3 7.367.684 11 1.15.413.028.811-.161 1.05-.5.09-.11.174-.228.25-.35.006.014.023.014.05 0 .415-.242.72-.637.85-1.1v-.4a.444.444 0 0 0 .05-.2.384.384 0 0 0-.05-.15v-.2a.444.444 0 0 1-.05-.2v-.2a11.69 11.69 0 0 0-7.65-2.75 19.34 19.34 0 0 1-3.7-.35 1.63 1.63 0 0 1-.4-.05 9.032 9.032 0 0 0-3.8.3 2.749 2.749 0 0 0-.8.4c-.14.053-.274.12-.4.2a2.554 2.554 0 0 0-1.1 1.45v.4a.204.204 0 0 1-.05.15l.1.6c.039.413.215.8.5 1.1.285.288.604.54.95.75a8.464 8.464 0 0 0 24.15Z"/>
  <path fill="#FFF" d="M41.527 30.602a1.776 1.776 0 0 1-.8.2 8.464 8.464 0 0 1-2.4-.15 4.943 4.943 0 0 1-.95-.75 1.849 1.849 0 0 1-.5-1.1l-.1-.6a.204.204 0 0 0 .05-.15v-.4a2.554 2.554 0 0 1 1.1-1.45c.126-.08.26-.147.4-.2.243-.176.513-.31.8-.4a9.032 9.032 0 0 1 3.8-.3c.13.033.265.05.4.05a19.34 19.34 0 0 0 3.7.35 11.69 11.69 0 0 1 7.65 2.75v.2c0 .07.018.139.05.2v.2a.384.384 0 0 1 .05.15c0 .07-.018.139-.05.2v.4c-.13.463-.435.858-.85 1.1-.027.014-.044.014-.05 0a3.36 3.36 0 0 1-.25.35 1.189 1.189 0 0 1-1.05.5c-3.633-.466-7.3-.85-111.15Z"/>
</svg>
