<svg xmlns="http://www.w3.org/2000/svg" viewBox="0 0 148 157">
  <path d="M15.44 33.857a11.579 11.579 0 0 0 1.75-.2 53.298 53.298 0 0 1 6.25-.8c.232.329.5.63.8.9.136.377.253.761.35 1.15.068.244.101.497.1.75.034.249.05.5.05.75.5 1 .983 2 1.45 3a53.792 53.792 0 0 1 3.05 7.85 38.253 38.253 0 0 0 2.9 7.15c.133 1.5.333 3 .6 4.5l1.5 8.6a104.92 104.92 0 0 0 1.65 7.15c-.067.38-.067.77 0 1.15.1.5.183 1 .25 1.5.07.38.188.75.35 1.1.133 1.367.216 2.733.25 4.1a95.93 95.93 0 0 1-.2 9.8 50.231 50.231 0 0 1-1.15 7.45 15.856 15.856 0 0 1-.75 4.85 11.463 11.463 0 0 1-2.65 4.6c-5.867 6.4-13.117 7.95-21.75 4.65a9.02 9.02 0 0 1-5.15-4.8 25.795 25.795 0 0 1-2.15-12.95c.732-8.965.832-17.97.3-26.95-.234-.867-.45-1.75-.65-2.65a31.761 31.761 0 0 0-.85-3.05 563.38 563.38 0 0 1-1.4-4.05v-.4c-.1-1.1-.15-2.217-.15-3.35.033-1 .033-2 0-3-.004-1.409.215-2.81.65-4.15a338.542 338.542 0 0 0 0-.75 13.795 13.795 0 0 1 4.45-8.05 29.966 29.966 0 0 1 10.15-5.85m3.05 8.05a6.056 6.056 0 0 0-.75.05 14.22 14.22 0 0 0-7.75 4.2l-.4.7a9.71 9.71 0 0 1-.45.8 5.988 5.988 0 0 1-.3 1.5 5.436 5.436 0 0 0-.2 1.5 1.11 1.11 0 0 0-.15.35l-.1.4a1.11 1.11 0 0 0-.15.35v6a124.914 124.914 0 0 0 1.8 5.65 25.872 25.872 0 0 1 1.2 6.75c.041.12.092.237.15.35l.1.4c.015.142.032.275.05.4.235 2.346.368 4.712.4 7.1a40.874 40.874 0 0 1-.7 8.6c0 2.767-.034 5.517-.1 8.25-.137 3.392.03 6.789.5 10.15.055.12.141.224.25.3a7.436 7.436 0 0 0 3.6 1.45c2.3-.033 4.6-.083 6.9-.15.112-.074.229-.14.35-.2a15.28 15.28 0 0 0 3-1.9c.266-.4.5-.783.7-1.15.24-.513.507-1.014.8-1.5.1-2.033.283-4.033.55-6a85.71 85.71 0 0 0 .7-7.1c.035-.138.085-.272.15-.4.033-.1.066-.217.1-.35.033-1.667.05-3.3.05-4.9a38.876 38.876 0 0 0-.4-5.6 1.95 1.95 0 0 1-.15-.4 4.804 4.804 0 0 0-.1-.35v-.75a1.95 1.95 0 0 1-.15-.4 4.804 4.804 0 0 0-.1-.35 1.95 1.95 0 0 1-.15-.4v-.75c-.267-.867-.5-1.733-.7-2.6-.2-.9-.417-1.783-.65-2.65-.434-3.1-1-6.2-1.7-9.3a70.219 70.219 0 0 0-2.35-8.4 98.927 98.927 0 0 0-1.45-3.65v-.75c-.26-.814-.56-1.615-.9-2.4a21.024 21.024 0 0 0-1.5-2.85Z" fill="var(--outline)"/>
  <path d="M20.89 47.557v.35c.512 1.22.996 2.437 1.45 3.65a70.219 70.219 0 0 1 2.35 8.4c.7 3.1 1.266 6.2 1.7 9.3.233.867.45 1.75.65 2.65.2.867.433 1.733.7 2.6v.75c.035.139.085.273.15.4.033.1.066.217.1.35.035.139.085.273.15.4v.75c.033.1.066.217.1.35.035.139.085.273.15.4.268 1.855.401 3.726.4 5.6 0 1.6-.017 3.233-.05 4.9-.034.133-.067.25-.1.35a1.952 1.952 0 0 0-.15.4 85.282 85.282 0 0 1-.7 7.1 70.36 70.36 0 0 0-.55 6c-.293.486-.56.987-.8 1.5-.2.367-.434.75-.7 1.15a15.28 15.28 0 0 1-3 1.9 3.27 3.27 0 0 0-.35.2c-2.3.067-4.6.117-6.9.15a7.436 7.436 0 0 1-3.6-1.45.755.755 0 0 1-.25-.3 56.773 56.773 0 0 1-.5-10.15c.066-2.733.1-5.483.1-8.25.536-2.834.77-5.717.7-8.6a81.926 81.926 0 0 0-.4-7.1 11.638 11.638 0 0 1-.05-.4l-.1-.4a2.735 2.735 0 0 1-.15-.35 25.872 25.872 0 0 0-1.2-6.75 124.86 124.86 0 0 1-1.8-5.65v-.9a10.163 10.163 0 0 1 1.65-2.95c.04-.215.125-.42.25-.6.112-.182.246-.35.4-.5.2-.2.383-.4.55-.6a7.15 7.15 0 0 1 4.4-3.3c1.783-.486 3.583-.936 5.4-1.35Z" fill="var(--body)"/>
  <path d="M17.74 41.957c.248-.032.499-.049.75-.05a21.09 21.09 0 0 1 1.5 2.85c.34.785.64 1.586.9 2.4v.4c-1.817.414-3.617.864-5.4 1.35a7.15 7.15 0 0 0-4.4 3.3c-.167.2-.35.4-.55.6-.154.15-.288.318-.4.5a1.54 1.54 0 0 0-.25.6 10.169 10.169 0 0 0-1.65 2.95v-5.1c.03-.124.08-.243.15-.35l.1-.4c.03-.124.08-.243.15-.35a5.436 5.436 0 0 1 .2-1.5 6.05 6.05 0 0 0 .3-1.5 9.67 9.67 0 0 0 .45-.8l.4-.7a14.22 14.22 0 0 1 7.75-4.2Z" fill="var(--shadow)"/>
  <path d="M60.055 92.51c2.98-.094 5.94.54 8.62 1.847a10.135 10.135 0 0 1 4.173 4.572 16.851 16.851 0 0 1 1.273 4.522c.173.926.274 1.864.302 2.805a39.517 39.517 0 0 1-1.474 7.226 88.849 88.849 0 0 1-4.626 13.223c-5.032 11.583-9.717 18.537-14.058 20.863-.605.323-1.178.647-1.717.971a41.207 41.207 0 0 0-4.687 2.17 67.295 67.295 0 0 1-2.776 1.503c-1.374.41-3.317.977-5.83 1.701a71.76 71.76 0 0 1-18.3 2.738c-6.636.154-11.44-2.629-14.409-8.347a25.89 25.89 0 0 1-3.238-12.457 12.724 12.724 0 0 1 1.355-6.127c.86-1.52 2.703-3.105 5.532-4.757a87.517 87.517 0 0 1 11.341-5.257 28.708 28.708 0 0 0 11.385-7.807 20.929 20.929 0 0 0 4.11-6.48 12.448 12.448 0 0 1 2.423-4.21c2.269-2.061 6.104-4.096 11.506-6.104 4.63-1.755 7.662-2.62 9.095-2.596m4.405 8.527c-.002.133-2.216-.021-6.643-.464l-11.788 5.1c-1.13 1.748-2.691 4.338-4.683 7.771a23.15 23.15 0 0 1-6.077 7.347c-.168.13-.371.277-.607.44l-3.935 2.033c-.121.04-.239.088-.353.144-2.02.897-4.536 1.888-7.552 2.972-5.232 1.877-8.512 3.572-9.838 5.083-.251.232-.444.52-.564.84a14.058 14.058 0 0 0-1.055 3.183l-.002.15-.002.1-.004.25c-.005.3.006.616.034.95a19.564 19.564 0 0 0 2.186 6.689c1.26 2.355 5.142 3.438 11.646 3.249.569-.124 1.94-.384 4.114-.78l5.669-1.054a42.751 42.751 0 0 0 7.588-2.17 41.314 41.314 0 0 0 5.047-2.715 62.494 62.494 0 0 0 5.977-4.448 12.491 12.491 0 0 0 4.4-5.826c.805-2.253 2.735-6.938 5.79-14.053a24.813 24.813 0 0 0 2.162-9.465 3.068 3.068 0 0 0-.822-1.664 2.96 2.96 0 0 1-.774-1.513c.19-1.33.218-2.047.086-2.15Z" fill="var(--outline)"/>
  <path d="m37.392 128.278.197.203c-.005.119.01.237.044.35l-.004.2c0 .12-.019.237-.056.35l-.003.2a1.584 1.584 0 0 1-.46.592 38.96 38.96 0 0 1-1.013.733 7.47 7.47 0 0 1-3.239 2.245c-.506.226-.968.54-1.366.927a61.506 61.506 0 0 1-3.411.642c-.428.057-.84.203-1.208.43a23.976 23.976 0 0 0-4.36.525 12.42 12.42 0 0 1-8.322-1.642 12.194 12.194 0 0 1-.53-1.16 9.151 9.151 0 0 0-.677-1.411c1.326-1.511 4.606-3.205 9.838-5.083 3.016-1.084 5.533-2.075 7.552-2.972 1.584.96 3.185 1.905 4.802 2.833.43.24.842.48 1.238.72.165.172.313.359.44.558.16.267.34.52.538.76Z" fill="var(--shadow)"/>
  <path d="M57.817 100.572c4.427.443 6.641.597 6.643.464.132.102.103.818-.086 2.149a2.96 2.96 0 0 0 .774 1.513c.44.457.726 1.038.822 1.664a24.813 24.813 0 0 1-2.162 9.465c-3.055 7.115-4.985 11.8-5.79 14.053a12.491 12.491 0 0 1-4.4 5.826 62.494 62.494 0 0 1-5.977 4.448 41.314 41.314 0 0 1-5.047 2.714 42.751 42.751 0 0 1-7.588 2.171l-5.67 1.054c-2.173.396-3.544.656-4.113.78-6.504.189-10.386-.894-11.646-3.25a19.564 19.564 0 0 1-2.186-6.688 9.528 9.528 0 0 1-.034-.95l.004-.25.002-.1.002-.15c.224-1.1.578-2.168 1.055-3.183.12-.32.313-.608.564-.84.265.45.492.922.676 1.411.157.396.334.783.53 1.16a12.42 12.42 0 0 0 8.324 1.642 23.976 23.976 0 0 1 4.36-.526 3.095 3.095 0 0 1 1.207-.43 61.598 61.598 0 0 0 3.411-.641c.397-.387.86-.7 1.366-.927a7.47 7.47 0 0 0 3.239-2.245c.37-.26.708-.505 1.012-.733.199-.158.357-.36.46-.592l.004-.2a1.11 1.11 0 0 0 .056-.35l.003-.2a1.108 1.108 0 0 1-.044-.35l-.196-.203a6.193 6.193 0 0 1-.537-.76 3.598 3.598 0 0 0-.44-.557 41.63 41.63 0 0 0-1.239-.721 227.561 227.561 0 0 1-4.802-2.833c.114-.056.232-.104.352-.144l3.936-2.033c.236-.162.438-.309.607-.44a23.15 23.15 0 0 0 6.077-7.347c1.992-3.433 3.553-6.023 4.683-7.771l11.788-5.1Z" fill="var(--body)"/>
  <path d="M21.59 24.407c2.266-5.767 5.133-9.9 8.6-12.4a77.682 77.682 0 0 1 14.85-8.85A35.6 35.6 0 0 1 55.69.107a48.44 48.44 0 0 1 8.65.2 51.246 51.246 0 0 1 12 3.65c5.103 2.104 10.053 5.82 14.85 11.15a92.155 92.155 0 0 1 6.25 7.65 181.558 181.558 0 0 1 12.85 45.3 134.092 134.092 0 0 1 1.75 19.95c0 10.2-5.284 21.233-15.85 33.1-4.583 3.417-7.983 5.517-10.2 6.3a123.29 123.29 0 0 1-12.2 3.3 65.8 65.8 0 0 1-14.3 2.05c-9.1 0-17.15-3.817-24.15-11.45-7.667-8.333-11.5-18.85-11.5-31.55.233-3.166.4-5.833.5-8a41.419 41.419 0 0 0-.7-10.7 35.757 35.757 0 0 1-.5-4.45l-.25-3.55c-.167-1.333-.95-5.633-2.35-12.9-1.334-6.933-2-10.583-2-10.95a40.4 40.4 0 0 1 3.05-14.8m8.8-1.35c-.076.14-.142.273-.2.4-2.225 3.74-3.458 6.856-3.7 9.35-.271 2.53-.405 3.98-.4 4.35 0 3.634 1.133 9.917 3.4 18.85a65.922 65.922 0 0 1 1.9 22.85c-1.367 13.6 1.15 24.834 7.55 33.7 6 8.267 13.633 12.4 22.9 12.4a56.207 56.207 0 0 0 15.8-1.95 31.393 31.393 0 0 0 14.5-8.8 75.14 75.14 0 0 0 3.3-3.8l5.55-8.55c.215-.528.415-1.045.6-1.55.207-.56.39-1.11.55-1.65.93-3.533 1.5-7.152 1.7-10.8v-.05c.027-.657.044-1.323.05-2v-.45c0-3.995-.384-10.178-1.15-18.55-.079-.876-.162-1.776-.25-2.7-1-5.033-2.484-11-4.45-17.9-1.667-5.9-3.267-10.983-4.8-15.25a21.676 21.676 0 0 0-1.85-4.35c-1.767-3.166-4.784-6.25-9.05-9.25-5.67-3.996-9.92-6.496-12.75-7.5a37.007 37.007 0 0 0-11.35-1.65 32.11 32.11 0 0 0-14.7 3.6c-.17.091-.57.291-1.2.6-.483.244-1.083.544-1.8.9a.292.292 0 0 0-.1.05 30.055 30.055 0 0 0-4.85 2.9c-1.366 1.021-3.1 3.288-5.2 6.8Z" fill="var(--outline)"/>
  <path d="M93.24 30.957c1.533 4.267 3.133 9.35 4.8 15.25 1.966 6.9 3.45 12.867 4.45 17.9.088.924.171 1.824.25 2.7.007.767.024 1.534.05 2.3 0 .367-.017.75-.05 1.15a44.054 44.054 0 0 1-3.8 9.65 34.614 34.614 0 0 1-5.7 7.95 27.363 27.363 0 0 1-13.6 4h-6.15a26.469 26.469 0 0 1-13.9-5.45l-1.1-.8c-1.334-1.8-2.684-3.6-4.05-5.4a14.703 14.703 0 0 1-2.3-4.35 1.74 1.74 0 0 1-.35-.35 3.265 3.265 0 0 0-.3-.35 3.75 3.75 0 0 1-.35-.4 2.63 2.63 0 0 1-.25-.4 24.349 24.349 0 0 0-.9-2.15c-.567-1.266-1.15-2.55-1.75-3.85v-.75a1.108 1.108 0 0 1-.05-.35 6.056 6.056 0 0 1-.05-.75 39.332 39.332 0 0 0-.5-1.5 9.388 9.388 0 0 1-.4-1.15 22.337 22.337 0 0 0-.1-1.1 49.988 49.988 0 0 0-3.1-13.9 79.249 79.249 0 0 1-4.55-18l-.1-.4a2.735 2.735 0 0 0-.15-.35 7.45 7.45 0 0 0-.05-1.5 11.946 11.946 0 0 0-.3-1.5l-.5-1.5a1.951 1.951 0 0 0-.15-.4v-1.85c.3-.973.469-1.982.5-3a9.67 9.67 0 0 1 .7-3.4c.333-.9.7-1.767 1.1-2.6a13.51 13.51 0 0 1 1.8-1.95 45.825 45.825 0 0 0 1.2-.6 32.11 32.11 0 0 1 14.7-3.6 37.007 37.007 0 0 1 11.35 1.65c2.83 1.003 7.08 3.503 12.75 7.5 4.266 3 7.283 6.083 9.05 9.25a21.676 21.676 0 0 1 1.85 4.35Z" fill="var(--shadow)"/>
  <path d="M30.19 23.457c.058-.127.124-.26.2-.4 2.1-3.512 3.834-5.779 5.2-6.8a30.055 30.055 0 0 1 4.85-2.9.292.292 0 0 1 .1-.05 299.05 299.05 0 0 0 1.8-.9 13.51 13.51 0 0 0-1.8 1.95c-.4.833-.767 1.7-1.1 2.6a9.67 9.67 0 0 0-.7 3.4 11.302 11.302 0 0 1-.5 3v1.85c.064.128.114.262.15.4l.5 1.5c.132.493.232.994.3 1.5.067.497.084 1 .05 1.5.058.113.108.23.15.35l.1.4a79.249 79.249 0 0 0 4.55 18 49.988 49.988 0 0 1 3.1 13.9c.043.375.076.742.1 1.1.108.392.242.776.4 1.15.166.467.333.967.5 1.5 0 .25.017.501.05.75-.003.119.014.237.05.35v.75c.6 1.3 1.183 2.583 1.75 3.85.333.7.633 1.417.9 2.15.07.14.155.275.25.4.107.142.224.275.35.4.108.11.208.227.3.35.099.133.217.25.35.35a14.703 14.703 0 0 0 2.3 4.35c1.366 1.8 2.716 3.6 4.05 5.4l1.1.8a26.469 26.469 0 0 0 13.9 5.45h6.15a27.363 27.363 0 0 0 13.6-4 34.614 34.614 0 0 0 5.7-7.95 44.054 44.054 0 0 0 3.8-9.65c.033-.4.05-.783.05-1.15a99.643 99.643 0 0 1-.05-2.3c.766 8.372 1.15 14.555 1.15 18.55v.45a62.05 62.05 0 0 1-.05 2v.05c-.2 3.648-.77 7.267-1.7 10.8-.16.54-.343 1.09-.55 1.65a47.48 47.48 0 0 1-.6 1.55l-5.55 8.55a75.14 75.14 0 0 1-3.3 3.8 31.393 31.393 0 0 1-14.5 8.8 56.207 56.207 0 0 1-15.8 1.95c-9.267 0-16.9-4.133-22.9-12.4-6.4-8.867-8.917-20.1-7.55-33.7a65.922 65.922 0 0 0-1.9-22.85c-2.267-8.933-3.4-15.217-3.4-18.85-.005-.37.129-1.82.4-4.35.242-2.494 1.475-5.61 3.7-9.35Z" fill="var(--body)"/>
  <path d="M86.99 10.057a7.754 7.754 0 0 1 4.1-1.35c6.1 0 11.5 3.3 16.2 9.9 4.333 6.1 6.5 12.417 6.5 18.95 0 6.4-.85 11-2.55 13.8a13.993 13.993 0 0 1-6.25 5.3 73.852 73.852 0 0 1-10.1 3.8 32.088 32.088 0 0 1-9.45 1.7 33.736 33.736 0 0 1-8.75-1.7 25.788 25.788 0 0 1-8.65-4.15 29.118 29.118 0 0 1-8.75-12.7 24.165 24.165 0 0 1-1.7-7.7c0-4.867.65-8.567 1.95-11.1 1.733-3.467 5.083-6.317 10.05-8.55.2-.066 2.466-.6 6.8-1.6l7.75-2.6c1.1-.833 2.05-1.5 2.85-2m-2.9 10a170.192 170.192 0 0 1-5.9 2.2c-4.867 1.167-8.1 2.433-9.7 3.8-1.9 1.6-2.85 4.25-2.85 7.95 0 6.7 2.25 11.767 6.75 15.2 3.9 3 9.016 4.5 15.35 4.5 1.52.007 3.04-.076 4.55-.25a32.747 32.747 0 0 0 7.45-2.35c3.503-1.392 5.47-2.942 5.9-4.65.509-2.349.76-4.746.75-7.15-.055-1.207-.155-2.64-.3-4.3-.267-3.433-2.15-7.5-5.65-12.2-2.934-3.933-5.734-5.9-8.4-5.9-.167 0-2.817 1.05-7.95 3.15Z" fill="#091628"/>
  <path d="M76.44 26.407a21.25 21.25 0 0 0-.45 5 12.378 12.378 0 0 0 3.6 9.3c2.597 2.533 5.214 3.95 7.85 4.25 2.32.34 4.679.34 7 0a19.709 19.709 0 0 0 4.15-.95 33.24 33.24 0 0 0 4-2.25c2.033-1.333 3.3-2.15 3.8-2.45a33.095 33.095 0 0 1-.75 7.15c-.43 1.708-2.397 3.258-5.9 4.65a32.747 32.747 0 0 1-7.45 2.35c-1.51.174-3.03.257-4.55.25-6.334 0-11.45-1.5-15.35-4.5-4.5-3.433-6.75-8.5-6.75-15.2 0-3.7.95-6.35 2.85-7.95 1.6-1.367 4.833-2.633 9.7-3.8a19.721 19.721 0 0 0-1.75 4.15Z" fill="#4E7A8D"/>
  <path d="M75.99 31.407a21.25 21.25 0 0 1 .45-5 19.721 19.721 0 0 1 1.75-4.15 170.171 170.171 0 0 0 5.9-2.2c5.133-2.1 7.783-3.15 7.95-3.15 2.666 0 5.466 1.967 8.4 5.9 3.5 4.7 5.383 8.767 5.65 12.2.144 1.66.244 3.093.3 4.3-.5.3-1.767 1.117-3.8 2.45a33.24 33.24 0 0 1-4 2.25 19.709 19.709 0 0 1-4.15.95c-2.321.34-4.68.34-7 0-2.636-.3-5.253-1.717-7.85-4.25a12.378 12.378 0 0 1-3.6-9.3m5.2-7.4-.1.2v.75l.1.2c0 .07.017.138.05.2l.1.2c.04.045.074.095.1.15.039.074.09.142.15.2l.2.2c.08.055.163.105.25.15.058.06.125.111.2.15.025.03.06.048.1.05a22.75 22.75 0 0 0 6-.4 19.893 19.893 0 0 0 5.95-2.15l.4.1c.06.058.11.126.15.2.2.2.4.383.6.55.231.165.448.35.65.55.142.142.292.275.45.4.039.074.09.142.15.2l.1.2a.327.327 0 0 0 .15.15c.242.254.556.428.9.5a1.91 1.91 0 0 0 1.85-.5 1.79 1.79 0 0 0 .55-.9v-.4a.444.444 0 0 0 .05-.2 5.007 5.007 0 0 0-.5-1.7 12.748 12.748 0 0 0-1.7-2.35 12.39 12.39 0 0 0-2.8-2.25.821.821 0 0 1-.25-.05 2.317 2.317 0 0 1-.45-.05 20.346 20.346 0 0 0-7.95 2.15 83.693 83.693 0 0 0-4.8 2.65.91.91 0 0 0-.4.3l-.1.2-.1.2a.384.384 0 0 0-.05.15Z" fill="#90C3D0"/>
  <path d="m81.09 24.207.1-.2a.384.384 0 0 1 .05-.15l.1-.2.1-.2a.91.91 0 0 1 .4-.3 83.693 83.693 0 0 1 4.8-2.65 20.346 20.346 0 0 1 7.95-2.15c.148.031.298.048.45.05.08.03.164.047.25.05a12.39 12.39 0 0 1 2.8 2.25 12.748 12.748 0 0 1 1.7 2.35c.266.533.435 1.108.5 1.7a.449.449 0 0 1-.05.2v.4a1.79 1.79 0 0 1-.55.9 1.91 1.91 0 0 1-1.85.5 1.742 1.742 0 0 1-.9-.5.327.327 0 0 1-.15-.15l-.1-.2a.784.784 0 0 1-.15-.2 5.434 5.434 0 0 1-.45-.4 5.15 5.15 0 0 0-.65-.55c-.2-.167-.4-.35-.6-.55a.786.786 0 0 0-.15-.2l-.4-.1a19.893 19.893 0 0 1-5.95 2.15 22.75 22.75 0 0 1-6 .4.144.144 0 0 1-.1-.05.785.785 0 0 1-.2-.15 2.452 2.452 0 0 1-.25-.15l-.2-.2a.781.781 0 0 1-.15-.2.581.581 0 0 0-.1-.15l-.1-.2a.444.444 0 0 1-.05-.2l-.1-.2v-.75Z" fill="#FFF"/>
  <path d="M116.94 111.207a21.735 21.735 0 0 0 11 4.1c2.1-.567 4.183-1.15 6.25-1.75.4-.234.757-.54 1.05-.9.33-.427.599-.899.8-1.4a17.717 17.717 0 0 1 2.4 3.65c.217.394.385.814.5 1.25a9.055 9.055 0 0 1-1.1 6.95c-1.934 3.433-5.717 5.9-11.35 7.4-4.267 1.167-7.217 1.567-8.85 1.2a13.752 13.752 0 0 1-4-1.65 9.706 9.706 0 0 1-1.6-1.3c-.067-.133-2.767-3.05-8.1-8.75a.144.144 0 0 0-.05-.1 9.986 9.986 0 0 0-6.85-1.6c-2.234.333-4.434.683-6.6 1.05-2.734.433-5.45.95-8.15 1.55.033-.033.033-.083 0-.15a5.31 5.31 0 0 1-.05-.75v-.75a45.862 45.862 0 0 1 0-10.9 19.137 19.137 0 0 1 2.9-8.35c.449-.244.916-.494 1.4-.75l.2.3.05.05c-.163.608-.33 1.225-.5 1.85v.1a.384.384 0 0 1-.05.15v.2a.449.449 0 0 1-.05.2v.1c.03.025.047.061.05.1v.05c0 .07.018.138.05.2.002.039.02.075.05.1a8580.7 8580.7 0 0 0-.1 1.6 3.88 3.88 0 0 0 .35 2.05c1.133.433 1.883.033 2.25-1.2a20.233 20.233 0 0 1 2-4.4l.1-.1a44.204 44.204 0 0 1 3.8-1.55c2.333-.9 4.666-1.7 7-2.4 1.266-.4 2.516-.733 3.75-1a.807.807 0 0 1 .35-.1 16.37 16.37 0 0 1 4.95-.55l-.5.3c-.81.65-1.68 1.22-2.6 1.7a4.569 4.569 0 0 0-1.6 1.1 15.597 15.597 0 0 0-2.3 3.2.384.384 0 0 1-.05.15c-.03.156-.08.307-.15.45a9.612 9.612 0 0 0-.1.45.449.449 0 0 1-.05.2.383.383 0 0 1 .05.15c.033.133.066.25.1.35.033.133.066.25.1.35l.1.4c0 .07.017.138.05.2a.562.562 0 0 0 .1.15.16.16 0 0 0 .15.1c.005.078.04.15.1.2 0 .07.018.138.05.2a.204.204 0 0 0 .05.15c.241.337.509.655.8.95.297.434.69.793 1.15 1.05.337.203.626.476.85.8.228.061.463.095.7.1a19.171 19.171 0 0 1 9.15 3.5Z" fill="var(--body)"/>
  <path d="M127.94 115.307a21.735 21.735 0 0 1-11-4.1 19.171 19.171 0 0 0-9.15-3.5 2.938 2.938 0 0 1-.7-.1 2.774 2.774 0 0 0-.85-.8 3.412 3.412 0 0 1-1.15-1.05 7.979 7.979 0 0 1-.8-.95.204.204 0 0 1-.05-.15.444.444 0 0 1-.05-.2.288.288 0 0 1-.1-.2.16.16 0 0 1-.15-.1.582.582 0 0 1-.15-.35l-.1-.4a4.815 4.815 0 0 1-.1-.35 4.762 4.762 0 0 1-.1-.35.383.383 0 0 0-.05-.15.444.444 0 0 0 .05-.2c.033-.166.066-.316.1-.45.07-.143.12-.294.15-.45a.384.384 0 0 0 .05-.15 15.597 15.597 0 0 1 2.3-3.2 4.569 4.569 0 0 1 1.6-1.1c.92-.48 1.79-1.05 2.6-1.7l.5-.3c4.733.333 10.033 2.7 15.9 7.1a57.331 57.331 0 0 1 8.25 7.75c.4.467.766.933 1.1 1.4-.201.501-.47.973-.8 1.4-.293.36-.65.666-1.05.9-2.067.6-4.15 1.183-6.25 1.75Z" fill="var(--shadow)"/>
  <path d="M114.54 87.957a51.22 51.22 0 0 1 13.3 5.4c10.366 5.9 16.5 12.367 18.4 19.4a20.396 20.396 0 0 1-1.6 15.1c-3 5.667-8.267 9.5-15.8 11.5-4.9 1.333-8.584 1.817-11.05 1.45-1.47-.45-2.907-1-4.3-1.65a22.143 22.143 0 0 1-4.6-3.3 40.746 40.746 0 0 1-3.65-3.45l-5.35-5.85c-4.067.233-8.534.733-13.4 1.5-1.834.367-3.667.767-5.5 1.2a1.89 1.89 0 0 1-.6-.1 2.651 2.651 0 0 0-.55-.15c-.167-.1-.35-.2-.55-.3a.993.993 0 0 1-.35-.3 3.265 3.265 0 0 1-.35-.3 1.835 1.835 0 0 1-.7-.95 7.342 7.342 0 0 0-.3-.7 23.742 23.742 0 0 0-.2-.75v-.4a7.47 7.47 0 0 1 .15-.75 2.2 2.2 0 0 1 .05-.45 4.44 4.44 0 0 1 .35-.8 3.62 3.62 0 0 1 1.55-1.45l1.4-.6c.5-.133.966-.25 1.4-.35 2.7-.6 5.416-1.117 8.15-1.55 2.166-.367 4.366-.717 6.6-1.05a9.986 9.986 0 0 1 6.85 1.6.147.147 0 0 1 .05.1c5.333 5.7 8.033 8.617 8.1 8.75a9.706 9.706 0 0 0 1.6 1.3 13.752 13.752 0 0 0 4 1.65c1.633.367 4.583-.033 8.85-1.2 5.633-1.5 9.416-3.967 11.35-7.4a9.055 9.055 0 0 0 1.1-6.95 5.435 5.435 0 0 0-.5-1.25 17.717 17.717 0 0 0-2.4-3.65c-.334-.467-.7-.933-1.1-1.4a57.331 57.331 0 0 0-8.25-7.75c-5.867-4.4-11.167-6.767-15.9-7.1a16.37 16.37 0 0 0-4.95.55.807.807 0 0 0-.35.1c-1.234.267-2.484.6-3.75 1a96.5 96.5 0 0 0-7 2.4 44.198 44.198 0 0 0-3.8 1.55l-.1.1a20.233 20.233 0 0 0-2 4.4c-.367 1.233-1.117 1.633-2.25 1.2a3.882 3.882 0 0 1-.35-2.05l.1-1.6a.144.144 0 0 1-.05-.1.444.444 0 0 1-.05-.2v-.05a.144.144 0 0 0-.05-.1v-.1a.444.444 0 0 0 .05-.2v-.2a.384.384 0 0 0 .05-.15v-.1c.17-.625.337-1.242.5-1.85l-.05-.05-.2-.3c-.484.256-.951.506-1.4.75a2.851 2.851 0 0 0-.1.05c-.32.187-.593.443-.8.75a3.136 3.136 0 0 1-2.4 1.55h-.05a.144.144 0 0 0-.1-.05l-.1-.1-.1-.1-.1-.1-.15-.3v-.45a.741.741 0 0 1 .2-.35c.2-.267.4-.55.6-.85.122-.22.274-.42.45-.6a11.39 11.39 0 0 1 1.5-1.85 10.8 10.8 0 0 1 1.85-1.4c.078-.068.161-.135.25-.2v-.2a17.647 17.647 0 0 1 8.4-5.3c2.966-.9 5.95-1.783 8.95-2.65 2.866-1 6.566-.967 11.1.1Z" fill="var(--outline)"/>
</svg>
