<svg xmlns="http://www.w3.org/2000/svg" viewBox="0 0 130 147">
  <path d="M73.877 13.802a7.987 7.987 0 0 1 2.85-.95c.266-.041.533-.091.8-.15 1.656-.4 3.348-.634 5.05-.7 4.57-.003 10.12 1.863 16.65 5.6 6.49 3.778 12.107 9.828 16.85 18.15a133.537 133.537 0 0 1 10 20.7c1.93 5.504 2.897 9.77 2.9 12.8 0 4.667-2.05 9.817-6.15 15.45-3.9 5.334-8 9-12.3 11-5.256 1.898-10.29.715-15.1-3.55a6.604 6.604 0 0 1-1.7-2.4 80.596 80.596 0 0 1-4.95-18.2 188.15 188.15 0 0 1-5.05-11.2 61.843 61.843 0 0 0-5.05-9.8 5.64 5.64 0 0 1-1.4-1.55c-.2-.366-.417-.75-.65-1.15a3.43 3.43 0 0 1-.35-.7 96.796 96.796 0 0 0-7.5-12.15c-.4-.5-.767-.983-1.1-1.45-3.667-4.9-3.75-9.616-.25-14.15.033-.1.067-.216.1-.35v-.75a4.928 4.928 0 0 1 2.35-3.1 10.78 10.78 0 0 1 4-1.4m3.65 7.8c-.697.09-1.398.141-2.1.15a1.97 1.97 0 0 1-.15.15v.4c-.033.134-.067.25-.1.35a1.955 1.955 0 0 1-.15.4c-.033.134-.067.25-.1.35l-.6.8c-.2.234-.383.467-.55.7a3.991 3.991 0 0 1-.75.75c.19.513.441 1 .75 1.45a10.677 10.677 0 0 1 1.6 3.05c.233.634.5 1.267.8 1.9a27.857 27.857 0 0 1 4.75 7.1 52.662 52.662 0 0 0 2.85 5.25 46.135 46.135 0 0 1 6.9 11.65c1.467 3.5 2.917 7 4.35 10.5.12.117.222.252.3.4a38.233 38.233 0 0 1 2.8 10.5 47.946 47.946 0 0 0 1.4 7.5c.233.234.45.467.65.7a14.018 14.018 0 0 0 1.6 1.55 8.739 8.739 0 0 0 2.15 1.1h5.1c.218-.059.422-.16.6-.3a2.02 2.02 0 0 0 .4-.3c.162-.326 1.812-2.376 4.95-6.15a41.138 41.138 0 0 0 4.85-6.8c.203-.4.37-.819.5-1.25a22.74 22.74 0 0 0 .65-6.35 9.747 9.747 0 0 0-.05-.85 34.34 34.34 0 0 0-3.15-10.15c-2.098-4.73-3.915-8.564-5.45-11.5a84.174 84.174 0 0 0-4.7-7.75c-1.597-2.27-4.28-5.57-8.05-9.9a18.529 18.529 0 0 0-9.4-5.95 21.36 21.36 0 0 0-4.9-.55h-.25l-4.95.7c-.774.127-1.624.26-2.55.4Z" fill="var(--outline)"/>
  <path d="M102.527 36.052a88.408 88.408 0 0 0-12.35-15 18.533 18.533 0 0 1 9.4 5.95c3.77 4.33 6.453 7.63 8.05 9.9a84.174 84.174 0 0 1 4.7 7.75c1.535 2.936 3.352 6.77 5.45 11.5a34.34 34.34 0 0 1 3.15 10.15 34.097 34.097 0 0 0-5.9-.3 8.7 8.7 0 0 0-.7-3.1l-.3-.7a86.818 86.818 0 0 0-11.5-26.15Z" fill="var(--shadow)"/>
  <path d="M75.427 21.752c.702-.01 1.404-.06 2.1-.15.926-.14 1.776-.273 2.55-.4l4.95-.7h.25a21.36 21.36 0 0 1 4.9.55 88.408 88.408 0 0 1 12.35 15 86.818 86.818 0 0 1 11.5 26.15l.3.7a8.7 8.7 0 0 1 .7 3.1c1.972-.07 3.946.03 5.9.3.03.295.046.579.05.85a22.725 22.725 0 0 1-.65 6.35c-.13.431-.296.85-.5 1.25a41.138 41.138 0 0 1-4.85 6.8c-3.138 3.774-4.788 5.824-4.95 6.15a2.02 2.02 0 0 1-.4.3 1.694 1.694 0 0 1-.6.3h-5.1a8.739 8.739 0 0 1-2.15-1.1 14.018 14.018 0 0 1-1.6-1.55c-.2-.233-.417-.466-.65-.7a47.946 47.946 0 0 1-1.4-7.5 38.233 38.233 0 0 0-2.8-10.5 1.572 1.572 0 0 0-.3-.4c-1.433-3.5-2.883-7-4.35-10.5a46.135 46.135 0 0 0-6.9-11.65 52.662 52.662 0 0 1-2.85-5.25 27.857 27.857 0 0 0-4.75-7.1c-.3-.633-.567-1.266-.8-1.9a10.677 10.677 0 0 0-1.6-3.05 6.621 6.621 0 0 1-.75-1.45c.282-.215.535-.467.75-.75.167-.233.35-.466.55-.7l.6-.8c.033-.1.067-.216.1-.35a1.89 1.89 0 0 0 .15-.4c.033-.1.067-.216.1-.35v-.4a1.97 1.97 0 0 0 .15-.15Z" fill="var(--body)"/>
  <path d="M63.492 113.757a7.78 7.78 0 0 1 2.31-7.8l13.695-13.68c.033.058.056.064.068.019.185-.146.391-.322.618-.53a40.151 40.151 0 0 0 4.343-2.277 41.53 41.53 0 0 1 8.33-4.173 5.25 5.25 0 0 1 .68-.22c.18.02.36.032.54.035a.992.992 0 0 1 .453.084 3.47 3.47 0 0 0 .558-.033c.116.036.225.09.324.16.106.069.208.145.304.228.241.105.462.25.654.431l.323.16c.106.069.208.145.305.228.046.144.107.283.181.415.154.198.294.406.419.624l.175.303.225.39c-.031.48.013.96.13 1.426a19.68 19.68 0 0 0 1.086 4.28c.293.909.615 1.8.967 2.675.06.102.105.213.131.328l.05.087c.703 1.75 2.798 3.812 6.285 6.186 1.12.74 3.15 1.954 6.088 3.645 3.624 1.41 6.333 2.502 8.126 3.275a14.122 14.122 0 0 1 7.053 5.917c1.934 3.348 2.523 7.703 1.77 13.065-.754 5.362-4.495 10.081-11.224 14.159-6.73 4.077-14.706 4.295-23.93.652-9.212-3.689-15.98-7.113-20.307-10.273-3.845-2.86-6.385-5.359-7.618-7.495l-.895-1.85a37.163 37.163 0 0 1-1.894-6.182 22.516 22.516 0 0 1-.314-3.744c.02-.171.017-.344-.009-.515M87.667 97.03a65.78 65.78 0 0 1-3.211 1.739 2098.433 2098.433 0 0 0-12.384 12.75 6.378 6.378 0 0 0-.561.728.823.823 0 0 0 .081.241c.022.157.053.312.095.465.026.17.029.343.009.514-.265 1.808.578 5.036 2.53 9.683.233.404 2.08 1.936 5.54 4.595a48.046 48.046 0 0 0 6.153 4.358c1.13.425 3.499 1.193 7.105 2.306 3.1.95 6.15 2.061 9.137 3.327a12.895 12.895 0 0 0 7.478 1.052 17.636 17.636 0 0 0 6.06-2.402 12.173 12.173 0 0 0 3.714-4.568 27.1 27.1 0 0 0 1.438-2.91 1.98 1.98 0 0 1 .135-.366l.846-2.335c.762-2.48.793-4.326.093-5.539-.7-1.212-2.241-2.382-4.624-3.508-1.43-.676-3.966-1.77-7.611-3.284a46.775 46.775 0 0 1-7.597-4.159 35.237 35.237 0 0 1-3.53-2.812 27.005 27.005 0 0 1-5.087-6.012l-.325-.563a105.41 105.41 0 0 0-1.158-2.507 19.837 19.837 0 0 1-.835-2.346 24.51 24.51 0 0 0-3.491 1.553Z" fill="var(--outline)"/>
  <path d="M97.383 117.458c.02-.156.025-.314.016-.471.508-.987.994-1.979 1.457-2.977a69.495 69.495 0 0 1 1.714-3.53c.492-.285 1-.54 1.523-.764a46.775 46.775 0 0 0 7.597 4.159c3.645 1.513 6.182 2.608 7.611 3.284 2.383 1.126 3.924 2.296 4.624 3.508.7 1.213.669 3.059-.093 5.539l.2-.752a19.001 19.001 0 0 1-5.847 2.972c-.351.115-.715.19-1.084.222-1.966.274-3.97.015-5.802-.75a.783.783 0 0 1-.23-.098 4.776 4.776 0 0 0-.821-.622 5.572 5.572 0 0 0-.765-.425 3.603 3.603 0 0 0-.665-.251 46.65 46.65 0 0 0-3.153-2.163 21.081 21.081 0 0 1-3.584-2.608 44.214 44.214 0 0 1-2.093-2.024l-.1-.174-.1-.173-.175-.303a.444.444 0 0 0-.057-.198 4.953 4.953 0 0 1-.158-.775 1.77 1.77 0 0 1-.015-.626Z" fill="var(--shadow)"/>
  <path d="M84.456 98.767a65.726 65.726 0 0 0 3.21-1.738 24.51 24.51 0 0 1 3.492-1.553c.229.799.508 1.582.835 2.346.375.784.762 1.62 1.158 2.507l.325.563a27.005 27.005 0 0 0 5.088 6.012 35.237 35.237 0 0 0 3.529 2.812c-.522.224-1.03.48-1.523.763a69.546 69.546 0 0 0-1.714 3.53 80.187 80.187 0 0 1-1.457 2.978c.009.157.003.315-.016.471a1.77 1.77 0 0 0 .015.626 5 5 0 0 0 .158.775.44.44 0 0 1 .057.198l.175.303.1.173.1.174a44.176 44.176 0 0 0 2.093 2.024c1.1.993 2.3 1.867 3.584 2.608a46.63 46.63 0 0 1 3.153 2.163c.23.061.452.146.665.251.266.121.521.263.765.425.295.177.57.386.821.622a.809.809 0 0 0 .23.099 11.094 11.094 0 0 0 5.802.749 4.851 4.851 0 0 0 1.084-.222 19.001 19.001 0 0 0 5.848-2.972l-.201.752-.846 2.335a1.98 1.98 0 0 0-.135.367 27.1 27.1 0 0 1-1.438 2.909 12.173 12.173 0 0 1-3.713 4.568 17.636 17.636 0 0 1-6.061 2.402 12.895 12.895 0 0 1-7.478-1.052 93.908 93.908 0 0 0-9.137-3.327c-3.607-1.112-5.975-1.881-7.105-2.306a48.046 48.046 0 0 1-6.153-4.358c-3.46-2.66-5.307-4.191-5.54-4.595-1.952-4.647-2.795-7.875-2.53-9.683.02-.17.017-.344-.009-.514a3.547 3.547 0 0 1-.095-.465.823.823 0 0 1-.081-.241c.17-.256.357-.5.56-.728 4.091-4.248 8.22-8.498 12.385-12.75Z" fill="var(--body)"/>
  <path d="M38.727.402c9.586-.874 17.153-.324 22.7 1.65a81.906 81.906 0 0 1 12.75 5.55c2.953 1.75 6.953 5.017 12 9.8 5.058 4.817 10.39 13.867 16 27.15 5.569 13.33 8.352 25.197 8.35 35.6 0 13.467-4.033 23.684-12.1 30.65a49.334 49.334 0 0 1-11.05 7c-2.533 1.234-6.133 2.85-10.8 4.85-8.044 1.512-13.194 2.212-15.45 2.1a19.673 19.673 0 0 1-7.1-1.8c-2.439-1.063-7.756-3.83-15.95-8.3a15.731 15.731 0 0 1-5.1-5.2c-.9-1.333-2.033-3.266-3.4-5.8a7185.805 7185.805 0 0 0-7.85-16.5c-4.833-10.166-8.267-16.85-10.3-20.05-1.967-3.066-3.817-7.683-5.55-13.85-1.333-5.6-2-8.433-2-8.5 0-12.768 3.417-23.135 10.25-31.1 6.81-7.962 15.01-12.378 24.6-13.25m12 7.3a1.364 1.364 0 0 1-.3-.05 78.102 78.102 0 0 0-11.5.35c-5.268.47-11.084 3.753-17.45 9.85a29.203 29.203 0 0 0-5 6.4c-3.036 5.252-4.553 11.652-4.55 19.2 0 1.3 1.417 5.684 4.25 13.15 3.267 8.6 6.25 14.667 8.95 18.2.7.934 2.267 4.234 4.7 9.9 3.233 7.467 5.217 11.95 5.95 13.45 3.267 6.767 7.1 11.484 11.5 14.15 4.167 2.5 9.917 3.75 17.25 3.75a27.123 27.123 0 0 0 4.25-.5l.8-.15a35.209 35.209 0 0 1 4.2-.65c1.634-.002 5.9-1.952 12.8-5.85.28-.14.564-.29.85-.45 6.384-3.677 10.184-6.927 11.4-9.75a57.03 57.03 0 0 0 .7-1.8 78.705 78.705 0 0 0 2.65-8.15 33.474 33.474 0 0 0 1.15-7.85 29.59 29.59 0 0 0-.05-2.3 46.85 46.85 0 0 0-1.4-8.15c-.933-3.3-1.517-5.566-1.75-6.8a62.792 62.792 0 0 0-3.05-10.5l-2.05-5.1c-2.767-5.466-5.167-9.933-7.2-13.4-2.567-4.2-4-6.516-4.3-6.95-2.767-3.966-4.9-6.566-6.4-7.8a82.902 82.902 0 0 0-7.25-5.65 114.04 114.04 0 0 0-2.75-1.55 71.436 71.436 0 0 0-7.25-2.75 81.161 81.161 0 0 0-4.5-1.35l-4.65-.9Z" fill="var(--outline)"/>
  <path d="M55.427 8.802c.25.026.5.026.75 0a9.066 9.066 0 0 1-.8-.2c1.371.365 2.871.815 4.5 1.35a71.436 71.436 0 0 1 7.25 2.75c.916.5 1.833 1.016 2.75 1.55a82.902 82.902 0 0 1 7.25 5.65c1.5 1.234 3.633 3.834 6.4 7.8.3.434 1.733 2.75 4.3 6.95 2.033 3.467 4.433 7.934 7.2 13.4l2.05 5.1a62.792 62.792 0 0 1 3.05 10.5c.233 1.234.817 3.5 1.75 6.8a46.85 46.85 0 0 1 1.4 8.15c.046.762.063 1.529.05 2.3l-.05.5a6.292 6.292 0 0 1-.45 2.05 32.893 32.893 0 0 1-7.95 12.4 19.366 19.366 0 0 1-2.55 2.15 33.777 33.777 0 0 1-16.6 6.25 43.31 43.31 0 0 1-9.75-.1 21.833 21.833 0 0 0-5.6-2.35 30.772 30.772 0 0 1-8.85-11.35 8.99 8.99 0 0 0-.6-2.3 75.27 75.27 0 0 1-1.85-4.8c-.6-1.8-1.15-3.566-1.65-5.3a6.571 6.571 0 0 0-2.15-3.35c-.3-.5-.583-.983-.85-1.45-.6-1-1.184-1.966-1.75-2.9a62.84 62.84 0 0 0-2.9-4.4 16.807 16.807 0 0 0-2.65-2.9 3.963 3.963 0 0 0-.95-1.5c-.667-.7-1.3-1.416-1.9-2.15a9.117 9.117 0 0 1-1.75-3.5 11.554 11.554 0 0 0-1.65-3.7 3.991 3.991 0 0 0-.5-1.5 13.912 13.912 0 0 1-.8-2.25 17.184 17.184 0 0 0-1-3.05 25.832 25.832 0 0 1-1.15-2.95 3.254 3.254 0 0 0-.4-.75c0-.134-.017-.269-.05-.4a4.363 4.363 0 0 0-.25-1.1l-.3-.8a5.53 5.53 0 0 1-.4-1.5 3.666 3.666 0 0 0-.4-1.1 8.952 8.952 0 0 1-.6-1.1v-1.9c0-.633-.017-1.25-.05-1.85a155.3 155.3 0 0 0-.1-1.15 2.512 2.512 0 0 0-.35-1.1v-9.05c.033-.1.067-.216.1-.35a.888.888 0 0 0 .1-.4l.2-.7.1-.4c.03-.124.08-.242.15-.35a6.55 6.55 0 0 0 .8-1.1c.068-.168.17-.322.3-.45.2-.233.4-.483.6-.75.167-.233.333-.483.5-.75a19.364 19.364 0 0 1 6.6-3.65c2.725-.966 4.692-1.616 5.9-1.95a78.624 78.624 0 0 1 8.15-1.15 49.879 49.879 0 0 1 7.4.15Z" fill="var(--shadow)"/>
  <path d="M50.427 7.652c.098.028.198.045.3.05l4.65.9c.254.077.52.143.8.2-.25.026-.5.026-.75 0a49.879 49.879 0 0 0-7.4-.15 78.79 78.79 0 0 0-8.15 1.15c-1.208.334-3.175.984-5.9 1.95a19.364 19.364 0 0 0-6.6 3.65 14.75 14.75 0 0 1-.5.75c-.2.267-.4.517-.6.75-.13.128-.232.281-.3.45a6.633 6.633 0 0 1-.8 1.1 1.13 1.13 0 0 0-.15.35l-.1.4-.2.7a.888.888 0 0 1-.1.4 4.68 4.68 0 0 1-.1.35v9.05c.2.335.32.712.35 1.1.033.367.067.75.1 1.15.033.6.05 1.217.05 1.85v1.9c.174.38.375.748.6 1.1.191.343.326.715.4 1.1a5.53 5.53 0 0 0 .4 1.5l.3.8c.13.355.215.724.25 1.1.033.131.05.266.05.4.165.232.3.484.4.75a25.832 25.832 0 0 0 1.15 2.95c.428.984.762 2.005 1 3.05.202.772.47 1.525.8 2.25.265.462.435.972.5 1.5a11.554 11.554 0 0 1 1.65 3.7 9.117 9.117 0 0 0 1.75 3.5c.6.734 1.233 1.45 1.9 2.15.426.422.75.935.95 1.5.993.86 1.883 1.833 2.65 2.9 1.033 1.434 2 2.9 2.9 4.4.566.934 1.15 1.9 1.75 2.9.266.467.55.95.85 1.45a6.571 6.571 0 0 1 2.15 3.35c.5 1.734 1.05 3.5 1.65 5.3a75.23 75.23 0 0 0 1.85 4.8c.3.737.502 1.51.6 2.3a30.772 30.772 0 0 0 8.85 11.35 21.833 21.833 0 0 1 5.6 2.35c3.236.4 6.506.434 9.75.1a33.777 33.777 0 0 0 16.6-6.25 19.366 19.366 0 0 0 2.55-2.15 32.893 32.893 0 0 0 7.95-12.4 6.292 6.292 0 0 0 .45-2.05l.05-.5a33.474 33.474 0 0 1-1.15 7.85 78.705 78.705 0 0 1-2.65 8.15 57.16 57.16 0 0 1-.7 1.8c-1.217 2.823-5.017 6.073-11.4 9.75-.286.16-.57.31-.85.45-6.9 3.898-11.166 5.848-12.8 5.85a35.209 35.209 0 0 0-4.2.65l-.8.15a27.123 27.123 0 0 1-4.25.5c-7.333 0-13.083-1.25-17.25-3.75-4.4-2.666-8.233-7.383-11.5-14.15-.733-1.5-2.717-5.983-5.95-13.45-2.433-5.666-4-8.966-4.7-9.9-2.7-3.533-5.683-9.6-8.95-18.2-2.833-7.466-4.25-11.85-4.25-13.15-.003-7.548 1.514-13.948 4.55-19.2a29.203 29.203 0 0 1 5-6.4c6.365-6.097 12.182-9.38 17.45-9.85a78.167 78.167 0 0 1 11.5-.35Z" fill="var(--body)"/>
  <path d="M55.127 98.102c.04.09.09.173.15.25a3.317 3.317 0 0 1-.15-.2c-.007.001-.007-.015 0-.05m-15.45-14.55c.889-.17 2.055-.353 3.5-.55a39.875 39.875 0 0 1 18.95 6.3l.05.05a25.48 25.48 0 0 0 7.15 3.15 27.23 27.23 0 0 1-1.15 3.4 23.382 23.382 0 0 0-1.35 4.85 11.363 11.363 0 0 1-.8 2.95c.082-.218.165-.45.25-.7a78.523 78.523 0 0 0-.6-2.8 10.443 10.443 0 0 1-.3-1.4l-.3-1.7a.537.537 0 0 0-.1-.3 1.556 1.556 0 0 1-.2-.55 1.962 1.962 0 0 0-.1-.25v-.1a.144.144 0 0 1-.05-.1.144.144 0 0 0-.05-.1.444.444 0 0 0-.05-.2l-.1-.1a.044.044 0 0 0-.05-.05c-.033-.066-.067-.1-.1-.1a.583.583 0 0 0-.15-.1l-.1-.1h-.15a.443.443 0 0 1-.2-.05 1.952 1.952 0 0 0-.4.15 1.263 1.263 0 0 0-.3.15 1.76 1.76 0 0 0-.35 1.2 4.15 4.15 0 0 0-.2.25 84.96 84.96 0 0 0-2.1 2.95 70.09 70.09 0 0 1-3.35-4.35 10.725 10.725 0 0 1-1.7-3.7v-.25a.711.711 0 0 0-.1-.4l-.1-.1-.1-.1a.044.044 0 0 0-.05-.05l-.2-.1-.1-.1h-.15a.443.443 0 0 1-.2-.05c-.31.093-.599.246-.85.45a.402.402 0 0 1-.1.1c-.012.024-.012.04 0 .05-.29.324-.48.722-.55 1.15a.717.717 0 0 0 0 .2.58.58 0 0 0-.05.1 55.87 55.87 0 0 0-.5 1.7 15.394 15.394 0 0 0 .05 5.1c.1.703.285 1.391.55 2.05.278.775.647 1.513 1.1 2.2a5.569 5.569 0 0 1-.3-.8 20.254 20.254 0 0 0 2.85 5.35 11.688 11.688 0 0 1 2.2 5.3c.068.64.237 1.264.5 1.85v2.25c-1.271.297-2.538.597-3.8.9h-5.1c-1.7-.533-3.4-1.033-5.1-1.5a18.423 18.423 0 0 1-7.8-4.65c-.834-1.3-1.684-2.6-2.55-3.9a27.04 27.04 0 0 1-3.55-7.65 84.734 84.734 0 0 1-1.25-4.55v-1.9a1.47 1.47 0 0 1 .05-.35c.233-.733.45-1.483.65-2.25.19-.807.459-1.594.8-2.35.266-.7.516-1.416.75-2.15.245-.203.479-.42.7-.65.441-.428.909-.829 1.4-1.2a6.87 6.87 0 0 1 2.45-1.15c.976-.233 1.926-.45 2.85-.65Z" fill="var(--shadow)"/>
  <path d="M53.327 91.052a.402.402 0 0 0 .1-.1c.251-.204.54-.357.85-.45.062.033.13.05.2.05h.15l.1.1.2.1a.044.044 0 0 1 .05.05l.1.1.1.1a.71.71 0 0 1 .1.4v.25a10.71 10.71 0 0 0 1.7 3.7 70.054 70.054 0 0 0 3.35 4.35 85.032 85.032 0 0 1 2.1-2.95c.067-.09.134-.173.2-.25a1.76 1.76 0 0 1 .35-1.2c.093-.063.194-.113.3-.15.128-.064.262-.114.4-.15.062.033.13.05.2.05h.15l.1.1c.055.026.106.06.15.1.033 0 .067.034.1.1a.044.044 0 0 1 .05.05l.1.1c.032.062.05.13.05.2.03.026.048.062.05.1a.14.14 0 0 0 .05.1v.1c.04.081.073.165.1.25.031.195.1.381.2.55a.537.537 0 0 1 .1.3l.3 1.7c.068.473.168.941.3 1.4.219.938.419 1.87.6 2.8-.084.25-.168.482-.25.7l-1.15 1.8a.765.765 0 0 0-.05.05c-.066-.333-.116-.65-.15-.95v-.55l-.1-.2a.444.444 0 0 0-.05-.2v-3.95a1.469 1.469 0 0 0-.1-.55l-.15-.15a.566.566 0 0 0-.2-.2 5.9 5.9 0 0 1-.4-.35.282.282 0 0 1-.1-.05c-.166-.033-.35-.066-.55-.1-.149.03-.299.064-.45.1a.113.113 0 0 1-.05.05 1.11 1.11 0 0 0-.35.15l-.2.2a1.372 1.372 0 0 0-.25.35c-.09.174-.158.36-.2.55a16.86 16.86 0 0 0-.55.75 15.92 15.92 0 0 0-1.1 1.75 2.253 2.253 0 0 0-.2.3.144.144 0 0 0-.05.1 27.368 27.368 0 0 1-1.8-1.55l-2.55-2.7a1.28 1.28 0 0 1-.15-.25c-.007.035-.007.051 0 .05a16.525 16.525 0 0 1-.45-.55.204.204 0 0 1-.15-.05 1.94 1.94 0 0 1-.25-.1 1.372 1.372 0 0 0-.35.25c-.066.1-.15.217-.25.35-.07.141-.154.275-.25.4-.073.13-.14.264-.2.4a4.1 4.1 0 0 0-.15.35 4.952 4.952 0 0 0-.25.75.183.183 0 0 0 .05.1.556.556 0 0 0 .05.25.33.33 0 0 0 .05.2l.65 2.3c.08.274.18.542.3.8a10.401 10.401 0 0 1-1.1-2.2 8.883 8.883 0 0 1-.55-2.05 15.394 15.394 0 0 1-.05-5.1c.167-.6.334-1.166.5-1.7a.58.58 0 0 1 .05-.1.717.717 0 0 1 0-.2c.07-.427.261-.826.55-1.15-.011-.01-.011-.026 0-.05m-10.15-8.05a69.39 69.39 0 0 0-3.5.55c-.924.2-1.874.417-2.85.65a6.87 6.87 0 0 0-2.45 1.15c-.49.371-.958.772-1.4 1.2-.22.23-.455.447-.7.65a39.92 39.92 0 0 1-.75 2.15 12.993 12.993 0 0 0-.8 2.35c-.2.767-.416 1.517-.65 2.25a1.47 1.47 0 0 0-.05.35v1.9a85.59 85.59 0 0 0 1.25 4.55 27.04 27.04 0 0 0 3.55 7.65c.867 1.3 1.717 2.6 2.55 3.9a18.423 18.423 0 0 0 7.8 4.65c1.7.467 3.4.967 5.1 1.5h5.1c1.263-.303 2.53-.603 3.8-.9v.4a6.46 6.46 0 0 0-.3 1.15 6.574 6.574 0 0 1-.4 1.3 16.528 16.528 0 0 1-1.8 3.15c-1.866 1.6-5.333 2.4-10.4 2.4a14.311 14.311 0 0 1-8.15-2.35c-2.374-1.528-4.874-4.295-7.5-8.3-.11-.228-.227-.462-.35-.7a210.047 210.047 0 0 1-1.95-6.55c-1.133-3.933-1.583-6.483-1.35-7.65.03-1.696.214-3.386.55-5.05a22.754 22.754 0 0 1 5.65-11.3c.2-.066.417-.133.65-.2.267-.1.55-.2.85-.3.234-.066.484-.15.75-.25.081-.039.165-.072.25-.1a45.59 45.59 0 0 1 7.5-.2Z" fill="var(--body)"/>
  <path d="M35.677 83.202c-.086.028-.17.061-.25.1a9.89 9.89 0 0 1-.75.25c-.3.1-.583.2-.85.3a17.6 17.6 0 0 0-.65.2 22.754 22.754 0 0 0-5.65 11.3 27.974 27.974 0 0 0-.55 5.05c-.233 1.167.217 3.717 1.35 7.65a209.722 209.722 0 0 0 1.95 6.55c.123.238.24.472.35.7 2.626 4.005 5.126 6.772 7.5 8.3a14.311 14.311 0 0 0 8.15 2.35c5.067 0 8.533-.8 10.4-2.4a16.528 16.528 0 0 0 1.8-3.15 6.56 6.56 0 0 0 .4-1.3 6.46 6.46 0 0 1 .3-1.15v-2.65a6.103 6.103 0 0 1-.5-1.85 11.688 11.688 0 0 0-2.2-5.3 20.254 20.254 0 0 1-2.85-5.35l-.65-2.3a.324.324 0 0 1-.05-.2.556.556 0 0 1-.05-.25.183.183 0 0 1-.05-.1c.063-.256.147-.507.25-.75.045-.12.095-.237.15-.35.06-.136.126-.27.2-.4.095-.125.179-.26.25-.4.1-.133.183-.25.25-.35.103-.101.22-.186.35-.25.081.04.165.073.25.1a.204.204 0 0 0 .15.05c.151.193.301.376.45.55.052.074.102.141.15.2l2.55 2.7c.567.534 1.167 1.05 1.8 1.55a.144.144 0 0 1 .05-.1c.059-.105.125-.205.2-.3a15.92 15.92 0 0 1 1.1-1.75c.168-.244.351-.494.55-.75.042-.191.11-.376.2-.55.064-.129.148-.247.25-.35l.2-.2c.107-.07.226-.12.35-.15a.113.113 0 0 0 .05-.05c.15-.037.3-.07.45-.1.2.034.383.067.55.1.03.024.064.04.1.05.128.122.26.24.4.35a.566.566 0 0 1 .2.2l.15.15c.068.176.102.362.1.55v3.95c.032.062.05.13.05.2l.1.2v.55c.033.3.083.617.15.95.067.234.133.484.2.75.061.18.111.364.15.55.1.3.2.584.3.85a28.905 28.905 0 0 1 1.45 12 14.339 14.339 0 0 1-4.5 8.2c-.298.276-.598.542-.9.8a15.705 15.705 0 0 1-7.3 4.35 23.546 23.546 0 0 1-6.5.9 22.893 22.893 0 0 1-9.95-2.45 60.946 60.946 0 0 1-5.45-3c-3.376-2.898-6.392-7.348-9.05-13.35-2.697-5.967-4.13-10.884-4.3-14.75a35.82 35.82 0 0 1 3.25-15.1 16.603 16.603 0 0 1 9.4-9.05 26.317 26.317 0 0 1 14.9-1.2 64.271 64.271 0 0 1 17.85 5.8c.561.108 1.13.175 1.7.2.34.01.69.01 1.05 0a20.28 20.28 0 0 0 7.15.5v.55c-.29.56-.828.95-1.45 1.05-.97.193-1.922.46-2.85.8.075.077.16.144.25.2a17.32 17.32 0 0 1 3.25 2.6c.764.596 1.514 1.196 2.25 1.8.314.213.6.465.85.75.23.223.356.53.35.85a.145.145 0 0 1-.05.1v.25a.294.294 0 0 1-.15.25 8.206 8.206 0 0 1-2 .75c-1.205.178-3.005.512-5.4 1a25.48 25.48 0 0 1-7.15-3.15l-.05-.05a39.875 39.875 0 0 0-18.95-6.3 45.59 45.59 0 0 0-7.5.2Z" fill="var(--outline)"/>
  <path d="M52.377 16.802c4.167 1.1 8.317 4.317 12.45 9.65 4.1 5.234 6 10.167 5.7 14.8-.3 4.6-2.2 7.584-5.7 8.95a58.573 58.573 0 0 1-9.55 2.8c-2.833.534-5.1.95-6.8 1.25-2.133.367-9.183 2.167-21.15 5.4a18.292 18.292 0 0 0-4.55 2.05c-.2.067-1.317.667-3.35 1.8a15.713 15.713 0 0 1-5.65 1.85c-4.166.3-7.45-1.683-9.85-5.95a30.078 30.078 0 0 1-3.45-12.95c-.133-2.1-.183-3.683-.15-4.75a11.48 11.48 0 0 1 1.2-5.1 17.245 17.245 0 0 1 2.35-4.45 26.196 26.196 0 0 1 6.9-6.25 62.912 62.912 0 0 1 5.8-3.5 70.528 70.528 0 0 1 10.55-3.7 82.999 82.999 0 0 1 13.05-2.85c4.09-.493 8.236-.17 12.2.95m9.5 17.9a20.17 20.17 0 0 0-4-5.3 17.832 17.832 0 0 0-14.45-5.25 63.132 63.132 0 0 0-21.4 5.15 2.92 2.92 0 0 1-.2.1l-.4.15a3.93 3.93 0 0 1-.4.2h.05c-.314.137-.614.27-.9.4a32.87 32.87 0 0 0-6.85 4.05c-.172.164-.338.314-.5.45l-1.25 1.25a11.91 11.91 0 0 0-3.1 4.95 11.958 11.958 0 0 0-.75 4.6c.082 2.072.61 4.102 1.55 5.95 1.267 2.534 3.1 3.717 5.5 3.55a13.326 13.326 0 0 0 6.05-1.6 26.49 26.49 0 0 1 5.8-2.75c1.403-.433 3.22-.916 5.45-1.45h.05c.314-.055.647-.121 1-.2l1-.25c.798-.15 1.648-.317 2.55-.5 4.1-.833 7.85-1.5 11.25-2a46.842 46.842 0 0 0 11.65-3.35c2.467-1.2 3.667-2.3 3.6-3.3a13.785 13.785 0 0 0-1.3-4.85Z" fill="#091628"/>
  <path d="M21.027 29.752a3.93 3.93 0 0 0 .4-.2l.4-.15c.058-.025.125-.059.2-.1-.28.217-.605.37-.95.45h-.05m40.45 7.55c.409-.8.55-1.713.4-2.6a13.785 13.785 0 0 1 1.3 4.85c.067 1-1.133 2.1-3.6 3.3a46.842 46.842 0 0 1-11.65 3.35c-3.4.5-7.15 1.167-11.25 2-.902.183-1.752.35-2.55.5l-1 .25c-.353.079-.686.145-1 .2h-.05c-2.23.534-4.047 1.017-5.45 1.45a26.49 26.49 0 0 0-5.8 2.75 13.326 13.326 0 0 1-6.05 1.6c-2.4.167-4.233-1.016-5.5-3.55a14.384 14.384 0 0 1-1.55-5.95c-.054-1.567.2-3.13.75-4.6a11.91 11.91 0 0 1 3.1-4.95l1.25-1.25c.162-.136.328-.286.5-.45a32.87 32.87 0 0 1 6.85-4.05c-.5.567-1.017 1.15-1.55 1.75a1.534 1.534 0 0 1-.15.15 11.114 11.114 0 0 0-2.2 5.85 5.748 5.748 0 0 0 2.45 4.8c2.1 1.6 5.433 2.417 10 2.45 1.854.073 3.71-.01 5.55-.25a134.42 134.42 0 0 1 7.25-1.5c2.233-.398 5.45-.965 9.65-1.7 4.2-.702 6.884-1.468 8.05-2.3a8.225 8.225 0 0 0 2.25-2.1Z" fill="#4E7A8D"/>
  <path d="M61.877 34.702c.15.888.01 1.8-.4 2.6a8.225 8.225 0 0 1-2.25 2.1c-1.166.832-3.85 1.598-8.05 2.3-4.2.735-7.417 1.302-9.65 1.7-2.433.434-4.85.934-7.25 1.5-1.84.24-3.696.323-5.55.25-4.567-.033-7.9-.85-10-2.45a5.748 5.748 0 0 1-2.45-4.8c.159-2.12.922-4.15 2.2-5.85.053-.046.104-.096.15-.15.533-.6 1.05-1.183 1.55-1.75.286-.13.586-.263.9-.4.345-.08.67-.233.95-.45a63.132 63.132 0 0 1 21.4-5.15 17.832 17.832 0 0 1 14.45 5.25 20.17 20.17 0 0 1 4 5.3m-21.15-3.9c.279-.003.553-.071.8-.2 3.7.3 7.367.684 11 1.15.413.028.811-.161 1.05-.5.09-.11.174-.228.25-.35.006.014.023.014.05 0 .415-.242.72-.637.85-1.1v-.4a.444.444 0 0 0 .05-.2.384.384 0 0 0-.05-.15v-.2a.444.444 0 0 1-.05-.2v-.2a11.69 11.69 0 0 0-7.65-2.75 19.34 19.34 0 0 1-3.7-.35 1.63 1.63 0 0 1-.4-.05 9.032 9.032 0 0 0-3.8.3 2.749 2.749 0 0 0-.8.4c-.14.053-.274.12-.4.2a2.554 2.554 0 0 0-1.1 1.45v.4a.204.204 0 0 1-.05.15l.1.6c.039.413.215.8.5 1.1.285.288.604.54.95.75a8.464 8.464 0 0 0 2.4.15Z" fill="#90C3D0"/>
  <path d="M41.527 30.602a1.776 1.776 0 0 1-.8.2 8.464 8.464 0 0 1-2.4-.15 4.943 4.943 0 0 1-.95-.75 1.849 1.849 0 0 1-.5-1.1l-.1-.6a.204.204 0 0 0 .05-.15v-.4a2.554 2.554 0 0 1 1.1-1.45c.126-.08.26-.147.4-.2.243-.176.513-.31.8-.4a9.032 9.032 0 0 1 3.8-.3c.13.033.265.05.4.05a19.34 19.34 0 0 0 3.7.35 11.69 11.69 0 0 1 7.65 2.75v.2c0 .07.018.139.05.2v.2a.384.384 0 0 1 .05.15c0 .07-.018.139-.05.2v.4c-.13.463-.435.858-.85 1.1-.027.014-.044.014-.05 0a3.36 3.36 0 0 1-.25.35 1.189 1.189 0 0 1-1.05.5c-3.633-.466-7.3-.85-11-1.15Z" fill="#FFF"/>
</svg>
