<?xml version="1.0" encoding="UTF-8" standalone="no"?>
<svg xmlns:dc="http://purl.org/dc/elements/1.1/" xmlns:cc="http://creativecommons.org/ns#" xmlns:rdf="http://www.w3.org/1999/02/22-rdf-syntax-ns#" xmlns:svg="http://www.w3.org/2000/svg" xmlns="http://www.w3.org/2000/svg" xmlns:sodipodi="http://sodipodi.sourceforge.net/DTD/sodipodi-0.dtd" xmlns:inkscape="http://www.inkscape.org/namespaces/inkscape" id="Layer_1" data-name="Layer 1" viewBox="0 0 137.42583 153.43502" version="1.1" sodipodi:docname="green.svg">
  <metadata id="metadata44">
    <rdf:RDF>
      <cc:Work rdf:about="">
        <dc:format>image/svg+xml</dc:format>
        <dc:type rdf:resource="http://purl.org/dc/dcmitype/StillImage"/>
      </cc:Work>
    </rdf:RDF>
  </metadata>
  <sodipodi:namedview pagecolor="#ffffff" bordercolor="#666666" borderopacity="1" objecttolerance="10" gridtolerance="10" guidetolerance="10" inkscape:pageopacity="0" inkscape:pageshadow="2" inkscape:window-width="640" inkscape:window-height="480" id="namedview42"/>
  <defs id="defs4">
    <style id="style2">.cls-1{fill:#0a4d2e;}.cls-2{fill:#11802d;}.cls-3{fill:#052519;}.cls-4{fill:#091628;}.cls-5{fill:#90c3d0;}.cls-6{fill:#fff;}.cls-7{fill:#4e7a8d;}</style>
  </defs>
  <g id="Layer4_15_MEMBER_0_FILL" data-name="Layer4 15 MEMBER 0 FILL">
    <path class="cls-1" d="M11.55293,100.47335a10.35689,10.35689,0,0,0,7.45,5.06089,30.346,30.346,0,0,0,13.4-.55614,21.44234,21.44234,0,0,1,13.85-1.61276,20.1205,20.1205,0,0,0,.6,5.33895,16.65734,16.65734,0,0,0,1.85,4.61595q2.56548-.41283,4.7-.72295,4.83-.73278,7.7-1.00108a22.56205,22.56205,0,0,0,5.75-1.11229,6.49012,6.49012,0,0,1,2.1-.61174,17.1951,17.1951,0,0,0,.95-3.67053,24.70376,24.70376,0,0,0,.45-2.66951l-.2-3.17a94.30733,94.30733,0,0,0-5.6-16.01693,20.45466,20.45466,0,0,1-1.8,1.55722q-7.2495-.78624-21.6.16681-14.34549.9615-19.9,2.78071-5.5035,1.827-7.6,5.50583a.07857.07857,0,0,1,0,.0556.12056.12056,0,0,1-.05.05566q-.17322.34064-.35.66735A20.7645,20.7645,0,0,0,11.55293,100.47335Z" transform="translate(-4.11949 -1.66021)" id="path6"/>
    <path class="cls-2" d="M20.17156,104.57493a10.44071,10.44071,0,0,1-7.45-5.7422q-.21835,1.67027-.35,3.47057-.34562,6.25463,2.4,9.97a11.76178,11.76178,0,0,0,9.9,4.92185q5.7-.0001,17.35-2.27163,4.31837-.85755,7.85-1.51444a20.43443,20.43443,0,0,1-1.85-5.23737,25.76754,25.76754,0,0,1-.6-6.05771,19.15091,19.15091,0,0,0-13.85,1.82988A26.85935,26.85935,0,0,1,20.17156,104.57493Z" transform="translate(-4.11949 -1.66021)" id="path8"/>
    <path class="cls-3" d="M10.71953,88.19933q-6.59683,6.64527-6.6,18.3,0,6.45,5.7,11.4,6.65,5.8,18,5.8a19.55244,19.55244,0,0,0,2.95-.2q7.6-1.15,13.45-2,11.2-1.6,21.69995-2.05,5.15012-.24994,6.75-1.6a6.8108,6.8108,0,0,0,1.55005-1.75,3.94587,3.94587,0,0,0,.3-1.65,4.81756,4.81756,0,0,0-.85-2.35,6.89851,6.89851,0,0,0-3.44995-2.85,7.068,7.068,0,0,0-2.1.55,24.80151,24.80151,0,0,1-5.75,1q-2.86989.24114-7.7.9-2.13454.27886-4.7.65-3.53165.52049-7.85,1.2a125.52325,125.52325,0,0,1-17.35,1.8,13.004,13.004,0,0,1-9.9-3.9q-2.74566-2.944-2.4-7.9.13165-1.42658.35-2.75a17.35685,17.35685,0,0,1,1.7-4.8q.17679-.2937.35-.6a.114.114,0,0,0,.05-.05.06389.06389,0,0,0,0-.05q2.09647-3.30744,7.6-4.95,5.5545-1.63558,19.9-2.5,14.35053-.85674,21.6-.15a20.0647,20.0647,0,0,0,1.8-1.4q3.09695-4.49524-3.05-5.55-6.14062-1.06411-25.8-.1Q17.31014,81.61339,10.71953,88.19933Z" transform="translate(-4.11949 -1.66021)" id="path10"/>
  </g>
  <g id="Layer4_15_MEMBER_1_FILL" data-name="Layer4 15 MEMBER 1 FILL">
    <path class="cls-3" d="M141.33147,61.04523a106.55623,106.55623,0,0,0-3.05-16.35q-3.35-13.65-8.85-20.6-5.89764-8.75-12.3-12.95-6.35074-4.15-10.3-3.45-11.4,1.95008-15.19995,5.1a4.11981,4.11981,0,0,0-1.5,1.94995,1.52277,1.52277,0,0,0-.05.85,26.749,26.749,0,0,0,1.2,5.45q2,6.84989,3.65,14.05.6,2.6,4.65,17.6,3.74991,15,3.75,21.6a119.79771,119.79771,0,0,1-1.05,13.85q-.15,6.25,4.15,7.6a39.58565,39.58565,0,0,0,8,1.05q4.1499.3,7.4.3,6.54977.0054,11.8-7.6,5.30062-7.61874,6.2-11.7.94866-4.07685,1.45-7.65a42.51846,42.51846,0,0,0,.05-9.1m-23.05-38.3a65.21237,65.21237,0,0,1,5.65,8.15,53.36716,53.36716,0,0,1,5.5,12.45q.29993,1.1,1.95,6a64.94942,64.94942,0,0,1,1.45,14.8,44.19176,44.19176,0,0,1-2.2,13.35,23.34806,23.34806,0,0,1-3.25,6.85l-2.2,2.35a8.12162,8.12162,0,0,1-5.1,1.75,87.32715,87.32715,0,0,0-9.25-.5q.8-15.6.45-18.55a85.71748,85.71748,0,0,1-1.85-9.2q-.8-5.6-.9-6.25-.05-.2-.95-3.25-8.25009-26.89992-8.25-32.5-.00009-.2547.7-.65a23.06933,23.06933,0,0,1,3.2-1.3q.598-.2081,1.15-.4a11.14956,11.14956,0,0,1,6.95.15Q112.83138,16.59523,118.28148,22.74518Z" transform="translate(-4.11949 -1.66021)" id="path13"/>
    <path class="cls-1" d="M126.33147,48.24518q-.15-.50005-.3-1.1a61.64172,61.64172,0,0,0-4.55-12.5,34.05946,34.05946,0,0,0-6.95-9.65.44283.44283,0,0,0-.05-.2.3838.3838,0,0,0-.05-.15,9.41113,9.41113,0,0,0-1.4-1.65q-3.6-3.25-7.5-6.25-.559-.44294-1.15-.9-.552.1919-1.15.4a23.06933,23.06933,0,0,0-3.2,1.3q-.7.39532-.7.65-.00009,5.6001,8.25,32.5.9,3.05.95,3.25.10007.65.9,6.25a85.71748,85.71748,0,0,0,1.85,9.2q.3501,2.94991-.45,18.55a87.32715,87.32715,0,0,1,9.25.5,8.12162,8.12162,0,0,0,5.1-1.75l2.2-2.35a42.46926,42.46926,0,0,0-4.1-2.15q.15-.29993.3-.55a1.95394,1.95394,0,0,0,.15-.4,1.10621,1.10621,0,0,0,.05-.35,2.451,2.451,0,0,0,.85-1.5,6.52774,6.52774,0,0,1,.7-2.2,5.07352,5.07352,0,0,0,.55-2.5,2.76493,2.76493,0,0,0,.2-.75q.05-.29993.1-.55a1.95983,1.95983,0,0,1,.15-.4q-.00009-.05,0-.15-.00009-.10007,0-.2.10007-.4.2-.75.10007-.45.25-.95.15-.35.3-.75a8.46562,8.46562,0,0,0,0-1.3,5.67881,5.67881,0,0,1,.15-1.7,4.59975,4.59975,0,0,0,.15-1.5,7.38626,7.38626,0,0,0,.3-2.45q-.05-1.59988,0-3.15a14.357,14.357,0,0,0-.3-3.4q.00009-.54994,0-1.1a6.41079,6.41079,0,0,0-.1-1.15,4.98942,4.98942,0,0,0-.15-.75q.00009-.1,0-.2.00009-.3499,0-.75a2.80527,2.80527,0,0,0-.05-.55q-.00009-.2,0-.35a7.37925,7.37925,0,0,1-.25-.8,4.74654,4.74654,0,0,0-.3-.9,4.62257,4.62257,0,0,1-.15-.55q.00009-.2,0-.4a1.10641,1.10641,0,0,0-.05-.35q-.00009-.2,0-.4Q126.33138,48.34522,126.33147,48.24518Z" transform="translate(-4.11949 -1.66021)" id="path15"/>
    <path class="cls-2" d="M123.9315,30.89521a65.21237,65.21237,0,0,0-5.65-8.15q-5.45-6.15-6.95-6.75a11.14956,11.14956,0,0,0-6.95-.15q.591.457,1.15.9,3.9,2.99991,7.5,6.25a9.41113,9.41113,0,0,1,1.4,1.65.3838.3838,0,0,1,.05.15.44283.44283,0,0,1,.05.2,34.05946,34.05946,0,0,1,6.95,9.65,61.64172,61.64172,0,0,1,4.55,12.5q.15.59994.3,1.1-.00009.10007,0,.2-.00009.20006,0,.4a1.10641,1.10641,0,0,1,.05.35q.00009.20006,0,.4a4.62257,4.62257,0,0,0,.15.55,4.74654,4.74654,0,0,1,.3.9,7.37925,7.37925,0,0,0,.25.8q-.00009.15,0,.35a2.80527,2.80527,0,0,1,.05.55q.00009.4001,0,.75.00009.10007,0,.2a4.98942,4.98942,0,0,1,.15.75,6.41079,6.41079,0,0,1,.1,1.15q.00009.55,0,1.1a14.357,14.357,0,0,1,.3,3.4q-.05,1.55,0,3.15a7.38626,7.38626,0,0,1-.3,2.45,4.59975,4.59975,0,0,1-.15,1.5,5.67881,5.67881,0,0,0-.15,1.7,8.46562,8.46562,0,0,1,0,1.3q-.15.4-.3.75-.15.5-.25.95-.1.35-.2.75-.00009.1,0,.2-.00009.1,0,.15a1.95983,1.95983,0,0,0-.15.4q-.05.25-.1.55a2.76493,2.76493,0,0,1-.2.75,5.07352,5.07352,0,0,1-.55,2.5,6.52774,6.52774,0,0,0-.7,2.2,2.451,2.451,0,0,1-.85,1.5,1.10621,1.10621,0,0,1-.05.35,1.95394,1.95394,0,0,1-.15.4q-.15.25-.3.55a42.46926,42.46926,0,0,1,4.1,2.15,23.34806,23.34806,0,0,0,3.25-6.85,44.19176,44.19176,0,0,0,2.2-13.35,64.94942,64.94942,0,0,0-1.45-14.8q-1.65006-4.9-1.95-6A53.36716,53.36716,0,0,0,123.9315,30.89521Z" transform="translate(-4.11949 -1.66021)" id="path17"/>
  </g>
  <g id="Layer4_15_MEMBER_2_FILL" data-name="Layer4 15 MEMBER 2 FILL">
    <path class="cls-3" d="M122.13152,83.89521q.84987-4.9.85-16.75a78.82187,78.82187,0,0,0-4.2-25.15,70.84023,70.84023,0,0,0-16.5-27.44995,41.427,41.427,0,0,0-4.85-4.55005q-1.30333-.84549-3.55-2.4a39.20218,39.20218,0,0,0-7.9-3.55,44.43155,44.43155,0,0,0-13.4-2.35,61.99682,61.99682,0,0,0-17.25,2.05q-9.49008,2.35419-14.85,7.35a48.8397,48.8397,0,0,0-9.4,12.65q-4.052,7.70453-4.05,14.1,0,6.64993,5.3,21.6,5.24991,14.95,5.25,19.25-.00009,10.9,1.7,16.45,2.45,8.09994,11.45,20.85a6.36866,6.36866,0,0,0-2.55.4l13.05,11.1q22.30005-1.34994,32.95-6.45,13.1-6.24994,21.4-22a36.99966,36.99966,0,0,0,6.55-15.15m-77.15-67.1a6.48025,6.48025,0,0,1,1.75-1.4.20357.20357,0,0,1,.15-.05q3.05-1.7,6.2-3.15a21.37942,21.37942,0,0,1,4.8-1.6h.55a40.95214,40.95214,0,0,1,6.45-.75h1.5a119.01009,119.01009,0,0,1,13.15.5,22.59654,22.59654,0,0,1,6.85,1.95,29.90152,29.90152,0,0,1,6.3,4.35q3.44441,2.95449,3.75,3.2,3.9,3.19995,10.7,17.25,6.9,14.2,6.9,19.45a23.5756,23.5756,0,0,0,.4,3.75q.40338,2.3508,1.1,10.35a48.83649,48.83649,0,0,1-1.7,16.9,28.32885,28.32885,0,0,1-3.3,7.5h0q-.41409.73177-.9,1.45l-9.15,11.25a1.37821,1.37821,0,0,1-.2.2,2.102,2.102,0,0,1-.25.25q-.40641-.04449-5.45,2.5-1.1955.60179-2.65,1.35-11.452,5.84674-20.2,6.05-6.85-2.55-7.65-2.9a26.17018,26.17018,0,0,1-5.35-2.9,24.64889,24.64889,0,0,1-4.9-4.5q-.52716-.60471-.95-1.1-.46968-.58319-.8-1.05a7.29115,7.29115,0,0,1-.5-.7q-.09623-.16249-2.15-4.05a42.09808,42.09808,0,0,1-3.4-9.8,57.32924,57.32924,0,0,1-1.45-11.6,85.18532,85.18532,0,0,0-.8-11q-1.65-11.5-5.35-18.6a26.99981,26.99981,0,0,1-2.95-12.6,25.37367,25.37367,0,0,1,4.2-14.1,31.55994,31.55994,0,0,1,2.8-3.65,2.75312,2.75312,0,0,0,.2-.25q.32767-.33151.65-.65.14986-.15463.3-.3a3.59787,3.59787,0,0,1,.45-.55.58179.58179,0,0,0,.15-.1q.35-.45.75-.9m26.15,101.3a5.84212,5.84212,0,0,1-2.2-.9l2.75.9Z" transform="translate(-4.11949 -1.66021)" id="path20"/>
    <path class="cls-2" d="M68.9315,117.19519a5.84212,5.84212,0,0,0,2.2.9h.55l-2.75-.9m-16.9-102.25q-.85.75-1.65,1.5-.7.65-1.4,1.35a.14366.14366,0,0,0-.05.1l-.1.2a.48218.48218,0,0,1-.2.25l-.1.1a.53769.53769,0,0,1-.1.3,6.76464,6.76464,0,0,0-.85,1.7.61676.61676,0,0,0-.1.35,3.44294,3.44294,0,0,0-.1.4q-.05.20005-.1.45v.1q-.1.55-.15,1.1.00009.09841,0,.2.02425.1008.05.2a15.15858,15.15858,0,0,1,.45,2.15,15.38921,15.38921,0,0,1,.85,2.6q.16334.68052.35,1.35a5.1237,5.1237,0,0,0,.25.5,13.36863,13.36863,0,0,0,3.15,4.7,7.994,7.994,0,0,1,2.45,3.95,4.23335,4.23335,0,0,1,.6.75,3.26079,3.26079,0,0,1,.2.35l.2.4a52.011,52.011,0,0,1,7.6,13.4,104.71073,104.71073,0,0,1,4.8,16.6,2.99159,2.99159,0,0,1,.3,1.1q.05.6.15,1.15a5.32134,5.32134,0,0,1,.05.75q.10007.35.25.75.10007.35.25.75.15.55.35,1.1a18.06508,18.06508,0,0,1,.2,2.65q.09987,1.90009.05,3.75v.35a1.95315,1.95315,0,0,1,.15.4q.05.2.1.35a3.298,3.298,0,0,0,.1,1.15q.10007.55.2,1.1.1.3999.2.75a15.74159,15.74159,0,0,0,.5,3.05,14.77216,14.77216,0,0,0,1.75,4.1q6.183,7.93378,12.8,9.5a30.56091,30.56091,0,0,0,14.25-.25q5.85177-.8216,10.8-7.45a28.32885,28.32885,0,0,0,3.3-7.5,48.83649,48.83649,0,0,0,1.7-16.9q-.69672-7.99925-1.1-10.35a23.5756,23.5756,0,0,1-.4-3.75q0-5.24991-6.9-19.45-6.8-14.05-10.7-17.25-.30559-.24555-3.75-3.2a29.90152,29.90152,0,0,0-6.3-4.35,22.59654,22.59654,0,0,0-6.85-1.95,119.01009,119.01009,0,0,0-13.15-.5h-1.5v.05a.58351.58351,0,0,0-.15.1l-.1.1a.582.582,0,0,0-.15.1,21.79262,21.79262,0,0,0-5.9.9,28.005,28.005,0,0,0-3.6,1.45Q53.43141,13.69522,52.03148,14.94519Z" transform="translate(-4.11949 -1.66021)" id="path22"/>
    <path class="cls-1" d="M46.73149,15.39521a6.48025,6.48025,0,0,0-1.75,1.4q-.4.45-.75.9a.58179.58179,0,0,1-.15.1,3.59787,3.59787,0,0,0-.45.55q-.15024.14529-.3.3-.32237.3186-.65.65a2.75312,2.75312,0,0,1-.2.25,31.55994,31.55994,0,0,0-2.8,3.65,25.37367,25.37367,0,0,0-4.2,14.1,26.99981,26.99981,0,0,0,2.95,12.6q3.7,7.1,5.35,18.6a85.18532,85.18532,0,0,1,.8,11,57.32924,57.32924,0,0,0,1.45,11.6,42.09808,42.09808,0,0,0,3.4,9.8q2.05371,3.88741,2.15,4.05a7.29115,7.29115,0,0,0,.5.7q.33022.46681.8,1.05.42288.4953.95,1.1a24.64889,24.64889,0,0,0,4.9,4.5,26.17018,26.17018,0,0,0,5.35,2.9q.8.3501,7.65,2.9,8.748-.20334,20.2-6.05,1.4545-.74826,2.65-1.35,5.04363-2.54443,5.45-2.5a2.102,2.102,0,0,0,.25-.25,1.37821,1.37821,0,0,0,.2-.2l9.15-11.25q.48587-.71805.9-1.45h0q-4.94824,6.62823-10.8,7.45a30.56091,30.56091,0,0,1-14.25.25q-6.617-1.5662-12.8-9.5a14.77216,14.77216,0,0,1-1.75-4.1,15.74159,15.74159,0,0,1-.5-3.05q-.10007-.3501-.2-.75-.1-.55-.2-1.1a3.298,3.298,0,0,1-.1-1.15q-.05-.15-.1-.35a1.95315,1.95315,0,0,0-.15-.4v-.35q.05-1.84991-.05-3.75a18.06508,18.06508,0,0,0-.2-2.65q-.2-.55-.35-1.1-.15-.4-.25-.75-.15-.4-.25-.75a5.32134,5.32134,0,0,0-.05-.75q-.1-.55-.15-1.15a2.99159,2.99159,0,0,0-.3-1.1,104.71073,104.71073,0,0,0-4.8-16.6,52.011,52.011,0,0,0-7.6-13.4l-.2-.4a3.26079,3.26079,0,0,0-.2-.35,4.23335,4.23335,0,0,0-.6-.75,7.994,7.994,0,0,0-2.45-3.95,13.36863,13.36863,0,0,1-3.15-4.7,5.1237,5.1237,0,0,1-.25-.5q-.18668-.66953-.35-1.35a15.38921,15.38921,0,0,0-.85-2.6,15.15858,15.15858,0,0,0-.45-2.15q-.02581-.09915-.05-.2.00009-.10153,0-.2.05-.55005.15-1.1v-.1q.05-.25.1-.45a3.44294,3.44294,0,0,1,.1-.4.61676.61676,0,0,1,.1-.35,6.76464,6.76464,0,0,1,.85-1.7.53769.53769,0,0,0,.1-.3l.1-.1a.48218.48218,0,0,0,.2-.25l.1-.2a.14366.14366,0,0,1,.05-.1q.69991-.7,1.4-1.35.8-.75,1.65-1.5,1.4-1.25005,2.95-2.4a28.005,28.005,0,0,1,3.6-1.45,21.79262,21.79262,0,0,1,5.9-.9.582.582,0,0,1,.15-.1l.1-.1a.58351.58351,0,0,1,.15-.1v-.05a40.95214,40.95214,0,0,0-6.45.75h-.55a21.37942,21.37942,0,0,0-4.8,1.6q-3.15,1.45-6.2,3.15A.20357.20357,0,0,0,46.73149,15.39521Z" transform="translate(-4.11949 -1.66021)" id="path24"/>
  </g>
  <path class="cls-4" d="M24.13152,38.54523a13.85208,13.85208,0,0,0-2.45,8.4q0,13.65,6.65,21.55,6.7,8,18.6,8,22.2-.00009,35.1-7.85,11.9-7.25,11.9-18.35,0-6.10006-6.05-13.75-4.86319-6.18328-10.6-8.1-.3794-.02086-.8-.05a35.76192,35.76192,0,0,0-7.6.3q-6.28107,2.01545-15.2,4.35-11.29962,3.03434-19.25,2.65-7.95016-.39495-10.3,2.85m6.6,5.45q1.28769-1.02914,5.5-.75.6384.039,1.35.05.19765.001.35,0l5.2-.3q3.239-.25735,7.5-.85,2.84425-.46409,5.6-1.1,1.25-.3,12.4-4.55a9.88316,9.88316,0,0,1,2.2-.6,28.21644,28.21644,0,0,1,4.5-.2q3.15591.09395,7.55,7.35a27.69582,27.69582,0,0,1,3.25,7.4,8.98945,8.98945,0,0,1,0,2.95,10.54255,10.54255,0,0,1-.4,2q-.69589,2.64194-6.2,6.5a4.70046,4.70046,0,0,1-.6.45q-5.92089,4.09551-20.25,5.35a.65854.65854,0,0,1-.2,0,1.13612,1.13612,0,0,1-.25.05l-2.35.15a.92206.92206,0,0,1-.25.05q-12.34222.97944-14.85.35a7.67666,7.67666,0,0,1-4.05-2.15q-1.34253-1.44993-2.35-2.55a16.7289,16.7289,0,0,1-2.4-3.9,34.9036,34.9036,0,0,1-1.55-5.65q-.95-4.1-.95-4.45Q29.48406,45.04029,30.73149,43.99518Z" transform="translate(-4.11949 -1.66021)" id="path27"/>
  <path class="cls-5" d="M86.13152,53.39521a8.98945,8.98945,0,0,0,0-2.95,27.69582,27.69582,0,0,0-3.25-7.4q-4.39426-7.256-7.55-7.35a28.21644,28.21644,0,0,0-4.5.2,9.88316,9.88316,0,0,0-2.2.6q-11.15013,4.25-12.4,4.55-2.75565.63593-5.6,1.1-4.261.59253-7.5.85a3.62837,3.62837,0,0,0,.65-.05,2.83485,2.83485,0,0,1-.35.25,1.11037,1.11037,0,0,0-.35.15,7.454,7.454,0,0,0-1.45,1.15,17.29774,17.29774,0,0,0-1.2,2.55,11.20172,11.20172,0,0,0-.45,3.4,14.01692,14.01692,0,0,0,1.4,6.6q2.4,4.45,8.75,6.2a34.88951,34.88951,0,0,0,13.05-.5,91.046,91.046,0,0,0,17.65-6q.95-.45,1.9-.95a16.02924,16.02924,0,0,0,3.4-2.4m-15.25-16a1.6437,1.6437,0,0,0,.4-.05,4.91582,4.91582,0,0,1,4.05,1.1,3.48967,3.48967,0,0,1,1.35,2.5v.2a.44455.44455,0,0,0-.05.2q.00009.1,0,.15.00009.10007,0,.2l-.1.2a.74142.74142,0,0,1-.2.35q-.09988.2-.2.4-.15006.19995-.25.35a.78479.78479,0,0,0-.15.2,3.5207,3.5207,0,0,1-1.9,1q-2.3.45008-4.6.95a26.29409,26.29409,0,0,1-14.1,1.7,1.256,1.256,0,0,1-1.15-1v-.4a.44288.44288,0,0,1-.05-.2v-.55a.44325.44325,0,0,1,.05-.2v-.15a.44325.44325,0,0,0,.05-.2l.1-.2a.44493.44493,0,0,1,.05-.2.327.327,0,0,0,.15-.15.785.785,0,0,0,.15-.2l.2-.2a34.26939,34.26939,0,0,0,8.15-2.65,47.72328,47.72328,0,0,1,4.45-1.8l.5-.3a6.52534,6.52534,0,0,1,1.9-.7Q70.28154,37.59523,70.88152,37.39521Z" transform="translate(-4.11949 -1.66021)" id="path29"/>
  <path class="cls-6" d="M71.28148,37.34522a1.6437,1.6437,0,0,1-.4.05q-.6.19995-1.2.35a6.52534,6.52534,0,0,0-1.9.7l-.5.3a47.72328,47.72328,0,0,0-4.45,1.8,34.26939,34.26939,0,0,1-8.15,2.65l-.2.2a.785.785,0,0,1-.15.2.327.327,0,0,1-.15.15.44493.44493,0,0,0-.05.2l-.1.2a.44325.44325,0,0,1-.05.2v.15a.44325.44325,0,0,0-.05.2v.55a.44288.44288,0,0,0,.05.2v.4a1.256,1.256,0,0,0,1.15,1,26.29409,26.29409,0,0,0,14.1-1.7q2.30009-.5,4.6-.95a3.5207,3.5207,0,0,0,1.9-1,.78479.78479,0,0,1,.15-.2q.09987-.15.25-.35.09987-.19995.2-.4a.74142.74142,0,0,0,.2-.35l.1-.2q.00009-.1,0-.2.00009-.05,0-.15a.44455.44455,0,0,1,.05-.2v-.2a3.48967,3.48967,0,0,0-1.35-2.5A4.91582,4.91582,0,0,0,71.28148,37.34522Z" transform="translate(-4.11949 -1.66021)" id="path31"/>
  <path class="cls-7" d="M36.23149,43.24518q-4.21226-.27914-5.5.75-1.2474,1.04508-1.25,5.6,0,.35.95,4.45a34.9036,34.9036,0,0,0,1.55,5.65,16.7289,16.7289,0,0,0,2.4,3.9q1.00734,1.1,2.35,2.55a7.67666,7.67666,0,0,0,4.05,2.15q2.5078.62943,14.85-.35a.92206.92206,0,0,0,.25-.05l2.35-.15a1.13612,1.13612,0,0,0,.25-.05.65854.65854,0,0,0,.2,0q14.32911-1.25445,20.25-5.35a4.70046,4.70046,0,0,0,.6-.45q5.50414-3.858,6.2-6.5a10.54255,10.54255,0,0,0,.4-2,16.02924,16.02924,0,0,1-3.4,2.4q-.94995.50006-1.9.95a91.046,91.046,0,0,1-17.65,6,34.88951,34.88951,0,0,1-13.05.5q-6.35-1.75-8.75-6.2a14.01692,14.01692,0,0,1-1.4-6.6,11.20172,11.20172,0,0,1,.45-3.4,17.29774,17.29774,0,0,1,1.2-2.55,7.454,7.454,0,0,1,1.45-1.15,1.11037,1.11037,0,0,1,.35-.15,2.83485,2.83485,0,0,0,.35-.25,3.62837,3.62837,0,0,1-.65.05l-5.2.3q-.15234.001-.35,0Q36.87,43.28434,36.23149,43.24518Z" transform="translate(-4.11949 -1.66021)" id="path33"/>
  <path class="cls-1" d="M40.00906,132.51951a17.37746,17.37746,0,0,0,.22065,4.193A8.17416,8.17416,0,0,0,42.05,140.11625q1.48922,1.87452,6.94994,5.2289a21.49081,21.49081,0,0,0,5.84677,2.46647,16.14,16.14,0,0,0,3.75079.54268q6.39833.00009,10.36973-2.95977a15.19512,15.19512,0,0,0,2.48213-2.46647,18.38127,18.38127,0,0,0,2.427-4.341q-.16554.24667-.38608.54261a5.85873,5.85873,0,0,0-.49644.39466,6.61345,6.61345,0,0,1-2.0409,1.18392q-.82747.34523-1.59954.73994-.93777.00009-1.82025,0a14.88367,14.88367,0,0,0-3.25436-.64131,2.79625,2.79625,0,0,1-1.379-.49329l-.11029-.19733a2.82011,2.82011,0,0,0-.82737-.73994,4.92342,4.92342,0,0,1-1.15831-.93727.34423.34423,0,0,1-.1655-.148.40086.40086,0,0,1-.05515-.19733.57484.57484,0,0,0-.11036-.148l-.11029-.19727a.40084.40084,0,0,1-.05514-.19733v-1.28256a1.83154,1.83154,0,0,0,.27579-.73994v-1.67721l.11029-.39466q.05514-.29591.11036-.54261a1.30678,1.30678,0,0,0,.05514-.34528v-.19733q.22059-.54267.38608-1.08528a27.18218,27.18218,0,0,1,2.09605-4.78493,19.16436,19.16436,0,0,1,1.48925-2.26914q.66193-.39463,1.26867-.83863a8.542,8.542,0,0,0,1.48924-1.23324,1.33112,1.33112,0,0,0,.2758-.34528,8.57771,8.57771,0,0,0,1.379-1.08522q.77223-.78927,1.65475-1.52926a4.69576,4.69576,0,0,0,.77223-.8879,5.80075,5.80075,0,0,0,.93767-.93727,36.895,36.895,0,0,1,2.70277-3.00908q.77223-.73994,1.54446-1.43056a59.39041,59.39041,0,0,1,5.51584-3.65039q3.03376-1.72656,6.1777-3.20641a31.42347,31.42347,0,0,1,10.70074-2.91045,5.05954,5.05954,0,0,0,.55158.34535l.11029.19733a.18812.18812,0,0,1,.05521.14795q-.22068,1.08534-.44129,2.21982a10.03279,10.03279,0,0,0-.11029,1.47988q.00009.444,0,.83864.77223-.69063,1.76509-1.47993c.74665-.61208,3.30623-1.72687,2.94056-2.99514a5.16407,5.16407,0,0,0-.946.43371,2.16111,2.16111,0,0,1-.98962.29376.91175.91175,0,0,1-.84409-.5053c-.40074-.98534,1.28727-1.749,1.88208-2.16643.27982-.19637,2.87158-2.15921,3.03159-2.01605l-.05515-.04931a12.70624,12.70624,0,0,0-1.5996-.4933,3.68493,3.68493,0,0,0-1.15831-.3946q-4.68853-.69061-9.26657-1.33193a20.61522,20.61522,0,0,0-6.67421.0987,6.24328,6.24328,0,0,1-1.10317-.0987.467.467,0,0,1-.27579-.148q-2.31659-3.60115-7.39116-3.10777A15.51013,15.51013,0,0,1,72.718,93.944a3.15716,3.15716,0,0,0-.2758-.69062,2.57408,2.57408,0,0,0-.27579-.3946l-.1655-.19733q-.04-.06015-.11029-.148A21.12132,21.12132,0,0,0,68.526,94.33861a38.83247,38.83247,0,0,0-5.84684,4.73561q-.50762.49526-1.048.93727l-.22064.19727a.81268.81268,0,0,1-.16551.0987l-.55158.444a62.99035,62.99035,0,0,0-12.90707,14.79882q-6.34327,9.66855-7.00508,11.987A18.05542,18.05542,0,0,0,40.00906,132.51951Z" transform="translate(-4.11949 -1.66021)" id="path35"/>
  <path class="cls-2" d="M68.36128,120.4052a9.99206,9.99206,0,0,1-1.61944,1.14076,1.43894,1.43894,0,0,1-.32389.363,9.8729,9.8729,0,0,1-1.749,1.29634q-.71262.46667-1.48992.88155a20.09333,20.09333,0,0,0-1.749,2.38527,27.133,27.133,0,0,0-2.46158,5.02979q-.1943.57035-.45341,1.14082v.20743a1.24152,1.24152,0,0,1-.06477.363q-.06476.2593-.1296.57038l-.12952.41486v1.763a1.80562,1.80562,0,0,1-.32389.77781v1.34818a.38846.38846,0,0,0,.06476.20743q.06489.10359.12953.20736a.6164.6164,0,0,1,.1296.15559.38846.38846,0,0,0,.06476.20743.39243.39243,0,0,0,.19436.15552,5.71405,5.71405,0,0,0,1.36032.98524,3.21835,3.21835,0,0,1,.97166.7778l.12953.20743a3.53686,3.53686,0,0,0,1.61944.51854,19.29744,19.29744,0,0,1,3.82189.67412q1.03655.00011,2.13769,0,.9069-.41491,1.87849-.7778a8.02759,8.02759,0,0,0,2.39682-1.24451,6.8143,6.8143,0,0,1,.583-.41485q.25917-.31105.45341-.57038a37.12941,37.12941,0,0,0,2.72063-9.6448,9.35059,9.35059,0,0,1,2.00817-4.82242q2.85023-2.54079,5.63562-5.08164,17.36043-10.00791,19.04463-11.6671a7.08088,7.08088,0,0,1,.583-.51854q.00012-.41493,0-.88156a9.4637,9.4637,0,0,1,.12953-1.55561q.259-1.19253.51825-2.33342a.18707.18707,0,0,0-.06484-.15552l-.12953-.20743a6.08794,6.08794,0,0,1-.64777-.363,40.32934,40.32934,0,0,0-12.56687,3.05939q-3.69237,1.55562-7.25506,3.3705a70.94553,70.94553,0,0,0-6.47776,3.83719q-.9069.72588-1.81381,1.50377a40.645,40.645,0,0,0-3.17411,3.16307,6.50307,6.50307,0,0,1-1.10119.98524,5.14634,5.14634,0,0,1-.9069.93333Q69.26818,119.57538,68.36128,120.4052Z" transform="translate(-4.11949 -1.66021)" id="path37"/>
  <path class="cls-3" d="M41.24881,136.13905a17.4259,17.4259,0,0,1-.20814-4.07918,18.0712,18.0712,0,0,1,.72846-4.847q.62432-2.25552,6.608-11.66161a60.74855,60.74855,0,0,1,12.17544-14.3971l.52032-.43193a.7616.7616,0,0,0,.15612-.096l.20814-.19191q.50971-.43.98855-.91183a36.87247,36.87247,0,0,1,5.51541-4.60706A19.74135,19.74135,0,0,1,71.115,93.13971l-.26016-.38388q-.5724-.33594-1.19676-.67188A3.39771,3.39771,0,0,0,67.889,91.7a24.77833,24.77833,0,0,0-3.9544.86385,35.39124,35.39124,0,0,0-18.2111,11.99759Q38.49116,114.73537,35.62936,121.406a24.9443,24.9443,0,0,0-1.87313,6.28673,58.75813,58.75813,0,0,0-1.04064,8.0624q0,6.81464,7.85678,12.8134a32.03322,32.03322,0,0,0,20.03222,6.52667,20.57974,20.57974,0,0,0,12.85188-4.12716q6.39986-4.895,7.64863-14.25311a18.33609,18.33609,0,0,1,.52032-2.25558q.41625-1.6317.4683-1.96759a14.81821,14.81821,0,0,1,1.35281-3.8872q.62442-1.2957,4.21456-3.40731,5.56746-3.26333,7.6487-4.75105,7.54467-5.4229,10.19821-7.77441,5.56737-4.94311,5.61945-8.11038.052-.47988.104-1.00779-.15615-.52785-.26016-1.05582a3.01363,3.01363,0,0,0-.52032-1.10374q-.26019-.33594-.52031-.71986a10.84552,10.84552,0,0,0-1.24878-.57592.4235.4235,0,0,0-.15605-.048q-1.04058.62391-2.08127,1.29572a36.1621,36.1621,0,0,1-3.74633,2.39952.81558.81558,0,0,0-.20814.144q-.41624.33594-.78047.67188l-.15606.14393q-.16749.16916-.31218.336l-2.49755,2.11159q-.93662.76784-1.665,1.43971a6.04663,6.04663,0,0,0-.46829.4799q-1.35288,1.53558-15.29735,10.79783-2.23738,2.35157-4.52673,4.703a9.37107,9.37107,0,0,0-1.613,4.46312,38.4543,38.4543,0,0,1-2.1853,8.92619,18.044,18.044,0,0,1-2.28941,4.22318,14.563,14.563,0,0,1-2.34143,2.39951,15.61082,15.61082,0,0,1-9.78193,2.87942,14.79371,14.79371,0,0,1-3.53818-.52794,19.9467,19.9467,0,0,1-5.51535-2.39952q-5.15123-3.26333-6.556-5.087A8.0403,8.0403,0,0,1,41.24881,136.13905Z" transform="translate(-4.11949 -1.66021)" id="path39"/>
</svg>