<svg xmlns="http://www.w3.org/2000/svg" viewBox="0 0 124 176">
  <path d="M91.15 15.35a114.256 114.256 0 0 1 8.2 9.55c.267.4 3.667 5.55 10.2 15.45 6.47 10.637 10.287 17.787 11.45 21.45a47.64 47.64 0 0 1 2.05 10.55 60.13 60.13 0 0 1 .1 7.85l-.45 6.3c-.175 2.337-1.375 5.704-3.6 10.1a45.094 45.094 0 0 1-6.15 9.6 47.727 47.727 0 0 1-7.95 6.6 86.842 86.842 0 0 1-14.25 8.8 65.611 65.611 0 0 1-8.4 3.4c-.156.09-.306.173-.45.25a48.39 48.39 0 0 1-34.3 4.4 76.845 76.845 0 0 1-10.95-5.25 32.992 32.992 0 0 1-11.25-10.45 34.055 34.055 0 0 1-7.45-.2c-7.433-.433-12.6-4.167-15.5-11.2A35.789 35.789 0 0 1 .05 88.9c0-1.7.267-4.833.8-9.4s.8-7.683.8-9.35A88.49 88.49 0 0 1 1.15 57c.089-1.655.239-3.555.45-5.7.268-1.274.968-4.141 2.1-8.6 1.108-4.428 2.708-7.511 4.8-9.25 2.7-2.064 5.702-3.7 8.9-4.85.068-.182.135-.365.2-.55a25.573 25.573 0 0 1 2.05-4.5 23.08 23.08 0 0 1 2.1-4.6 43.299 43.299 0 0 1 5.65-7.6c2.69-3 7.89-5.65 15.6-7.95C50.703 1.133 56.57 0 60.6 0c.667 0 .95.033.85.1 3.397.128 6.761.717 10 1.75a23.948 23.948 0 0 1 6.2 3.4A24.4 24.4 0 0 0 82.8 8.4c2.023.945 4.806 3.262 8.35 6.95M75.7 12.5a142.6 142.6 0 0 0-3.3-2.05c-1.502-.88-5.168-1.664-11-2.35l-4.6.3c-4.1.933-7.133 1.667-9.1 2.2l-1.7.55a52.555 52.555 0 0 0-5.5 2.05 23.055 23.055 0 0 0-6.25 3.9c-.247.22-.48.453-.7.7l-.6.7a121.012 121.012 0 0 0-5.05 7.25 29.793 29.793 0 0 0-1.55 2.75.148.148 0 0 0-.05.05 35.162 35.162 0 0 0-2.15 5.35 74.262 74.262 0 0 0-1.55 5.95v.35c-.133 6.233-.1 11.367.1 15.4.2 3.533.65 8.05 1.35 13.55.4 3.067.683 4.983.85 5.75.1.633.4 2 .9 4.1a80.004 80.004 0 0 1 1.45 12.3A53.878 53.878 0 0 0 29.7 104c.202.53.436 1.048.7 1.55.493.942 1.01 1.842 1.55 2.7.14.167.274.333.4.5v.1c5.378 8.156 13.295 12.84 23.75 14.05h5.85c1.573-.223 3.14-.473 4.7-.75 3.606.38 7.24-.37 10.4-2.15.934-.504 1.867-1.02 2.8-1.55 3.7-2.233 6.15-3.617 7.35-4.15a141.92 141.92 0 0 0 3.95-1.9 52.305 52.305 0 0 0 4.95-2.8 34.749 34.749 0 0 0 12.05-10.1 30.879 30.879 0 0 0 6.45-19.15c0-2.115-.067-3.931-.2-5.45a22.518 22.518 0 0 0-.45-2.9 10.29 10.29 0 0 1-.75-2.85 22.99 22.99 0 0 0-.3-2.1l-4.65-13.2a1.808 1.808 0 0 1-.15-.3 4.617 4.617 0 0 1-.25-.5.3.3 0 0 1-.05-.15 1.939 1.939 0 0 1-.2-.4.724.724 0 0 1-.1-.15.79.79 0 0 1-.1-.25.326.326 0 0 1-.1-.15 4.014 4.014 0 0 1-.2-.4 207.65 207.65 0 0 0-2.1-4.05c-5.456-10.246-11.54-18.362-18.25-24.35a.085.085 0 0 0 .05.05c-5.47-4.764-8.52-7.614-9.15-8.55a8.401 8.401 0 0 0-1.95-2.15m-61 26.1a.702.702 0 0 1 .05-.15 6.789 6.789 0 0 0-.8.5c-.5.4-1 .833-1.5 1.3a8.896 8.896 0 0 0-.45.9c-.908 3.701-1.591 7.168-2.05 10.4-.023.065-.04.132-.05.2L9.1 62c.017 1.654.017 3.27 0 4.85v.05c-.028 4.587-.178 8.87-.45 12.85-.4 5.7-.6 8.717-.6 9.05a49.61 49.61 0 0 0 1.15 8.7c.724 3.897 2.474 6.464 5.25 7.7 2.787 1.245 4.67 1.679 5.65 1.3.936-.356 1.419-.54 1.45-.55-.325-.983-.608-2-.85-3.05a54.712 54.712 0 0 0-.85-5.55 54.823 54.823 0 0 1-.8-5.75c-.3-6.867-.717-10.917-1.25-12.15a13.995 13.995 0 0 1-1.1-4.05c-.567-3.567-1.067-6.667-1.5-9.3a95.918 95.918 0 0 1-1.15-12.15l.05-4.1.05-4.8a14.942 14.942 0 0 1 0-.8A5.891 5.891 0 0 1 14.6 42v-2.25c.033-.367.067-.75.1-1.15Z" fill="var(--outline)"/>
  <path d="m9.1 62 .8-10.25c.01-.068.027-.135.05-.2a5.985 5.985 0 0 1 4.15-1.7l-.05 4.1c.125 4.07.51 8.128 1.15 12.15.433 2.633.933 5.733 1.5 9.3a13.995 13.995 0 0 0 1.1 4.05c.533 1.233.95 5.283 1.25 12.15.165 1.93.432 3.849.8 5.75a54.71 54.71 0 0 1 .85 5.55c.242 1.05.526 2.067.85 3.05-.031.01-.514.194-1.45.55-.98.379-2.863-.055-5.65-1.3-2.776-1.236-4.526-3.803-5.25-7.7a49.683 49.683 0 0 1-1.15-8.7c0-.333.2-3.35.6-9.05.272-3.98.422-8.263.45-12.85v-.05c.017-1.58.017-3.196 0-4.85m97.35 24.7c1.9-2.2 3.717-4.483 5.45-6.85a18.173 18.173 0 0 0 2.3-4.45c.06-.16.127-.326.2-.5.133 1.519.2 3.335.2 5.45a30.879 30.879 0 0 1-6.45 19.15 34.749 34.749 0 0 1-12.05 10.1 52.305 52.305 0 0 1-4.95 2.8 141.92 141.92 0 0 1-3.95 1.9c-1.2.533-3.65 1.917-7.35 4.15-.933.53-1.866 1.046-2.8 1.55a17.46 17.46 0 0 1-10.4 2.15c-1.56.277-3.127.527-4.7.75H56.1c-10.455-1.211-18.372-5.894-23.75-14.05v-.1c-.126-.167-.26-.333-.4-.5a38.675 38.675 0 0 1-1.55-2.7 14.245 14.245 0 0 1-.7-1.55 53.878 53.878 0 0 1-2.45-12.7A80.004 80.004 0 0 0 25.8 79c-.5-2.1-.8-3.467-.9-4.1-.167-.767-.45-2.683-.85-5.75-.7-5.5-1.15-10.017-1.35-13.55-.2-4.033-.233-9.167-.1-15.4v-.35c.433-2 .95-3.983 1.55-5.95a35.162 35.162 0 0 1 2.15-5.35c-.217.886-.433 1.77-.65 2.65a5.447 5.447 0 0 0-.15 1.65 3.767 3.767 0 0 0-.3 1.5c.033.7.05 1.383.05 2.05v.75a2.01 2.01 0 0 0-.25.75 4.11 4.11 0 0 0-.1.75c-.067.4-.233 1.65-.5 3.75.093 4.162.528 8.31 1.3 12.4a92.963 92.963 0 0 0 5.85 20.45c7.833 18.367 20.133 27.55 36.9 27.55 3.881.06 7.757-.325 11.55-1.15a114.948 114.948 0 0 0 14.4-4.95 43.327 43.327 0 0 0 7.3-5.25 63.873 63.873 0 0 0 4.75-4.75Z" fill="var(--body)"/>
  <path d="M14.75 38.45a.702.702 0 0 0-.05.15c-.033.4-.067.783-.1 1.15V42a5.891 5.891 0 0 0-.45 2.25 15.24 15.24 0 0 0 0 .8l-.05 4.8a5.985 5.985 0 0 0-4.15 1.7c.459-3.232 1.142-6.699 2.05-10.4.133-.308.283-.609.45-.9.5-.467 1-.9 1.5-1.3.255-.185.522-.352.8-.5m57.65-28a142.6 142.6 0 0 1 3.3 2.05 8.401 8.401 0 0 1 1.95 2.15c.63.936 3.68 3.786 9.15 8.55a.085.085 0 0 1-.05-.05C93.46 29.138 99.544 37.254 105 47.5a206.7 206.7 0 0 1 2.1 4.05c.06.137.126.27.2.4.019.058.053.11.1.15a.79.79 0 0 0 .1.25c.027.054.06.104.1.15.051.14.118.275.2.4a.3.3 0 0 0 .05.15c.073.172.157.339.25.5.04.104.09.205.15.3l4.65 13.2c.14.744.24 1.444.3 2.1.112.981.365 1.94.75 2.85.213.956.363 1.925.45 2.9-.073.174-.14.34-.2.5a18.173 18.173 0 0 1-2.3 4.45 109.088 109.088 0 0 1-5.45 6.85 63.873 63.873 0 0 1-4.75 4.75 43.327 43.327 0 0 1-7.3 5.25 114.948 114.948 0 0 1-14.4 4.95 50.626 50.626 0 0 1-11.55 1.15c-16.767 0-29.067-9.183-36.9-27.55A92.963 92.963 0 0 1 25.7 54.8a75.998 75.998 0 0 1-1.3-12.4c.267-2.1.433-3.35.5-3.75a4.11 4.11 0 0 1 .1-.75c.032-.264.117-.52.25-.75v-.75c0-.667-.017-1.35-.05-2.05a3.767 3.767 0 0 1 .3-1.5 5.447 5.447 0 0 1 .15-1.65c.217-.88.433-1.764.65-2.65a.148.148 0 0 1 .05-.05 29.785 29.785 0 0 1 1.55-2.75 120.998 120.998 0 0 1 5.05-7.25l.6-.7c.22-.247.453-.48.7-.7a23.055 23.055 0 0 1 6.25-3.9 52.555 52.555 0 0 1 5.5-2.05l1.7-.55c1.967-.533 5-1.267 9.1-2.2l4.6-.3c5.831.686 9.498 1.47 11 2.35m-39.25 9.7-.1.2-.1.2v.2c.098-.242.198-.492.3-.75.077-.208.16-.425.25-.65l-.05.05a1.955 1.955 0 0 0-.15.4 1.12 1.12 0 0 0-.15.35Z" fill="var(--shadow)"/>
  <path d="m33.05 20.35.1-.2c.03-.124.08-.243.15-.35.035-.138.086-.273.15-.4l.05-.05c-.09.225-.173.442-.25.65-.102.258-.202.508-.3.75v-.2l.1-.2Z" fill="#422E8B"/>
  <path d="M70 120.9a3.73 3.73 0 0 1 1.75-.3c.236.013.47.047.7.1a3.804 3.804 0 0 1 3 2.8c0 .135.017.27.05.4a46.83 46.83 0 0 1 .15 4.85v.75a86.126 86.126 0 0 1-8.6 27.65c-3.767 7.242-8.833 12.258-15.2 15.05l-.85.35c-.628.24-1.245.457-1.85.65a32.303 32.303 0 0 1-10.35 1.9c-7.3 0-12.567-1.483-15.8-4.45-2.8-2.567-4.4-4.367-4.8-5.4-.467-1.2-.7-4.333-.7-9.4a20.44 20.44 0 0 1 1.05-6.05c.426-1.24.76-2.51 1-3.8 1.899-5.054 2.999-7.804 3.3-8.25a.945.945 0 0 0 .15-.4c.533-.476 1.016-1.843 1.45-4.1.401-2.231.701-4.081.9-5.55.15-1.228.234-2.463.25-3.7v-1.85a46.911 46.911 0 0 1-.8-7.5 50.828 50.828 0 0 0-.45-6c.064-.387.147-.771.25-1.15.097-.394.267-.767.5-1.1.167-.267.333-.517.5-.75a5.64 5.64 0 0 1 1.15-.65 14.735 14.735 0 0 1 1.6-.5v.05c.279.064.564.098.85.1a2.58 2.58 0 0 1 1.85 1.55c.238.54.471 1.09.7 1.65a30.986 30.986 0 0 1 1.75 8.25c.004.07.02.137.05.2.295 4.4.194 8.818-.3 13.2.133 1.933-.6 5.017-2.2 9.25-.867 2.3-2.05 5.333-3.55 9.1a40.44 40.44 0 0 0-1.3 5.4 35.282 35.282 0 0 0-.65 5.55c0 2 .3 3.367.9 4.1 1.833 2.333 6.05 3.5 12.65 3.5 5.467 0 9.65-.967 12.55-2.9a16.837 16.837 0 0 0 2.65-2.4c.999-1.045 2.199-2.412 3.6-4.1.23-.277.463-.56.7-.85a43.536 43.536 0 0 0 7.05-15.1 44.86 44.86 0 0 0 1.95-11.55 6.522 6.522 0 0 1 0-.65 71.22 71.22 0 0 1 0-3.25c-.004-.19-.004-.39 0-.6a5.477 5.477 0 0 1 1.25-3.35 1.77 1.77 0 0 0 .15-.15.229.229 0 0 0 .1-.05c.126-.095.26-.179.4-.25.158-.113.326-.213.5-.3Z" fill="var(--outline)"/>
  <path d="M62.55 117.65a3.27 3.27 0 0 0-.35-.2 8.673 8.673 0 0 0-1.3-.75 8.834 8.834 0 0 1-.95-.55 1.955 1.955 0 0 0-.65-.3.384.384 0 0 0-.15-.05.628.628 0 0 1-.25-.15 4.555 4.555 0 0 1-.5-.35l-.2-.2c-.667-.067-1.317-.133-1.95-.2a17.669 17.669 0 0 0-1.85-.1 8.15 8.15 0 0 0-2.55 1.35 8.252 8.252 0 0 0-3.55 6.65c-.033 1-.05 2-.05 3 .032.062.05.13.05.2a.384.384 0 0 1 .05.15v.2c.033.2.067.383.1.55l.2.6c.033.1.067.217.1.35l.1.4c.025.055.06.106.1.15v.4c0 .07.018.138.05.2a60.764 60.764 0 0 0 0 .55c.032.062.05.13.05.2a.384.384 0 0 1 .05.15 18.73 18.73 0 0 1-.35 7.35 20.753 20.753 0 0 1-2.05 5.4c-.9 1.6-1.717 3.233-2.45 4.9v.2a.444.444 0 0 0-.05.2.383.383 0 0 1-.05.15v.2a.443.443 0 0 0-.05.2c0 .07-.018.138-.05.2a.383.383 0 0 1-.05.15 111.111 111.111 0 0 0 0 .55 1.63 1.63 0 0 0-.05.4c-.033.133-.067.25-.1.35l-.1.4a111.111 111.111 0 0 0 0 .75l.1.4c.033.264.118.52.25.75.103.174.187.358.25.55.067.167.133.35.2.55 0 .07.018.138.05.2a12.475 12.475 0 0 0 5.15 2.85 56.91 56.91 0 0 1 2.55.75 49.346 49.346 0 0 0 6.3-1.2c-.237.29-.47.573-.7.85-1.401 1.688-2.601 3.055-3.6 4.1a16.837 16.837 0 0 1-2.65 2.4c-2.9 1.933-7.083 2.9-12.55 2.9-6.6 0-10.817-1.167-12.65-3.5-.6-.733-.9-2.1-.9-4.1.07-1.864.287-3.72.65-5.55a40.44 40.44 0 0 1 1.3-5.4c1.5-3.767 2.683-6.8 3.55-9.1 1.6-4.233 2.333-7.317 2.2-9.25.495-4.382.595-8.8.3-13.2a.546.546 0 0 1-.05-.2 30.986 30.986 0 0 0-1.75-8.25 17.815 17.815 0 0 1 4.15-1.8 25.82 25.82 0 0 1 8.3-1.05c5.144-.67 10.367.33 14.9 2.85a46.17 46.17 0 0 1 6.8 4.65 17.87 17.87 0 0 1 5.85 8.1 3.215 3.215 0 0 0-2.25.6c-.14.071-.274.155-.4.25a.229.229 0 0 1-.1.05 1.847 1.847 0 0 1-.15.15A5.477 5.477 0 0 0 67.6 125c-.004.21-.004.41 0 .6a28.342 28.342 0 0 1-1.15-2.65 8.527 8.527 0 0 0-1.7-2.8c-.333-.367-.65-.75-.95-1.15l-.5-.4-.1-.2a.327.327 0 0 0-.15-.15l-.3-.4-.2-.2Z" fill="var(--body)"/>
  <path d="M62.2 117.45c.12.06.238.126.35.2l.2.2.3.4a.327.327 0 0 1 .15.15l.1.2.5.4c.3.4.617.783.95 1.15a8.527 8.527 0 0 1 1.7 2.8c.338.902.722 1.787 1.15 2.65a71.22 71.22 0 0 0 0 3.25c-.01.225-.01.442 0 .65a44.86 44.86 0 0 1-1.95 11.55 43.536 43.536 0 0 1-7.05 15.1 49.346 49.346 0 0 1-6.3 1.2 56.91 56.91 0 0 0-2.55-.75 12.475 12.475 0 0 1-5.15-2.85.445.445 0 0 1-.05-.2 10.11 10.11 0 0 0-.2-.55 2.767 2.767 0 0 0-.25-.55 1.995 1.995 0 0 1-.25-.75l-.1-.4v-.75l.1-.4c.033-.1.067-.217.1-.35 0-.135.017-.27.05-.4a338.542 338.542 0 0 1 0-.55.383.383 0 0 0 .05-.15.444.444 0 0 0 .05-.2c0-.07.018-.138.05-.2v-.2a.383.383 0 0 0 .05-.15c0-.07.018-.138.05-.2v-.2c.733-1.667 1.55-3.3 2.45-4.9a20.753 20.753 0 0 0 2.05-5.4 18.73 18.73 0 0 0 .35-7.35.384.384 0 0 0-.05-.15.443.443 0 0 0-.05-.2 111.111 111.111 0 0 1 0-.55.444.444 0 0 1-.05-.2v-.4a.582.582 0 0 1-.1-.15l-.1-.4a4.813 4.813 0 0 0-.1-.35l-.2-.6c-.033-.167-.067-.35-.1-.55v-.2a.384.384 0 0 0-.05-.15.443.443 0 0 0-.05-.2c0-1 .017-2 .05-3a8.252 8.252 0 0 1 3.55-6.65 8.15 8.15 0 0 1 2.55-1.35c.618.001 1.236.034 1.85.1.633.067 1.283.133 1.95.2l.2.2c.159.128.326.245.5.35.07.069.156.12.25.15a.384.384 0 0 1 .15.05 1.955 1.955 0 0 1 .65.3c.305.203.622.387.95.55.454.212.89.463 1.3.75Z" fill="var(--shadow)"/>
  <path d="M38.106 30.095c.423-5.723 3.302-10.769 8.636-15.136 8.132-6.64 20.292-9.064 36.48-7.27a7.9 7.9 0 0 1 1.105.156c.44.082.856.163 1.247.241.822.158 1.626.392 2.404.7.298.072.59.168.872.287 7.225 2.916 12.189 7.575 14.89 13.976a24.548 24.548 0 0 1 1.875 6.836c.151.939.206 1.89.161 2.84a14.245 14.245 0 0 1-2.505 7.702c-2.317 3.153-5.98 4.047-10.988 2.684-4.28-1.16-10.213-.434-17.798 2.18-8.35 2.903-14.327 4.222-17.929 3.955-5.18-.383-9.693-2.751-13.538-7.104-3.57-4.035-5.208-8.05-4.912-12.047M57.6 18.07a61.265 61.265 0 0 0-3.865 1.946 26.753 26.753 0 0 0-4.312 2.955l-.08.069-.391.268c-.428.415-.83.832-1.21 1.25l-2.29 4.816a9.76 9.76 0 0 0 4.02 9.004 15.783 15.783 0 0 0 6.85 2.963l1.401.178.519.039c1.275.082 2.557.002 3.812-.239a23.781 23.781 0 0 0 4.095-1.036 47.986 47.986 0 0 0 5.077-2.229.863.863 0 0 0 .233-.131c1.1-.547 2.23-1.035 3.382-1.461a27.574 27.574 0 0 1 11.663-1.741c6.76.5 10.704.495 11.833-.017.459-.164.806-.833 1.042-2.006.09-.54.16-1.154.21-1.845l.006-.074c.026-.347.027-.695.003-1.042.037-2.149-.5-4.27-1.554-6.142a15.97 15.97 0 0 0-4.671-5.258 23.953 23.953 0 0 0-12.74-4.812 39.97 39.97 0 0 0-5.954.005 2.18 2.18 0 0 0-.524.036 1.4 1.4 0 0 0-.45.04l-.073-.005A50.5 50.5 0 0 0 57.6 18.07Z" fill="#091628"/>
  <path d="M74.9 13.547a3.44 3.44 0 0 1 .672-.025c1.978.097 3.976.245 5.995.444.634.146 1.295.27 1.982.37a20.745 20.745 0 0 1 6.296 2.4 4.054 4.054 0 0 1 1.387 1.369c0 .057.022.112.063.153l-.01.148a.211.211 0 0 0 .062.154l-.01.148-.012.148a.066.066 0 0 0 .069.079l-.011.148-.011.148a.214.214 0 0 0-.085.143l-.011.148a2.403 2.403 0 0 1-1.85 1.872 2.727 2.727 0 0 1-1.259-.093 34.543 34.543 0 0 1-4.632-1.757c-.9-.462-1.846-.83-2.82-1.102a14.908 14.908 0 0 1-1.475-.184 1.221 1.221 0 0 1-.365-.101l-.148-.011a5.72 5.72 0 0 1-2.056-.376c-1.145.064-2.29.104-3.431.118a5.395 5.395 0 0 1-1.538-.337 1.56 1.56 0 0 1-.776-.578.214.214 0 0 1-.063-.154.214.214 0 0 1-.063-.153.214.214 0 0 0-.063-.154.214.214 0 0 0-.063-.153l.011-.148a.214.214 0 0 1-.063-.154l.011-.148.005-.074.011-.148a1.4 1.4 0 0 1 .107-.438l.011-.148a.214.214 0 0 0 .085-.143.214.214 0 0 0 .085-.142.066.066 0 0 1 .08-.069.214.214 0 0 1 .085-.142c.174-.148.358-.284.55-.406a8.701 8.701 0 0 1 1.826-.534.313.313 0 0 1 .154-.063l.074.005a1.4 1.4 0 0 1 .45-.041 2.18 2.18 0 0 1 .523-.036l.222.017Z" fill="#FFF"/>
  <path d="M53.735 20.016a8.419 8.419 0 0 0-1.47 3.76l-.01.149a.214.214 0 0 0-.085.142.214.214 0 0 1-.085.143l-.05.666c-.069.265-.09.541-.06.814a.687.687 0 0 1-.033.444.21.21 0 0 1 .063.153c.035.201.068.427.099.677l-.033.444-.016.222c.203.67.48 1.314.825 1.922a4.59 4.59 0 0 0 1.73 1.765 16.302 16.302 0 0 0 4.473 1.894c.654.15 1.318.248 1.987.296a.214.214 0 0 1 .154-.063 156.937 156.937 0 0 0 13.039-2.234 86.648 86.648 0 0 1 22.893-1.654 3.13 3.13 0 0 0 1.025-1.784l.038-.518.104-1.406.055-.74a8.461 8.461 0 0 0-.334-1.513 12.09 12.09 0 0 1 1.554 6.142c.024.347.023.695-.003 1.042l-.005.074c-.051.69-.122 1.306-.211 1.845-.236 1.173-.583 1.842-1.042 2.006-1.129.512-5.073.517-11.833.017a27.574 27.574 0 0 0-11.663 1.74 34.424 34.424 0 0 0-3.382 1.462.863.863 0 0 1-.233.131 47.986 47.986 0 0 1-5.077 2.229 23.781 23.781 0 0 1-4.095 1.036 15.18 15.18 0 0 1-3.812.239l-.519-.039-1.4-.178a15.783 15.783 0 0 1-6.85-2.963 9.76 9.76 0 0 1-4.021-9.004l2.29-4.816c.38-.418.782-.835 1.21-1.25l.392-.268.08-.069a26.753 26.753 0 0 1 4.31-2.955Z" fill="#4E7A8D"/>
  <path d="M52.266 23.777a8.419 8.419 0 0 1 1.469-3.761A61.269 61.269 0 0 1 57.6 18.07a50.5 50.5 0 0 1 16.032-4.47.313.313 0 0 0-.154.063 8.665 8.665 0 0 0-1.825.535 4.846 4.846 0 0 0-.551.406.214.214 0 0 0-.085.142.066.066 0 0 0-.08.069.214.214 0 0 1-.085.142.214.214 0 0 1-.085.143l-.01.148a1.4 1.4 0 0 0-.108.438l-.01.148-.006.074-.011.148c0 .058.022.113.063.154l-.011.148c.04.04.063.096.063.153a.22.22 0 0 1 .063.154c0 .057.022.113.063.153 0 .058.022.113.063.154.19.27.462.473.776.578.493.187 1.011.3 1.537.337a79.929 79.929 0 0 0 3.432-.118 5.72 5.72 0 0 0 2.056.376l.148.01c.116.053.239.088.365.102.49.086.98.147 1.474.184.975.271 1.92.64 2.82 1.102a34.764 34.764 0 0 0 4.633 1.757c.407.129.838.16 1.258.093a2.402 2.402 0 0 0 1.851-1.872l.011-.148a.214.214 0 0 1 .085-.143l.011-.148.011-.148a.066.066 0 0 1-.069-.08l.011-.147.011-.148a.214.214 0 0 1-.063-.154l.011-.148a.214.214 0 0 1-.063-.153 4.054 4.054 0 0 0-1.387-1.368 20.745 20.745 0 0 0-6.296-2.401 24.75 24.75 0 0 1-1.982-.37c-2.019-.2-4.017-.347-5.994-.444a3.44 3.44 0 0 0-.672.025l-.222-.017a39.97 39.97 0 0 1 5.954-.005 23.953 23.953 0 0 1 12.74 4.812 15.97 15.97 0 0 1 4.67 5.258c.158.493.27 1 .335 1.513l-.055.74-.104 1.406-.038.518a3.13 3.13 0 0 1-1.025 1.784c-7.67-.466-15.37.09-22.893 1.654a156.937 156.937 0 0 1-13.04 2.234.214.214 0 0 0-.153.063 13.165 13.165 0 0 1-1.987-.296 16.302 16.302 0 0 1-4.474-1.894 4.59 4.59 0 0 1-1.73-1.765 9.46 9.46 0 0 1-.824-1.921l.016-.222.033-.444a14.48 14.48 0 0 0-.099-.677.214.214 0 0 0-.063-.154.687.687 0 0 0 .033-.444 2.254 2.254 0 0 1 .06-.814l.05-.666a.214.214 0 0 0 .085-.143.214.214 0 0 1 .085-.142l.01-.148Z" fill="#90C3D0"/>
  <path d="M83.8 129.25c.112.757.195 1.524.25 2.3.164 2.23.18 4.468.05 6.7-.667 5.833-1 9.6-1 11.3.079 2.126.28 4.246.6 6.35a7.277 7.277 0 0 0 2.55 4.5c2.233 2 5.45 3 9.65 3a16.8 16.8 0 0 0 13.15-5.6 21.178 21.178 0 0 0 2.7-3.85c.355-.636.688-1.303 1-2 2.233-4.866 3.35-10.882 3.35-18.05 0-9.367-.617-16.667-1.85-21.9a110.741 110.741 0 0 1-.8-3.6c-.188-.92-.372-1.837-.55-2.75-.298-1.27-.598-2.537-.9-3.8a29.769 29.769 0 0 1-.1-.45 6.996 6.996 0 0 1-.2-.5 11.304 11.304 0 0 1-.6-3.15 7.326 7.326 0 0 1 .5-3.1 4.81 4.81 0 0 1 .35-.85c.186-.126.388-.227.6-.3a2.05 2.05 0 0 1 .8-.25c.13.033.265.05.4.05l1.5.4a4.656 4.656 0 0 1 1.65.9 5.05 5.05 0 0 1 1.7 2.95 6.653 6.653 0 0 1 1.8 3.65c.602 3.592 1.202 7.192 1.8 10.8.333 2.1.717 5.617 1.15 10.55.433 4.4.65 6.967.65 7.7 0 27.6-9.417 41.4-28.25 41.4-7.967 0-13.617-2.383-16.95-7.15-2.5-3.6-3.75-8.75-3.75-15.45.015-2.309.182-4.614.5-6.9.367-2.5.55-3.8.55-3.9a209.663 209.663 0 0 0-.05-3.85c0-.867.017-1.733.05-2.6l-.1-.4a25.04 25.04 0 0 0-1.7-4.4 5.525 5.525 0 0 1-.6-3.1c.1-.233.2-.483.3-.75.1-.233.217-.483.35-.75.064-.13.148-.248.25-.35.071-.14.155-.274.25-.4a4.518 4.518 0 0 1 2.3-1.1c.15.005.3.005.45 0a4.972 4.972 0 0 1 1.85.25c.173.07.34.153.5.25.227.097.445.214.65.35a20.328 20.328 0 0 1 3.2 7.85Z" fill="var(--outline)"/>
  <path d="M101.65 107.65a.327.327 0 0 1 .15-.15c.233-.267.483-.533.75-.8.308-.275.593-.576.85-.9l.1-.2a5.31 5.31 0 0 1 1.65-.9c1.396-.4 2.858-.519 4.3-.35a35.23 35.23 0 0 1 3.45 1.3c.178.913.362 1.83.55 2.75.247 1.205.513 2.405.8 3.6 1.233 5.233 1.85 12.533 1.85 21.9 0 7.168-1.117 13.184-3.35 18.05l-1.75.75a32.082 32.082 0 0 1-4.65 1.65h-2.05a139.527 139.527 0 0 1-3.5-1.05 8.228 8.228 0 0 1-3.3-2.1l-.5-.4a.16.16 0 0 0-.1-.15 2.11 2.11 0 0 1-.4-.55l-.2-.6c-.1-.267-.2-.517-.3-.75v-1.7a.443.443 0 0 0 .05-.2 2.79 2.79 0 0 0 .2-.7c.099-.324.15-.661.15-1a2.81 2.81 0 0 1 .05-.55c.03-.114.047-.232.05-.35.095-.31.162-.628.2-.95.03-.577.13-1.148.3-1.7.2-.667.4-1.35.6-2.05.068-.38.101-.764.1-1.15a.204.204 0 0 0 .05-.15l.1-.6c.033-.167.067-.35.1-.55.034-.248.051-.5.05-.75v-.2a.204.204 0 0 0 .05-.15c.066-.193.1-.396.1-.6.033-.1.067-.217.1-.35a2.822 2.822 0 0 0 0-.75.443.443 0 0 0 .05-.2l.1-.2c.133-1.3.217-2.6.25-3.9.135-2.572.017-5.15-.35-7.7-.2-1.24-.3-2.494-.3-3.75a.443.443 0 0 0 .05-.2c.066-.2.168-.386.3-.55a.86.86 0 0 0 .2-.55c.031-.258.098-.51.2-.75a.443.443 0 0 0 .05-.2c0-.07.018-.138.05-.2a1.107 1.107 0 0 1 .05-.35v-.2c0-.07.018-.138.05-.2.033-.133.067-.25.1-.35a111.111 111.111 0 0 0 0-.4c.167-.567.317-1.133.45-1.7.222-.675.507-1.328.85-1.95a15.437 15.437 0 0 0 1.3-3.3Z" fill="var(--shadow)"/>
  <path d="M87.2 109.25a4.993 4.993 0 0 1 1.8-1.3 1.948 1.948 0 0 0 1.2-1.2 9.871 9.871 0 0 1 1.3-4.1c.83-1.47 4.83-4.654 12-9.55 1.657-1.122 2.94-2.056 3.85-2.8a9.562 9.562 0 0 1 4.25 4.35 7.326 7.326 0 0 0-.5 3.1c.05 1.073.251 2.134.6 3.15.063.176.13.343.2.5.033.154.066.304.1.45.302 1.263.602 2.53.9 3.8a35.23 35.23 0 0 0-3.45-1.3 10.987 10.987 0 0 0-4.3.35c-.6.2-1.158.504-1.65.9l-.1.2a7.307 7.307 0 0 1-.85.9 16.16 16.16 0 0 0-.75.8.327.327 0 0 0-.15.15 15.437 15.437 0 0 1-1.3 3.3 11.482 11.482 0 0 0-.85 1.95 31.996 31.996 0 0 1-.45 1.7 111.111 111.111 0 0 1 0 .4c-.033.1-.067.217-.1.35a.444.444 0 0 0-.05.2v.2a1.107 1.107 0 0 0-.05.35.445.445 0 0 0-.05.2c0 .07-.018.138-.05.2-.102.24-.169.492-.2.75a.86.86 0 0 1-.2.55c-.132.164-.234.35-.3.55 0 .07-.018.138-.05.2 0 1.256.1 2.51.3 3.75.367 2.55.485 5.128.35 7.7-.033 1.3-.117 2.6-.25 3.9l-.1.2c0 .07-.018.138-.05.2.033.249.033.501 0 .75-.033.133-.067.25-.1.35 0 .204-.034.407-.1.6a.204.204 0 0 1-.05.15v.2a5.39 5.39 0 0 1-.05.75c-.033.2-.067.383-.1.55l-.1.6a.204.204 0 0 1-.05.15c.001.386-.032.77-.1 1.15-.2.7-.4 1.383-.6 2.05a6.975 6.975 0 0 0-.3 1.7c-.038.322-.105.64-.2.95-.003.118-.02.236-.05.35a2.81 2.81 0 0 0-.05.55c0 .339-.051.676-.15 1a2.767 2.767 0 0 1-.2.7c0 .07-.018.138-.05.2a111.111 111.111 0 0 0 0 .75 111.111 111.111 0 0 0 0 .75v.2c.1.233.2.483.3.75l.2.6c.103.204.238.39.4.55a.16.16 0 0 1 .1.15l.5.4a8.228 8.228 0 0 0 3.3 2.1c1.167.367 2.333.717 3.5 1.05h2.05c1.59-.43 3.145-.981 4.65-1.65l1.75-.75a25.366 25.366 0 0 1-1 2 21.178 21.178 0 0 1-2.7 3.85 16.8 16.8 0 0 1-13.15 5.6c-4.2 0-7.417-1-9.65-3a7.277 7.277 0 0 1-2.55-4.5 55.873 55.873 0 0 1-.6-6.35c0-1.7.333-5.467 1-11.3a50.96 50.96 0 0 0-.05-6.7 30.56 30.56 0 0 0-.25-2.3 20.328 20.328 0 0 0-3.2-7.85 4.028 4.028 0 0 0-.65-.35 3.5 3.5 0 0 0-.5-.25 4.972 4.972 0 0 0-1.85-.25c-.15.005-.3.005-.45 0a8.582 8.582 0 0 1 .05-2.8 6.072 6.072 0 0 1 2.25-3.75 8.635 8.635 0 0 1 1.75-2.2 9.56 9.56 0 0 1 6-2.55Z" fill="var(--body)"/>
  <path d="M92.45 109.85c.124-.073.258-.156.4-.25a352.3 352.3 0 0 1 3.85-1.95c.133.077.266.16.4.25l.15.15c-.238.236-.44.505-.6.8a3.27 3.27 0 0 1-.35.2c-.231.33-.482.648-.75.95-.398.464-.75.967-1.05 1.5a65.132 65.132 0 0 1-14.6 11.6 43.691 43.691 0 0 1-8.2 1.2l-.6-.4-.5-.4a3.755 3.755 0 0 1-.4-.35c-.1-.133-.217-.25-.35-.35a1.951 1.951 0 0 0-.15-.4l-.2-.4a1.113 1.113 0 0 1-.15-.35 1.11 1.11 0 0 0-.15-.35v-1.5a1.91 1.91 0 0 0 .15-.4c.03-.124.08-.243.15-.35l.15-.3a43.864 43.864 0 0 0 11-3.4 9.56 9.56 0 0 0 2.25-.8c.437-.27.855-.571 1.25-.9a24.065 24.065 0 0 0 4.25-1.75l2.2-1.15a12.12 12.12 0 0 0 1.85-.9Z" fill="var(--outline)"/>
</svg>
