<svg xmlns="http://www.w3.org/2000/svg" viewBox="0 0 137.426 153.435">
  <path fill="var(--body)" d="M42.611 13.735a6.48 6.48 0 0 0-1.75 1.4q-.4.45-.75.9a.582.582 0 0 1-.15.1 3.598 3.598 0 0 0-.45.55q-.15.146-.3.3-.322.319-.65.65a2.753 2.753 0 0 1-.2.25 31.56 31.56 0 0 0-2.8 3.65 25.374 25.374 0 0 0-4.2 14.1 27 27 0 0 0 2.95 12.6q3.7 7.1 5.35 18.6a85.185 85.185 0 0 1 .8 11 57.33 57.33 0 0 0 1.45 11.6 42.098 42.098 0 0 0 3.4 9.8q2.054 3.888 2.15 4.05a7.291 7.291 0 0 0 .5.7q.33.467.8 1.05.423.496.95 1.1a24.649 24.649 0 0 0 4.9 4.5 26.17 26.17 0 0 0 5.35 2.9q.8.35 7.65 2.9 8.748-.203 20.2-6.05 1.455-.748 2.65-1.35 5.044-2.544 5.45-2.5a2.102 2.102 0 0 0 .25-.25 1.378 1.378 0 0 0 .2-.2l9.15-11.25q.486-.718.9-1.45-4.948 6.628-10.8 7.45a30.56 30.56 0 0 1-14.25.25q-6.617-1.566-12.8-9.5a14.772 14.772 0 0 1-1.75-4.1 15.742 15.742 0 0 1-.5-3.05q-.1-.35-.2-.75l-.2-1.1a3.298 3.298 0 0 1-.1-1.15q-.05-.15-.1-.35a1.953 1.953 0 0 0-.15-.4v-.35q.05-1.85-.05-3.75a18.065 18.065 0 0 0-.2-2.65q-.2-.55-.35-1.1-.15-.4-.25-.75-.15-.4-.25-.75a5.321 5.321 0 0 0-.05-.75q-.1-.55-.15-1.15a2.992 2.992 0 0 0-.3-1.1 104.71 104.71 0 0 0-4.8-16.6 52.011 52.011 0 0 0-7.6-13.4l-.2-.4a3.26 3.26 0 0 0-.2-.35 4.233 4.233 0 0 0-.6-.75 7.994 7.994 0 0 0-2.45-3.95 13.369 13.369 0 0 1-3.15-4.7 5.124 5.124 0 0 1-.25-.5q-.186-.67-.35-1.35a15.39 15.39 0 0 0-.85-2.6 15.159 15.159 0 0 0-.45-2.15l-.05-.2v-.2q.05-.55.15-1.1v-.1q.05-.25.1-.45a3.443 3.443 0 0 1 .1-.4.617.617 0 0 1 .1-.35 6.765 6.765 0 0 1 .85-1.7.538.538 0 0 0 .1-.3l.1-.1a.482.482 0 0 0 .2-.25l.1-.2a.144.144 0 0 1 .05-.1q.7-.7 1.4-1.35.8-.75 1.65-1.5 1.4-1.25 2.95-2.4a28.005 28.005 0 0 1 3.6-1.45 21.793 21.793 0 0 1 5.9-.9.582.582 0 0 1 .15-.1l.1-.1a.584.584 0 0 1 .15-.1v-.05a40.952 40.952 0 0 0-6.45.75h-.55a21.38 21.38 0 0 0-4.8 1.6q-3.15 1.45-6.2 3.15a.204.204 0 0 0-.15.05ZM35.89 130.86a17.377 17.377 0 0 0 .22 4.193 8.174 8.174 0 0 0 1.82 3.403q1.49 1.875 6.95 5.23a21.49 21.49 0 0 0 5.847 2.466 16.14 16.14 0 0 0 3.75.542q6.399 0 10.37-2.96a15.195 15.195 0 0 0 2.482-2.466 18.381 18.381 0 0 0 2.427-4.34q-.165.246-.386.542a5.859 5.859 0 0 0-.496.394 6.613 6.613 0 0 1-2.041 1.184q-.828.345-1.6.74h-1.82a14.884 14.884 0 0 0-3.254-.641 2.796 2.796 0 0 1-1.38-.493l-.11-.198a2.82 2.82 0 0 0-.827-.74 4.923 4.923 0 0 1-1.158-.937.344.344 0 0 1-.166-.148.4.4 0 0 1-.055-.197.575.575 0 0 0-.11-.148l-.11-.198a.4.4 0 0 1-.056-.197v-1.282a1.832 1.832 0 0 0 .276-.74v-1.678l.11-.394q.056-.296.11-.543a1.307 1.307 0 0 0 .056-.345v-.197q.22-.543.386-1.086a27.182 27.182 0 0 1 2.096-4.785 19.164 19.164 0 0 1 1.49-2.269q.661-.394 1.268-.838a8.542 8.542 0 0 0 1.49-1.234 1.331 1.331 0 0 0 .275-.345 8.578 8.578 0 0 0 1.379-1.085q.772-.79 1.655-1.53a4.696 4.696 0 0 0 .772-.887 5.8 5.8 0 0 0 .938-.938 36.895 36.895 0 0 1 2.702-3.009q.773-.74 1.545-1.43a59.39 59.39 0 0 1 5.516-3.65q3.034-1.727 6.177-3.207a31.423 31.423 0 0 1 10.701-2.91 5.06 5.06 0 0 0 .552.345l.11.197a.188.188 0 0 1 .055.148q-.22 1.085-.441 2.22a10.033 10.033 0 0 0-.11 1.48v.838q.772-.69 1.765-1.48c.746-.612 3.306-1.726 2.94-2.995a5.164 5.164 0 0 0-.946.434 2.161 2.161 0 0 1-.99.294.912.912 0 0 1-.843-.505c-.401-.986 1.287-1.75 1.882-2.167.28-.196 2.871-2.16 3.031-2.016l-.055-.05a12.706 12.706 0 0 0-1.6-.493 3.685 3.685 0 0 0-1.158-.394q-4.688-.69-9.266-1.332a20.615 20.615 0 0 0-6.675.099 6.243 6.243 0 0 1-1.103-.1.467.467 0 0 1-.275-.147q-2.317-3.601-7.392-3.108a15.51 15.51 0 0 1-6.012-.493 3.157 3.157 0 0 0-.276-.69 2.574 2.574 0 0 0-.276-.395l-.165-.198q-.04-.06-.11-.148a21.121 21.121 0 0 0-3.365 1.826 38.832 38.832 0 0 0-5.847 4.735q-.507.495-1.048.937l-.22.198a.813.813 0 0 1-.166.098l-.552.444a62.99 62.99 0 0 0-12.907 14.8q-6.343 9.668-7.005 11.986a18.055 18.055 0 0 0-.772 4.983ZM7.433 98.813a10.357 10.357 0 0 0 7.45 5.061 30.346 30.346 0 0 0 13.4-.556 21.442 21.442 0 0 1 13.85-1.613 20.12 20.12 0 0 0 .6 5.34 16.657 16.657 0 0 0 1.85 4.615q2.565-.413 4.7-.723 4.83-.732 7.7-1a22.562 22.562 0 0 0 5.75-1.113 6.49 6.49 0 0 1 2.1-.612 17.195 17.195 0 0 0 .95-3.67 24.704 24.704 0 0 0 .45-2.67l-.2-3.17a94.307 94.307 0 0 0-5.6-16.017 20.455 20.455 0 0 1-1.8 1.557q-7.25-.786-21.6.167-14.346.962-19.9 2.78-5.504 1.828-7.6 5.507a.079.079 0 0 1 0 .055.12.12 0 0 1-.05.056q-.173.34-.35.667a20.765 20.765 0 0 0-1.7 5.34Zm114.778-52.228q-.15-.5-.3-1.1a61.642 61.642 0 0 0-4.55-12.5 34.06 34.06 0 0 0-6.95-9.65.443.443 0 0 0-.05-.2.384.384 0 0 0-.05-.15 9.411 9.411 0 0 0-1.4-1.65q-3.6-3.25-7.5-6.25-.559-.443-1.15-.9l-1.15.4a23.07 23.07 0 0 0-3.2 1.3q-.7.396-.7.65 0 5.6 8.25 32.5.9 3.05.95 3.25.1.65.9 6.25a85.717 85.717 0 0 0 1.85 9.2q.35 2.95-.45 18.55a87.327 87.327 0 0 1 9.25.5 8.122 8.122 0 0 0 5.1-1.75l2.2-2.35a42.47 42.47 0 0 0-4.1-2.15q.15-.3.3-.55a1.954 1.954 0 0 0 .15-.4 1.106 1.106 0 0 0 .05-.35 2.451 2.451 0 0 0 .85-1.5 6.528 6.528 0 0 1 .7-2.2 5.074 5.074 0 0 0 .55-2.5 2.765 2.765 0 0 0 .2-.75q.05-.3.1-.55a1.96 1.96 0 0 1 .15-.4v-.35q.1-.4.2-.75.1-.45.25-.95.15-.35.3-.75a8.466 8.466 0 0 0 0-1.3 5.679 5.679 0 0 1 .15-1.7 4.6 4.6 0 0 0 .15-1.5 7.386 7.386 0 0 0 .3-2.45q-.05-1.6 0-3.15a14.357 14.357 0 0 0-.3-3.4v-1.1a6.41 6.41 0 0 0-.1-1.15 4.99 4.99 0 0 0-.15-.75v-.95a2.805 2.805 0 0 0-.05-.55v-.35a7.38 7.38 0 0 1-.25-.8 4.747 4.747 0 0 0-.3-.9 4.623 4.623 0 0 1-.15-.55v-.4a1.106 1.106 0 0 0-.05-.35v-.6Z"/>
  <path fill="var(--shadow)" d="M16.052 102.915a10.44 10.44 0 0 1-7.45-5.742q-.219 1.67-.35 3.47-.346 6.255 2.4 9.97a11.762 11.762 0 0 0 9.9 4.922q5.7 0 17.35-2.271 4.318-.858 7.85-1.515a20.434 20.434 0 0 1-1.85-5.237 25.768 25.768 0 0 1-.6-6.058 19.15 19.15 0 0 0-13.85 1.83 26.86 26.86 0 0 1-13.4.63Zm103.759-73.68a65.212 65.212 0 0 0-5.65-8.15q-5.45-6.15-6.95-6.75a11.15 11.15 0 0 0-6.95-.15q.591.457 1.15.9 3.9 3 7.5 6.25a9.411 9.411 0 0 1 1.4 1.65.384.384 0 0 1 .05.15.443.443 0 0 1 .05.2 34.06 34.06 0 0 1 6.95 9.65 61.642 61.642 0 0 1 4.55 12.5q.15.6.3 1.1v.6a1.106 1.106 0 0 1 .05.35v.4a4.623 4.623 0 0 0 .15.55 4.747 4.747 0 0 1 .3.9 7.38 7.38 0 0 0 .25.8v.35a2.805 2.805 0 0 1 .05.55v.95a4.99 4.99 0 0 1 .15.75 6.41 6.41 0 0 1 .1 1.15v1.1a14.357 14.357 0 0 1 .3 3.4q-.05 1.55 0 3.15a7.386 7.386 0 0 1-.3 2.45 4.6 4.6 0 0 1-.15 1.5 5.679 5.679 0 0 0-.15 1.7 8.466 8.466 0 0 1 0 1.3q-.15.4-.3.75-.15.5-.25.95-.1.35-.2.75v.35a1.96 1.96 0 0 0-.15.4q-.05.25-.1.55a2.765 2.765 0 0 1-.2.75 5.074 5.074 0 0 1-.55 2.5 6.528 6.528 0 0 0-.7 2.2 2.451 2.451 0 0 1-.85 1.5 1.106 1.106 0 0 1-.05.35 1.954 1.954 0 0 1-.15.4q-.15.25-.3.55a42.47 42.47 0 0 1 4.1 2.15 23.348 23.348 0 0 0 3.25-6.85 44.192 44.192 0 0 0 2.2-13.35 64.95 64.95 0 0 0-1.45-14.8q-1.65-4.9-1.95-6a53.367 53.367 0 0 0-5.5-12.45Zm-55 86.3a5.842 5.842 0 0 0 2.2.9h.55l-2.75-.9m-16.9-102.25q-.85.75-1.65 1.5-.7.65-1.4 1.35a.144.144 0 0 0-.05.1l-.1.2a.482.482 0 0 1-.2.25l-.1.1a.538.538 0 0 1-.1.3 6.765 6.765 0 0 0-.85 1.7.617.617 0 0 0-.1.35 3.443 3.443 0 0 0-.1.4q-.05.2-.1.45v.1q-.1.55-.15 1.1v.2l.05.2a15.159 15.159 0 0 1 .45 2.15 15.39 15.39 0 0 1 .85 2.6q.164.68.35 1.35a5.124 5.124 0 0 0 .25.5 13.369 13.369 0 0 0 3.15 4.7 7.994 7.994 0 0 1 2.45 3.95 4.233 4.233 0 0 1 .6.75 3.26 3.26 0 0 1 .2.35l.2.4a52.011 52.011 0 0 1 7.6 13.4 104.71 104.71 0 0 1 4.8 16.6 2.992 2.992 0 0 1 .3 1.1q.05.6.15 1.15a5.321 5.321 0 0 1 .05.75q.1.35.25.75.1.35.25.75.15.55.35 1.1a18.065 18.065 0 0 1 .2 2.65q.1 1.9.05 3.75v.35a1.953 1.953 0 0 1 .15.4q.05.2.1.35a3.298 3.298 0 0 0 .1 1.15l.2 1.1q.1.4.2.75a15.742 15.742 0 0 0 .5 3.05 14.772 14.772 0 0 0 1.75 4.1q6.184 7.934 12.8 9.5a30.56 30.56 0 0 0 14.25-.25q5.852-.821 10.8-7.45a28.329 28.329 0 0 0 3.3-7.5 48.836 48.836 0 0 0 1.7-16.9q-.696-8-1.1-10.35a23.576 23.576 0 0 1-.4-3.75q0-5.25-6.9-19.45-6.8-14.05-10.7-17.25-.305-.245-3.75-3.2a29.902 29.902 0 0 0-6.3-4.35 22.597 22.597 0 0 0-6.85-1.95 119.01 119.01 0 0 0-13.15-.5h-1.5v.05a.584.584 0 0 0-.15.1l-.1.1a.582.582 0 0 0-.15.1 21.793 21.793 0 0 0-5.9.9 28.005 28.005 0 0 0-3.6 1.45q-1.55 1.15-2.95 2.4Zm16.33 105.46a9.992 9.992 0 0 1-1.62 1.141 1.439 1.439 0 0 1-.323.363 9.873 9.873 0 0 1-1.75 1.296q-.712.467-1.489.882a20.093 20.093 0 0 0-1.749 2.385 27.133 27.133 0 0 0-2.462 5.03q-.194.57-.453 1.14v.208a1.242 1.242 0 0 1-.065.363q-.064.26-.13.57l-.129.415v1.763a1.806 1.806 0 0 1-.324.778v1.348a.388.388 0 0 0 .065.208l.13.207a.616.616 0 0 1 .13.156.388.388 0 0 0 .064.207.392.392 0 0 0 .194.156 5.714 5.714 0 0 0 1.36.985 3.218 3.218 0 0 1 .972.778l.13.207a3.537 3.537 0 0 0 1.62.519 19.297 19.297 0 0 1 3.821.674h2.138q.907-.415 1.878-.778a8.028 8.028 0 0 0 2.397-1.244 6.814 6.814 0 0 1 .583-.415q.26-.311.454-.57a37.13 37.13 0 0 0 2.72-9.645 9.35 9.35 0 0 1 2.008-4.823q2.85-2.54 5.636-5.082 17.36-10.007 19.045-11.667a7.08 7.08 0 0 1 .583-.518v-.882a9.464 9.464 0 0 1 .13-1.555q.258-1.193.517-2.334a.187.187 0 0 0-.064-.155l-.13-.208a6.088 6.088 0 0 1-.648-.363 40.33 40.33 0 0 0-12.567 3.06q-3.692 1.555-7.255 3.37a70.946 70.946 0 0 0-6.477 3.837q-.907.726-1.814 1.504a40.645 40.645 0 0 0-3.174 3.163 6.503 6.503 0 0 1-1.102.985 5.146 5.146 0 0 1-.906.934q-1.037.777-1.944 1.607Z"/>
  <path fill="var(--outline)" d="M37.129 134.48A17.426 17.426 0 0136.921 130.4 18.071 18.071 0 0137.649 125.553Q38.273 123.297 44.257 113.891A60.749 60.749 0 0156.433 99.494L56.953 99.062A.762.762 0 0057.109 98.966L57.317 98.774Q57.827 98.344 58.306 97.862A36.872 36.872 0 0163.821 93.255 19.741 19.741 0 0166.995 91.48L66.735 91.096Q66.162 90.76 65.538 90.424A3.398 3.398 0 0063.769 90.04 24.778 24.778 0 0059.815 90.904 35.391 35.391 0 0041.603 102.901Q34.371 113.075 31.509 119.746A24.944 24.944 0 0029.636 126.033 58.758 58.758 0 0028.596 134.095Q28.596 140.91 36.452 146.909A32.033 32.033 0 0056.485 153.435 20.58 20.58 0 0069.336 149.308Q75.736 144.413 76.986 135.055A18.336 18.336 0 0177.506 132.799Q77.922 131.168 77.974 130.832A14.818 14.818 0 0179.327 126.945Q79.951 125.649 83.541 123.537 89.109 120.274 91.19 118.787 98.734 113.363 101.388 111.012 106.955 106.069 107.008 102.902 107.059 102.422 107.111 101.894 106.955 101.366 106.851 100.838A3.014 3.014 0 00106.331 99.734Q106.071 99.398 105.811 99.014A10.846 10.846 0 00104.561 98.438.423.423 0 00104.406 98.39Q103.366 99.014 102.325 99.686A36.162 36.162 0 0198.578 102.086.816.816 0 0098.37 102.23Q97.954 102.565 97.59 102.901L97.434 103.045Q97.266 103.215 97.121 103.381L94.624 105.493Q93.687 106.261 92.959 106.933A6.047 6.047 0 0092.491 107.413Q91.138 108.948 77.193 118.21 74.956 120.562 72.666 122.913A9.371 9.371 0 0071.053 127.376 38.454 38.454 0 0168.868 136.303 18.044 18.044 0 0166.578 140.526 14.563 14.563 0 0164.238 142.926 15.61 15.61 0 0154.455 145.805 14.794 14.794 0 0150.917 145.277 19.947 19.947 0 0145.402 142.877Q40.251 139.614 38.846 137.79A8.04 8.04 0 0137.129 134.48ZM118.012 82.235Q118.862 77.335 118.862 65.485A78.822 78.822 0 00114.662 40.335 70.84 70.84 0 0098.162 12.885 41.427 41.427 0 0093.312 8.335Q92.008 7.49 89.762 5.935A39.202 39.202 0 0081.862 2.385 44.432 44.432 0 0068.462.035 61.997 61.997 0 0051.212 2.085Q41.722 4.439 36.362 9.435A48.84 48.84 0 0026.962 22.085Q22.91 29.79 22.912 36.185 22.912 42.835 28.212 57.785 33.462 72.735 33.462 77.035 33.462 87.935 35.162 93.485 37.612 101.585 40.652 106.59C13.045 141.669 53.383 164.395 71.848 142.238 73.779 136.441 75.998 130.868 79.197 125.244Q79.412 124.485 89.93 119.413 103.162 113.135 111.462 97.385A37 37 0 00118.012 82.235M40.862 15.135A6.48 6.48 0 0142.612 13.735.204.204 0 0142.762 13.685Q45.812 11.985 48.962 10.535A21.38 21.38 0 0153.762 8.935H54.312A40.952 40.952 0 0160.762 8.185H62.262A119.01 119.01 0 0175.412 8.685 22.597 22.597 0 0182.262 10.635 29.902 29.902 0 0188.562 14.985Q92.006 17.94 92.312 18.185 96.212 21.385 103.012 35.435 109.912 49.635 109.912 54.885A23.576 23.576 0 00110.312 58.635Q110.715 60.986 111.412 68.985A48.836 48.836 0 01109.712 85.885 28.329 28.329 0 01106.412 93.385Q105.997 94.117 105.512 94.835L96.362 106.085A1.378 1.378 0 0196.162 106.285 2.102 2.102 0 0195.912 106.535Q95.505 106.491 92.098 110.547 83.488 116.682 75.909 121.838C80.696 161.26 4.852 154.614 47.962 103.985A7.291 7.291 0 0147.462 103.285Q47.502 103.493 45.312 99.235A42.098 42.098 0 0141.912 89.435 57.33 57.33 0 0140.462 77.835 85.185 85.185 0 0039.662 66.835Q38.012 55.335 34.312 48.235A27 27 0 0131.362 35.635 25.374 25.374 0 0135.562 21.535 31.56 31.56 0 0138.362 17.885 2.753 2.753 0 0038.562 17.635Q38.889 17.304 39.212 16.985 39.362 16.831 39.512 16.685A3.598 3.598 0 0139.962 16.135.582.582 0 0040.112 16.035Q40.462 15.585 40.862 15.135ZM6.6 86.54Q.003 93.185 0 104.84 0 111.29 5.7 116.24 12.35 122.04 23.7 122.04A19.552 19.552 0 0026.65 121.84Q34.25 120.69 40.1 119.84 42.318 111.21 38 111.89A125.523 125.523 0 0120.65 113.69 13.004 13.004 0 0110.75 109.79Q8.004 106.845 8.35 101.89 8.481 100.463 8.7 99.14A17.357 17.357 0 0110.4 94.34Q10.576 94.046 10.75 93.74A.114.114 0 0010.8 93.69.064.064 0 0010.8 93.64Q12.896 90.332 18.4 88.69 23.954 87.054 38.3 86.19 39.334 78.033 32.471 78.858 13.19 79.953 6.6 86.54ZM137.211 59.385A106.556 106.556 0 00134.161 43.035Q130.811 29.385 125.311 22.435 119.414 13.685 113.011 9.485 106.661 5.335 102.711 6.035 91.311 7.985 87.511 11.135 93.563 15.698 98.844 24.894 105.399 32.907 111.227 50.297 111.591 65.684 113.594 80.707A39.586 39.586 0 00110.311 95.135Q114.461 95.435 117.711 95.435 124.261 95.441 129.511 87.835 134.812 80.216 135.711 76.135 136.661 72.058 137.161 68.485A42.518 42.518 0 00137.211 59.385M114.161 21.085A65.212 65.212 0 01119.811 29.235 53.367 53.367 0 01125.311 41.685Q125.611 42.785 127.261 47.685A64.95 64.95 0 01128.711 62.485 44.192 44.192 0 01126.511 75.835 23.348 23.348 0 01123.261 82.685L121.061 85.035A8.122 8.122 0 01115.961 86.785 85.717 85.717 0 01117.509 59.857Q115.051 44.925 111.773 34.454 103.67 22.072 98.844 14.515L100.261 14.185A11.15 11.15 0 01107.211 14.335Q108.711 14.935 114.161 21.085Z"/>
  <path d="M20.012 36.885a13.852 13.852 0 0 0-2.45 8.4q0 13.65 6.65 21.55 6.7 8 18.6 8 22.2 0 35.1-7.85 11.9-7.25 11.9-18.35 0-6.1-6.05-13.75-4.864-6.183-10.6-8.1-.38-.02-.8-.05a35.762 35.762 0 0 0-7.6.3q-6.282 2.016-15.2 4.35-11.3 3.035-19.25 2.65-7.95-.395-10.3 2.85m6.6 5.45q1.287-1.029 5.5-.75.638.04 1.35.05h.35l5.2-.3q3.239-.257 7.5-.85 2.844-.464 5.6-1.1 1.25-.3 12.4-4.55a9.883 9.883 0 0 1 2.2-.6 28.216 28.216 0 0 1 4.5-.2q3.155.094 7.55 7.35a27.696 27.696 0 0 1 3.25 7.4 8.99 8.99 0 0 1 0 2.95 10.543 10.543 0 0 1-.4 2q-.696 2.642-6.2 6.5a4.7 4.7 0 0 1-.6.45q-5.921 4.096-20.25 5.35a.659.659 0 0 1-.2 0 1.136 1.136 0 0 1-.25.05l-2.35.15a.922.922 0 0 1-.25.05q-12.343.98-14.85.35a7.677 7.677 0 0 1-4.05-2.15q-1.343-1.45-2.35-2.55a16.729 16.729 0 0 1-2.4-3.9 34.904 34.904 0 0 1-1.55-5.65q-.95-4.1-.95-4.45.002-4.555 1.25-5.6Z" fill="#091628"/>
  <path d="M82.012 51.735a8.99 8.99 0 0 0 0-2.95 27.696 27.696 0 0 0-3.25-7.4q-4.395-7.256-7.55-7.35a28.216 28.216 0 0 0-4.5.2 9.883 9.883 0 0 0-2.2.6q-11.15 4.25-12.4 4.55-2.756.636-5.6 1.1-4.261.593-7.5.85a3.628 3.628 0 0 0 .65-.05 2.835 2.835 0 0 1-.35.25 1.11 1.11 0 0 0-.35.15 7.454 7.454 0 0 0-1.45 1.15 17.298 17.298 0 0 0-1.2 2.55 11.202 11.202 0 0 0-.45 3.4 14.017 14.017 0 0 0 1.4 6.6q2.4 4.45 8.75 6.2a34.89 34.89 0 0 0 13.05-.5 91.046 91.046 0 0 0 17.65-6q.95-.45 1.9-.95a16.03 16.03 0 0 0 3.4-2.4m-15.25-16a1.644 1.644 0 0 0 .4-.05 4.916 4.916 0 0 1 4.05 1.1 3.49 3.49 0 0 1 1.35 2.5v.2a.445.445 0 0 0-.05.2v.35l-.1.2a.741.741 0 0 1-.2.35l-.2.4q-.15.2-.25.35a.785.785 0 0 0-.15.2 3.52 3.52 0 0 1-1.9 1q-2.3.45-4.6.95a26.294 26.294 0 0 1-14.1 1.7 1.256 1.256 0 0 1-1.15-1v-.4a.443.443 0 0 1-.05-.2v-.55a.443.443 0 0 1 .05-.2v-.15a.443.443 0 0 0 .05-.2l.1-.2a.445.445 0 0 1 .05-.2.327.327 0 0 0 .15-.15.785.785 0 0 0 .15-.2l.2-.2a34.27 34.27 0 0 0 8.15-2.65 47.723 47.723 0 0 1 4.45-1.8l.5-.3a6.525 6.525 0 0 1 1.9-.7q.6-.15 1.2-.35Z" fill="#90c3d0"/>
  <path d="M67.161 35.685a1.644 1.644 0 0 1-.4.05q-.6.2-1.2.35a6.525 6.525 0 0 0-1.9.7l-.5.3a47.723 47.723 0 0 0-4.45 1.8 34.27 34.27 0 0 1-8.15 2.65l-.2.2a.785.785 0 0 1-.15.2.327.327 0 0 1-.15.15.445.445 0 0 0-.05.2l-.1.2a.443.443 0 0 1-.05.2v.15a.443.443 0 0 0-.05.2v.55a.443.443 0 0 0 .05.2v.4a1.256 1.256 0 0 0 1.15 1 26.294 26.294 0 0 0 14.1-1.7q2.3-.5 4.6-.95a3.52 3.52 0 0 0 1.9-1 .785.785 0 0 1 .15-.2q.1-.15.25-.35l.2-.4a.741.741 0 0 0 .2-.35l.1-.2v-.35a.445.445 0 0 1 .05-.2v-.2a3.49 3.49 0 0 0-1.35-2.5 4.916 4.916 0 0 0-4.05-1.1Z" fill="#fff"/>
  <path d="M32.111 41.585q-4.212-.279-5.5.75-1.247 1.045-1.25 5.6 0 .35.95 4.45a34.904 34.904 0 0 0 1.55 5.65 16.729 16.729 0 0 0 2.4 3.9q1.008 1.1 2.35 2.55a7.677 7.677 0 0 0 4.05 2.15q2.508.63 14.85-.35a.922.922 0 0 0 .25-.05l2.35-.15a1.136 1.136 0 0 0 .25-.05.659.659 0 0 0 .2 0q14.33-1.254 20.25-5.35a4.7 4.7 0 0 0 .6-.45q5.505-3.858 6.2-6.5a10.543 10.543 0 0 0 .4-2 16.03 16.03 0 0 1-3.4 2.4q-.95.5-1.9.95a91.046 91.046 0 0 1-17.65 6 34.89 34.89 0 0 1-13.05.5q-6.35-1.75-8.75-6.2a14.017 14.017 0 0 1-1.4-6.6 11.202 11.202 0 0 1 .45-3.4 17.298 17.298 0 0 1 1.2-2.55 7.454 7.454 0 0 1 1.45-1.15 1.11 1.11 0 0 1 .35-.15 2.835 2.835 0 0 0 .35-.25 3.628 3.628 0 0 1-.65.05l-5.2.3h-.35q-.711-.01-1.35-.05Z" fill="#4e7a8d"/>
</svg>
