<svg xmlns="http://www.w3.org/2000/svg" viewBox="0 0 148 157">
  <path fill="var(--body)" d="M20.89 47.557v.35c.512 1.22.996 2.437 1.45 3.65a70.219 70.219 0 0 1 2.35 8.4c.7 3.1 1.266 6.2 1.7 9.3.233.867.45 1.75.65 2.65.2.867.433 1.733.7 2.6v.75c.035.139.085.273.15.4.033.1.066.217.1.35.035.139.085.273.15.4v.75c.033.1.066.217.1.35.035.139.085.273.15.4.268 1.855.401 3.726.4 5.6 0 1.6-.017 3.233-.05 4.9-.034.133-.067.25-.1.35a1.952 1.952 0 0 0-.15.4 85.282 85.282 0 0 1-.7 7.1 70.36 70.36 0 0 0-.55 6c-.293.486-.56.987-.8 1.5-.2.367-.434.75-.7 1.15a15.28 15.28 0 0 1-3 1.9 3.27 3.27 0 0 0-.35.2c-2.3.067-4.6.117-6.9.15a7.436 7.436 0 0 1-3.6-1.45.755.755 0 0 1-.25-.3 56.773 56.773 0 0 1-.5-10.15c.066-2.733.1-5.483.1-8.25.536-2.834.77-5.717.7-8.6a81.926 81.926 0 0 0-.4-7.1 11.638 11.638 0 0 1-.05-.4l-.1-.4a2.735 2.735 0 0 1-.15-.35 25.872 25.872 0 0 0-1.2-6.75 124.86 124.86 0 0 1-1.8-5.65v-.9a10.163 10.163 0 0 1 1.65-2.95c.04-.215.125-.42.25-.6.112-.182.246-.35.4-.5.2-.2.383-.4.55-.6a7.15 7.15 0 0 1 4.4-3.3c1.783-.486 3.583-.936 5.4-1.35ZM57.817 100.572c4.427.443 6.641.597 6.643.464.132.102.103.818-.086 2.149a2.96 2.96 0 0 0 .774 1.513c.44.457.726 1.038.822 1.664a24.813 24.813 0 0 1-2.162 9.465c-3.055 7.115-4.985 11.8-5.79 14.053a12.491 12.491 0 0 1-4.4 5.826 62.494 62.494 0 0 1-5.977 4.448 41.314 41.314 0 0 1-5.047 2.714 42.751 42.751 0 0 1-7.588 2.171l-5.67 1.054c-2.173.396-3.544.656-4.113.78-6.504.189-10.386-.894-11.646-3.25a19.564 19.564 0 0 1-2.186-6.688 9.528 9.528 0 0 1-.034-.95l.004-.25.002-.1.002-.15c.224-1.1.578-2.168 1.055-3.183.12-.32.313-.608.564-.84.265.45.492.922.676 1.411.157.396.334.783.53 1.16a12.42 12.42 0 0 0 8.324 1.642 23.976 23.976 0 0 1 4.36-.526 3.095 3.095 0 0 1 1.207-.43 61.598 61.598 0 0 0 3.411-.641c.397-.387.86-.7 1.366-.927a7.47 7.47 0 0 0 3.239-2.245c.37-.26.708-.505 1.012-.733.199-.158.357-.36.46-.592l.004-.2a1.11 1.11 0 0 0 .056-.35l.003-.2a1.108 1.108 0 0 1-.044-.35l-.196-.203a6.193 6.193 0 0 1-.537-.76 3.598 3.598 0 0 0-.44-.557 41.63 41.63 0 0 0-1.239-.721 227.561 227.561 0 0 1-4.802-2.833c.114-.056.232-.104.352-.144l3.936-2.033c.236-.162.438-.309.607-.44a23.15 23.15 0 0 0 6.077-7.347c1.992-3.433 3.553-6.023 4.683-7.771l11.788-5.1ZM30.19 23.457c.058-.127.124-.26.2-.4 2.1-3.512 3.834-5.779 5.2-6.8a30.055 30.055 0 0 1 4.85-2.9.292.292 0 0 1 .1-.05 299.05 299.05 0 0 0 1.8-.9 13.51 13.51 0 0 0-1.8 1.95c-.4.833-.767 1.7-1.1 2.6a9.67 9.67 0 0 0-.7 3.4 11.302 11.302 0 0 1-.5 3v1.85c.064.128.114.262.15.4l.5 1.5c.132.493.232.994.3 1.5.067.497.084 1 .05 1.5.058.113.108.23.15.35l.1.4a79.249 79.249 0 0 0 4.55 18 49.988 49.988 0 0 1 3.1 13.9c.043.375.076.742.1 1.1.108.392.242.776.4 1.15.166.467.333.967.5 1.5 0 .25.017.501.05.75-.003.119.014.237.05.35v.75c.6 1.3 1.183 2.583 1.75 3.85.333.7.633 1.417.9 2.15.07.14.155.275.25.4.107.142.224.275.35.4.108.11.208.227.3.35.099.133.217.25.35.35a14.703 14.703 0 0 0 2.3 4.35c1.366 1.8 2.716 3.6 4.05 5.4l1.1.8a26.469 26.469 0 0 0 13.9 5.45h6.15a27.363 27.363 0 0 0 13.6-4 34.614 34.614 0 0 0 5.7-7.95 44.054 44.054 0 0 0 3.8-9.65c.033-.4.05-.783.05-1.15a99.643 99.643 0 0 1-.05-2.3c.766 8.372 1.15 14.555 1.15 18.55v.45a62.05 62.05 0 0 1-.05 2v.05c-.2 3.648-.77 7.267-1.7 10.8-.16.54-.343 1.09-.55 1.65a47.48 47.48 0 0 1-.6 1.55l-5.55 8.55a75.14 75.14 0 0 1-3.3 3.8 31.393 31.393 0 0 1-14.5 8.8 56.207 56.207 0 0 1-15.8 1.95c-9.267 0-16.9-4.133-22.9-12.4-6.4-8.867-8.917-20.1-7.55-33.7a65.922 65.922 0 0 0-1.9-22.85c-2.267-8.933-3.4-15.217-3.4-18.85-.005-.37.129-1.82.4-4.35.242-2.494 1.475-5.61 3.7-9.35ZM116.94 111.207a21.735 21.735 0 0 0 11 4.1c2.1-.567 4.183-1.15 6.25-1.75.4-.234.757-.54 1.05-.9.33-.427.599-.899.8-1.4a17.717 17.717 0 0 1 2.4 3.65c.217.394.385.814.5 1.25a9.055 9.055 0 0 1-1.1 6.95c-1.934 3.433-5.717 5.9-11.35 7.4-4.267 1.167-7.217 1.567-8.85 1.2a13.752 13.752 0 0 1-4-1.65 9.706 9.706 0 0 1-1.6-1.3c-.067-.133-2.767-3.05-8.1-8.75a.144.144 0 0 0-.05-.1 9.986 9.986 0 0 0-6.85-1.6c-2.234.333-4.434.683-6.6 1.05-2.734.433-5.45.95-8.15 1.55.033-.033.033-.083 0-.15a5.31 5.31 0 0 1-.05-.75v-.75a45.862 45.862 0 0 1 0-10.9 19.137 19.137 0 0 1 2.9-8.35c.449-.244.916-.494 1.4-.75l.2.3.05.05c-.163.608-.33 1.225-.5 1.85v.1a.384.384 0 0 1-.05.15v.2a.449.449 0 0 1-.05.2v.1c.03.025.047.061.05.1v.05c0 .07.018.138.05.2.002.039.02.075.05.1a8580.7 8580.7 0 0 0-.1 1.6 3.88 3.88 0 0 0 .35 2.05c1.133.433 1.883.033 2.25-1.2a20.233 20.233 0 0 1 2-4.4l.1-.1a44.204 44.204 0 0 1 3.8-1.55c2.333-.9 4.666-1.7 7-2.4 1.266-.4 2.516-.733 3.75-1a.807.807 0 0 1 .35-.1 16.37 16.37 0 0 1 4.95-.55l-.5.3c-.81.65-1.68 1.22-2.6 1.7a4.569 4.569 0 0 0-1.6 1.1 15.597 15.597 0 0 0-2.3 3.2.384.384 0 0 1-.05.15c-.03.156-.08.307-.15.45a9.612 9.612 0 0 0-.1.45.449.449 0 0 1-.05.2.383.383 0 0 1 .05.15c.033.133.066.25.1.35.033.133.066.25.1.35l.1.4c0 .07.017.138.05.2a.562.562 0 0 0 .1.15.16.16 0 0 0 .15.1c.005.078.04.15.1.2 0 .07.018.138.05.2a.204.204 0 0 0 .05.15c.241.337.509.655.8.95.297.434.69.793 1.15 1.05.337.203.626.476.85.8.228.061.463.095.7.1a19.171 19.171 0 0 1 9.15 3.5Z"/>
  <path fill="var(--shadow)" d="M93.24 30.957c1.533 4.267 3.133 9.35 4.8 15.25 1.966 6.9 3.45 12.867 4.45 17.9.088.924.171 1.824.25 2.7.007.767.024 1.534.05 2.3 0 .367-.017.75-.05 1.15a44.054 44.054 0 0 1-3.8 9.65 34.614 34.614 0 0 1-5.7 7.95 27.363 27.363 0 0 1-13.6 4h-6.15a26.469 26.469 0 0 1-13.9-5.45l-1.1-.8c-1.334-1.8-2.684-3.6-4.05-5.4a14.703 14.703 0 0 1-2.3-4.35 1.74 1.74 0 0 1-.35-.35 3.265 3.265 0 0 0-.3-.35 3.75 3.75 0 0 1-.35-.4 2.63 2.63 0 0 1-.25-.4 24.349 24.349 0 0 0-.9-2.15c-.567-1.266-1.15-2.55-1.75-3.85v-.75a1.108 1.108 0 0 1-.05-.35 6.056 6.056 0 0 1-.05-.75 39.332 39.332 0 0 0-.5-1.5 9.388 9.388 0 0 1-.4-1.15 22.337 22.337 0 0 0-.1-1.1 49.988 49.988 0 0 0-3.1-13.9 79.249 79.249 0 0 1-4.55-18l-.1-.4a2.735 2.735 0 0 0-.15-.35 7.45 7.45 0 0 0-.05-1.5 11.946 11.946 0 0 0-.3-1.5l-.5-1.5a1.951 1.951 0 0 0-.15-.4v-1.85c.3-.973.469-1.982.5-3a9.67 9.67 0 0 1 .7-3.4c.333-.9.7-1.767 1.1-2.6a13.51 13.51 0 0 1 1.8-1.95 45.825 45.825 0 0 0 1.2-.6 32.11 32.11 0 0 1 14.7-3.6 37.007 37.007 0 0 1 11.35 1.65c2.83 1.003 7.08 3.503 12.75 7.5 4.266 3 7.283 6.083 9.05 9.25a21.676 21.676 0 0 1 1.85 4.35ZM127.94 115.307a21.735 21.735 0 0 1-11-4.1 19.171 19.171 0 0 0-9.15-3.5 2.938 2.938 0 0 1-.7-.1 2.774 2.774 0 0 0-.85-.8 3.412 3.412 0 0 1-1.15-1.05 7.979 7.979 0 0 1-.8-.95.204.204 0 0 1-.05-.15.444.444 0 0 1-.05-.2.288.288 0 0 1-.1-.2.16.16 0 0 1-.15-.1.582.582 0 0 1-.15-.35l-.1-.4a4.815 4.815 0 0 1-.1-.35 4.762 4.762 0 0 1-.1-.35.383.383 0 0 0-.05-.15.444.444 0 0 0 .05-.2c.033-.166.066-.316.1-.45.07-.143.12-.294.15-.45a.384.384 0 0 0 .05-.15 15.597 15.597 0 0 1 2.3-3.2 4.569 4.569 0 0 1 1.6-1.1c.92-.48 1.79-1.05 2.6-1.7l.5-.3c4.733.333 10.033 2.7 15.9 7.1a57.331 57.331 0 0 1 8.25 7.75c.4.467.766.933 1.1 1.4-.201.501-.47.973-.8 1.4-.293.36-.65.666-1.05.9-2.067.6-4.15 1.183-6.25 1.75ZM17.74 41.957c.248-.032.499-.049.75-.05a21.09 21.09 0 0 1 1.5 2.85c.34.785.64 1.586.9 2.4v.4c-1.817.414-3.617.864-5.4 1.35a7.15 7.15 0 0 0-4.4 3.3c-.167.2-.35.4-.55.6-.154.15-.288.318-.4.5a1.54 1.54 0 0 0-.25.6 10.169 10.169 0 0 0-1.65 2.95v-5.1c.03-.124.08-.243.15-.35l.1-.4c.03-.124.08-.243.15-.35a5.436 5.436 0 0 1 .2-1.5 6.05 6.05 0 0 0 .3-1.5 9.67 9.67 0 0 0 .45-.8l.4-.7a14.22 14.22 0 0 1 7.75-4.2ZM37.392 128.278 37.589 128.481C37.584 128.6 37.599 128.718 37.633 128.831L37.629 129.031C37.629 129.151 37.61 129.268 37.573 129.381L37.57 129.581A1.584 1.584 0 0137.11 130.173 38.96 38.96 0 0136.097 130.906 7.47 7.47 0 0132.858 133.151C32.352 133.377 31.89 133.691 31.492 134.078A61.506 61.506 0 0128.081 134.72C27.653 134.777 27.241 134.923 26.873 135.15A23.976 23.976 0 0022.513 135.675 12.42 12.42 0 0114.191 134.033 12.194 12.194 0 0113.661 132.873 9.151 9.151 0 0012.984 131.462C14.31 129.951 17.59 128.257 22.822 126.379 25.838 125.295 28.355 124.304 30.374 123.407 31.958 124.367 33.559 125.312 35.176 126.24 35.606 126.48 36.018 126.72 36.414 126.96 36.579 127.132 36.727 127.319 36.854 127.518 37.014 127.785 37.194 128.038 37.392 128.278Z"/>
  <path fill="var(--outline)" d="M15.44 33.857A11.579 11.579 0 0017.19 33.657 53.298 53.298 0 0123.44 32.857L31.99 109.207C26.123 115.607 18.873 117.157 10.24 113.857A9.02 9.02 0 015.09 109.057 25.795 25.795 0 012.94 96.107C3.672 87.142 3.772 78.137 3.24 69.157 3.006 68.29 2.79 67.407 2.59 66.507A31.761 31.761 0 001.74 63.457 563.38 563.38 0 01.34 59.407V59.007C.24 57.907.19 56.79.19 55.657.223 54.657.223 53.657.19 52.657.186 51.248.405 49.847.84 48.507A338.542 338.542 0 00.84 47.757 13.795 13.795 0 015.29 39.707 29.966 29.966 0 0115.44 33.857M18.49 41.907A6.056 6.056 0 0017.74 41.957 14.22 14.22 0 009.99 46.157L9.59 46.857A9.71 9.71 0 019.14 47.657 5.988 5.988 0 018.84 49.157 5.436 5.436 0 008.64 50.657 1.11 1.11 0 008.49 51.007L8.39 51.407A1.11 1.11 0 008.24 51.757V57.757A124.914 124.914 0 0010.04 63.407 25.872 25.872 0 0111.24 70.157C11.281 70.277 11.332 70.394 11.39 70.507L11.49 70.907C11.505 71.049 11.522 71.182 11.54 71.307 11.775 73.653 11.908 76.019 11.94 78.407A40.874 40.874 0 0111.24 87.007C11.24 89.774 11.206 92.524 11.14 95.257 11.003 98.649 11.17 102.046 11.64 105.407 11.695 105.527 11.781 105.631 11.89 105.707A7.436 7.436 0 0015.49 107.157C17.79 107.124 20.09 107.074 22.39 107.007 22.502 106.933 22.619 106.867 22.74 106.807A15.28 15.28 0 0025.74 104.907C26.035 80.259 26.623 70.124 24.455 68.153 20.63 46.343 20.33 45.542 19.99 44.757A21.024 21.024 0 0018.49 41.907ZM68.294 126.703C63.291 138.288 58.606 145.242 54.265 147.568 53.66 147.891 53.087 148.215 52.548 148.539A41.207 41.207 0 0047.861 150.709 67.295 67.295 0 0145.085 152.212C43.711 152.622 41.768 153.189 39.255 153.913A71.76 71.76 0 0120.955 156.651C14.319 156.805 9.515 154.022 6.546 148.304A25.89 25.89 0 013.308 135.847 12.724 12.724 0 014.663 129.72C5.523 128.2 7.366 126.615 10.195 124.963A87.517 87.517 0 0121.536 119.706 28.708 28.708 0 0032.921 111.899 20.929 20.929 0 0036.013 111.658 23.15 23.15 0 0135.269 120.79C35.101 120.92 34.898 121.067 34.662 121.23L30.727 123.263C30.606 123.303 30.488 123.351 30.374 123.407 28.354 124.304 25.838 125.295 22.822 126.379 17.59 128.256 14.31 129.951 12.984 131.462 12.733 131.694 12.54 131.982 12.42 132.302A14.058 14.058 0 0011.365 135.485L11.363 135.635 11.361 135.735 11.357 135.985C11.352 136.285 11.363 136.601 11.391 136.935A19.564 19.564 0 0013.577 143.624C14.837 145.979 18.719 147.062 25.223 146.873 25.792 146.749 27.163 146.489 29.337 146.093L35.006 145.039A42.751 42.751 0 0042.594 142.869 41.314 41.314 0 0047.641 140.154 62.494 62.494 0 0053.618 135.706 12.491 12.491 0 0058.018 129.88ZM21.59 24.407C23.856 18.64 26.723 14.507 30.19 12.007A77.682 77.682 0 0145.04 3.157 35.6 35.6 0 0155.69.107 48.44 48.44 0 0164.34.307 51.246 51.246 0 0176.34 3.957C81.443 6.061 86.393 9.777 91.19 15.107A92.155 92.155 0 0197.44 22.757 181.558 181.558 0 01110.29 68.057 134.092 134.092 0 01112.04 88.007C180.133 114.567 124.634 159.654 100.929 125.629 91.607 124.524 88.207 126.624 85.99 127.407A123.29 123.29 0 0173.79 130.707 65.8 65.8 0 0159.49 132.757C50.39 132.757 42.34 128.94 35.34 121.307 27.673 112.974 23.84 102.457 23.84 89.757 24.073 86.591 24.24 83.924 24.34 81.757A41.419 41.419 0 0023.64 71.057 35.757 35.757 0 0123.14 66.607L22.89 63.057C22.723 61.724 21.94 57.424 20.54 50.157 19.206 43.224 18.54 39.574 18.54 39.207A40.4 40.4 0 0121.59 24.407M30.39 23.057C30.314 23.197 30.248 23.33 30.19 23.457 27.965 27.197 26.732 30.313 26.49 32.807 26.219 35.337 26.085 36.787 26.09 37.157 26.09 40.791 27.223 47.074 29.49 56.007A65.922 65.922 0 0131.39 78.857C30.023 92.457 32.54 103.691 38.94 112.557 44.94 120.824 52.573 124.957 61.84 124.957A56.207 56.207 0 0077.64 123.007L99.695 120.11C128.512 153.478 173.971 117.315 103.84 87.857V87.807C103.867 87.15 103.884 86.484 103.89 85.807V85.357C103.89 81.362 103.506 75.179 102.74 66.807 102.661 65.931 102.578 65.031 102.49 64.107 101.49 59.074 100.006 53.107 98.04 46.207 96.373 40.307 94.773 35.224 93.24 30.957A21.676 21.676 0 0091.39 26.607C89.623 23.441 86.606 20.357 82.34 17.357 76.67 13.361 72.42 10.861 69.59 9.857A37.007 37.007 0 0058.24 8.207 32.11 32.11 0 0043.54 11.807C43.37 11.898 42.97 12.098 42.34 12.407 41.857 12.651 41.257 12.951 40.54 13.307A.292.292 0 0040.44 13.357 30.055 30.055 0 0035.59 16.257C34.224 17.278 32.49 19.545 30.39 23.057ZM114.54 87.957A51.22 51.22 0 01127.84 93.357C138.206 99.257 144.34 105.724 146.24 112.757A20.396 20.396 0 01144.64 127.857C141.64 133.524 136.373 137.357 128.84 139.357 123.94 140.69 120.256 141.174 117.79 140.807 116.32 140.357 114.883 139.807 113.49 139.157A22.143 22.143 0 01108.89 135.857 40.746 40.746 0 01105.24 132.407L99.89 126.557C95.823 126.79 91.356 127.29 86.49 128.057 84.656 128.424 82.823 128.824 80.99 129.257A1.89 1.89 0 0180.39 129.157 2.651 2.651 0 0079.84 129.007C79.673 128.907 79.49 128.807 79.29 128.707A.993.993 0 0178.94 128.407 3.265 3.265 0 0178.59 128.107 1.835 1.835 0 0177.89 127.157 7.342 7.342 0 0077.59 126.457 23.742 23.742 0 0077.39 125.707V125.307A7.47 7.47 0 0177.54 124.557 2.2 2.2 0 0177.59 124.107 4.44 4.44 0 0177.94 123.307 3.62 3.62 0 0179.49 121.857L80.89 121.257C81.39 121.124 81.856 121.007 82.29 120.907 84.99 120.307 87.706 119.79 90.44 119.357 92.606 118.99 94.806 118.64 97.04 118.307A9.986 9.986 0 01103.89 119.907.147.147 0 01103.94 120.007C109.273 125.707 111.973 128.624 112.04 128.757A9.706 9.706 0 00113.64 130.057 13.752 13.752 0 00117.64 131.707C119.273 132.074 122.223 131.674 126.49 130.507 132.123 129.007 135.906 126.54 137.84 123.107A9.055 9.055 0 00138.94 116.157 5.435 5.435 0 00138.44 114.907 17.717 17.717 0 00136.04 111.257C135.706 110.79 135.34 110.324 134.94 109.857A57.331 57.331 0 00126.69 102.107C120.823 97.707 115.523 95.34 110.79 95.007A16.37 16.37 0 00105.84 95.557.807.807 0 00105.49 95.657C104.256 95.924 103.006 96.257 101.74 96.657A96.5 96.5 0 0094.74 99.057 44.198 44.198 0 0090.94 100.607L90.84 100.707A20.233 20.233 0 0088.84 105.107C88.473 106.34 87.723 106.74 86.59 106.307A3.882 3.882 0 0186.24 104.257L86.34 102.657A.144.144 0 0186.29 102.557.444.444 0 0186.24 102.357V102.307A.144.144 0 0086.19 102.207V102.107A.444.444 0 0086.24 101.907V101.707A.384.384 0 0086.29 101.557V101.457C86.46 100.832 86.627 100.215 86.79 99.607L86.74 99.557 86.54 99.257C86.056 99.513 85.589 99.763 85.14 100.007A2.851 2.851 0 0085.04 100.057C84.72 100.244 84.447 100.5 84.24 100.807A3.136 3.136 0 0181.84 102.357H81.79A.144.144 0 0081.69 102.307L81.59 102.207 81.49 102.107 81.39 102.007 81.24 101.707V101.257A.741.741 0 0181.44 100.907C81.64 100.64 81.84 100.357 82.04 100.057 82.162 99.837 82.314 99.637 82.49 99.457A11.39 11.39 0 0183.99 97.607 10.8 10.8 0 0185.84 96.207C85.918 96.139 86.001 96.072 86.09 96.007V95.807A17.647 17.647 0 0194.49 90.507C97.456 89.607 100.44 88.724 103.44 87.857 106.306 86.857 110.006 86.89 114.54 87.957Z"/>
  <path fill="#091628" d="M86.99 10.057a7.754 7.754 0 0 1 4.1-1.35c6.1 0 11.5 3.3 16.2 9.9 4.333 6.1 6.5 12.417 6.5 18.95 0 6.4-.85 11-2.55 13.8a13.993 13.993 0 0 1-6.25 5.3 73.852 73.852 0 0 1-10.1 3.8 32.088 32.088 0 0 1-9.45 1.7 33.736 33.736 0 0 1-8.75-1.7 25.788 25.788 0 0 1-8.65-4.15 29.118 29.118 0 0 1-8.75-12.7 24.165 24.165 0 0 1-1.7-7.7c0-4.867.65-8.567 1.95-11.1 1.733-3.467 5.083-6.317 10.05-8.55.2-.066 2.466-.6 6.8-1.6l7.75-2.6c1.1-.833 2.05-1.5 2.85-2m-2.9 10a170.192 170.192 0 0 1-5.9 2.2c-4.867 1.167-8.1 2.433-9.7 3.8-1.9 1.6-2.85 4.25-2.85 7.95 0 6.7 2.25 11.767 6.75 15.2 3.9 3 9.016 4.5 15.35 4.5 1.52.007 3.04-.076 4.55-.25a32.747 32.747 0 0 0 7.45-2.35c3.503-1.392 5.47-2.942 5.9-4.65.509-2.349.76-4.746.75-7.15-.055-1.207-.155-2.64-.3-4.3-.267-3.433-2.15-7.5-5.65-12.2-2.934-3.933-5.734-5.9-8.4-5.9-.167 0-2.817 1.05-7.95 3.15Z"/>
  <path fill="#4E7A8D" d="M76.44 26.407a21.25 21.25 0 0 0-.45 5 12.378 12.378 0 0 0 3.6 9.3c2.597 2.533 5.214 3.95 7.85 4.25 2.32.34 4.679.34 7 0a19.709 19.709 0 0 0 4.15-.95 33.24 33.24 0 0 0 4-2.25c2.033-1.333 3.3-2.15 3.8-2.45a33.095 33.095 0 0 1-.75 7.15c-.43 1.708-2.397 3.258-5.9 4.65a32.747 32.747 0 0 1-7.45 2.35c-1.51.174-3.03.257-4.55.25-6.334 0-11.45-1.5-15.35-4.5-4.5-3.433-6.75-8.5-6.75-15.2 0-3.7.95-6.35 2.85-7.95 1.6-1.367 4.833-2.633 9.7-3.8a19.721 19.721 0 0 0-1.75 4.15Z"/>
  <path fill="#90C3D0" d="M75.99 31.407a21.25 21.25 0 0 1 .45-5 19.721 19.721 0 0 1 1.75-4.15 170.171 170.171 0 0 0 5.9-2.2c5.133-2.1 7.783-3.15 7.95-3.15 2.666 0 5.466 1.967 8.4 5.9 3.5 4.7 5.383 8.767 5.65 12.2.144 1.66.244 3.093.3 4.3-.5.3-1.767 1.117-3.8 2.45a33.24 33.24 0 0 1-4 2.25 19.709 19.709 0 0 1-4.15.95c-2.321.34-4.68.34-7 0-2.636-.3-5.253-1.717-7.85-4.25a12.378 12.378 0 0 1-3.6-9.3m5.2-7.4-.1.2v.75l.1.2c0 .07.017.138.05.2l.1.2c.04.045.074.095.1.15.039.074.09.142.15.2l.2.2c.08.055.163.105.25.15.058.06.125.111.2.15.025.03.06.048.1.05a22.75 22.75 0 0 0 6-.4 19.893 19.893 0 0 0 5.95-2.15l.4.1c.06.058.11.126.15.2.2.2.4.383.6.55.231.165.448.35.65.55.142.142.292.275.45.4.039.074.09.142.15.2l.1.2a.327.327 0 0 0 .15.15c.242.254.556.428.9.5a1.91 1.91 0 0 0 1.85-.5 1.79 1.79 0 0 0 .55-.9v-.4a.444.444 0 0 0 .05-.2 5.007 5.007 0 0 0-.5-1.7 12.748 12.748 0 0 0-1.7-2.35 12.39 12.39 0 0 0-2.8-2.25.821.821 0 0 1-.25-.05 2.317 2.317 0 0 1-.45-.05 20.346 20.346 0 0 0-7.95 2.15 83.693 83.693 0 0 0-4.8 2.65.91.91 0 0 0-.4.3l-.1.2-.1.2a.384.384 0 0 0-.05.15Z"/>
  <path fill="#FFF" d="m81.09 24.207.1-.2a.384.384 0 0 1 .05-.15l.1-.2.1-.2a.91.91 0 0 1 .4-.3 83.693 83.693 0 0 1 4.8-2.65 20.346 20.346 0 0 1 7.95-2.15c.148.031.298.048.45.05.08.03.164.047.25.05a12.39 12.39 0 0 1 2.8 2.25 12.748 12.748 0 0 1 1.7 2.35c.266.533.435 1.108.5 1.7a.449.449 0 0 1-.05.2v.4a1.79 1.79 0 0 1-.55.9 1.91 1.91 0 0 1-1.85.5 1.742 1.742 0 0 1-.9-.5.327.327 0 0 1-.15-.15l-.1-.2a.784.784 0 0 1-.15-.2 5.434 5.434 0 0 1-.45-.4 5.15 5.15 0 0 0-.65-.55c-.2-.167-.4-.35-.6-.55a.786.786 0 0 0-.15-.2l-.4-.1a19.893 19.893 0 0 1-5.95 2.15 22.75 22.75 0 0 1-6 .4.144.144 0 0 1-.1-.05.785.785 0 0 1-.2-.15 2.452 2.452 0 0 1-.25-.15l-.2-.2a.781.781 0 0 1-.15-.2.581.581 0 0 0-.1-.15l-.1-.2a.444.444 0 0 1-.05-.2l-.1-.2v-.75Z"/>
</svg>
