<svg xmlns="http://www.w3.org/2000/svg" viewBox="0 0 101.676 148.435">
  <path fill="var(--body)" d="M89.407 23.081a59.67 59.67 0 0 0-5.85-6.7q-2.291-2.196-11.9-5.55a50.114 50.114 0 0 0-21.05-2.25q-20.75 2.1-28.7 5.95-10.9 5.3-10.9 16.05 0 .4.3 3.45.25 3 .25 3.9 52.4-1.15 55.15-1.15 1 0 17.8.9a3.253 3.253 0 0 0 1.75-1.05q1.75-1.65 1.85-1.7a15.434 15.434 0 0 0 2.9-2.5 16.852 16.852 0 0 0 1.45-2.05 3.414 3.414 0 0 0 .45-1.7q0-1.098-3.5-5.6Zm.175 73.865q-1.204.04-2.358.075.012.099-.038.105-.391.096-.832.198a2.546 2.546 0 0 0-.491.108q-.424.251-.798.496-.654.43-1.303.908a5.163 5.163 0 0 1-.704.435 16.143 16.143 0 0 0-11.199 6.247 6.561 6.561 0 0 1-2.776 2.087 26.434 26.434 0 0 0-12.388 9.407q2.609-2.219 5.824 1.583l.04.347a1.108 1.108 0 0 0 .09.342l.147.386a4.984 4.984 0 0 1-.062.762l-.053.409a2.759 2.759 0 0 1-.108.365l-.053.409a1.333 1.333 0 0 0-.207.377 3.75 3.75 0 0 0-.301.438 3.265 3.265 0 0 0-.258.382q-.003.403-.012.757a1.106 1.106 0 0 1-.009.353 1.955 1.955 0 0 0-.102.415 1.644 1.644 0 0 0-.003.403 14.902 14.902 0 0 1-.98 5.804 30.544 30.544 0 0 0-1.32 4.635l.175 1.49a6.138 6.138 0 0 0 .227 1.08 7.354 7.354 0 0 0 .342.766 5.618 5.618 0 0 0 2.625 1.353l1.87.486 5.214-.611a25.28 25.28 0 0 1 3.047-1.062 21.286 21.286 0 0 0 2.737-1.127 41.79 41.79 0 0 0 4.363-5.294 29.603 29.603 0 0 0 3.532-6.808q.392-1.807.84-3.572 1.386-5.347 2.778-10.646.723-2.853 1.29-5.739.765-4.218 1.214-8.55ZM11.981 91.251q.077.565.148 1.18l-.052.396-.045.347a96.553 96.553 0 0 0 1.008 9.613q.583 4.01 1.526 7.966 1.32 5.317 2.633 10.684.423 1.77.79 3.583a29.603 29.603 0 0 0 3.438 6.855 41.791 41.791 0 0 0 4.29 5.354 21.282 21.282 0 0 0 2.721 1.164 25.284 25.284 0 0 1 3.032 1.104l5.206.683 1.876-.46a5.618 5.618 0 0 0 2.643-1.317 7.368 7.368 0 0 0 .352-.76 6.134 6.134 0 0 0 .243-1.078l.195-1.488a30.538 30.538 0 0 0-1.256-4.653 14.903 14.903 0 0 1-.9-5.816 1.641 1.641 0 0 0 .002-.403.444.444 0 0 0-.024-.205l-.073-.211a1.108 1.108 0 0 1-.004-.354q-.004-.354-.001-.757a3.253 3.253 0 0 0-.252-.386 3.763 3.763 0 0 0-.295-.442 1.336 1.336 0 0 0-.203-.38l-.047-.409a2.747 2.747 0 0 1-.103-.367l-.047-.41a4.977 4.977 0 0 1-.051-.762l.151-.384a1.108 1.108 0 0 0 .095-.34l.046-.347q3.266-3.757 5.845-1.503a.782.782 0 0 1-.123-.218 12.027 12.027 0 0 0-1.346-2.042q-1.003-1.19-2.119-2.295-4.066-5.526-7.577-11.433a22.327 22.327 0 0 0-15.569-10.868 8.439 8.439 0 0 0-.911.032 15.996 15.996 0 0 0-5.242 1.127ZM41.357 51.231q.4.1.75.2a41.568 41.568 0 0 0 17.35-.45 18.094 18.094 0 0 1 14.05 1.85 1.956 1.956 0 0 1-.15.4 5.586 5.586 0 0 0-.45.75 2.748 2.748 0 0 0-.15.35 4.98 4.98 0 0 1-.15.75l-.1.4q.05.2.1.35v.75a3.01 3.01 0 0 0 1.75 2.05 9.225 9.225 0 0 0 6.75.35 2.852 2.852 0 0 0 .5-.15 1.933 1.933 0 0 0 .25-.1 2.635 2.635 0 0 1 .4-.25l.5-.4a1.74 1.74 0 0 0 .35-.35l.4-.4a2.748 2.748 0 0 1 .15-.35l.2-.4a1.111 1.111 0 0 0 .15-.35l.1-.4v-.35a1.641 1.641 0 0 1 .05-.4 1.108 1.108 0 0 0 .05-.35 1.644 1.644 0 0 0 .05-.4 1.47 1.47 0 0 0-.05-.35 1.643 1.643 0 0 0-.05-.4 1.107 1.107 0 0 1-.05-.35v-.4a15.18 15.18 0 0 0-7.6-7.85 27.165 27.165 0 0 0-16.25-2.4v.1a8.145 8.145 0 0 1-.9.05l-.5.1q-.55.15-1.1.25l-1.4.3a1.933 1.933 0 0 1-.25.1h-12.25a1.884 1.884 0 0 0-.75-.15q-4.95-.15-9.85-.25-9.2-.2-14.5 6.65a74.032 74.032 0 0 0-4.3 6.25v.35a1.646 1.646 0 0 0-.05.4q-.05.2-.1.35a.888.888 0 0 1-.1.4.806.806 0 0 1 .1.35 1.647 1.647 0 0 1 .05.4v.35a3.621 3.621 0 0 0 3.05 2.7 3.886 3.886 0 0 0 4.5-2.15 26.482 26.482 0 0 1 3.9-5.35q.6-.6 1.3-1.2a41.544 41.544 0 0 1 7.25-1.15q3.5-.2 7-.2m20.75-30.35a48.91 48.91 0 0 0-12.95-1.4 28.44 28.44 0 0 0-12.6 3.45q-6.25 3.3-6.3 3.35-13.1 9.5-17.1 18.1-4.55 9.85-6 30.25l.1-.5v.1a.443.443 0 0 0-.05.2 52.007 52.007 0 0 0-.05 6.15 2.322 2.322 0 0 0 .05.45v.4a4.608 4.608 0 0 0 .05.65v.05q.05 1.25.2 2.55.25 2.75.75 5.45.75 4.25 4.8 16.2.7 2.15 1.45 4a.327.327 0 0 1 .15-.15l.1-.1.15-.15.2-.2a1.933 1.933 0 0 0 .25-.1h.2v-.05q.25.05.45.1a1.259 1.259 0 0 0 .3.15.783.783 0 0 1 .15.2.58.58 0 0 0 .1.15 1.263 1.263 0 0 1 .3-.15h.4v-.05a2.11 2.11 0 0 1 .65.2 2.525 2.525 0 0 1 .6.3q.85 2.25 1.75 4.55a2.849 2.849 0 0 1 .5.15 2.307 2.307 0 0 1 .65.3l.45 1.15q.2.55.45 1.1.5 1.2 1.05 2.35.151.186.3.35 6.438.19 12.8.95-.63-.495-1.3-1.05a35.974 35.974 0 0 1-8.8-4.3q-.1.1-1.25-.8a26.275 26.275 0 0 1-3.15-3 69.599 69.599 0 0 1-4.55-5.55 3.27 3.27 0 0 0-.2-.35.628.628 0 0 0-.15-.25l-.35-.35a7.604 7.604 0 0 0-.7-1.7 6.641 6.641 0 0 0-.8-1.1 35.836 35.836 0 0 1-1.95-4.7q-.85-2.45-1.85-4.8l-.05-.05q-.6-2.45-1.1-4.9a1.469 1.469 0 0 0-.05-.35 12.272 12.272 0 0 1-.2-2.2q-.5-5.85-.5-11.05a59.747 59.747 0 0 1 .8-10.2v-.35l.1-.2a.443.443 0 0 1 .05-.2.444.444 0 0 0 .05-.2.383.383 0 0 0 .05-.15v-.4l.1-.2a.204.204 0 0 1 .05-.15 1.813 1.813 0 0 1 0-.6 1.47 1.47 0 0 1 .1-.55v-.4a1.112 1.112 0 0 0 .15-.35q.2-.95.45-1.85.15-.6.3-1.15v-.4a38.696 38.696 0 0 1 2.1-6.75q1-2.55 2.15-5.05 2.7-5.25 10.15-10.15 7.4-4.95 21.95-4.75 14.5.2 17.1.75a44.04 44.04 0 0 1 5.45 1.55 28.67 28.67 0 0 1 7.35 4.5q1.9 1.45 3.5 2.9 3.2 3.4 3.6 3.85a38.49 38.49 0 0 1 2.7 4.25.486.486 0 0 0 .1.25q1.8 5.2 2.3 6.6.15.7 1.3 6.45a60.288 60.288 0 0 1 .3 6.95q-.05 3.6-.2 7.2-1.55 11.55-1.8 12.5-.85 3.8-5.1 14.2a52.188 52.188 0 0 1-7.1 10.4 10.26 10.26 0 0 0-1.1.95 31.679 31.679 0 0 1-6.95 5.1 39.568 39.568 0 0 1-2.85 2.85q5.055.067 10.05.6.43-.557.85-1.15l1.6-3.6a.783.783 0 0 0 .15-.2 1.566 1.566 0 0 1 .4-.3 2.627 2.627 0 0 1 .65-.4h.45v-.05a2.851 2.851 0 0 1 .5.15q.1-.6.25-1.25a.444.444 0 0 1 .05-.2.445.445 0 0 0 .05-.2 2.745 2.745 0 0 0 .15-.35l.1-.4a.443.443 0 0 1 .05-.2v-.35a2.653 2.653 0 0 1 .15-.55.445.445 0 0 0 .05-.2.783.783 0 0 0 .15-.2.144.144 0 0 1 .1-.05 1.991 1.991 0 0 1 .3-.25 2.627 2.627 0 0 1 .65-.4h.45v-.05a2.119 2.119 0 0 1 .6.2 2.308 2.308 0 0 1 .65.3 2.62 2.62 0 0 0 .25.4 2.207 2.207 0 0 1 .3.75 2.816 2.816 0 0 1 .05.55v.35h.35q.45-.7.9-1.45a11.949 11.949 0 0 1 .75-1.05 123.815 123.815 0 0 0 4.45-12.8 72.404 72.404 0 0 0 1.6-7.65q1.2-10.15 1.35-16.6.15-6.45-.25-13.1-.15-1.9-.25-3.45a66.485 66.485 0 0 0-1.6-9.55 53.027 53.027 0 0 0-3.1-8.55q-2.15-4.7-9-10a113.384 113.384 0 0 0-9.45-6.85q-2.6-1.5-9.25-3.1Z"/>
  <path fill="var(--shadow)" d="M40.257 9.931a34.72 34.72 0 0 1-4.45.6 11.392 11.392 0 0 0-6.1 2.1 4.565 4.565 0 0 0-.5.35q-.9.3-1.85.65-2.65.95-5.25 1.95a3.85 3.85 0 0 0-1.9 1.5 3.749 3.749 0 0 1-.35.4 1.954 1.954 0 0 1-.15.4q-.05.15-.1.35l-.1.4a1.107 1.107 0 0 0-.05.35l-.1.4q.05.15.1.35v.75a3.765 3.765 0 0 0 1.6 2.3 2.4 2.4 0 0 0 2.15.35q6.05-1.9 12.2-3.4a53.465 53.465 0 0 1 31.2 1.5 100.879 100.879 0 0 0 14.65 4 1.955 1.955 0 0 0 .45-.25 3.087 3.087 0 0 0 .55-.35 5.458 5.458 0 0 0 .45-.4 3.266 3.266 0 0 0 .3-.35q.25-.6.45-1.2a4.577 4.577 0 0 0-.25-3.45q-3.25-6.7-11.45-8.1a127.318 127.318 0 0 0-29.15-1.65q-1.05.2-2.35.45Zm7.75 20.9q-14.55-.2-21.95 4.75-7.45 4.9-10.15 10.15-1.15 2.5-2.15 5.05a38.696 38.696 0 0 0-2.1 6.75v.4q-.15.55-.3 1.15-.25.9-.45 1.85a1.112 1.112 0 0 1-.15.35v.4a1.47 1.47 0 0 0-.1.55 1.813 1.813 0 0 0 0 .6.204.204 0 0 0-.05.15l-.1.2v.4a.383.383 0 0 1-.05.15.444.444 0 0 1-.05.2.443.443 0 0 0-.05.2l-.1.2v.35a59.747 59.747 0 0 0-.8 10.2q0 5.2.5 11.05a12.272 12.272 0 0 0 .2 2.2 1.469 1.469 0 0 1 .05.35q.5 2.45 1.1 4.9l.05.05q1 2.35 1.85 4.8a35.836 35.836 0 0 0 1.95 4.7 6.641 6.641 0 0 1 .8 1.1 7.604 7.604 0 0 1 .7 1.7l.35.35a.628.628 0 0 1 .15.25 3.27 3.27 0 0 1 .2.35 69.599 69.599 0 0 0 4.55 5.55 26.275 26.275 0 0 0 3.15 3q1.15.9 1.25.8a35.974 35.974 0 0 0 8.8 4.3 79.514 79.514 0 0 1-7.4-6.9 19.497 19.497 0 0 0 2.9 1.75q3.2 1.5 4.85 2.25a.144.144 0 0 1 .1.05 5.55 5.55 0 0 1 2.05.7q.85.45 1.7.8.6.2 1.1.35.7.2 1.4.45a.946.946 0 0 1 .3.05 53.704 53.704 0 0 0 8 1.1h.65a64.01 64.01 0 0 0 13.55-2.05l2.25-.7q4.15-2.2 6.9-3.7-.7.9-1.45 1.8-1.215 1.526-2.55 2.95a31.679 31.679 0 0 0 6.95-5.1 10.26 10.26 0 0 1 1.1-.95 52.188 52.188 0 0 0 7.1-10.4q4.25-10.4 5.1-14.2.25-.95 1.8-12.5.15-3.6.2-7.2a60.288 60.288 0 0 0-.3-6.95q-1.15-5.75-1.3-6.45-.5-1.4-2.3-6.6a.486.486 0 0 1-.1-.25 38.49 38.49 0 0 0-2.7-4.25q-.4-.45-3.6-3.85-1.6-1.45-3.5-2.9a28.67 28.67 0 0 0-7.35-4.5 44.04 44.04 0 0 0-5.45-1.55q-2.6-.55-17.1-.75m-5.9 20.6q-.35-.1-.75-.2-3.5 0-7 .2a41.544 41.544 0 0 0-7.25 1.15q-.7.6-1.3 1.2a26.482 26.482 0 0 0-3.9 5.35 3.886 3.886 0 0 1-4.5 2.15 3.621 3.621 0 0 1-3.05-2.7v-.35a1.647 1.647 0 0 0-.05-.4.806.806 0 0 0-.1-.35.888.888 0 0 0 .1-.4q.05-.15.1-.35a1.646 1.646 0 0 1 .05-.4v-.35a74.032 74.032 0 0 1 4.3-6.25q5.3-6.85 14.5-6.65 4.9.1 9.85.25a1.884 1.884 0 0 1 .75.15h12.25a1.933 1.933 0 0 0 .25-.1l1.4-.3q.55-.1 1.1-.25l.5-.1a8.145 8.145 0 0 0 .9-.05v-.1a27.165 27.165 0 0 1 16.25 2.4 15.18 15.18 0 0 1 7.6 7.85v.4a1.107 1.107 0 0 0 .05.35 1.643 1.643 0 0 1 .05.4 1.47 1.47 0 0 1 .05.35 1.644 1.644 0 0 1-.05.4 1.108 1.108 0 0 1-.05.35 1.641 1.641 0 0 0-.05.4v.35l-.1.4a1.111 1.111 0 0 1-.15.35l-.2.4a2.748 2.748 0 0 0-.15.35l-.4.4a1.74 1.74 0 0 1-.35.35l-.5.4a2.635 2.635 0 0 0-.4.25 1.933 1.933 0 0 1-.25.1 2.852 2.852 0 0 1-.5.15 9.225 9.225 0 0 1-6.75-.35 3.01 3.01 0 0 1-1.75-2.05v-.75q-.05-.15-.1-.35l.1-.4a4.98 4.98 0 0 0 .15-.75 2.748 2.748 0 0 1 .15-.35 5.586 5.586 0 0 1 .45-.75 1.956 1.956 0 0 0 .15-.4 18.094 18.094 0 0 0-14.05-1.85 41.568 41.568 0 0 1-17.35.45Z"/>
  <path fill="var(--outline)" d="M92.959 101.731Q87.801 108.381 85.957 115.027 85.686 116.533 84.299 121.88 83.852 123.645 83.459 125.453A29.603 29.603 0 0179.929 132.26 41.79 41.79 0 0175.565 137.554 21.286 21.286 0 0172.828 138.681 25.28 25.28 0 0069.781 139.743L64.566 140.354 62.697 139.869A5.618 5.618 0 0160.072 138.515 7.354 7.354 0 0159.73 137.75 6.138 6.138 0 0159.503 136.669L59.328 135.179A30.544 30.544 0 0160.648 130.544 14.902 14.902 0 0061.628 124.74 8.384 8.384 0 0053.007 127.211Q52.615 129.019 52.117 130.789A5.86 5.86 0 0051.951 131.513 13.246 13.246 0 0053.013 141.86 12.766 12.766 0 0060.86 148.24Q80.263 150.143 88.992 133.563A14.172 14.172 0 0090.381 129.524Q93.455 119.246 95.671 108.515ZM86.007 8.631Q81.231 4.835 72.757 2.781A104.844 104.844 0 0058.807.181 80.444 80.444 0 0043.557.681 83.712 83.712 0 0028.607 3.331 60.181 60.181 0 0017.657 8.081Q11.994 11.197 10.357 12.281A17.456 17.456 0 003.657 23.281Q2.957 26.031 2.957 33.781T5.507 43.831Q8.557 46.531 10.871 43.276L24.78 26.526Q48.31 13.814 68.749 20.095A67.295 67.295 0 0193.326 40.784 20.315 20.315 0 0096.557 38.431Q101.657 32.581 101.657 28.281 101.662 24.981 96.207 18.731A81.573 81.573 0 0086.007 8.631M83.557 16.381A59.67 59.67 0 0189.407 23.081Q92.907 27.583 92.907 28.681A3.414 3.414 0 0192.457 30.381 16.852 16.852 0 0191.007 32.431Q71.342 14.761 38.489 13.365 11.557 37.031 11.307 34.031 11.007 30.981 11.007 30.581 11.007 19.831 21.907 14.531 29.857 10.681 50.607 8.581A50.114 50.114 0 0171.657 10.831Q81.266 14.185 83.557 16.381ZM12.848 105.887A142.356 142.356 0 006.013 107.917Q8.08 118.677 11.013 128.997A14.172 14.172 0 0012.346 133.054Q20.846 149.752 40.274 148.115A12.767 12.767 0 0048.207 141.845 13.246 13.246 0 0049.412 131.513 5.873 5.873 0 0049.255 130.787Q48.782 129.01 48.415 127.197L39.734 123.788 39.807 124A.444.444 0 0139.831 124.205 1.641 1.641 0 0139.829 124.608 14.903 14.903 0 0040.729 130.424 30.538 30.538 0 0141.985 135.077L41.79 136.564A6.134 6.134 0 0141.547 137.642 7.368 7.368 0 0141.195 138.402 5.618 5.618 0 0138.551 139.72L36.676 140.18 31.47 139.497A25.284 25.284 0 0028.438 138.393 21.282 21.282 0 0125.716 137.229 41.791 41.791 0 0121.426 131.875 29.603 29.603 0 0117.989 125.02Q17.622 123.207 17.199 121.437 15.886 116.07 14.566 110.753ZM62.607 11.831A4.92 4.92 0 0063.257 11.881Q50.357 10.381 44.057 11.181 41.307 11.531 38.657 12.081 36.307 12.781 33.607 13.681A40.371 40.371 0 0025.457 17.731 55.204 55.204 0 0015.707 25.131Q6.207 34.481 2.657 52.481A139.236 139.236 0 00.357 68.231 89.504 89.504 0 00.057 78.931Q.207 83.031.507 85.881A.384.384 0 00.557 86.031Q.557 87.331.657 88.631.807 90.631 1.057 92.581L1.857 95.581A16.792 16.792 0 012.307 97.831Q2.657 99.031 3.057 100.231L3.557 101.731V102.131A10.41 10.41 0 004.057 103.431Q4.857 105.331 5.507 107.281A51.519 51.519 0 008.207 113.731 74.601 74.601 0 0012.657 121.231 19.17 19.17 0 0015.607 124.681Q15.457 124.081 15.357 123.531 15.057 121.631 14.857 119.781A2.544 2.544 0 0114.807 119.281.384.384 0 0114.757 119.131V118.831L14.707 118.781V118.681A.444.444 0 0014.657 118.481 1.856 1.856 0 0014.607 118.031 2.544 2.544 0 0114.557 117.531 6.868 6.868 0 0114.307 116.131 7.589 7.589 0 0014.007 114.431Q13.957 113.681 13.857 112.931A5.12 5.12 0 0113.957 111.181L14.057 111.081V111.031A.144.144 0 0114.107 110.931V110.781L14.207 110.581A.144.144 0 0114.257 110.481L14.357 110.381A.144.144 0 0114.457 110.331Q13.707 108.481 13.007 106.331 8.957 94.381 8.207 90.131 7.707 87.431 7.457 84.681 7.307 83.381 7.257 82.131V82.081A4.608 4.608 0 017.207 81.431V81.031A2.322 2.322 0 017.157 80.581 52.007 52.007 0 017.207 74.431.443.443 0 017.257 74.231V74.131L7.157 74.631Q8.607 54.231 13.157 44.381 17.157 35.781 30.257 26.281 30.307 26.231 36.557 22.931A28.44 28.44 0 0149.157 19.481 48.91 48.91 0 0162.107 20.881Q68.757 22.481 71.357 23.981A113.384 113.384 0 0180.807 30.831Q87.657 36.131 89.807 40.831A53.027 53.027 0 0192.907 49.381 66.485 66.485 0 0194.507 58.931Q94.607 60.481 94.757 62.381 95.157 69.031 95.007 75.481 94.857 81.931 93.657 92.081A72.404 72.404 0 0192.057 99.731 123.815 123.815 0 0187.607 112.531 11.949 11.949 0 0086.857 113.581Q86.407 114.331 85.957 115.031A.384.384 0 0186.107 115.081L86.407 115.281A25.39 25.39 0 0090.457 120.681 71.042 71.042 0 0096.307 108.631 77.538 77.538 0 00100.107 94.931 82.991 82.991 0 00101.357 80.231 97 97 0 00101.507 66.781Q101.157 60.931 98.207 45.931A37.987 37.987 0 0082.507 21.731Q69.861 12.641 62.607 11.831ZM51.757 128.081A34.724 34.724 0 0061.357 126.381 50.05 50.05 0 0069.457 119.231Q70.792 117.807 72.007 116.281 72.757 115.381 73.457 114.481 70.707 115.981 66.557 118.181L64.307 118.881A64.01 64.01 0 0150.757 120.931H50.107A53.704 53.704 0 0142.107 119.831.946.946 0 0041.807 119.781Q41.107 119.531 40.407 119.331 39.907 119.181 39.307 118.981 38.457 118.631 37.607 118.181A5.55 5.55 0 0035.557 117.481.144.144 0 0035.457 117.431Q33.807 116.681 30.607 115.181A19.497 19.497 0 0127.707 113.431 79.514 79.514 0 0035.107 120.331Q36.975 121.871 38.907 123.281 41.707 125.331 44.657 127.081A30.597 30.597 0 0051.757 128.081Z"/>
  <path fill="#091628" d="M63.207 46.381q-3.1.3-6.15.85a.557.557 0 01-.25.05 39.514 39.514 0 01-4.5.65 22.034 22.034 0 01-4.45-.05q-2 .05-4.05-.1-2.75-.25-5.55-.5-5.4-.55-10.75-.7a15.964 15.964 0 00-4.9.65 10.45 10.45 0 00-5 3.5 20.797 20.797 0 00-2.85 4.7q-.34.881-.7 2.05a.695.695 0 010 .2q-.095.76-.25 1.5-.1.75-.3 2.65a25.425 25.425 0 00-.25 2.65q0 11.45 5.15 17.25a22.386 22.386 0 004.45 3.7q2.85 1.7 3.9 2.5 1.906.77 4.05 1.4 5.75 1.65 20.65 1.65 16 0 23.65-2.85a22.273 22.273 0 009.75-7.35 16.967 16.967 0 003.4-7 38.572 38.572 0 00.9-6.05 53.172 53.172 0 000-5.8 14.927 14.927 0 00-1.45-6.05 27.139 27.139 0 00-3.05-4.75 19.347 19.347 0 00-2.45-2.5q-.4-.2-.75-.35a6.998 6.998 0 01-1-.5 15.79 15.79 0 00-6.9-1.75 82.414 82.414 0 00-10.35.35m-4.75 9.4q3.05-.5 6.1-1.3a35.535 35.535 0 017.7-1.15 16.899 16.899 0 011.8.3 7.384 7.384 0 013.9 2.2q1.98 1.426 3.05 5.25l.05.25a26.91 26.91 0 011.1 5.35 4.692 4.692 0 01-.15 1.05 3.675 3.675 0 01-.1.6 23.204 23.204 0 01-.7 2.45 2.602 2.602 0 01-.1.45 6.097 6.097 0 01-.25.65 15.395 15.395 0 01-4 5.65 14.86 14.86 0 01-3.5 2.55 18.3 18.3 0 01-5 2.1q-4.2.75-16.9.75-12.25 0-17.95-1.8a29.835 29.835 0 01-9.05-4.55q-4.099-3.017-3.75-9.5-.004-.252 0-.5a16.99 16.99 0 011.4-6.9 15.554 15.554 0 013.65-4.95q.1-.45 3.05-1.1a.556.556 0 01.25-.05h1.4a49.992 49.992 0 016.2 1q1.05.25 2.1.4a1.593 1.593 0 00.6.2 56.032 56.032 0 0013.35 1.1 23.822 23.822 0 004.05-.25q.85-.1 1.7-.25Z"/>
  <path fill="#90c3d0" d="M71.157 61.431a12.037 12.037 0 00-3.15.25 103.151 103.151 0 01-11.05 2.3 46.94 46.94 0 01-18.8-.7 18.178 18.178 0 01-3.15-1q-6.8-1.3-11.3 1.25a7.653 7.653 0 00-2.85 2.7l-.1.2q-.026.07-.05.15-.004.248 0 .5-.349 6.483 3.75 9.5a29.835 29.835 0 009.05 4.55q5.7 1.8 17.95 1.8 12.7 0 16.9-.75a18.3 18.3 0 005-2.1 14.86 14.86 0 003.5-2.55 15.395 15.395 0 004-5.65 6.097 6.097 0 00.25-.65 2.602 2.602 0 00.1-.45 23.204 23.204 0 00.7-2.45 3.675 3.675 0 00.1-.6 9.062 9.062 0 00-4.5-4.4q-.403-.226-.85-.45a13.101 13.101 0 00-3.15-1.15q-1.153-.14-2.35-.3m6.35 7.8a1.333 1.333 0 00.25.35l.2.4q.2.35.4.75a4.939 4.939 0 01.25.75v.75a6.365 6.365 0 01-.2 1.1 5.196 5.196 0 01-.55 1.15 23.4 23.4 0 01-3.15 2.55 20.789 20.789 0 01-3.1 1.8 27.811 27.811 0 01-16.5-.3 1.876 1.876 0 01-1.25-1.45v-.35a1.108 1.108 0 00-.05-.35 1.644 1.644 0 00-.05-.4 1.645 1.645 0 00.05-.4q.05-.15.1-.35a.887.887 0 01.1-.4q.1-.35.25-.75l.35-.35q.15-.2.25-.35l.4-.4a5.586 5.586 0 01.6-.35l.5-.3a27.713 27.713 0 0017-4 2.545 2.545 0 01.5-.05l.9-.1v-.1a12.018 12.018 0 011.55.5 7.07 7.07 0 011.2.65Z"/>
  <path fill="#fff" d="M77.757 69.581a1.333 1.333 0 01-.25-.35 7.07 7.07 0 00-1.2-.65 12.018 12.018 0 00-1.55-.5v.1l-.9.1a2.545 2.545 0 00-.5.05 27.713 27.713 0 01-17 4l-.5.3a5.586 5.586 0 00-.6.35l-.4.4q-.1.15-.25.35l-.35.35q-.15.4-.25.75a.887.887 0 00-.1.4q-.05.2-.1.35a1.645 1.645 0 01-.05.4 1.644 1.644 0 01.05.4 1.108 1.108 0 01.05.35v.35a1.876 1.876 0 001.25 1.45 27.811 27.811 0 0016.5.3 20.789 20.789 0 003.1-1.8 23.4 23.4 0 003.15-2.55 5.196 5.196 0 00.55-1.15 6.365 6.365 0 00.2-1.1v-.75a4.939 4.939 0 00-.25-.75q-.2-.4-.4-.75Z"/>
  <path fill="#4e7a8d" d="M64.557 54.481q-3.05.8-6.1 1.3-.85.15-1.7.25a23.822 23.822 0 01-4.05.25 56.032 56.032 0 01-13.35-1.1 1.593 1.593 0 01-.6-.2q-1.05-.15-2.1-.4a49.992 49.992 0 00-6.2-1h-1.4a.556.556 0 00-.25.05q-2.95.65-3.05 1.1a15.554 15.554 0 00-3.65 4.95 16.99 16.99 0 00-1.4 6.9q.024-.08.05-.15l.1-.2a7.653 7.653 0 012.85-2.7q4.5-2.55 11.3-1.25a18.178 18.178 0 003.15 1 46.94 46.94 0 0018.8.7 103.151 103.151 0 0011.05-2.3 12.037 12.037 0 013.15-.25q1.197.16 2.35.3a13.101 13.101 0 013.15 1.15q.448.224.85.45a9.062 9.062 0 014.5 4.4 4.692 4.692 0 00.15-1.05 26.91 26.91 0 00-1.1-5.35l-.05-.25q-1.07-3.824-3.05-5.25a7.384 7.384 0 00-3.9-2.2 16.899 16.899 0 00-1.8-.3 35.535 35.535 0 00-7.7 1.15Z"/>
</svg>
