<?xml version="1.0" encoding="UTF-8"?>
<svg width="148px" height="157px" viewBox="0 0 148 157" version="1.1" xmlns="http://www.w3.org/2000/svg" xmlns:xlink="http://www.w3.org/1999/xlink">
    <title>ico-yellow-player</title>
    <g id="Page-1" stroke="none" stroke-width="1" fill="none" fill-rule="evenodd">
        <g id="ico-yellow-player" transform="translate(74.000000, 78.500000) scale(-1, 1) translate(-74.000000, -78.500000) " fill-rule="nonzero">
            <g id="Layer4_14_MEMBER_0_FILL" transform="translate(111.000000, 32.000000)">
                <path d="M21.56035,1.85712 C20.9727973,1.83481698 20.3877843,1.76795835 19.81035,1.65712 C17.7446165,1.26743062 15.6576371,1.00029726 13.56035,0.85712 C13.3281091,1.18603751 13.0597709,1.48791799 12.76035,1.75712 C12.6238706,2.13414141 12.5070468,2.51799083 12.41035,2.90712 C12.3422634,3.15124544 12.308605,3.40368367 12.31035,3.65712 C12.2759607,3.90562226 12.2592521,4.15625193 12.26035,4.40712 C11.76035,5.40712 11.2770167,6.40712 10.81035,7.40712 C9.59009646,9.94005806 8.57030522,12.5647667 7.76035,15.25712 C7.03712799,17.7321 6.06552029,20.1276155 4.86035,22.40712 C4.72701667,23.90712 4.52701667,25.40712 4.26035,26.90712 C3.76035,29.77382 3.26035,32.6404867 2.76035,35.50712 C2.29368333,37.90712 1.74368333,40.2904533 1.11035,42.65712 C1.17708785,43.0375486 1.17708785,43.4266914 1.11035,43.80712 C1.01035,44.30718 0.927016667,44.80718 0.86035,45.30712 C0.789563372,45.686835 0.672001129,46.0563164 0.51035,46.40712 C0.377016667,47.7737867 0.293683333,49.1404533 0.26035,50.50712 C0.159705812,53.7750591 0.226459874,57.0460081 0.46035,60.30712 C0.656541913,62.8157521 1.04095743,65.3060961 1.61035,67.75712 C1.60712861,69.402913 1.86015872,71.0391743 2.36035,72.60712 C2.87155327,74.3266958 3.77922711,75.9022805 5.01035,77.20712 C10.8770167,83.60712 18.1270167,85.15712 26.76035,81.85712 C29.0563733,81.0208348 30.9148022,79.288707 31.91035,77.05712 C33.7318077,72.9980972 34.4724587,68.5369666 34.06035,64.10712 C33.3277729,55.1419701 33.2275249,46.136356 33.76035,37.15712 C33.9936833,36.29042 34.21035,35.4070867 34.41035,34.50712 C34.6436833,33.4737867 34.9270167,32.45712 35.26035,31.45712 C35.7270167,30.1237467 36.1936833,28.7737467 36.66035,27.40712 C36.66029,27.27382 36.66029,27.1404867 36.66035,27.00712 C36.76039,25.90712 36.8104001,24.7904533 36.8104001,23.65712 C36.7769633,22.65712 36.7769633,21.65712 36.8104001,20.65712 C36.8142105,19.2481401 36.5948245,17.847445 36.16035,16.50712 C36.16029,16.3737867 36.16029,16.25712 36.16035,16.15712 C36.16029,16.02382 36.16029,15.8904867 36.16035,15.75712 C35.641608,12.6437243 34.0709179,9.80236351 31.71035,7.70712 C28.7448496,5.10832513 25.295614,3.12034204 21.56035,1.85712 M18.51035,9.90711 C18.7611433,9.90826547 19.0116241,9.92496419 19.26035,9.95712 C22.22335,10.5008621 24.9371158,11.9715481 27.01035,14.15712 L27.41035,14.85712 C27.5437233,15.1237333 27.6937233,15.3904 27.86035,15.65712 C27.8958124,16.1678892 27.9966348,16.6720014 28.16035,17.15712 C28.2966241,17.6453502 28.3639429,18.1502409 28.36035,18.65712 C28.4301386,18.7642748 28.4808852,18.8826836 28.51035,19.00712 L28.61035,19.40712 C28.6801386,19.5142748 28.7308852,19.6326836 28.76035,19.75712 L28.76035,25.75712 C28.1936367,27.6905333 27.5936367,29.5738667 26.96035,31.40712 C26.2626828,33.5939239 25.8591405,35.8638491 25.76035,38.15712 C25.7185425,38.27713 25.668421,38.3940801 25.61035,38.50712 L25.51035,38.90712 C25.49497,39.0489067 25.4783033,39.18224 25.46035,39.30712 C25.2250633,41.6527 25.09173,44.0193667 25.06035,46.40712 C24.9896098,49.2904548 25.2242502,52.1731791 25.76035,55.00712 C25.76035,57.77384 25.7936833,60.52384 25.86035,63.25712 C25.9974324,66.6485974 25.8300955,70.0455356 25.36035,73.40712 C25.304768,73.527314 25.2185506,73.6307748 25.11035,73.70712 C24.0598738,74.5006272 22.817554,75.001006 21.51035,75.15712 C19.2103033,75.12374 16.9103033,75.07374 14.61035,75.00712 C14.4979075,74.9333188 14.3810188,74.8665253 14.26035,74.80712 C13.1899093,74.2925266 12.1831129,73.6548889 11.26035,72.90712 C10.9936833,72.50716 10.76035,72.1238267 10.56035,71.75712 C10.3198384,71.2436039 10.0528119,70.7429292 9.76035,70.25712 C9.66035,68.2237867 9.47701667,66.2237867 9.21035,64.25712 C8.87701667,61.8904533 8.64368333,59.5237867 8.51035,57.15712 C8.47513169,57.0187014 8.42483065,56.8845653 8.36035,56.75712 C8.32701667,56.65712 8.29368333,56.5404533 8.26035,56.40712 C8.22701667,54.7404533 8.21033178,53.10712 8.21033178,51.50712 C8.20853558,49.6332523 8.34221747,47.7617058 8.61035,45.90712 C8.67484987,45.7796832 8.72515172,45.6455449 8.76035,45.50712 C8.79368333,45.3737867 8.82701667,45.25712 8.86035,45.15712 L8.86035,44.40712 C8.92484987,44.2796832 8.97515172,44.1455449 9.01035,44.00712 C9.04368333,43.8737867 9.07701667,43.75712 9.11035,43.65712 C9.17484987,43.5296832 9.22515172,43.3955449 9.26035,43.25712 L9.26035,42.50712 C9.52695,41.6404533 9.76028333,40.7737867 9.96035,39.90712 C10.16035,39.00716 10.3770167,38.1238267 10.61035,37.25712 C11.0436833,34.15712 11.61035,31.05712 12.31035,27.95712 C12.9188509,25.1111258 13.703698,22.3057147 14.66035,19.55712 C15.11427,18.3441 15.5976033,17.1274333 16.11035,15.90712 L16.11035,15.15712 C16.3699937,14.3425615 16.6703718,13.5415531 17.01035,12.75712 C17.4367625,11.770159 17.9382536,10.8173608 18.51041,9.90711 L18.51035,9.90711 Z" id="path6" fill="#432800"/>
                <path d="M16.11034,15.55714 L16.11034,15.90714 C15.59764,17.12742 15.1143067,18.3440867 14.66034,19.55714 C13.703688,22.3057347 12.9188409,25.1111458 12.31034,27.95714 C11.61034,31.05714 11.0436733,34.15714 10.61034,37.25714 C10.3770067,38.1238067 10.16034,39.00714 9.96034,39.90714 C9.76034,40.7738067 9.52700667,41.6404733 9.26034,42.50714 L9.26034,43.25714 C9.22514172,43.3955649 9.17483987,43.5297032 9.11034,43.65714 C9.07700667,43.75718 9.04367333,43.8738467 9.01034,44.00714 C8.97514172,44.1455649 8.92483987,44.2797032 8.86034,44.40714 L8.86034,45.15714 C8.82700667,45.25718 8.79367333,45.3738467 8.76034,45.50714 C8.72514172,45.6455649 8.67483987,45.7797032 8.61034,45.90714 C8.34220747,47.7617258 8.20852558,49.6332723 8.21032178,51.50714 C8.21032178,53.10714 8.22706667,54.7404733 8.26034,56.40714 C8.29367333,56.54044 8.32700667,56.6571067 8.36034,56.75714 C8.42482065,56.8845853 8.47512169,57.0187214 8.51034,57.15714 C8.64367333,59.5238067 8.87700667,61.8904733 9.21034,64.25714 C9.47700667,66.2238067 9.66034,68.2238067 9.76034,70.25714 C10.0528019,70.7429492 10.3198284,71.2436239 10.56034,71.75714 C10.76034,72.1238067 10.9936733,72.50714 11.26034,72.90714 C12.1831029,73.6549089 13.1898993,74.2925466 14.26034,74.80714 C14.3810088,74.8665453 14.4978975,74.9333388 14.61034,75.00714 C16.91038,75.0738467 19.21038,75.1238467 21.51034,75.15714 C22.817544,75.001026 24.0598638,74.5006472 25.11034,73.70714 C25.2185406,73.6307948 25.304758,73.527334 25.36034,73.40714 C25.8300855,70.0455556 25.9974224,66.6486174 25.86034,63.25714 C25.7936733,60.52386 25.76034,57.77386 25.76034,55.00714 C25.2242402,52.1731991 24.9895998,49.2904748 25.06034,46.40714 C25.0917733,44.01938 25.2251067,41.6527133 25.46034,39.30714 C25.4782933,39.18226 25.49496,39.0489267 25.51034,38.90714 L25.61034,38.50714 C25.668411,38.3941001 25.7185325,38.27715 25.76034,38.15714 C25.8591305,35.8638691 26.2626728,33.5939439 26.96034,31.40714 C27.5936733,29.5738067 28.1936733,27.6904733 28.76034,25.75714 L28.76034,24.85714 C28.3787671,23.788642 27.8210641,22.7915365 27.11034,21.90714 C27.0706594,21.6916265 26.9854266,21.4870677 26.86034,21.30714 C26.7478814,21.124795 26.6135516,20.9568827 26.46034,20.80714 C26.26034,20.60714 26.0770067,20.40714 25.91034,20.20714 C24.9423586,18.5644567 23.3583508,17.3764508 21.51034,16.90714 C19.7265467,16.4206133 17.9265467,15.9706133 16.11034,15.55714 Z" id="path8" fill="#C38822"/>
                <path d="M19.26041,9.9571 C19.0116841,9.92494419 18.7612033,9.90824547 18.51041,9.9071 C17.9382746,10.8173495 17.4368036,11.7701443 17.01041,12.7571 C16.6704318,13.5415331 16.3700537,14.3425415 16.11041,15.1571 L16.11041,15.5571 C17.92657,15.9706133 19.72657,16.4206133 21.51041,16.9071 C23.3584208,17.3764108 24.9424286,18.5644167 25.91041,20.2071 C26.0770367,20.4071 26.26037,20.6071 26.46041,20.8071 C26.6136216,20.9568427 26.7479514,21.124755 26.86041,21.3071 C26.9854966,21.4870277 27.0707294,21.6915865 27.11041,21.9071 C27.8211341,22.7914965 28.3788371,23.788602 28.76041,24.8571 L28.76041,19.7571 C28.7309452,19.6326636 28.6801986,19.5142548 28.61041,19.4071 L28.51041,19.0071 C28.4809452,18.8826636 28.4301986,18.7642548 28.36041,18.6571 C28.3640029,18.1502209 28.2966841,17.6453302 28.16041,17.1571 C27.9966948,16.6719814 27.8958724,16.1678692 27.86041,15.6571 C27.6937433,15.3904333 27.5437433,15.1237667 27.41041,14.8571 L27.01041,14.1571 C24.9371758,11.9715281 22.22341,10.5008421 19.26041,9.9571 L19.26041,9.9571 Z" id="path10" fill="#FFEB5A"/>
            </g>
            <g id="Layer4_14_MEMBER_1_FILL" transform="translate(73.000000, 92.000000)">
                <path d="M14.94467,0.50937 C11.9640637,0.415910681 9.00555817,1.04996 6.32503,2.35668 C4.49142779,3.40819978 3.03248943,5.00671668 2.15241,6.9285 C1.51898983,8.36910921 1.09049306,9.89134651 0.87941,11.45084 C0.706055149,12.3767608 0.605033387,13.3147704 0.57726,14.25637 C0.842100506,16.7056563 1.33539795,19.1248108 2.05071,21.48224 C3.24235467,26.0047863 4.78923164,30.4261826 6.67692,34.70521 C11.70852,46.28767 16.3944767,53.2420033 20.73479,55.56821 C21.3403633,55.89123 21.9126333,56.2148433 22.4516,56.53905 C24.0579993,57.1637439 25.6236215,57.8886112 27.13924,58.70938 C28.2838,59.35664 29.2091333,59.8575867 29.91524,60.21222 C31.2891267,60.62222 33.2323967,61.1891433 35.74505,61.91299 C41.701076,63.6115966 47.8519425,64.5319955 54.0443,64.65124 C60.6812,64.8047 65.4844167,62.0223667 68.45395,56.30424 C70.5646341,52.4906891 71.6783457,48.2059767 71.69184,43.84731 C71.7589484,41.7236528 71.2932071,39.6169961 70.33711,37.71955 C69.47771,36.2006233 67.63376,34.6152033 64.80526,32.96329 C61.1549873,30.9427721 57.3649016,29.1858682 53.464,27.70602 C49.0905941,26.0684484 45.1827019,23.3886935 42.07924,19.89916 C40.321107,18.0107862 38.9273003,15.8136013 37.96811,13.41841 C37.4448975,11.8699074 36.6218437,10.4396058 35.54593,9.20915 C33.27711,7.14753 29.4418767,5.11266 24.04023,3.10454 C19.4096233,1.34992 16.3777633,0.484856667 14.94465,0.50935 M10.53951,9.03569 C10.54179,9.16902333 12.7561233,9.01456667 17.18251,8.57232 L28.97115,13.67191 C30.1011033,15.41953 31.6621733,18.0099133 33.65436,21.44306 C35.1480232,24.2872542 37.2173019,26.7894393 39.73056,28.79044 C39.8994933,28.9209333 40.1020133,29.0675 40.33812,29.23014 L44.27337,31.26327 C44.3940572,31.303047 44.5118342,31.3511629 44.62585,31.40727 C46.64509,32.3041567 49.1623367,33.2946767 52.17759,34.37883 C57.4103633,36.25649 60.6897233,37.95078 62.01567,39.4617 C62.2669595,39.6938685 62.4602728,39.9817559 62.58007,40.30222 C63.0572391,41.3171842 63.4112358,42.3856034 63.63451,43.48469 L63.63707,43.63463 L63.63877,43.73463 L63.64304,43.98463 C63.6481467,44.28457 63.6368867,44.6014567 63.60926,44.93529 C63.2907342,47.2785074 62.5500263,49.5445649 61.42307,51.62353 C60.16303,53.97867 56.2809633,55.06171 49.77687,54.87265 C49.2080367,54.7490433 47.8367533,54.4890767 45.66302,54.09275 L39.99424,53.03929 C37.4033565,52.5512031 34.8631777,51.8244937 32.40617,50.86845 C30.6630398,50.0816023 28.9766506,49.1746644 27.35917,48.15418 C25.2802187,46.791485 23.2844227,45.3059656 21.38242,43.70554 C19.368335,42.2451074 17.8362187,40.2165262 16.98242,37.87977 C16.1772067,35.62653 14.24703,30.9421333 11.19189,23.82658 C9.8551699,20.8449034 9.12055139,17.6285618 9.03021,14.36221 C9.12570044,13.7359357 9.41274154,13.154584 9.85191,12.698 C10.2524754,12.280118 10.5216799,11.7539267 10.62619,11.18458 C10.4367767,9.8543 10.40789,9.13801 10.53953,9.03571 L10.53951,9.03569 Z" id="path13" fill="#432800"/>
                <path d="M37.60805,36.27772 L37.41148,36.48111 C37.4156856,36.5996349 37.4008297,36.718066 37.36748,36.83188 L37.37089,37.03188 C37.3707866,37.150478 37.389693,37.2683261 37.42689,37.38094 L37.4303,37.58094 C37.5340605,37.8123575 37.6918789,38.0154727 37.89048,38.1732 C38.1944,38.4013333 38.5319467,38.64561 38.90312,38.90603 C39.7622634,39.9307821 40.8807568,40.7060987 42.14182,41.15103 C42.6480332,41.3773893 43.110428,41.6911273 43.50782,42.07787 C44.6454933,42.32515 45.78262,42.5390967 46.9192,42.71971 C47.3473326,42.7767462 47.7587145,42.9230607 48.12671,43.14918 C49.5929358,43.1907007 51.0522581,43.3666853 52.48632,43.67492 C55.3674365,44.1214539 58.3138127,43.5401181 60.80941,42.03273 C61.0062599,41.6558295 61.1832617,41.268891 61.33969,40.8735 C61.52429,40.3844736 61.7504504,39.912163 62.01569,39.46175 C60.6897367,37.95083 57.4103767,36.25654 52.17761,34.37888 C49.1623633,33.2947333 46.6451167,32.3042133 44.62587,31.40732 C43.0420033,32.36782 41.44123,33.3119267 39.82355,34.23964 C39.3942167,34.4803067 38.9815933,34.7207167 38.58568,34.96087 C38.4207889,35.1317384 38.2732161,35.3185089 38.14512,35.51845 C37.9853814,35.7846442 37.8058519,36.0384498 37.60805,36.27772 Z" id="path15" fill="#FFEB5A"/>
                <path d="M17.18257,8.57234 C12.75615,9.01454667 10.5418167,9.16900333 10.53957,9.03571 C10.4080033,9.13794333 10.43689,9.85422333 10.62623,11.18455 C10.5217199,11.7538967 10.2525154,12.280088 9.85195,12.69797 C9.41278154,13.154554 9.12574044,13.7359057 9.03025,14.36218 C9.12060874,17.6285575 9.85525466,20.8449205 11.19201,23.82661 C14.24711,30.94211 16.1772867,35.6265067 16.98254,37.8798 C17.8363387,40.2165562 19.368455,42.2451374 21.38254,43.70557 C23.2845427,45.3059956 25.2803387,46.791515 27.35929,48.15421 C28.9767706,49.1746944 30.6631598,50.0816323 32.40629,50.86848 C34.8632977,51.8245237 37.4034765,52.5512331 39.99436,53.03932 L45.66314,54.09278 C47.8368867,54.48904 49.20817,54.7490067 49.77699,54.87268 C56.2811167,55.0618 60.1631833,53.97876 61.42319,51.62356 C62.5501463,49.5445949 63.2908542,47.2785374 63.60938,44.93532 C63.63708,44.6014333 63.64834,44.2845467 63.64316,43.98466 L63.63889,43.73466 L63.63719,43.63466 L63.63463,43.48472 C63.4113558,42.3856334 63.0573591,41.3172142 62.58019,40.30225 C62.4603928,39.9817859 62.2670795,39.6938985 62.01579,39.46173 C61.7505504,39.912143 61.52439,40.3844536 61.33979,40.87348 C61.1833617,41.268871 61.0063599,41.6558095 60.80951,42.03271 C58.313911,43.5401132 55.3675265,44.1214597 52.4864,43.67493 C51.0523381,43.3666953 49.5930158,43.1907107 48.12679,43.14919 C47.7587945,42.9230707 47.3474126,42.7767562 46.91928,42.71972 C45.78268,42.5390533 44.6455533,42.3251067 43.5079,42.07788 C43.110508,41.6911373 42.6481132,41.3773993 42.1419,41.15104 C40.8808368,40.7061087 39.7623434,39.9307921 38.9032,38.90604 C38.5320733,38.6456133 38.1945267,38.4013367 37.89056,38.17321 C37.6919589,38.0154827 37.5341405,37.8123675 37.43038,37.58095 L37.42697,37.38095 C37.389773,37.2683361 37.3708666,37.150488 37.37097,37.03189 L37.36756,36.83189 C37.4009097,36.718076 37.4157656,36.5996449 37.41156,36.48112 L37.60813,36.27773 C37.8059457,36.0384612 37.9854885,35.7846556 38.14524,35.51846 C38.2733361,35.3185189 38.4209089,35.1317484 38.5858,34.96088 C38.98172,34.7206933 39.3943433,34.4802833 39.82367,34.23965 C41.44143,33.3119567 43.0422033,32.36785 44.62599,31.40733 C44.5119742,31.3512229 44.3941972,31.303107 44.27351,31.26333 L40.33826,29.2302 C40.1021067,29.0675333 39.8995867,28.9209667 39.7307,28.7905 C37.2174419,26.7894993 35.1481632,24.2873142 33.6545,21.44312 C31.6623133,18.00996 30.1012433,15.4195767 28.97129,13.67197 L17.18257,8.57234 Z" id="path17" fill="#C38822"/>
            </g>
            <g id="Layer4_14_MEMBER_2_FILL" transform="translate(35.000000, 0.000000)">
                <path d="M91.41032,24.40711 C89.1436533,18.6404433 86.2769867,14.50711 82.81032,12.00711 C78.2050014,8.51380279 73.224168,5.54542733 67.96032,3.15711 C64.5912284,1.59092405 60.9977275,0.561799393 57.31032,0.10711 C54.4267933,-0.0843810926 51.5319149,-0.0174474881 48.66032,0.30711 C44.5259534,1.02782319 40.4957737,2.25366954 36.66032,3.95711 C31.55736,6.06117 26.60736,9.77783667 21.81032,15.10711 C19.5917137,17.5435348 17.5053837,20.0972027 15.56032,22.75711 C9.32873911,37.2353083 5.00908593,52.4633631 2.71032,68.05716 C1.63051945,74.6542421 1.04555513,81.3228353 0.96032,88.00716 C0.96032,98.20716 6.24365333,109.240493 16.81032,121.10716 C21.3929867,124.523827 24.7929867,126.623827 27.01032,127.40716 C31.0178949,128.71501 35.0899103,129.816457 39.21032,130.70716 C43.8872991,131.913268 48.6828605,132.600744 53.51032,132.75716 C62.61032,132.75716 70.66032,128.94045 77.66032,121.30721 C85.3269533,112.973877 89.1602867,102.45721 89.16032,89.75721 C88.9270533,86.5905433 88.7603867,83.9238767 88.66032,81.75721 C88.4290304,78.1752792 88.6643351,74.578478 89.36032,71.05721 C89.6197967,69.58578 89.7867907,68.0995329 89.86032,66.60721 L90.11032,63.05721 C90.27694,61.7238767 91.0602733,57.4238767 92.46032,50.15721 C93.7937,43.2238767 94.46032,39.5738767 94.46032,39.20721 C94.3835534,34.1259555 93.3487888,29.1048029 91.41032,24.40721 M82.61032,23.05721 C82.6855667,23.1969233 82.7522333,23.3302567 82.81032,23.45721 C85.0349333,27.19671 86.2682667,30.3133767 86.51032,32.80721 C86.78144,35.3376633 86.9147733,36.7876633 86.910428,37.15721 C86.910428,40.7905433 85.7769267,47.0738767 83.51032,56.00721 C81.5470796,63.4544119 80.9040214,71.1880333 81.61032,78.85721 C82.9769867,92.45721 80.46032,103.690543 74.06032,112.55721 C68.06032,120.823877 60.4269867,124.95721 51.16032,124.95721 C45.8278102,125.060134 40.507794,124.40355 35.36032,123.00721 C29.8111117,121.45986 24.7946729,118.415401 20.86032,114.20721 C19.6596867,112.910637 18.5596867,111.64397 17.56032,110.40721 L12.01032,101.85721 C11.79548,101.329083 11.59548,100.812417 11.41032,100.30721 C11.20348,99.7470167 11.0201467,99.1970167 10.86032,98.65721 C9.92959378,95.1240237 9.36000623,91.5054674 9.16032,87.85721 L9.16032,87.80721 C9.13316,87.15041 9.11649333,86.4837433 9.11032,85.80721 L9.11032,85.35721 C9.11032,81.3621033 9.49365333,75.17877 10.26032,66.80721 C10.3385667,65.93111 10.4219,65.03111 10.51032,64.10721 C11.51032,59.0738767 12.9936533,53.10721 14.96032,46.20721 C16.6269867,40.30721 18.2269867,35.2238767 19.76032,30.95721 C20.2165667,29.4441052 20.8369211,27.985434 21.61032,26.60721 C23.3769867,23.44059 26.3936533,20.3572567 30.66032,17.35721 C36.33018,13.36051 40.58018,10.86051 43.41032,9.85721 C47.0849188,8.72072472 50.9142296,8.16404077 54.76032,8.20721 C59.8771645,8.21882806 64.9171448,9.45310894 69.46032,11.80721 C69.6293333,11.89845 70.0293167,12.09845 70.66027,12.40721 C71.14257,12.6508633 71.7425867,12.9508633 72.46032,13.30721 C72.49656,13.3172871 72.5305143,13.3342643 72.56032,13.35721 C74.2644746,14.1694154 75.8883166,15.1403725 77.41032,16.25721 C78.7764733,17.2780633 80.5098133,19.5447067 82.61034,23.05714 L82.61032,23.05721 Z" id="path20" fill="#432800"/>
                <path d="M19.76041,30.9571 C18.2270767,35.2237667 16.6270767,40.3071 14.96041,46.2071 C12.9937433,53.1071 11.51041,59.0737667 10.51041,64.1071 C10.42197,65.0310533 10.3386367,65.9310533 10.26041,66.8071 C10.2526033,67.57388 10.2359367,68.3405467 10.21041,69.1071 C10.21041,69.4737667 10.2270767,69.8571 10.26041,70.2571 C11.1427066,73.6121651 12.4182097,76.8512716 14.06041,79.9071 C15.5744837,82.8135711 17.4936442,85.4902949 19.76041,87.8571 C23.8636542,90.3619713 28.5544081,91.7416048 33.36041,91.8571 L39.51041,91.8571 C44.570724,91.411897 49.3960456,89.5199543 53.41041,86.4071 C53.7770767,86.1404333 54.1437433,85.8737667 54.51041,85.6071 C55.8437833,83.8070533 57.1937833,82.0070533 58.56041,80.2071 C59.5659842,78.8965912 60.3435369,77.4260025 60.86041,75.8571 C60.9931578,75.7577064 61.1110164,75.6398478 61.21041,75.5071 C61.3020383,75.3835104 61.4022881,75.2665522 61.51041,75.1571 C61.6363898,75.032212 61.7533502,74.898543 61.86041,74.7571 C61.9555525,74.6315214 62.039222,74.4976501 62.11041,74.3571 C62.3770767,73.6237067 62.6770767,72.90704 63.01041,72.2071 C63.5770767,70.9405 64.16041,69.6571667 64.76041,68.3571 L64.76041,67.6071 C64.7957019,67.4938614 64.8125834,67.3756908 64.81041,67.2571 C64.84259,67.0083765 64.8592889,66.7578941 64.86041,66.5071 C65.02703,65.9737667 65.1936967,65.4737667 65.36041,65.0071 C65.5184878,64.6328262 65.652102,64.2486851 65.76041,63.8571 C65.78385,63.4987133 65.8171833,63.1320467 65.86041,62.7571 C66.2250485,57.9995607 67.2689737,53.3187347 68.96041,48.8571 C71.1770954,43.0560979 72.7042395,37.0146489 73.51041,30.8571 L73.61041,30.4571 C73.6522175,30.33709 73.702339,30.2201399 73.76041,30.1071 C73.7259435,29.6067021 73.7426972,29.1040919 73.81041,28.6071 C73.8782626,28.1012045 73.978468,27.6001776 74.11041,27.1071 C74.27703,26.6071 74.4436967,26.1071 74.61041,25.6071 C74.6456183,25.4686782 74.6959197,25.334541 74.76041,25.2071 L74.76041,23.3571 C74.45934,22.3841948 74.2911509,21.3750601 74.26041,20.3571 C74.2340533,19.1908233 73.9969003,18.0389374 73.56041,16.9571 C73.2270767,16.0571 72.86041,15.1904333 72.46041,14.3571 C71.9258442,13.6495997 71.3229193,12.9964492 70.66036,12.4071 C70.02938,12.09832 69.6293967,11.89832 69.46041,11.8071 C64.9172348,9.45299894 59.8772545,8.21871806 54.76041,8.2071 C50.9143196,8.16393077 47.0850088,8.72061472 43.41041,9.8571 C40.58027,10.8604 36.33027,13.3604 30.66041,17.3571 C26.3937433,20.3571 23.3770767,23.4404333 21.61041,26.6071 C20.8370111,27.985324 20.2166567,29.4439952 19.76041,30.9571 Z" id="path22" fill="#FFEB5A"/>
                <path d="M82.81035,23.4571 C82.7522433,23.3301533 82.6855767,23.19682 82.61035,23.0571 C80.5098167,19.5447733 78.7764833,17.2781067 77.41035,16.2571 C75.8883466,15.1402625 74.2645046,14.1693054 72.56035,13.3571 C72.5305443,13.3341543 72.49659,13.3171771 72.46035,13.3071 C71.7426367,12.9507067 71.14262,12.6507067 70.6603,12.4071 C71.3228593,12.9964492 71.9257842,13.6495997 72.46035,14.3571 C72.86035,15.19048 73.2270167,16.0571467 73.56035,16.9571 C73.9968403,18.0389374 74.2339933,19.1908233 74.26035,20.3571 C74.2910909,21.3750601 74.45928,22.3841948 74.76035,23.3571 L74.76035,25.2071 C74.6958597,25.334541 74.6455583,25.4686782 74.61035,25.6071 C74.4436833,26.1071 74.2770167,26.6071 74.11035,27.1071 C73.978408,27.6001776 73.8782026,28.1012045 73.81035,28.6071 C73.7426372,29.1040919 73.7258835,29.6067021 73.76035,30.1071 C73.702279,30.2201399 73.6521575,30.33709 73.61035,30.4571 L73.51035,30.8571 C72.7041795,37.0146489 71.1770354,43.0560979 68.96035,48.8571 C67.2689137,53.3187347 66.2249885,57.9995607 65.86035,62.7571 C65.81713,63.13204 65.7837967,63.4987067 65.76035,63.8571 C65.652042,64.2486851 65.5184278,64.6328262 65.36035,65.0071 C65.1936833,65.4737667 65.0270167,65.9737667 64.86035,66.5071 C64.8592289,66.7578941 64.84253,67.0083765 64.81035,67.2571 C64.8125234,67.3756908 64.7956419,67.4938614 64.76035,67.6071 L64.76035,68.3571 C64.16035,69.6571 63.5770167,70.9404333 63.01035,72.2071 C62.6770167,72.9071 62.3770167,73.6237667 62.11035,74.3571 C62.039162,74.4976501 61.9554925,74.6315214 61.86035,74.7571 C61.7532902,74.898543 61.6363298,75.032212 61.51035,75.1571 C61.4022281,75.2665522 61.3019783,75.3835104 61.21035,75.5071 C61.1109564,75.6398478 60.9930978,75.7577064 60.86035,75.8571 C60.3434769,77.4260025 59.5659242,78.8965912 58.56035,80.2071 C57.1936833,82.0071467 55.8436833,83.8071467 54.51035,85.6071 C54.1436833,85.8737067 53.7770167,86.1403733 53.41035,86.4071 C49.3959856,89.5199543 44.570664,91.411897 39.51035,91.8571 L33.36035,91.8571 C28.5543481,91.7416048 23.8635942,90.3619713 19.76035,87.8571 C17.4935842,85.4902949 15.5744237,82.8135711 14.06035,79.9071 C12.4181497,76.8512716 11.1426466,73.6121651 10.26035,70.2571 C10.2270167,69.8571 10.21035,69.4737667 10.21035,69.1071 C10.23587,68.3405 10.2525367,67.5738333 10.26035,66.8071 C9.49368333,75.17874 9.11035,81.3620733 9.11035,85.3571 L9.11035,85.8071 C9.11651,86.4836667 9.13317667,87.1503333 9.16035,87.8071 L9.16035,87.8571 C9.36003623,91.5053574 9.92962378,95.1239137 10.86035,98.6571 C11.0201433,99.19696 11.2034767,99.74696 11.41035,100.3071 C11.59553,100.81234 11.79553,101.329007 12.01035,101.8571 L17.56035,110.4071 C18.5596833,111.64386 19.6596833,112.910527 20.86035,114.2071 C24.7947029,118.415291 29.8111417,121.45975 35.36035,123.0071 C40.507824,124.40344 45.8278402,125.060024 51.16035,124.9571 C60.4270833,124.9571 68.0604167,120.823767 74.06035,112.5571 C80.46031,103.690433 82.9769767,92.4571 81.61035,78.8571 C80.9040514,71.1879233 81.5471096,63.4543019 83.51035,56.0071 C85.77695,47.0738133 86.9104583,40.79048 86.9104583,37.1571 C86.91481,36.7875333 86.7814767,35.3375333 86.51035,32.8071 C86.2682967,30.3131733 85.0349633,27.1965067 82.81035,23.4571 Z" id="path24" fill="#C38822"/>
            </g>
            <path d="M61.01041,10.05714 C59.7990815,9.22811943 58.3773115,8.75997565 56.91041,8.70714 C50.81041,8.70714 45.4104267,12.00714 40.71046,18.60714 C36.3771267,24.70714 34.21046,31.0238067 34.21046,37.55714 C34.21046,43.9571 35.06046,48.5571 36.76046,51.35714 C38.2682369,53.7079031 40.4449243,55.553734 43.01046,56.65714 C46.2799565,58.1684073 49.6556323,59.4384636 53.11046,60.45714 C56.15737,61.4945554 59.3430262,62.0676365 62.56046,62.15714 C65.5394801,61.9799846 68.4818237,61.4083293 71.31046,60.45714 C74.4279957,59.6270479 77.3620949,58.2193587 79.96046,56.30714 C83.965608,52.9372217 86.9883079,48.5499886 88.71046,43.60714 C89.6948922,41.1508654 90.2691868,38.5495721 90.41041,35.90714 C90.41041,31.0404733 89.7603667,27.3404733 88.46046,24.80714 C86.7271267,21.3404733 83.37711,18.4904733 78.41041,16.25714 C78.21041,16.1905467 75.9437433,15.6572133 71.61041,14.65714 L63.86041,12.05714 C62.76041,11.2238067 61.81041,10.55714 61.01041,10.05714 M63.91041,20.05714 C66.0913767,20.9116867 68.0580433,21.64502 69.81041,22.25714 C74.67711,23.42376 77.9104433,24.6904267 79.51041,26.05714 C81.41041,27.65714 82.36041,30.30714 82.36041,34.00714 C82.36041,40.70714 80.11041,45.7738067 75.61041,49.20714 C71.71041,52.20714 66.5937433,53.70714 60.26041,53.70714 C58.7401205,53.7143965 57.2207528,53.6309147 55.71041,53.45714 C53.1422048,52.9738765 50.6410797,52.184931 48.26041,51.10714 C44.7572433,49.7153 42.7905767,48.1653 42.36041,46.45714 C41.8513567,44.1081378 41.5998714,41.7106449 41.6100921,39.30714 C41.6654567,38.09968 41.7654567,36.6663467 41.91041,35.00714 C42.1770767,31.5738533 44.06041,27.5071867 47.56041,22.80714 C50.4937433,18.8737333 53.2937433,16.90714 55.96041,16.90714 C56.1270767,16.90714 58.7770467,17.95712 63.91032,20.05714 L63.91041,20.05714 Z" id="path27" fill="#091628"/>
            <path d="M71.56035,26.40711 C71.9073789,28.0501424 72.0584327,29.7285176 72.01035,31.40711 C72.1674051,34.8747494 70.8612439,38.2489993 68.41035,40.70711 C65.8127033,43.23995 63.1960367,44.6566167 60.56035,44.95711 C58.2393568,45.2964836 55.8813432,45.2964836 53.56035,44.95711 C52.1467722,44.7912202 50.7553228,44.4726956 49.41035,44.00711 C48.0267723,43.3501599 46.6902543,42.5983685 45.41035,41.75711 C43.3770167,40.42373 42.11035,39.6070633 41.6100321,39.30711 C41.5998114,41.7106149 41.8512967,44.1081078 42.36035,46.45711 C42.7905767,48.1653633 44.7572433,49.7153633 48.26035,51.10711 C50.6410197,52.184901 53.1421448,52.9738465 55.71035,53.45711 C57.2206928,53.6308847 58.7400605,53.7143665 60.26035,53.70711 C66.5937233,53.70711 71.71039,52.20711 75.61035,49.20711 C80.11035,45.7738233 82.36035,40.7071567 82.36035,34.00711 C82.36035,30.30711 81.41035,27.65711 79.51035,26.05711 C77.91035,24.6904433 74.6770167,23.4237767 69.81035,22.25711 C70.5502494,23.5690753 71.1374108,24.9614867 71.56035,26.40711 Z" id="path29" fill="#4E7A8D"/>
            <path d="M72.01041,31.40711 C72.0584927,29.7285176 71.9074389,28.0501424 71.56041,26.40711 C71.1374708,24.9614867 70.5503094,23.5690753 69.81041,22.25711 C68.05803,21.64499 66.0913633,20.9116567 63.91041,20.05711 C58.77711,17.95707 56.12711,16.90711 55.96041,16.90711 C53.2937433,16.90711 50.4937433,18.8737767 47.56041,22.80711 C44.06041,27.50711 42.1770767,31.5737767 41.91041,35.00711 C41.7655167,36.6664433 41.6655167,38.0997767 41.61041,39.30711 C42.11041,39.60711 43.3770767,40.4237767 45.41041,41.75711 C46.6903143,42.5983685 48.0268323,43.3501599 49.41041,44.00711 C50.7553828,44.4726956 52.1468322,44.7912202 53.56041,44.95711 C55.8814032,45.2964836 58.2394168,45.2964836 60.56041,44.95711 C63.19609,44.65663 65.8127567,43.2399633 68.41041,40.70711 C70.8613039,38.2489993 72.1674651,34.8747494 72.01041,31.40711 M66.81041,24.00711 L66.91041,24.20711 L66.91041,24.95711 L66.81041,25.15711 C66.8096656,25.2267762 66.7925373,25.2952895 66.76041,25.35711 L66.66041,25.55711 C66.6194805,25.6016066 66.5857417,25.6522149 66.56041,25.70711 C66.5214688,25.7813956 66.4708206,25.8489265 66.41041,25.90711 L66.21046,26.10711 C66.130175,26.1620234 66.0466942,26.2121119 65.96046,26.25711 C65.9022374,26.3174763 65.834714,26.3681189 65.76046,26.40711 C65.7352385,26.4365867 65.6991743,26.4546188 65.66046,26.45711 C63.6515713,26.5898501 61.6339506,26.4553421 59.66046,26.05711 C57.5751351,25.6624299 55.5664048,24.9365861 53.71046,23.90711 C53.5771267,23.9404967 53.4437933,23.97383 53.31046,24.00711 C53.2501157,24.0653521 53.199476,24.1328717 53.16046,24.20711 C52.96046,24.40711 52.76046,24.5904433 52.56046,24.75711 C52.3289806,24.9221838 52.1115708,25.106146 51.91046,25.30711 C51.7679677,25.4486574 51.6177372,25.5821956 51.46046,25.70711 C51.4214785,25.7813701 51.3708349,25.8488949 51.31046,25.90711 L51.21046,26.10711 C51.1784946,26.1723728 51.1257228,26.2251446 51.06046,26.25711 C50.817689,26.5106483 50.5039848,26.6849285 50.16046,26.75711 C49.4987495,26.9340948 48.7929255,26.7433316 48.31046,26.25711 C48.0409014,26.0191537 47.8492472,25.7055377 47.76046,25.35711 L47.76046,24.95711 C47.7283249,24.8952925 47.7111961,24.8267773 47.71046,24.75711 C47.7747292,24.1652232 47.944047,23.5895428 48.21046,23.05711 C48.685882,22.2116554 49.2562391,21.4232206 49.91046,20.70711 C50.7295443,19.8250814 51.6727877,19.0671179 52.71046,18.45711 C52.7958884,18.453562 52.8802384,18.436692 52.96046,18.40711 C53.1117324,18.4051713 53.2624516,18.3884248 53.41046,18.35711 C56.1793122,18.5243601 58.8847238,19.2560122 61.36046,20.50711 C62.9937933,21.3404433 64.5937933,22.2237767 66.16046,23.15711 C66.3191815,23.217814 66.4577422,23.3217345 66.56046,23.45711 L66.66046,23.65711 L66.76046,23.85711 C66.7873214,23.9030979 66.804312,23.9541754 66.81035,24.00709 L66.81041,24.00711 Z" id="path31" fill="#90C3D0"/>
            <path d="M66.91032,24.2071 L66.81032,24.0071 C66.8042509,23.9541703 66.7872225,23.9030852 66.76032,23.8571 L66.66032,23.6571 L66.56032,23.4571 C66.4576022,23.3217245 66.3190415,23.217804 66.16032,23.1571 C64.5936533,22.2237667 62.9936533,21.3404333 61.36032,20.5071 C58.8845838,19.2560022 56.1791722,18.5243501 53.41032,18.3571 C53.2623116,18.3884148 53.1115924,18.4051613 52.96032,18.4071 C52.8800984,18.436682 52.7957484,18.453552 52.71032,18.4571 C51.6726477,19.0671079 50.7294043,19.8250714 49.91032,20.7071 C49.2560991,21.4232106 48.685742,22.2116454 48.21032,23.0571 C47.943907,23.5895328 47.7745892,24.1652132 47.71032,24.7571 C47.7110561,24.8267673 47.7281849,24.8952825 47.76032,24.9571 L47.76032,25.3571 C47.8491072,25.7055277 48.0407614,26.0191437 48.31032,26.2571 C48.7927855,26.7433216 49.4986095,26.9340848 50.16032,26.7571 C50.5038448,26.6849185 50.817549,26.5106383 51.06032,26.2571 C51.1255828,26.2251346 51.1783546,26.1723628 51.21032,26.1071 L51.31032,25.9071 C51.3706949,25.8488849 51.4213385,25.7813601 51.46032,25.7071 C51.6175972,25.5821856 51.7678277,25.4486474 51.91032,25.3071 C52.1114308,25.106136 52.3288406,24.9221738 52.56032,24.7571 C52.76032,24.5904333 52.96032,24.4071 53.16032,24.2071 C53.199336,24.1328617 53.2499757,24.0653421 53.31032,24.0071 C53.4436533,23.9737667 53.5769867,23.9404333 53.71032,23.9071 C55.5662648,24.9365761 57.5749951,25.6624199 59.66032,26.0571 C61.6338106,26.4553321 63.6514313,26.5898401 65.66032,26.4571 C65.6990343,26.4546088 65.7350985,26.4365767 65.76032,26.4071 C65.834574,26.3681089 65.9020974,26.3174663 65.96032,26.2571 C66.0465542,26.2121019 66.130035,26.1620134 66.21032,26.1071 L66.41027,25.9071 C66.4706806,25.8489165 66.5213288,25.7813856 66.56027,25.7071 C66.5856017,25.6522049 66.6193405,25.6015966 66.66027,25.5571 L66.76027,25.3571 C66.7923973,25.2952795 66.8095256,25.2267662 66.81027,25.1571 L66.91032,24.9571 L66.91032,24.2071 L66.91032,24.2071 Z" id="path33" fill="#FFFFFF"/>
            <g id="Layer4_14_MEMBER_4_FILL" transform="translate(0.000000, 87.000000)">
                <path d="M31.06035,24.2071 C27.8391584,26.5568543 24.033674,27.9752621 20.06035,28.3071 C17.96031,27.74038 15.8769767,27.1570467 13.81035,26.5571 C13.4090768,26.322682 13.0533814,26.0178002 12.76035,25.6571 C12.430374,25.2295745 12.1611534,24.7584384 11.96035,24.2571 C11.0128439,25.3701038 10.2067177,26.5960874 9.56035,27.9071 C9.34251943,28.301433 9.1745644,28.7213205 9.06035,29.1571 C8.47505011,31.5273252 8.87170615,34.0334702 10.16035,36.1071 C12.0936833,39.5403867 15.8770167,42.0070533 21.51035,43.5071 C25.77695,44.67372 28.72695,45.07372 30.36035,44.7071 C31.7723993,44.3716245 33.1224404,43.8147325 34.36035,43.0571 C34.9383227,42.6817977 35.4746809,42.2460067 35.96035,41.7571 C36.0270167,41.6237667 38.7270167,38.7071 44.06035,33.0071 C44.0628815,32.9683966 44.0809062,32.9323472 44.11035,32.9071 C46.1240398,31.5605827 48.5585317,30.9919422 50.96035,31.3071 C53.1936833,31.6404667 55.3936833,31.9904667 57.56035,32.3571 C60.2936833,32.7903867 63.01035,33.3070533 65.71035,33.9071 C65.67697,33.87372 65.67697,33.82372 65.71035,33.7571 C65.7447136,33.5085951 65.7614222,33.2579673 65.76035,33.0071 L65.76035,32.2571 C66.1936515,28.6366853 66.1936515,24.9775147 65.76035,21.3571 C65.4585543,18.3855929 64.4653959,15.5259813 62.86035,13.0071 C62.4110167,12.76326 61.94435,12.51326 61.46035,12.2571 C61.3866233,12.3676267 61.3199567,12.4676267 61.26035,12.5571 L61.21035,12.6071 C61.3732633,13.21544 61.53993,13.8321067 61.71035,14.4571 L61.71035,14.5571 C61.7164243,14.6100285 61.7334523,14.6611126 61.76035,14.7071 L61.76035,14.9071 C61.7610944,14.9767662 61.7782227,15.0452795 61.81035,15.1071 L61.81035,15.2071 C61.7809052,15.2323465 61.7628804,15.2683963 61.76035,15.3071 L61.76035,15.3571 C61.7596019,15.4267657 61.7424738,15.4952782 61.71035,15.5571 C61.7078319,15.595807 61.6898048,15.6318613 61.66035,15.6571 C61.6937367,16.1904867 61.72707,16.72382 61.76035,17.2571 C61.8322961,17.9595476 61.711287,18.6683154 61.41035,19.3071 C60.27705,19.74038 59.52705,19.34038 59.16035,18.1071 C58.6718803,16.5657913 58.0004244,15.0885884 57.16035,13.7071 L57.06035,13.6071 C55.80345,13.0258 54.5367833,12.5091333 53.26035,12.0571 C50.9270167,11.1571 48.5936833,10.3571 46.26035,9.6571 C44.9936833,9.25714 43.7436833,8.92380667 42.51035,8.6571 C42.4028246,8.59753924 42.2831112,8.56333542 42.16035,8.5571 C40.5480575,8.12238261 38.878744,7.93690333 37.21035,8.0071 L37.71035,8.3071 C38.5191218,8.9577259 39.3899894,9.52713934 40.31035,10.0071 C40.9163361,10.2548946 41.4619897,10.6300315 41.91035,11.1071 C42.8092275,12.0722337 43.5820612,13.1474807 44.21035,14.3071 C44.2164243,14.3600285 44.2334523,14.4111126 44.26035,14.4571 C44.2901124,14.613104 44.3405576,14.7644393 44.41035,14.9071 C44.4437367,15.0404 44.47707,15.1904 44.51035,15.3571 C44.5110981,15.4267657 44.5282262,15.4952782 44.56035,15.5571 C44.5334386,15.6030812 44.5164096,15.6541682 44.51035,15.7071 C44.4770167,15.8404333 44.4436833,15.9571 44.41035,16.0571 C44.3770167,16.1904333 44.3436833,16.3071 44.31035,16.4071 L44.21035,16.8071 C44.2096461,16.8767714 44.1925155,16.945294 44.16035,17.0071 C44.1350114,17.0619913 44.1012733,17.1125985 44.06035,17.1571 C44.0356176,17.2180639 43.9761368,17.2577178 43.91035,17.2571 C43.9053138,17.3345141 43.8692596,17.4066226 43.81035,17.4571 C43.8096188,17.5267679 43.7924897,17.5952842 43.76035,17.6571 C43.7645451,17.7117909 43.7465206,17.7658643 43.71035,17.8071 C43.4687712,18.1440713 43.2012945,18.4616999 42.91035,18.7571 C42.6130898,19.191076 42.2195043,19.5504366 41.76035,19.8071 C41.4234749,20.0104509 41.1337257,20.283156 40.91035,20.6071 C40.6818927,20.6684892 40.446858,20.7020656 40.21035,20.7071 C36.9087066,21.0616524 33.7557657,22.2676953 31.06035,24.2071 Z" id="path35" fill="#C38822"/>
                <path d="M20.06035,28.30714 C24.033674,27.9753021 27.8391584,26.5568943 31.06035,24.20714 C33.7557657,22.2677353 36.9087066,21.0616924 40.21035,20.70714 C40.446858,20.7021056 40.6818927,20.6685292 40.91035,20.60714 C41.1337257,20.283196 41.4234749,20.0104909 41.76035,19.80714 C42.2195043,19.5504766 42.6130898,19.191116 42.91035,18.75714 C43.2012945,18.4617399 43.4687712,18.1441113 43.71035,17.80714 C43.7465206,17.7659043 43.7645451,17.7118309 43.76035,17.65714 C43.7924897,17.5953242 43.8096188,17.5268079 43.81035,17.45714 C43.8692596,17.4066626 43.9053138,17.3345541 43.91035,17.25714 C43.9761368,17.2577578 44.0356176,17.2181039 44.06035,17.15714 C44.1012733,17.1126385 44.1350114,17.0620313 44.16035,17.00714 C44.1925155,16.945334 44.2096461,16.8768114 44.21035,16.80714 L44.31035,16.40714 C44.3436833,16.3071 44.3770167,16.1904333 44.41035,16.05714 C44.4437367,15.9571 44.47707,15.8404333 44.51035,15.70714 C44.5164096,15.6542082 44.5334386,15.6031212 44.56035,15.55714 C44.5282262,15.4953182 44.5110981,15.4268057 44.51035,15.35714 C44.4770167,15.19052 44.4436833,15.04052 44.41035,14.90714 C44.3405576,14.7644793 44.2901124,14.613144 44.26035,14.45714 C44.2334523,14.4111526 44.2164243,14.3600685 44.21035,14.30714 C43.5820612,13.1475207 42.8092275,12.0722737 41.91035,11.10714 C41.4619897,10.6300715 40.9163361,10.2549346 40.31035,10.00714 C39.3899894,9.52717934 38.5191218,8.9577659 37.71035,8.30714 L37.21035,8.00714 C32.4770167,8.34047333 27.1770167,10.70714 21.31035,15.10714 C18.3114369,17.4120096 15.5479715,20.0079922 13.06035,22.85714 C12.66035,23.3238067 12.2936833,23.7904733 11.96035,24.25714 C12.1611534,24.7584784 12.430374,25.2296145 12.76035,25.65714 C13.0533814,26.0178402 13.4090768,26.322722 13.81035,26.55714 C15.8770033,27.1571133 17.9603367,27.7404467 20.06035,28.30714 Z" id="path37" fill="#FFEB5A"/>
                <path d="M33.46041,0.9571 C28.7955785,2.12387217 24.3182878,3.94171953 20.16041,6.3571 C9.79378333,12.2571 3.66045,18.7237667 1.76041,25.7571 C0.330394078,30.8087608 0.90348439,36.2173006 3.36041,40.8571 C6.36041,46.5237667 11.6270767,50.3571 19.16041,52.3571 C24.06041,53.69048 27.7437433,54.1738133 30.21041,53.8071 C31.6802879,53.3575272 33.117093,52.806195 34.51041,52.1571 C36.1786238,51.2584502 37.724589,50.1493882 39.11041,48.8571 C40.3968626,47.7832502 41.6158443,46.631062 42.76041,45.4071 L48.11041,39.5571 C52.1771233,39.7903667 56.64379,40.2903667 61.51041,41.0571 C63.3437833,41.4237267 65.1771167,41.82371 67.01041,42.25705 C67.214498,42.2563382 67.4171229,42.2225674 67.61041,42.15705 C67.7878187,42.0874259 67.972218,42.0371352 68.16041,42.00705 C68.3270767,41.90705 68.5104267,41.80705 68.71046,41.70705 C68.8490441,41.6358893 68.9689412,41.5331203 69.06046,41.40705 C69.1840501,41.3154223 69.3010083,41.2151724 69.41046,41.10705 C69.7420264,40.8760924 69.9880884,40.5421511 70.11046,40.15705 C70.1982835,39.9186841 70.2984182,39.6850366 70.41046,39.45705 C70.47718,39.19045 70.5438467,38.94045 70.61046,38.70705 L70.61046,38.30705 C70.5732992,38.0546527 70.5232336,37.8043247 70.46046,37.55705 C70.4585309,37.4057743 70.4417673,37.2550526 70.41041,37.10705 C70.3203214,36.8295277 70.2030876,36.5615646 70.06041,36.30705 C69.7001954,35.6797287 69.1603265,35.17469 68.51041,34.85705 L67.11041,34.25705 C66.61041,34.1237167 66.1437433,34.00705 65.71041,33.90705 C63.01041,33.30701 60.2937433,32.7903433 57.56041,32.35705 C55.3937433,31.9903833 53.1937433,31.6403833 50.96041,31.30705 C48.5585917,30.9918922 46.1240998,31.5605327 44.11041,32.90705 C44.0809662,32.9322972 44.0629415,32.9683466 44.06041,33.00705 C38.7270767,38.70705 36.0270767,41.6237167 35.96041,41.75705 C35.4747409,42.2459567 34.9383827,42.6817477 34.36041,43.05705 C33.1225004,43.8146825 31.7724593,44.3715745 30.36041,44.70705 C28.72711,45.0737167 25.77711,44.6737167 21.51041,43.50705 C15.8770767,42.00699 12.0937433,39.5403233 10.16041,36.10705 C8.87176615,34.0334202 8.47511011,31.5272752 9.06041,29.15705 C9.1746244,28.7212705 9.34257943,28.301383 9.56041,27.90705 C10.2067777,26.5960374 11.0129039,25.3700538 11.96041,24.25705 C12.2937433,23.7903833 12.66041,23.3237167 13.06041,22.85705 C15.5480315,20.0079022 18.3114969,17.4119196 21.31041,15.10705 C27.1770767,10.70705 32.4770767,8.34038333 37.21041,8.00705 C38.878804,7.93685333 40.5481175,8.12233261 42.16041,8.55705 C42.2831712,8.56328542 42.4028846,8.59748924 42.51041,8.65705 C43.7437433,8.92371667 44.9937433,9.25705 46.26041,9.65705 C48.5937833,10.35705 50.9271167,11.15705 53.26041,12.05705 C54.5367833,12.50905 55.80345,13.0257167 57.06041,13.60705 L57.16041,13.70705 C58.0004844,15.0885384 58.6719403,16.5657413 59.16041,18.10705 C59.52711,19.3403833 60.27711,19.7403833 61.41041,19.30705 C61.711347,18.6682654 61.8323561,17.9594976 61.76041,17.25705 C61.7270767,16.7237167 61.6937433,16.1903833 61.66041,15.65705 C61.6898648,15.6318113 61.7078919,15.595757 61.71041,15.55705 C61.7425338,15.4952282 61.7596619,15.4267157 61.76041,15.35705 L61.76041,15.30705 C61.7629404,15.2683463 61.7809652,15.2322965 61.81041,15.20705 L61.81041,15.10705 C61.7782827,15.0452295 61.7611544,14.9767162 61.76041,14.90705 L61.76041,14.70705 C61.7335123,14.6610626 61.7164843,14.6099785 61.71041,14.55705 L61.71041,14.45705 C61.5399433,13.83205 61.3732767,13.2153833 61.21041,12.60705 L61.26041,12.55705 C61.3199767,12.46757 61.3866433,12.36757 61.46041,12.25705 C61.9443567,12.51321 62.4110233,12.76321 62.86041,13.00705 C62.9046033,13.02835 62.9379367,13.0450167 62.96041,13.05705 C63.2798592,13.2440098 63.5532507,13.5003143 63.76041,13.80705 C64.2649796,14.6792437 65.1578724,15.2559036 66.16041,15.35705 L66.21041,15.35705 C66.2356686,15.3276207 66.2717114,15.3095993 66.31041,15.30705 L66.41041,15.20705 L66.51041,15.10705 L66.61041,15.00705 C66.660456,14.907073 66.710456,14.807073 66.76041,14.70705 L66.76041,14.25705 C66.727348,14.1241509 66.6581224,14.003006 66.56041,13.90705 C66.36041,13.6403833 66.16041,13.35705 65.96041,13.05705 C65.8377811,12.8379143 65.6864442,12.6361317 65.51041,12.45705 C65.0764696,11.7896329 64.5737189,11.1695737 64.01041,10.60705 C63.4458053,10.0753053 62.8255604,9.60593076 62.16041,9.20705 C62.08229,9.13869 61.9989567,9.07202333 61.91041,9.00705 L61.91041,8.80705 C59.6755665,6.27261716 56.7600776,4.43308249 53.51041,3.50705 C50.5437433,2.60705 47.56041,1.72371667 44.56041,0.85705 C41.6937433,-0.142903333 37.9937433,-0.109553333 33.46041,0.9571 Z" id="path39" fill="#432800"/>
            </g>
        </g>
    </g>
</svg>