<?xml version="1.0" encoding="UTF-8" standalone="no"?>
<svg xmlns:dc="http://purl.org/dc/elements/1.1/" xmlns:cc="http://creativecommons.org/ns#" xmlns:rdf="http://www.w3.org/1999/02/22-rdf-syntax-ns#" xmlns:svg="http://www.w3.org/2000/svg" xmlns="http://www.w3.org/2000/svg" xmlns:sodipodi="http://sodipodi.sourceforge.net/DTD/sodipodi-0.dtd" xmlns:inkscape="http://www.inkscape.org/namespaces/inkscape" id="Layer_1" data-name="Layer 1" viewBox="0 0 101.67555 148.43507" version="1.1" sodipodi:docname="red.svg">
  <metadata id="metadata48">
    <rdf:RDF>
      <cc:Work rdf:about="">
        <dc:format>image/svg+xml</dc:format>
        <dc:type rdf:resource="http://purl.org/dc/dcmitype/StillImage"/>
      </cc:Work>
    </rdf:RDF>
  </metadata>
  <sodipodi:namedview pagecolor="#ffffff" bordercolor="#666666" borderopacity="1" objecttolerance="10" gridtolerance="10" guidetolerance="10" inkscape:pageopacity="0" inkscape:pageshadow="2" inkscape:window-width="640" inkscape:window-height="480" id="namedview46"/>
  <defs id="defs4">
    <style id="style2">.cls-1{fill:#230110;}.cls-2{fill:#a8044c;}.cls-3{fill:#ff1010;}.cls-4{fill:#091628;}.cls-5{fill:#90c3d0;}.cls-6{fill:#fff;}.cls-7{fill:#4e7a8d;}</style>
  </defs>
  <g id="Layer4_12_FILL" data-name="Layer4 12 FILL">
    <path d="M55.98427,142.057a1.64545,1.64545,0,0,0-.2-.25l.1.2A.14417.14417,0,0,1,55.98427,142.057Z" transform="translate(-22.02711 -3.62634)" id="path6"/>
  </g>
  <g id="Layer4_12_MEMBER_0_FILL" data-name="Layer4 12 MEMBER 0 FILL">
    <path class="cls-1" d="M108.03425,12.257q-4.7764-3.79632-13.25-5.85a104.84377,104.84377,0,0,0-13.95-2.6,80.44433,80.44433,0,0,0-15.25.5,83.71192,83.71192,0,0,0-14.95,2.65,60.18111,60.18111,0,0,0-10.95,4.75q-5.66364,3.11581-7.3,4.19995a17.45627,17.45627,0,0,0-6.7,11q-.7,2.75-.7,10.5t2.55,10.05q3.05,2.7,13.6,2.7l23-.95q21.34992-1.15,22.9-1.15a67.29487,67.29487,0,0,1,9.55.75q5.2.75,6.05.75a20.31488,20.31488,0,0,0,15.95-7.5q5.1-5.84994,5.1-10.15.00495-3.30057-5.45-9.55a81.57294,81.57294,0,0,0-10.2-10.1m-2.45,7.75a59.66923,59.66923,0,0,1,5.85,6.7q3.49943,4.50155,3.5,5.6a3.41448,3.41448,0,0,1-.45,1.7,16.8524,16.8524,0,0,1-1.45,2.05,15.43407,15.43407,0,0,1-2.9,2.5q-.10007.05-1.85,1.7a3.25276,3.25276,0,0,1-1.75,1.05q-16.79994-.9-17.8-.9-2.75,0-55.15,1.15-.00009-.9-.25-3.9-.3-3.05-.3-3.45,0-10.75,10.9-16.05005,7.95-3.85,28.7-5.94995a50.11355,50.11355,0,0,1,21.05,2.25Q103.29282,17.81067,105.58423,20.007Z" transform="translate(-22.02711 -3.62634)" id="path9"/>
    <path class="cls-2" d="M111.43427,26.707a59.66923,59.66923,0,0,0-5.85-6.7q-2.29128-2.19626-11.9-5.55a50.11355,50.11355,0,0,0-21.05-2.25q-20.75,2.09994-28.7,5.94995-10.9,5.30007-10.9,16.05005,0,.4.3,3.45.24995,3,.25,3.9,52.40011-1.15,55.15-1.15,1,0,17.8.9a3.25276,3.25276,0,0,0,1.75-1.05q1.74993-1.65,1.85-1.7a15.43407,15.43407,0,0,0,2.9-2.5,16.8524,16.8524,0,0,0,1.45-2.05,3.41448,3.41448,0,0,0,.45-1.7Q114.93372,31.20852,111.43427,26.707Z" transform="translate(-22.02711 -3.62634)" id="path11"/>
  </g>
  <g id="Layer4_12_MEMBER_1_FILL" data-name="Layer4 12 MEMBER 1 FILL">
    <path class="cls-2" d="M111.60852,100.57165q-1.20347.04044-2.35734.075.01164.09934-.038.10515-.39146.09627-.83255.19831a2.54641,2.54641,0,0,0-.49077.10787q-.42363.25109-.79767.49629-.65449.42915-1.30309.90793a5.16272,5.16272,0,0,1-.70414.43494,16.14276,16.14276,0,0,0-11.19876,6.24667,6.56147,6.56147,0,0,1-2.77579,2.08746A26.43413,26.43413,0,0,0,78.72163,120.638q2.6093-2.21895,5.82389,1.58255l.04076.34762a1.108,1.108,0,0,0,.09041.34177l.14594.38565a4.98418,4.98418,0,0,1-.06167.76237l-.05271.40892A2.7586,2.7586,0,0,1,84.6,124.832l-.05272.40892a1.33276,1.33276,0,0,0-.20754.37673,3.75067,3.75067,0,0,0-.30107.438,3.265,3.265,0,0,0-.25718.38256q-.00307.40309-.012.75654a1.10628,1.10628,0,0,1-.009.35342,1.95456,1.95456,0,0,0-.10236.41477,1.644,1.644,0,0,0-.00306.40309,14.90182,14.90182,0,0,1-.98083,5.8037,30.54373,30.54373,0,0,0-1.31916,4.63516l.17468,1.48979a6.13829,6.13829,0,0,0,.2274,1.08085,7.3536,7.3536,0,0,0,.34146.76546,5.61762,5.61762,0,0,0,2.62549,1.35345q.93459.24277,1.86926.48563,2.632-.30856,5.21427-.61139a25.28042,25.28042,0,0,1,3.04707-1.06208,21.28551,21.28551,0,0,0,2.73742-1.12644,41.79065,41.79065,0,0,0,4.36316-5.29413,29.60312,29.60312,0,0,0,3.53123-6.80755q.39207-1.80793.83973-3.5721,1.38661-5.34783,2.77911-10.64606.72263-2.85358,1.29042-5.73931Q111.16,104.90335,111.60852,100.57165Z" transform="translate(-22.02711 -3.62634)" id="path14"/>
    <path class="cls-1" d="M116.73633,89.34815a8.14,8.14,0,0,1-.89967.05513L115.825,89.304a4.05662,4.05662,0,0,0-3.36929,3.466q-.38052,1.90729-.66167,3.8029l.04658.39731.04076.34759q-.11155,1.62407-.27288,3.25393-.44865,4.33173-1.21264,8.54938-.56777,2.88576-1.29042,5.73931-1.39243,5.29823-2.77911,10.64606-.44763,1.76413-.83973,3.5721a29.60312,29.60312,0,0,1-3.53123,6.80755,41.79065,41.79065,0,0,1-4.36316,5.29413,21.28551,21.28551,0,0,1-2.73742,1.12644,25.28042,25.28042,0,0,0-3.04707,1.06208q-2.58231.30284-5.21427.61139-.9347-.24281-1.86926-.48563a5.61762,5.61762,0,0,1-2.62549-1.35345,7.3536,7.3536,0,0,1-.34146-.76546,6.13829,6.13829,0,0,1-.2274-1.08085l-.17468-1.48979a30.54373,30.54373,0,0,1,1.31916-4.63516,14.90182,14.90182,0,0,0,.98083-5.8037,1.644,1.644,0,0,1,.00306-.40309,1.95456,1.95456,0,0,1,.10236-.41477,1.10628,1.10628,0,0,0,.009-.35342q.00889-.35344.012-.75654a3.265,3.265,0,0,1,.25718-.38256,3.75067,3.75067,0,0,1,.30107-.438,1.33276,1.33276,0,0,1,.20754-.37673L84.6,124.832a2.7586,2.7586,0,0,0,.10824-.36509l.05271-.40892a4.98418,4.98418,0,0,0,.06167-.76237l-.14594-.38565a1.108,1.108,0,0,1-.09041-.34177l-.04076-.34762q-3.21455-3.80151-5.82389-1.58255a8.91025,8.91025,0,0,0-1.91137,2.59022,10.58693,10.58693,0,0,0-1.14723,5.67219,8.38394,8.38394,0,0,0-.62882,1.93637q-.39214,1.808-.88936,3.57793a5.85962,5.85962,0,0,0-.16678.72436,13.246,13.246,0,0,0,1.06213,10.34669,12.76639,12.76639,0,0,0,7.84637,6.37965q19.40365,1.90327,28.13223-14.676a14.17156,14.17156,0,0,0,1.3891-4.03922q3.074-10.27793,5.28934-21.00889a142.34543,142.34543,0,0,0,2.33726-16.13193l-.04659-.3973-.04075-.34759.05277-.409a2.74269,2.74269,0,0,1,.10818-.365q.0528-.409.11131-.76819a7.471,7.471,0,0,0,.06166-.76237l-.14594-.38565-.04075-.34759-.04659-.39731a3.29294,3.29294,0,0,0-.62469-1.03426A4.28859,4.28859,0,0,0,116.73633,89.34815Z" transform="translate(-22.02711 -3.62634)" id="path16"/>
  </g>
  <g id="Layer4_12_MEMBER_2_FILL" data-name="Layer4 12 MEMBER 2 FILL">
    <path class="cls-2" d="M34.00833,94.87745q.07713.56489.14783,1.17925l-.052.39662-.04553.347a96.55316,96.55316,0,0,0,1.008,9.61284q.58327,4.01,1.52657,7.96629,1.31947,5.31687,2.63252,10.68327.42333,1.77011.79054,3.58331a29.60312,29.60312,0,0,0,3.43733,6.85545,41.791,41.791,0,0,0,4.29,5.3536,21.28235,21.28235,0,0,0,2.72174,1.164,25.28376,25.28376,0,0,1,3.03212,1.10386q2.578.33831,5.20538.683.93785-.23,1.87576-.45989a5.61767,5.61767,0,0,0,2.64384-1.31723,7.3676,7.3676,0,0,0,.352-.7607,6.13354,6.13354,0,0,0,.24229-1.07761l.19514-1.48725a30.53758,30.53758,0,0,0-1.25538-4.65287,14.90269,14.90269,0,0,1-.90089-5.81663,1.64135,1.64135,0,0,0,.00241-.40311.44387.44387,0,0,0-.02354-.20481l-.07311-.21132a1.10809,1.10809,0,0,1-.004-.35351q-.00412-.35354-.00161-.75664a3.25267,3.25267,0,0,0-.25191-.38606,3.7626,3.7626,0,0,0-.295-.44212,1.33563,1.33563,0,0,0-.20234-.37956l-.04715-.4096a2.74658,2.74658,0,0,1-.10315-.36655l-.04715-.4096a4.9767,4.9767,0,0,1-.05112-.76314l.15117-.38362a1.108,1.108,0,0,0,.09509-.3405l.04554-.347q3.26649-3.757,5.84515-1.50233a.78239.78239,0,0,1-.12272-.21783,12.027,12.027,0,0,0-1.3457-2.04243q-1.00362-1.19067-2.11944-2.29524-4.06568-5.52586-7.577-11.43288A22.32749,22.32749,0,0,0,40.16146,93.71812a8.4387,8.4387,0,0,0-.91189.03163A15.996,15.996,0,0,0,34.00833,94.87745Z" transform="translate(-22.02711 -3.62634)" id="path19"/>
    <path class="cls-1" d="M30.22556,88.7331l-.013.09916a8.137,8.137,0,0,1-.89889-.0675,4.28883,4.28883,0,0,0-2.70642,1.40989,3.29535,3.29535,0,0,0-.63885,1.02558l-.052.39662-.04553.347-.15117.38362a7.45549,7.45549,0,0,0,.05112.76314q.05369.36.10074.76964a2.75591,2.75591,0,0,1,.10322.36652l.04708.40963-.04553.347-.052.39663a142.35626,142.35626,0,0,0,2.11529,16.16254q2.06766,10.76043,5.00012,21.07964a14.17179,14.17179,0,0,0,1.33338,4.05793q8.4999,16.69773,27.92794,15.06134a12.76664,12.76664,0,0,0,7.93326-6.2712,13.246,13.246,0,0,0,1.20426-10.33112,5.87256,5.87256,0,0,0-.15681-.72659q-.47289-1.77661-.8401-3.58981a8.38679,8.38679,0,0,0-.60208-1.94484,10.58693,10.58693,0,0,0-1.06922-5.68743,7.97033,7.97033,0,0,0-1.87553-2.61624q-2.57862-2.25462-5.84515,1.50233l-.04554.347a1.108,1.108,0,0,1-.09509.3405l-.15117.38362a4.9767,4.9767,0,0,0,.05112.76314l.04715.4096a2.74658,2.74658,0,0,0,.10315.36655l.04715.4096a1.33563,1.33563,0,0,1,.20234.37956,3.7626,3.7626,0,0,1,.295.44212,3.25267,3.25267,0,0,1,.25191.38606q-.00248.40309.00161.75664a1.10809,1.10809,0,0,0,.004.35351l.07311.21132a.44387.44387,0,0,1,.02354.20481,1.64135,1.64135,0,0,1-.00241.40311,14.90269,14.90269,0,0,0,.90089,5.81663,30.53758,30.53758,0,0,1,1.25538,4.65287l-.19514,1.48725a6.13354,6.13354,0,0,1-.24229,1.07761,7.3676,7.3676,0,0,1-.352.7607A5.61767,5.61767,0,0,1,60.5785,143.346q-.93784.22991-1.87576.45989-2.62738-.3447-5.20538-.683a25.28376,25.28376,0,0,0-3.03212-1.10386,21.28235,21.28235,0,0,1-2.72174-1.164,41.791,41.791,0,0,1-4.29-5.3536,29.60312,29.60312,0,0,1-3.43733-6.85545q-.36727-1.81318-.79054-3.58331-1.31307-5.36642-2.63252-10.68327-.94332-3.95634-1.52657-7.96629a96.55316,96.55316,0,0,1-1.008-9.61284l.04553-.347.052-.39662q-.07073-.61442-.14783-1.17925-.22746-1.341-.46144-2.63239A4.05676,4.05676,0,0,0,30.22556,88.7331Z" transform="translate(-22.02711 -3.62634)" id="path21"/>
  </g>
  <g id="Layer4_12_MEMBER_3_FILL" data-name="Layer4 12 MEMBER 3 FILL">
    <path class="cls-3" d="M62.28426,13.557a34.7191,34.7191,0,0,1-4.45.6,11.39187,11.39187,0,0,0-6.1,2.1,4.56506,4.56506,0,0,0-.5.35q-.9.3-1.85.65-2.65.95-5.25,1.95a3.85022,3.85022,0,0,0-1.9,1.5,3.749,3.749,0,0,1-.35.4,1.9543,1.9543,0,0,1-.15.4q-.05.15006-.1.35-.05.2-.1.4a1.10658,1.10658,0,0,0-.05.35l-.1.4q.05.15006.1.35v.75a3.76453,3.76453,0,0,0,1.6,2.3,2.40084,2.40084,0,0,0,2.15.35q6.05-1.9,12.2-3.4a53.46527,53.46527,0,0,1,31.2,1.5,100.87892,100.87892,0,0,0,14.65,4,1.95523,1.95523,0,0,0,.45-.25,3.08655,3.08655,0,0,0,.55-.35,5.45773,5.45773,0,0,0,.45-.4,3.2657,3.2657,0,0,0,.3-.35q.25-.59994.45-1.2a4.57729,4.57729,0,0,0-.25-3.45q-3.24994-6.69993-11.45-8.1a127.31831,127.31831,0,0,0-29.15-1.65Q63.58422,13.307,62.28426,13.557Z" transform="translate(-22.02711 -3.62634)" id="path24"/>
  </g>
  <g id="Layer4_12_MEMBER_4_FILL" data-name="Layer4 12 MEMBER 4 FILL">
    <path class="cls-3" d="M70.03426,34.457q-14.55-.2-21.95,4.75-7.45,4.89992-10.15,10.15-1.15008,2.49993-2.15,5.05a38.69636,38.69636,0,0,0-2.1,6.75c.00006.06659.00006.13336,0,.2q.00009.10007,0,.2-.15.55005-.3,1.15-.25.9-.45,1.85a1.11167,1.11167,0,0,1-.15.35v.4a1.46936,1.46936,0,0,0-.1.55,1.8134,1.8134,0,0,0,0,.6.20358.20358,0,0,0-.05.15l-.1.2v.4a.38346.38346,0,0,1-.05.15.44365.44365,0,0,1-.05.2.44348.44348,0,0,0-.05.2l-.1.2v.35a59.74658,59.74658,0,0,0-.8,10.2q0,5.19993.5,11.05a12.2721,12.2721,0,0,0,.2,2.2,1.469,1.469,0,0,1,.05.35q.50005,2.45,1.1,4.9l.05.05q.99994,2.35007,1.85,4.8a35.83568,35.83568,0,0,0,1.95,4.7,6.64125,6.64125,0,0,1,.8,1.1,7.60389,7.60389,0,0,1,.7,1.7q.2.2.35.35a.62783.62783,0,0,1,.15.25,3.27,3.27,0,0,1,.2.35,69.599,69.599,0,0,0,4.55,5.55,26.27507,26.27507,0,0,0,3.15,3q1.15.9,1.25.8a35.97447,35.97447,0,0,0,8.8,4.3,79.51442,79.51442,0,0,1-7.4-6.9,19.49664,19.49664,0,0,0,2.9,1.75q3.2,1.5,4.85,2.25a.144.144,0,0,1,.1.05,5.55077,5.55077,0,0,1,2.05.7q.85007.45007,1.7.8.6.2,1.1.35.7.2,1.4.45a.94566.94566,0,0,1,.3.05,53.70421,53.70421,0,0,0,8,1.1h.65a64.01054,64.01054,0,0,0,13.55-2.05l2.25-.7q4.15-2.2,6.9-3.7-.7.9-1.45,1.8-1.21547,1.52573-2.55,2.95a31.67856,31.67856,0,0,0,6.95-5.1,10.26087,10.26087,0,0,1,1.1-.95,52.18837,52.18837,0,0,0,7.1-10.4q4.25-10.40011,5.1-14.2.25-.95,1.8-12.5.15-3.6.2-7.2a60.28776,60.28776,0,0,0-.3-6.95q-1.15008-5.75006-1.3-6.45-.50006-1.39993-2.3-6.6a.48616.48616,0,0,1-.1-.25,38.4895,38.4895,0,0,0-2.7-4.25q-.4-.45-3.6-3.85-1.60007-1.45-3.5-2.9a28.67094,28.67094,0,0,0-7.35-4.5,44.04089,44.04089,0,0,0-5.45-1.55q-2.59991-.55-17.1-.75m-5.9,20.6q-.34991-.1-.75-.2-3.50006-.00009-7,.2a41.54352,41.54352,0,0,0-7.25,1.15q-.7.6-1.3,1.2a26.48225,26.48225,0,0,0-3.9,5.35,3.88609,3.88609,0,0,1-4.5,2.15,3.62128,3.62128,0,0,1-3.05-2.7q-.00009-.15,0-.35a1.64677,1.64677,0,0,0-.05-.4.8062.8062,0,0,0-.1-.35.88777.88777,0,0,0,.1-.4q.05-.15.1-.35a1.6463,1.6463,0,0,1,.05-.4v-.35a74.03206,74.03206,0,0,1,4.3-6.25q5.30007-6.84988,14.5-6.65,4.9.1,9.85.25a1.88352,1.88352,0,0,1,.75.15h12.25a1.93334,1.93334,0,0,0,.25-.1q.7-.15,1.4-.3.55-.10007,1.1-.25l.5-.1a8.14509,8.14509,0,0,0,.9-.05v-.1a27.16529,27.16529,0,0,1,16.25,2.4,15.1807,15.1807,0,0,1,7.6,7.85q-.00009.2,0,.4a1.10654,1.10654,0,0,0,.05.35,1.64336,1.64336,0,0,1,.05.4,1.47031,1.47031,0,0,1,.05.35,1.64445,1.64445,0,0,1-.05.4,1.10806,1.10806,0,0,1-.05.35,1.641,1.641,0,0,0-.05.4q-.00009.2,0,.35-.05.2-.1.4a1.11115,1.11115,0,0,1-.15.35q-.09989.2-.2.4a2.74809,2.74809,0,0,0-.15.35l-.4.4a1.73987,1.73987,0,0,1-.35.35l-.5.4a2.63523,2.63523,0,0,0-.4.25,1.93278,1.93278,0,0,1-.25.1,2.85185,2.85185,0,0,1-.5.15,9.22515,9.22515,0,0,1-6.75-.35,3.00969,3.00969,0,0,1-1.75-2.05q-.00009-.15,0-.35-.00009-.2,0-.4-.05-.15-.1-.35.05007-.2.1-.4a4.98009,4.98009,0,0,0,.15-.75,2.74809,2.74809,0,0,1,.15-.35,5.58586,5.58586,0,0,1,.45-.75,1.95591,1.95591,0,0,0,.15-.4,18.09384,18.09384,0,0,0-14.05-1.85A41.56774,41.56774,0,0,1,64.13423,55.057Z" transform="translate(-22.02711 -3.62634)" id="path27"/>
    <path class="cls-2" d="M63.38423,54.857q.40009.10007.75.2a41.56774,41.56774,0,0,0,17.35-.45,18.09384,18.09384,0,0,1,14.05,1.85,1.95591,1.95591,0,0,1-.15.4,5.58586,5.58586,0,0,0-.45.75,2.74809,2.74809,0,0,0-.15.35,4.98009,4.98009,0,0,1-.15.75q-.05.2-.1.4.05007.2.1.35-.00009.2,0,.4-.00009.2,0,.35a3.00969,3.00969,0,0,0,1.75,2.05,9.22515,9.22515,0,0,0,6.75.35,2.85185,2.85185,0,0,0,.5-.15,1.93278,1.93278,0,0,0,.25-.1,2.63523,2.63523,0,0,1,.4-.25l.5-.4a1.73987,1.73987,0,0,0,.35-.35l.4-.4a2.74809,2.74809,0,0,1,.15-.35q.09989-.2.2-.4a1.11115,1.11115,0,0,0,.15-.35q.05007-.2.1-.4-.00009-.15,0-.35a1.641,1.641,0,0,1,.05-.4,1.10806,1.10806,0,0,0,.05-.35,1.64445,1.64445,0,0,0,.05-.4,1.47031,1.47031,0,0,0-.05-.35,1.64336,1.64336,0,0,0-.05-.4,1.10654,1.10654,0,0,1-.05-.35q-.00009-.2,0-.4a15.1807,15.1807,0,0,0-7.6-7.85,27.16529,27.16529,0,0,0-16.25-2.4v.1a8.14509,8.14509,0,0,1-.9.05l-.5.1q-.55.15-1.1.25-.69993.15-1.4.3a1.93334,1.93334,0,0,1-.25.1h-12.25a1.88352,1.88352,0,0,0-.75-.15q-4.95-.15-9.85-.25-9.2-.2-14.5,6.65a74.03206,74.03206,0,0,0-4.3,6.25v.35a1.6463,1.6463,0,0,0-.05.4q-.05.2-.1.35a.88777.88777,0,0,1-.1.4.8062.8062,0,0,1,.1.35,1.64677,1.64677,0,0,1,.05.4q-.00009.2,0,.35a3.62128,3.62128,0,0,0,3.05,2.7,3.88609,3.88609,0,0,0,4.5-2.15,26.48225,26.48225,0,0,1,3.9-5.35q.6-.6,1.3-1.2a41.54352,41.54352,0,0,1,7.25-1.15q3.5-.19995,7-.2m20.75-30.35a48.90993,48.90993,0,0,0-12.95-1.4,28.43965,28.43965,0,0,0-12.6,3.45q-6.25,3.3-6.3,3.35-13.1,9.5-17.1,18.1-4.55,9.85-6,30.25l.1-.5v.1a.44325.44325,0,0,0-.05.2,52.00734,52.00734,0,0,0-.05,6.15,2.32233,2.32233,0,0,0,.05.45v.4a4.60794,4.60794,0,0,0,.05.65v.05q.05007,1.25.2,2.55.25,2.75.75,5.45.75,4.25,4.8,16.2.69991,2.14993,1.45,4a.32707.32707,0,0,1,.15-.15l.1-.1.15-.15.2-.2a1.93291,1.93291,0,0,0,.25-.1h.2v-.05q.25.05.45.1a1.2588,1.2588,0,0,0,.3.15.78288.78288,0,0,1,.15.2.58094.58094,0,0,0,.1.15,1.26279,1.26279,0,0,1,.3-.15h.05q.2.00009.35,0v-.05a2.11028,2.11028,0,0,1,.65.2,2.52461,2.52461,0,0,1,.6.3q.85,2.24991,1.75,4.55a2.849,2.849,0,0,1,.5.15,2.30729,2.30729,0,0,1,.65.3l.45,1.15q.2.55005.45,1.1.5,1.2,1.05,2.35.15087.18558.3.35,6.43735.18906,12.8.95-.63006-.49474-1.3-1.05a35.97447,35.97447,0,0,1-8.8-4.3q-.1.09989-1.25-.8a26.27507,26.27507,0,0,1-3.15-3,69.599,69.599,0,0,1-4.55-5.55,3.27,3.27,0,0,0-.2-.35.62783.62783,0,0,0-.15-.25q-.15006-.15-.35-.35a7.60389,7.60389,0,0,0-.7-1.7,6.64125,6.64125,0,0,0-.8-1.1,35.83568,35.83568,0,0,1-1.95-4.7q-.85007-2.45-1.85-4.8l-.05-.05q-.6-2.44995-1.1-4.9a1.469,1.469,0,0,0-.05-.35,12.2721,12.2721,0,0,1-.2-2.2q-.5-5.85-.5-11.05a59.74658,59.74658,0,0,1,.8-10.2v-.35l.1-.2a.44348.44348,0,0,1,.05-.2.44365.44365,0,0,0,.05-.2.38346.38346,0,0,0,.05-.15v-.4l.1-.2a.20358.20358,0,0,1,.05-.15,1.8134,1.8134,0,0,1,0-.6,1.46936,1.46936,0,0,1,.1-.55v-.4a1.11167,1.11167,0,0,0,.15-.35q.2-.95.45-1.85.15006-.6.3-1.15.00009-.1,0-.2c.00006-.06659.00006-.13336,0-.2a38.69636,38.69636,0,0,1,2.1-6.75q1-2.55,2.15-5.05,2.7-5.25,10.15-10.15,7.4-4.95006,21.95-4.75,14.5.2,17.1.75a44.04089,44.04089,0,0,1,5.45,1.55,28.67094,28.67094,0,0,1,7.35,4.5q1.9,1.45,3.5,2.9,3.2,3.4,3.6,3.85a38.4895,38.4895,0,0,1,2.7,4.25.48616.48616,0,0,0,.1.25q1.8,5.19993,2.3,6.6.15006.7,1.3,6.45a60.28776,60.28776,0,0,1,.3,6.95q-.05,3.6-.2,7.2-1.55008,11.54994-1.8,12.5-.85007,3.8-5.1,14.2a52.18837,52.18837,0,0,1-7.1,10.4,10.26087,10.26087,0,0,0-1.1.95,31.67856,31.67856,0,0,1-6.95,5.1,39.56775,39.56775,0,0,1-2.85,2.85q5.05462.06684,10.05.6.42975-.55719.85-1.15.80007-1.8,1.6-3.6a.783.783,0,0,0,.15-.2,1.56632,1.56632,0,0,1,.4-.3,2.6271,2.6271,0,0,1,.65-.4q.15.00009.35,0c.03333.00006.06659.00006.1,0v-.05a2.85107,2.85107,0,0,1,.5.15q.1-.59994.25-1.25a.444.444,0,0,1,.05-.2.44455.44455,0,0,0,.05-.2,2.74519,2.74519,0,0,0,.15-.35q.05007-.19995.1-.4a.443.443,0,0,1,.05-.2q.00009-.15006,0-.35a2.65339,2.65339,0,0,1,.15-.55.44455.44455,0,0,0,.05-.2.783.783,0,0,0,.15-.2.1441.1441,0,0,1,.1-.05,1.99111,1.99111,0,0,1,.3-.25,2.6271,2.6271,0,0,1,.65-.4q.2.00009.45,0v-.05a2.1188,2.1188,0,0,1,.6.2,2.3077,2.3077,0,0,1,.65.3,2.61985,2.61985,0,0,0,.25.4,2.20678,2.20678,0,0,1,.3.75,2.81561,2.81561,0,0,1,.05.55q-.00009.15,0,.35.10007.00009.2,0,.05.00009.15,0,.45-.7.9-1.45a11.94866,11.94866,0,0,1,.75-1.05,123.81486,123.81486,0,0,0,4.45-12.8,72.40416,72.40416,0,0,0,1.6-7.65q1.2-10.15,1.35-16.6.15-6.45-.25-13.1-.15006-1.9-.25-3.45a66.48461,66.48461,0,0,0-1.6-9.55,53.02719,53.02719,0,0,0-3.1-8.55q-2.14993-4.7-9-10a113.38383,113.38383,0,0,0-9.45-6.85Q90.78433,26.107,84.13423,24.507Z" transform="translate(-22.02711 -3.62634)" id="path29"/>
    <path class="cls-1" d="M84.63423,15.457a4.92084,4.92084,0,0,0,.65.05q-12.90006-1.5-19.2-.7-2.75007.3501-5.4.9-2.35007.7-5.05,1.6a40.3711,40.3711,0,0,0-8.15,4.05,55.20363,55.20363,0,0,0-9.75,7.4q-9.5,9.35-13.05,27.35a139.23645,139.23645,0,0,0-2.30005,15.75,89.50433,89.50433,0,0,0-.3,10.7q.15,4.1001.45,6.95a.38378.38378,0,0,0,.05.15q0,1.3.1,2.6.15,2,.4,3.95l.8,3a16.79244,16.79244,0,0,1,.45,2.25q.35009,1.2.75,2.4.24993.74991.5,1.5v.4a10.40934,10.40934,0,0,0,.5,1.3q.8,1.9,1.45,3.85a51.51852,51.51852,0,0,0,2.7,6.45,74.60106,74.60106,0,0,0,4.45,7.5,19.16968,19.16968,0,0,0,2.95,3.45q-.15-.6-.25-1.15-.3-1.90009-.5-3.75a2.54436,2.54436,0,0,1-.05-.5.38378.38378,0,0,1-.05-.15v-.3l-.05-.05v-.1a.444.444,0,0,0-.05-.2,1.85553,1.85553,0,0,0-.05-.45,2.54436,2.54436,0,0,1-.05-.5,6.86788,6.86788,0,0,1-.25-1.4,7.58869,7.58869,0,0,0-.3-1.7q-.05009-.75-.15-1.5a5.1195,5.1195,0,0,1,.1-1.75l.1-.1v-.05a.14416.14416,0,0,1,.05-.1q-.00009-.05,0-.1v-.05l.1-.2a.14387.14387,0,0,1,.05-.1l.1-.1a.14393.14393,0,0,1,.1-.05q-.75-1.85008-1.45-4-4.05-11.95-4.8-16.2-.5-2.7-.75-5.45-.15-1.3-.2-2.55v-.05a4.60794,4.60794,0,0,1-.05-.65v-.4a2.32233,2.32233,0,0,1-.05-.45,52.00734,52.00734,0,0,1,.05-6.15.44325.44325,0,0,1,.05-.2v-.1l-.1.5q1.45-20.4,6-30.25,4-8.6,17.1-18.1.05007-.05008,6.3-3.35a28.43965,28.43965,0,0,1,12.6-3.45,48.90993,48.90993,0,0,1,12.95,1.4q6.65012,1.6,9.25,3.1a113.38383,113.38383,0,0,1,9.45,6.85q6.85007,5.3,9,10a53.02719,53.02719,0,0,1,3.1,8.55,66.48461,66.48461,0,0,1,1.6,9.55q.1,1.55.25,3.45.4,6.65.25,13.1-.15006,6.45-1.35,16.6a72.40416,72.40416,0,0,1-1.6,7.65,123.81486,123.81486,0,0,1-4.45,12.8,11.94866,11.94866,0,0,0-.75,1.05q-.45.75-.9,1.45a.38445.38445,0,0,1,.15.05l.3.2a6.48068,6.48068,0,0,1,.45,2.9q-.05,1.35-.2,2.7c.00006.03339.00006.06665,0,.1q.00009.10007,0,.2a.82081.82081,0,0,1-.05.25q-.00009.05,0,.1a.14437.14437,0,0,1-.05.1.44338.44338,0,0,1-.05.2,1.9527,1.9527,0,0,1-.1.25q.00009.05,0,.1.00009.05,0,.1.00009.05,0,.1a.144.144,0,0,0-.05.1q-.00009.10007,0,.2a.1444.1444,0,0,1-.05.1v.05a.44373.44373,0,0,0-.05.2l-.1.2q.00009.24993,0,.45a3.518,3.518,0,0,1-.2.85l-.1.2q-.00009.05,0,.1-.00009.05,0,.1a.1444.1444,0,0,1-.05.1v.25l-.1.4q-.10007.3-.2.65a25.39038,25.39038,0,0,0,4.95-5.65,71.04162,71.04162,0,0,0,5.85-12.05,77.53831,77.53831,0,0,0,3.8-13.7,82.99149,82.99149,0,0,0,1.25-14.7,97.00033,97.00033,0,0,0,.15-13.44995q-.35-5.85-3.3-20.85a37.98739,37.98739,0,0,0-15.7-24.2Q91.888,16.26751,84.63423,15.457Z" transform="translate(-22.02711 -3.62634)" id="path31"/>
  </g>
  <path class="cls-4" d="M85.23421,50.007q-3.1.3-6.15.85a.557.557,0,0,1-.25.05,39.51428,39.51428,0,0,1-4.5.65,22.034,22.034,0,0,1-4.45-.05q-2,.05-4.05-.1-2.75-.25-5.55-.5-5.40006-.55-10.75-.7a15.96437,15.96437,0,0,0-4.9.65,10.44971,10.44971,0,0,0-5,3.5,20.79687,20.79687,0,0,0-2.85,4.7q-.33966.88128-.7,2.05a.69457.69457,0,0,1,0,.2q-.09495.76-.25,1.5-.10008.75-.3,2.65a25.42472,25.42472,0,0,0-.25,2.65q0,11.45,5.15,17.25a22.38624,22.38624,0,0,0,4.45,3.7q2.85,1.7,3.9,2.5,1.9053.7705,4.05,1.4,5.75006,1.65,20.65,1.65,16,0,23.65-2.85a22.27264,22.27264,0,0,0,9.75-7.35,16.96721,16.96721,0,0,0,3.4-7,38.57243,38.57243,0,0,0,.9-6.05,53.17217,53.17217,0,0,0,0-5.8,14.92707,14.92707,0,0,0-1.45-6.05,27.1388,27.1388,0,0,0-3.05-4.75,19.34685,19.34685,0,0,0-2.45-2.5q-.4-.2-.75-.35a6.99785,6.99785,0,0,1-1-.5,15.79028,15.79028,0,0,0-6.9-1.75,82.4136,82.4136,0,0,0-10.35.35m-4.75,9.4q3.05007-.5,6.1-1.3a35.53488,35.53488,0,0,1,7.7-1.15,16.89874,16.89874,0,0,1,1.8.3,7.38369,7.38369,0,0,1,3.9,2.2q1.9801,1.42581,3.05,5.25l.05.25a26.91083,26.91083,0,0,1,1.1,5.35,4.69229,4.69229,0,0,1-.15,1.05,3.67523,3.67523,0,0,1-.1.6,23.20436,23.20436,0,0,1-.7,2.45,2.60174,2.60174,0,0,1-.1.45,6.09661,6.09661,0,0,1-.25.65,15.39506,15.39506,0,0,1-4,5.65,14.85925,14.85925,0,0,1-3.5,2.55,18.29941,18.29941,0,0,1-5,2.1q-4.2.75-16.9.75-12.25,0-17.94995-1.8a29.83459,29.83459,0,0,1-9.05005-4.55q-4.099-3.01716-3.75-9.5-.00412-.25154,0-.5a16.98913,16.98913,0,0,1,1.4-6.9,15.55357,15.55357,0,0,1,3.65-4.95q.1-.45,3.05-1.1a.55634.55634,0,0,1,.25-.05h1.4a49.9923,49.9923,0,0,1,6.2,1q1.05.25,2.1.4a1.59278,1.59278,0,0,0,.6.2,56.03178,56.03178,0,0,0,13.35,1.1,23.82166,23.82166,0,0,0,4.05-.25Q79.63423,59.557,80.48421,59.407Z" transform="translate(-22.02711 -3.62634)" id="path34"/>
  <path class="cls-5" d="M93.18422,65.057a12.03732,12.03732,0,0,0-3.15.25,103.15132,103.15132,0,0,1-11.05,2.3,46.94087,46.94087,0,0,1-18.8-.7,18.178,18.178,0,0,1-3.15-1q-6.80009-1.3-11.30005,1.25a7.65328,7.65328,0,0,0-2.85,2.7l-.1.2q-.02619.07013-.05005.15-.00412.24843,0,.5-.349,6.4828,3.75,9.5a29.83459,29.83459,0,0,0,9.05005,4.55q5.7,1.8,17.95,1.8,12.7,0,16.9-.75a18.29941,18.29941,0,0,0,5-2.1,14.85925,14.85925,0,0,0,3.5-2.55,15.39506,15.39506,0,0,0,4-5.65,6.09661,6.09661,0,0,0,.25-.65,2.60174,2.60174,0,0,0,.1-.45,23.20436,23.20436,0,0,0,.7-2.45,3.67523,3.67523,0,0,0,.1-.6,9.062,9.062,0,0,0-4.5-4.4q-.40275-.22637-.85-.45a13.1011,13.1011,0,0,0-3.15-1.15q-1.15329-.13966-2.35-.3m6.35,7.8a1.33326,1.33326,0,0,0,.25.35l.2.4q.2.35.4.75a4.939,4.939,0,0,1,.25.75v.75a6.36452,6.36452,0,0,1-.2,1.1,5.19646,5.19646,0,0,1-.55,1.15,23.4002,23.4002,0,0,1-3.15,2.55,20.78852,20.78852,0,0,1-3.1,1.8,27.811,27.811,0,0,1-16.5-.3,1.87563,1.87563,0,0,1-1.25-1.45v-.35a1.1084,1.1084,0,0,0-.05-.35,1.64431,1.64431,0,0,0-.05-.4,1.64457,1.64457,0,0,0,.05-.4q.05-.15.1-.35a.8872.8872,0,0,1,.1-.4q.1-.35.25-.75l.35-.35q.15006-.2.25-.35l.4-.4a5.58647,5.58647,0,0,1,.6-.35l.5-.3a27.71309,27.71309,0,0,0,17-4,2.54481,2.54481,0,0,1,.5-.05q.45-.05.9-.1v-.1a12.01813,12.01813,0,0,1,1.55.5A7.07084,7.07084,0,0,1,99.53426,72.857Z" transform="translate(-22.02711 -3.62634)" id="path36"/>
  <path class="cls-6" d="M99.78426,73.207a1.33326,1.33326,0,0,1-.25-.35,7.07084,7.07084,0,0,0-1.2-.65,12.01813,12.01813,0,0,0-1.55-.5v.1q-.45.05-.9.1a2.54481,2.54481,0,0,0-.5.05,27.71309,27.71309,0,0,1-17,4l-.5.3a5.58647,5.58647,0,0,0-.6.35l-.4.4q-.1.15-.25.35l-.35.35q-.15006.4-.25.75a.8872.8872,0,0,0-.1.4q-.05.2-.1.35a1.64457,1.64457,0,0,1-.05.4,1.64431,1.64431,0,0,1,.05.4,1.1084,1.1084,0,0,1,.05.35v.35a1.87563,1.87563,0,0,0,1.25,1.45,27.811,27.811,0,0,0,16.5.3,20.78852,20.78852,0,0,0,3.1-1.8,23.4002,23.4002,0,0,0,3.15-2.55,5.19646,5.19646,0,0,0,.55-1.15,6.36452,6.36452,0,0,0,.2-1.1v-.75a4.939,4.939,0,0,0-.25-.75q-.2-.4-.4-.75Z" transform="translate(-22.02711 -3.62634)" id="path38"/>
  <path class="cls-7" d="M86.58425,58.107q-3.05.8-6.1,1.3-.85.15-1.7.25a23.82166,23.82166,0,0,1-4.05.25,56.03178,56.03178,0,0,1-13.35-1.1,1.59278,1.59278,0,0,1-.6-.2q-1.05-.15-2.1-.4a49.9923,49.9923,0,0,0-6.2-1h-1.4a.55634.55634,0,0,0-.25.05q-2.95.65-3.05,1.1a15.55357,15.55357,0,0,0-3.65,4.95,16.98913,16.98913,0,0,0-1.4,6.9q.0239-.07988.05005-.15l.1-.2a7.65328,7.65328,0,0,1,2.85-2.7q4.5-2.55,11.30005-1.25a18.178,18.178,0,0,0,3.15,1,46.94087,46.94087,0,0,0,18.8.7,103.15132,103.15132,0,0,0,11.05-2.3,12.03732,12.03732,0,0,1,3.15-.25q1.19677.16039,2.35.3a13.1011,13.1011,0,0,1,3.15,1.15q.44724.22367.85.45a9.062,9.062,0,0,1,4.5,4.4,4.69229,4.69229,0,0,0,.15-1.05,26.91083,26.91083,0,0,0-1.1-5.35l-.05-.25q-1.07-3.82419-3.05-5.25a7.38369,7.38369,0,0,0-3.9-2.2,16.89874,16.89874,0,0,0-1.8-.3A35.53488,35.53488,0,0,0,86.58425,58.107Z" transform="translate(-22.02711 -3.62634)" id="path40"/>
  <g id="Layer4_12_MEMBER_4_MEMBER_1_FILL" data-name="Layer4 12 MEMBER 4 MEMBER 1 FILL">
    <path d="M73.78426,131.707a34.72387,34.72387,0,0,0,9.6-1.7,50.04923,50.04923,0,0,0,8.1-7.15q1.33448-1.4241,2.55-2.95.75-.90006,1.45-1.8-2.75,1.49991-6.9,3.7l-2.25.7a64.01054,64.01054,0,0,1-13.55,2.05h-.65a53.70421,53.70421,0,0,1-8-1.1.94566.94566,0,0,0-.3-.05q-.7-.24994-1.4-.45-.5-.15-1.1-.35-.85-.34992-1.7-.8a5.55077,5.55077,0,0,0-2.05-.7.144.144,0,0,0-.1-.05q-1.65-.75-4.85-2.25a19.49664,19.49664,0,0,1-2.9-1.75,79.51442,79.51442,0,0,0,7.4,6.9q1.868,1.54047,3.8,2.95,2.8,2.05,5.75,3.8A30.59664,30.59664,0,0,0,73.78426,131.707Z" transform="translate(-22.02711 -3.62634)" id="path42"/>
  </g>
</svg>