<?xml version="1.0" encoding="UTF-8"?>
<svg width="124px" height="176px" viewBox="0 0 124 176" version="1.1" xmlns="http://www.w3.org/2000/svg" xmlns:xlink="http://www.w3.org/1999/xlink">
    <title>ico-black-player</title>
    <g id="Page-1" stroke="none" stroke-width="1" fill="none" fill-rule="evenodd">
        <g id="ico-black-player" transform="translate(62.000000, 88.000000) scale(-1, 1) translate(-62.000000, -88.000000) " fill-rule="nonzero">
            <g id="Layer4_11_MEMBER_0_FILL">
                <path d="M32.84997,15.34999 C29.9432289,18.3802272 27.2057424,21.5683974 24.64997,24.89999 C24.38337,25.29999 20.98337,30.44999 14.44997,40.34999 C7.97979667,50.98671 4.16315333,58.1367133 3.00004,61.8 C1.92095239,65.2280838 1.23324404,68.7672658 0.95004,72.35 C0.745762936,74.9616955 0.712358442,77.5839483 0.85004,80.2 C0.982846667,82.06224 1.13284667,84.16224 1.30004,86.4999996 C1.47479333,88.8372533 2.67479333,92.20392 4.90004,96.6 C6.53563497,100.047302 8.60214679,103.273077 11.05004,106.2 C13.4533866,108.681217 16.1190038,110.894182 19.00004,112.8 C23.455425,116.185593 28.2276127,119.132629 33.25004,121.6 C35.9683337,122.925574 38.7750264,124.061616 41.65004,125 C41.8058,125.08972 41.9558,125.173053 42.10004,125.25 C52.6011265,130.891424 64.8150339,132.458222 76.40004,129.65 C80.1828154,128.191591 83.8442448,126.436111 87.35004,124.4 C91.8697145,121.849926 95.724093,118.269637 98.60004,113.95 C101.083212,114.156083 103.581502,114.089015 106.05004,113.75 C113.483333,113.316667 118.65,109.583333 121.55004,102.55 C123.231822,98.1998481 124.047107,93.5629166 123.95004,88.9 C123.94998,87.2 123.683313,84.0666667 123.15004,79.4999996 C122.616707,74.9333333 122.35004,71.8166667 122.35004,70.15 C122.842854,65.785152 123.009983,61.3896677 122.85004,56.9999996 C122.761373,55.3453333 122.611373,53.4453333 122.40004,51.3 C122.131973,50.0255333 121.431973,47.1588667 120.30004,42.7 C119.19204,38.272 117.59204,35.1886667 115.50004,33.45 C112.799904,31.3860917 109.798065,29.7502581 106.60004,28.6 C106.53168,28.41784 106.465013,28.2345067 106.40004,28.05 C105.863675,26.4873006 105.177133,24.9802571 104.35004,23.55 C103.820629,21.9443814 103.116404,20.4017923 102.25004,18.95 C100.650244,16.2177097 98.7555817,13.6691369 96.60004,11.35 C93.90992,8.34974 88.70992,5.69974 81.00004,3.4 C73.29728,1.13256 67.4306133,-3.9549491e-07 63.40004,-3.9549491e-07 C62.7333733,-3.9549491e-07 62.45004,0.0333333333 62.55004,0.1 C59.1528532,0.227931484 55.7887776,0.816644704 52.55004,1.85 C50.3265199,2.67030122 48.2370824,3.81612175 46.35004,5.25 C44.7703839,6.50913276 43.0404805,7.56722901 41.20004,8.4 C39.1771533,9.34492 36.39382,11.6615867 32.85004,15.35 M48.30004,12.5 C49.0028,12.0430867 50.1028,11.3597533 51.60004,10.45 C53.1018133,9.5694 56.76848,8.78606667 62.60004,8.1 L67.20004,8.4 C71.30004,9.33333333 74.3333733,10.0666667 76.30004,10.6 L78.00004,11.15 C79.8701306,11.730342 81.7063269,12.4147425 83.50004,13.2 C85.7789483,14.1565928 87.8892162,15.4734 89.75004,17.1 L89.75004,17.1 C89.9969232,17.3193782 90.2306618,17.5531168 90.45004,17.8 L91.05004,18.5 C92.8219,20.8555867 94.5052333,23.2722533 96.10004,25.75 C96.2360933,25.9653333 96.3694267,26.182 96.50004,26.4 C96.91282,27.08698 97.2961533,27.78698 97.65004,28.5 C97.6704939,28.512392 97.687648,28.5295461 97.70004,28.55 C98.5619585,30.2714684 99.2810421,32.0608159 99.85004,33.9 C100.45008,35.8666667 100.966747,37.85 101.40004,39.85 L101.40004,40.2 C101.533373,46.4333333 101.50004,51.5666667 101.30004,55.6 C101.10004,59.1333333 100.65004,63.65 99.95004,69.15 C99.55004,72.2166667 99.2667067,74.1333333 99.10004,74.9 C99.00004,75.5333333 98.70004,76.9 98.20004,79 C97.3996003,83.0563723 96.9148147,87.1686915 96.75004,91.3 C96.4463113,95.6163556 95.6237189,99.8804064 94.30004,104 C94.0977851,104.530147 93.8640353,105.047736 93.60004,105.55 C93.10718,106.492447 92.5905133,107.392447 92.05004,108.25 C91.9093,108.416807 91.7759667,108.583473 91.65004,108.75 L91.65004,108.85 C86.27168,117.00576 78.3550133,121.689093 67.90004,122.9 L62.05004,122.9 C60.47674,122.67682 58.9100733,122.42682 57.35004,122.15 C53.7442272,122.530565 50.1093773,121.77913 46.95004,120 C46.01608,119.496367 45.0827467,118.9797 44.15004,118.45 C40.4500867,116.216667 38.0000867,114.833333 36.80004,114.3 C35.4852267,113.692427 34.16856,113.059093 32.85004,112.4 C31.1504834,111.557125 29.4980415,110.62241 27.90004,109.6 C23.1644584,107.198208 19.0422803,103.743105 15.85004,99.5 C11.6131504,94.0207131 9.34145449,87.2760657 9.40004,80.35 C9.40004,78.2354133 9.46670667,76.4187467 9.60004,74.9 L9.60004,74.9 C9.68682228,73.9245768 9.83714143,72.9558534 10.05004,72 C10.4354815,71.0909035 10.6880711,70.131063 10.80004,69.15 C10.86084,68.4938733 10.96084,67.7938733 11.10004,67.05 L15.75004,53.85 C15.8092259,53.7548629 15.8594419,53.654431 15.90004,53.55 C15.993395,53.3885354 16.0768813,53.2215628 16.15004,53.05 C16.1798533,53.0053869 16.1971228,52.9535784 16.20004,52.9 C16.2819133,52.774828 16.3490264,52.6406019 16.40004,52.5 C16.4394946,52.4543631 16.4730885,52.4039723 16.50004,52.35 C16.5474497,52.2730111 16.5812754,52.188447 16.60004,52.1 C16.6468011,52.0603855 16.6814578,52.0084004 16.70004,51.95 C16.7740889,51.8204873 16.8408592,51.6869467 16.90004,51.55 C17.55098,50.2583467 18.25098,48.9083467 19.00004,47.5 C24.45646,37.2541733 30.5397933,29.1375067 37.25004,23.15 C37.2413734,23.1731035 37.2231435,23.1913334 37.20004,23.2 C42.6693733,18.4357933 45.7193733,15.5857933 46.35004,14.65 C46.8703767,13.8256248 47.5302227,13.0981022 48.30004,12.5 M109.30004,38.6 C109.289075,38.5482768 109.272302,38.4979578 109.25004,38.45 C109.527978,38.5979145 109.79529,38.7649844 110.05004,38.95 C110.55004,39.35 111.05004,39.7833333 111.55004,40.25 C111.716901,40.5412691 111.867141,40.8417497 112.00004,41.15 C112.907807,44.8514333 113.59114,48.3181 114.05004,51.55 C114.073256,51.6148564 114.090004,51.6818487 114.10004,51.75 L114.90004,62 C114.883007,63.65354 114.883007,65.2702067 114.90004,66.85 L114.90004,66.9 C114.92818,71.4866667 115.07818,75.77 115.35004,79.75 C115.75004,85.45 115.95004,88.4666667 115.95004,88.8 C115.824075,91.7282438 115.43924,94.6395976 114.80004,97.5 C114.07568,101.39728 112.32568,103.963947 109.55004,105.2 C106.762807,106.445453 104.879473,106.878787 103.90004,106.5 C102.964487,106.143647 102.481153,105.960313 102.45004,105.95 C102.77456,104.96718 103.057893,103.950513 103.30004,102.9 C103.488197,101.036671 103.771904,99.1842327 104.15004,97.35 C104.518072,95.4488075 104.785113,93.5294505 104.95004,91.6 C105.25004,84.7333333 105.666707,80.6833333 106.20004,79.45 C106.768194,78.1629654 107.139029,76.7976167 107.30004,75.4 C107.866707,71.8333333 108.366707,68.7333333 108.80004,66.1 C109.4409,62.0785179 109.82501,58.0203055 109.95004,53.95 L109.90004,49.85 L109.85004,45.05 C109.85718,44.7814867 109.85718,44.51482 109.85004,44.25 C109.848963,43.4777549 109.696063,42.7132561 109.40004,42 L109.40004,39.75 C109.36666,39.3833333 109.333307,38.9999967 109.29998,38.59999 L109.30004,38.6 Z" id="path6" fill="#000000"/>
                <path d="M114.89996,61.99998 L114.09996,51.74998 C114.089924,51.6818287 114.073176,51.6148364 114.04996,51.54998 C112.939224,50.46689 111.451335,49.8573934 109.89996,49.84998 L109.94996,53.94998 C109.82493,58.0202855 109.44082,62.0784979 108.79996,66.09998 C108.366627,68.7333133 107.866627,71.8333133 107.29996,75.39998 C107.138949,76.7975967 106.768114,78.1629454 106.19996,79.44998 C105.666627,80.6833133 105.24996,84.7333133 104.94996,91.59998 C104.785033,93.5294305 104.517992,95.4487875 104.14996,97.34998 C103.771824,99.1842127 103.488117,101.036651 103.29996,102.89998 C103.05778,103.95048 102.774447,104.967147 102.44996,105.94998 C102.481087,105.96026 102.96442,106.143593 103.89996,106.49998 C104.879447,106.878767 106.76278,106.445433 109.54996,105.19998 C112.3256,103.96392 114.0756,101.397253 114.79996,97.49998 C115.43916,94.6395776 115.823995,91.7282238 115.94996,88.79998 C115.94996,88.4666467 115.7499,85.44998 115.34996,79.74998 C115.078053,75.7700267 114.928053,71.4866933 114.89996,66.89998 L114.89996,66.84998 C114.882927,65.27018 114.882927,63.6535133 114.89996,61.99998 M17.54996,86.69998 C15.64996,84.49998 13.8332933,82.2166467 12.09996,79.84998 C11.1315577,78.4799255 10.35754,76.9823696 9.79996,75.39998 C9.73929333,75.2407067 9.67262667,75.07404 9.59996,74.89998 C9.46662667,76.41872 9.39996,78.2353867 9.39996,80.34998 C9.34137449,87.2760457 11.6130704,94.0206931 15.84996,99.49998 C19.0422003,103.743085 23.1643784,107.198188 27.89996,109.59998 C29.4979615,110.62239 31.1504034,111.557105 32.84996,112.39998 C34.1685,113.059073 35.4851667,113.692407 36.79996,114.29998 C37.99992,114.833313 40.44992,116.216647 44.14996,118.44998 C45.0826267,118.979667 46.01596,119.496333 46.94996,119.99998 C50.1092973,121.77911 53.7441472,122.530545 57.34996,122.14998 C58.91002,122.4268 60.4766867,122.6768 62.04996,122.89998 L67.89996,122.89998 C78.35492,121.68904 86.2715867,117.005707 91.64996,108.84998 L91.64996,108.74998 C91.77596,108.583453 91.9092933,108.416787 92.04996,108.24998 C92.5904267,107.39244 93.1070933,106.49244 93.59996,105.54998 C93.8639553,105.047716 94.0977051,104.530127 94.29996,103.99998 C95.6236389,99.8803864 96.4462313,95.6163356 96.74996,91.29998 C96.9147347,87.1686715 97.3995203,83.0563523 98.19996,78.99998 C98.6999,76.89998 98.9999,75.5333133 99.09996,74.89998 C99.2666267,74.13328 99.54996,72.2166133 99.94996,69.14998 C100.64996,63.64998 101.09996,59.1333133 101.29996,55.59998 C101.49992,51.5666467 101.533253,46.4333133 101.39996,40.19998 L101.39996,39.84998 C100.966673,37.84998 100.450007,35.8666467 99.84996,33.89998 C99.2809621,32.0607959 98.5618785,30.2714484 97.69996,28.54998 C97.9166933,29.4357733 98.13336,30.3191067 98.34996,31.19998 C98.4838046,31.7391134 98.5343897,32.2955489 98.49996,32.84998 C98.7014962,33.3242001 98.803601,33.8347245 98.79996,34.34998 C98.7666267,35.04998 98.74996,35.7333133 98.74996,36.39998 C98.75002,36.6666467 98.75002,36.9166467 98.74996,37.14998 C98.8824711,37.3808084 98.9674718,37.6358107 98.99996,37.89998 C99.0563248,38.1463659 99.0898004,38.3974334 99.09996,38.64998 C99.1666267,39.04998 99.3332933,40.29998 99.59996,42.39998 C99.5069782,46.5619424 99.0721821,50.7092283 98.29996,54.79998 C97.1387895,61.818014 95.1759448,68.6795824 92.44996,75.24998 C84.61658,93.6166467 72.31658,102.79998 55.54996,102.79998 C51.6686031,102.860726 47.7931379,102.474857 43.99996,101.64998 C39.0958292,100.320068 34.2852773,98.6664407 29.59996,96.69998 C26.9911307,95.2078964 24.5446261,93.4484239 22.29996,91.44998 C20.6344126,89.9510662 19.0488938,88.3655474 17.54998,86.7 L17.54996,86.69998 Z" id="path8" fill="#1E1F26"/>
                <path d="M109.25004,38.45 C109.272302,38.4979578 109.289075,38.5482768 109.30004,38.6 C109.333373,39 109.366707,39.3833333 109.40004,39.75 L109.40004,42 C109.696063,42.7132561 109.848963,43.4777549 109.85004,44.25 C109.85718,44.5148333 109.85718,44.7815 109.85004,45.05 L109.90004,49.85 C111.451415,49.8574134 112.939304,50.46691 114.05004,51.55 C113.59118,48.3181 112.907847,44.8514333 112.00004,41.15 C111.867141,40.8417497 111.716901,40.5412691 111.55004,40.25 C111.05004,39.7833333 110.55004,39.35 110.05004,38.95 C109.79529,38.7649844 109.527978,38.5979145 109.25004,38.45 M51.60004,10.45 C50.1027933,11.3597733 49.0027933,12.0431067 48.30004,12.5 C47.5302227,13.0981022 46.8703767,13.8256248 46.35004,14.65 C45.7194333,15.5858133 42.6694333,18.4358133 37.20004,23.2 C37.2231435,23.1913334 37.2413734,23.1731035 37.25004,23.15 C30.5397733,29.1375133 24.45644,37.25418 19.00004,47.5 C18.2508867,48.90836 17.5508867,50.25836 16.90004,51.55 C16.8408592,51.6869467 16.7740889,51.8204873 16.70004,51.95 C16.6814578,52.0084004 16.6468011,52.0603855 16.60004,52.1 C16.5812754,52.188447 16.5474497,52.2730111 16.50004,52.35 C16.4730885,52.4039723 16.4394946,52.4543631 16.40004,52.5 C16.3490264,52.6406019 16.2819133,52.774828 16.20004,52.9 C16.1971228,52.9535784 16.1798533,53.0053869 16.15004,53.05 C16.0768813,53.2215628 15.993395,53.3885354 15.90004,53.55 C15.8594419,53.654431 15.8092259,53.7548629 15.75004,53.85 L11.10004,67.05 C10.96088,67.7938667 10.86088,68.4938667 10.80004,69.15 C10.6880711,70.131063 10.4354815,71.0909035 10.05004,72 C9.83714143,72.9558534 9.68682228,73.9245768 9.60004,74.9 L9.60004,74.9 C9.67270667,75.0740733 9.73937333,75.24074 9.80004,75.4 C10.35762,76.9823896 11.1316377,78.4799455 12.10004,79.85 C13.8333733,82.2167 15.65004,84.5000333 17.55004,86.7 C19.0489598,88.3655548 20.6344852,89.9510802 22.30004,91.45 C24.5447061,93.4484439 26.9912107,95.2079164 29.60004,96.7 C34.2853573,98.6664607 39.0959092,100.320088 44.00004,101.65 C47.7932179,102.474877 51.6686831,102.860746 55.55004,102.8 C72.3166467,102.8 84.6166467,93.6166667 92.45004,75.25 C95.1760248,68.6796024 97.1388695,61.818034 98.30004,54.8 C99.0722621,50.7092483 99.5070582,46.5619624 99.60004,42.4 C99.3333733,40.3 99.1667067,39.05 99.10004,38.65 C99.0898804,38.3974534 99.0564048,38.1463859 99.00004,37.9 C98.9675518,37.6358307 98.8825511,37.3808284 98.75004,37.15 C98.7501,36.9166667 98.7501,36.6666667 98.75004,36.4 C98.7501,35.7333333 98.7667667,35.05 98.80004,34.35 C98.803681,33.8347445 98.7015762,33.3242201 98.50004,32.85 C98.5344697,32.2955689 98.4838846,31.7391334 98.35004,31.2 C98.1334933,30.31914 97.9168267,29.4358067 97.70004,28.55 C97.687648,28.5295461 97.6704939,28.512392 97.65004,28.5 C97.29616,27.7869733 96.9128267,27.0869733 96.50004,26.4 C96.3693733,26.1820467 96.23604,25.96538 96.10004,25.75 C94.5052533,23.27226 92.82192,20.8555933 91.05004,18.5 L90.45004,17.8 C90.2306618,17.5531168 89.9969232,17.3193782 89.75004,17.1 L89.75004,17.1 C87.8892162,15.4734 85.7789483,14.1565928 83.50004,13.2 C81.7063269,12.4147425 79.8701306,11.730342 78.00004,11.15 L76.30004,10.6 C74.3333733,10.0666667 71.30004,9.33333333 67.20004,8.4 L62.60004,8.1 C56.7685,8.78606 53.1018333,9.56939333 51.60004,10.45 M90.85004,20.15 L90.95004,20.35 L91.05004,20.55 L91.05004,20.75 C90.95204,20.5079333 90.85204,20.2579333 90.75004,20 C90.6727067,19.7920467 90.5893733,19.57538 90.50004,19.35 L90.55004,19.4 C90.6145025,19.5274532 90.6648028,19.6615873 90.70004,19.8 C90.769781,19.9071683 90.8205021,20.0255694 90.84997,20.14999 L90.85004,20.15 Z" id="path10" fill="#3F474E"/>
                <path d="M90.94995,20.34999 L90.84995,20.14999 C90.8204616,20.0255614 90.7697166,19.9071565 90.69995,19.79999 C90.6647128,19.6615773 90.6144125,19.5274432 90.54995,19.39999 L90.49995,19.34999 C90.5892433,19.5753767 90.6725767,19.7920433 90.74995,19.99999 C90.8518833,20.2579233 90.9518833,20.5079233 91.04995,20.74999 L91.04995,20.54999 L90.94995,20.34999 Z" id="path12" fill="#422E8B"/>
            </g>
            <g id="Layer4_11_MEMBER_1_FILL" transform="translate(48.000000, 104.000000)">
                <path d="M6.00004,16.90001 C5.44935302,16.6606231 4.84901645,16.5577083 4.25004,16.60001 C4.01429838,16.6134858 3.78012517,16.6469391 3.55004,16.70001 C2.08921616,16.9677355 0.91775643,18.061098 0.55004,19.50001 C0.549838984,19.6348892 0.533046203,19.7692315 0.50004,19.90001 C0.366260669,21.5129982 0.316193476,23.1318375 0.35004,24.75001 L0.35004,25.50001 C1.6356838,35.1359822 4.54343849,44.4847516 8.95004,53.15001 C12.71676,60.39165 17.7834267,65.4083167 24.15004,68.20001 L25.00004,68.55001 C25.62804,68.79073 26.2447067,69.0073967 26.85004,69.20001 C30.1730008,70.3947911 33.6693808,71.0366386 37.20004,71.10001 C44.50004,71.10001 49.7667233,69.6166767 53.00009,66.65001 C55.80009,64.0833433 57.40009,62.2833433 57.80009,61.25001 C58.2667567,60.05001 58.50009,56.9166767 58.50009,51.85001 C58.45673,49.7919764 58.1027365,47.7522996 57.45009,45.80001 C57.023863,44.5596279 56.6896245,43.2895217 56.45009,42.00001 C54.5512833,36.9463567 53.4512833,34.1963567 53.15009,33.75001 C53.0702236,33.6298689 53.0189136,33.4930422 53.00009,33.35001 C52.46701,32.8738433 51.9836767,31.5071767 51.55009,29.25001 C51.14891,27.01903 50.84891,25.16903 50.65009,23.70001 C50.499754,22.4721197 50.4162974,21.236963 50.40009,20.00001 L50.40009,18.15001 C50.8676293,15.6755349 51.1351605,13.1674302 51.20009,10.65001 C51.2314784,8.64287869 51.3817416,6.63936931 51.65009,4.65001 C51.5861863,4.26270926 51.5027465,3.87888622 51.40009,3.50001 C51.3026947,3.10564312 51.133175,2.73269974 50.90009,2.40001 C50.7334233,2.13331 50.5667567,1.88331 50.40009,1.65001 C50.043545,1.38903883 49.6575642,1.17087576 49.25009,1.00001 C48.7266766,0.803117135 48.1924791,0.636180408 47.65009,0.50001 L47.65009,0.55001 C47.3712472,0.614217872 47.0862208,0.647750388 46.80009,0.65001 C45.9649399,0.828737452 45.2722969,1.40905995 44.95009,2.20001 C44.71193,2.74025667 44.4785967,3.29025667 44.25009,3.85001 C43.2934954,6.50740362 42.70471,9.28310661 42.50009,12.10001 C42.496276,12.169247 42.4793068,12.2371237 42.45009,12.30001 C42.1551731,16.7001285 42.2555755,21.1178331 42.75009,25.50001 C42.6167233,27.4333433 43.3500567,30.5166767 44.95009,34.75001 C45.8167567,37.05001 47.00009,40.0833433 48.50009,43.85001 C49.056669,45.6180892 49.4910266,47.4223437 49.80009,49.25001 C50.1631487,51.0799156 50.3804969,52.9357346 50.45009,54.80001 C50.45003,56.80001 50.15003,58.1666767 49.55009,58.90001 C47.7167567,61.2333433 43.50009,62.40001 36.90009,62.40001 C31.4334233,62.40001 27.25009,61.4333433 24.35009,59.50001 C23.3840788,58.796332 22.4957382,57.9917971 21.70009,57.10001 C20.70149,56.0547167 19.50149,54.68805 18.10009,53.00001 C17.8707567,52.72307 17.6374233,52.4397367 17.40009,52.15001 C14.0997061,47.6175906 11.7058597,42.4903453 10.35009,37.05001 C9.19808091,33.3017836 8.54249357,29.4186893 8.40009,25.50001 C8.41089,25.29155 8.41089,25.0748833 8.40009,24.85001 C8.42481,23.7837633 8.42481,22.70043 8.40009,21.60001 C8.40435667,21.41007 8.40435667,21.21007 8.40009,21.00001 C8.36991559,19.7749505 7.92978407,18.595398 7.15009,17.65001 C7.09725802,17.6029245 7.04717547,17.552842 7.00009,17.50001 C6.9631376,17.4918614 6.92878035,17.4746827 6.90009,17.45001 C6.7743388,17.3551182 6.64049043,17.271463 6.50009,17.20001 C6.34150198,17.0870969 6.17430649,16.9867897 6.00004,16.90001 Z" id="path15" fill="#000000"/>
                <path d="M13.44995,13.65001 C13.5623923,13.5762085 13.679281,13.5094149 13.79995,13.45001 C14.2107968,13.1629141 14.6457584,12.9119747 15.09995,12.70001 C15.4277123,12.5365481 15.7449914,12.3528602 16.04995,12.15001 C16.1302226,12.0950772 16.2137045,12.044988 16.29995,12.00001 C16.4274046,11.9355507 16.5615384,11.8852506 16.69995,11.85001 C16.7459378,11.8231131 16.7970216,11.8060852 16.84995,11.80001 C16.9439032,11.7703289 17.0295475,11.7189423 17.09995,11.65001 C17.2742547,11.5446539 17.4412963,11.4277248 17.59995,11.30001 L17.79995,11.10001 C18.4666167,11.0333433 19.1166167,10.9666767 19.74995,10.90001 C20.3644435,10.8343468 20.9819589,10.8009675 21.59995,10.80001 C22.5234702,11.0947815 23.3869979,11.5519432 24.14995,12.15001 C26.3357491,13.6651063 27.6573577,16.1407957 27.69995,18.80001 C27.7332833,19.80001 27.74995,20.80001 27.74995,21.80001 C27.7177873,21.8618171 27.7006569,21.930339 27.69995,22.00001 C27.6730526,22.0459975 27.6560246,22.0970815 27.64995,22.15001 L27.64995,22.35001 C27.6166167,22.55001 27.5832833,22.7333433 27.54995,22.90001 C27.4832367,23.10001 27.41657,23.30001 27.34995,23.50001 C27.31657,23.60001 27.2832367,23.7166767 27.24995,23.85001 L27.14995,24.25001 C27.1246077,24.3048992 27.09087,24.3555059 27.04995,24.40001 L27.04995,24.80001 C27.0492116,24.869677 27.032083,24.9381917 26.99995,25.00001 C27.00001,25.0666767 27.00001,25.1166767 26.99995,25.15001 C27.00001,25.2166767 27.00001,25.2833433 26.99995,25.35001 C27.00001,25.4166767 27.00001,25.4833433 26.99995,25.55001 C26.9677873,25.6118171 26.9506569,25.680339 26.94995,25.75001 C26.9230526,25.7959975 26.9060246,25.8470815 26.89995,25.90001 C26.5291847,28.3490366 26.6481495,30.847296 27.24995,33.25001 C27.6782298,35.1367677 28.3682445,36.9543676 29.29995,38.65001 C30.19995,40.25001 31.0166167,41.8833433 31.74995,43.55001 C31.75001,43.6166767 31.75001,43.6833433 31.74995,43.75001 C31.7820741,43.8118317 31.7992023,43.8803442 31.79995,43.95001 C31.8059978,44.0029444 31.8230276,44.0540338 31.84995,44.10001 L31.84995,44.30001 C31.882118,44.361815 31.8992488,44.4303383 31.89995,44.50001 C31.9006865,44.5696772 31.9178153,44.6381923 31.94995,44.70001 C31.9560022,44.7529434 31.9730317,44.8040319 31.99995,44.85001 C32.00001,44.9166767 32.00001,44.9833433 31.99995,45.05001 C32.00001,45.1833433 32.00001,45.30001 31.99995,45.40001 C32.0329594,45.5307879 32.0497522,45.6651306 32.04995,45.80001 C32.0832833,45.9333433 32.1166167,46.05001 32.14995,46.15001 L32.24995,46.55001 C32.25001,46.6166767 32.25001,46.6833433 32.24995,46.75001 C32.25001,46.8166767 32.25001,46.8833433 32.24995,46.95001 C32.25001,46.9833433 32.25001,47.0333433 32.24995,47.10001 C32.25001,47.1666767 32.25001,47.2333433 32.24995,47.30001 L32.14995,47.70001 C32.1174711,47.9641814 32.0324697,48.2191855 31.89995,48.45001 C31.7967922,48.6236692 31.7129593,48.8081015 31.64995,49.00001 C31.5832833,49.1666767 31.5166167,49.35001 31.44995,49.55001 C31.4491832,49.6196733 31.4320562,49.6881815 31.39995,49.75001 C29.9351771,51.0971842 28.1693646,52.0743814 26.24995,52.60001 C25.3832833,52.8333433 24.5332833,53.0833433 23.69995,53.35001 C21.576151,53.0870419 19.4717076,52.6861955 17.39995,52.15001 C17.6373167,52.4397433 17.87065,52.7230767 18.09995,53.00001 C19.5013833,54.6880567 20.7013833,56.0547233 21.69995,57.10001 C22.4955982,57.9917971 23.3839388,58.796332 24.34995,59.50001 C27.24995,61.4333433 31.4332833,62.40001 36.89995,62.40001 C43.49995,62.40001 47.7166167,61.2333433 49.54995,58.90001 C50.14995,58.1666767 50.44995,56.80001 50.44995,54.80001 C50.3803569,52.9357346 50.1630087,51.0799156 49.79995,49.25001 C49.4908866,47.4223437 49.056529,45.6180892 48.49995,43.85001 C47.00001,40.0833433 45.8166767,37.05001 44.94995,34.75001 C43.34995,30.5166767 42.6166167,27.4333433 42.74995,25.50001 C42.2554355,21.1178331 42.1550331,16.7001285 42.44995,12.30001 C42.4791668,12.2371237 42.496136,12.169247 42.49995,12.10001 C42.70457,9.28310661 43.2933554,6.50740362 44.24995,3.85001 C42.9487225,3.07610504 41.5541494,2.47122996 40.09995,2.05001 C37.4087613,1.2511251 34.6053008,0.896470456 31.79995,1.00001 C26.6562495,0.330351476 21.4334216,1.32934876 16.89995,3.85001 C14.4993046,5.1943733 12.2235886,6.75056143 10.09995,8.50001 C7.41942633,10.5888346 5.39008943,13.3986857 4.24995,16.60001 C5.04857783,16.5117949 5.8512886,16.7258511 6.49995,17.20001 C6.64035043,17.271463 6.7741988,17.3551182 6.89995,17.45001 C6.92864035,17.4746827 6.9629976,17.4918614 6.99995,17.50001 C7.04703547,17.552842 7.09711802,17.6029245 7.14995,17.65001 C7.92964407,18.595398 8.36977559,19.7749505 8.39995,21.00001 C8.40421667,21.21007 8.40421667,21.41007 8.39995,21.60001 C8.82808099,20.7367996 9.21191278,19.8523177 9.54995,18.95001 C9.93033856,17.915583 10.5076554,16.9647083 11.24995,16.15001 C11.5833233,15.7833433 11.89999,15.40001 12.19995,15.00001 C12.3666264,14.8666889 12.5332931,14.7333555 12.69995,14.60001 L12.79995,14.40001 C12.8319197,14.3347503 12.8846903,14.2819797 12.94995,14.25001 C13.0499553,14.1166807 13.1499553,13.9833473 13.24995,13.85001 L13.44995,13.65001 Z" id="path17" fill="#1E1F26"/>
                <path d="M13.79998,13.45 C13.679311,13.5094049 13.5624223,13.5761985 13.44998,13.65 L13.24998,13.85 C13.1499853,13.9833373 13.0499853,14.1166707 12.94998,14.25 C12.8847203,14.2819697 12.8319497,14.3347403 12.79998,14.4 L12.69998,14.6 C12.5333231,14.7333455 12.3666564,14.8666789 12.19998,15 C11.89998,15.4 11.5833133,15.7833333 11.24998,16.15 C10.5076854,16.9646983 9.93036856,17.915573 9.54998,18.95 C9.21194278,19.8523077 8.82811099,20.7367896 8.39998,21.6 C8.4247,22.7004 8.4247,23.7837333 8.39998,24.85 C8.41078,25.07488 8.41078,25.2915467 8.39998,25.5 C8.54238357,29.4186793 9.19797091,33.3017736 10.34998,37.05 C11.7057497,42.4903353 14.0995961,47.6175806 17.39998,52.15 C19.4717376,52.6861855 21.576181,53.0870319 23.69998,53.35 C24.5333133,53.0833333 25.3833133,52.8333333 26.24998,52.6 C28.1693946,52.0743714 29.9352071,51.0971742 31.39998,49.75 C31.4320862,49.6881715 31.4492132,49.6196633 31.44998,49.55 C31.5166933,49.35 31.58336,49.1666667 31.64998,49 C31.7129893,48.8080915 31.7968222,48.6236592 31.89998,48.45 C32.0324997,48.2191755 32.1175011,47.9641714 32.14998,47.7 L32.250025,47.3 C32.250025,47.2333333 32.250025,47.1666667 32.250025,47.1 C32.250025,47.0333333 32.250025,46.9833333 32.250025,46.95 C32.250025,46.8833333 32.250025,46.8166667 32.250025,46.75 C32.250025,46.6833333 32.250025,46.6166667 32.250025,46.55 L32.14998,46.15 C32.1166467,46.05 32.0833133,45.9333333 32.04998,45.8 C32.0497822,45.6651206 32.0329894,45.5307779 31.99998,45.4 C32.00004,45.3 32.00004,45.1833333 31.99998,45.05 C32.00004,44.9833333 32.00004,44.9166667 31.99998,44.85 C31.9730617,44.8040219 31.9560322,44.7529334 31.94998,44.7 C31.9178453,44.6381823 31.9007165,44.5696672 31.89998,44.5 C31.8992788,44.4303283 31.882148,44.361805 31.84998,44.3 L31.84998,44.1 C31.8230576,44.0540238 31.8060278,44.0029344 31.79998,43.95 C31.7992323,43.8803342 31.7821041,43.8118217 31.74998,43.75 C31.75004,43.6833333 31.75004,43.6166667 31.74998,43.55 C31.0166467,41.8833333 30.19998,40.25 29.29998,38.65 C28.3682745,36.9543576 27.6782598,35.1367577 27.24998,33.25 C26.6481795,30.847286 26.5292147,28.3490266 26.89998,25.9 C26.9060546,25.8470715 26.9230826,25.7959875 26.94998,25.75 C26.9506869,25.680329 26.9678173,25.6118071 26.99998,25.55 C27.00004,25.4833333 27.00004,25.4166667 26.99998,25.35 C27.00004,25.2833333 27.00004,25.2166667 26.99998,25.15 C27.00004,25.1166667 27.00004,25.0666667 26.99998,25 C27.032113,24.9381817 27.0492416,24.869667 27.04998,24.8 L27.04998,24.4 C27.0909,24.3554959 27.1246377,24.3048892 27.14998,24.25 L27.24998,23.85 C27.2833133,23.7167 27.3166467,23.6000333 27.34998,23.5 C27.4166467,23.3 27.4833133,23.1 27.54998,22.9 C27.5833133,22.7333333 27.6166467,22.55 27.64998,22.35 L27.64998,22.15 C27.6560546,22.0970715 27.6730826,22.0459875 27.69998,22 C27.7006869,21.930329 27.7178173,21.8618071 27.74998,21.8 C27.75004,20.8 27.7333733,19.8 27.69998,18.8 C27.6573877,16.1407857 26.3357791,13.6650963 24.14998,12.15 C23.3870279,11.5519332 22.5235002,11.0947715 21.59998,10.8 C20.9819889,10.8009575 20.3644735,10.8343368 19.74998,10.9 C19.1166133,10.9666667 18.4666133,11.0333333 17.79998,11.1 L17.59998,11.3 C17.4413263,11.4277148 17.2742847,11.5446439 17.09998,11.65 C17.0295775,11.7189323 16.9439332,11.7703189 16.84998,11.8 C16.7970516,11.8060752 16.7459678,11.8231031 16.69998,11.85 C16.5615684,11.8852406 16.4274346,11.9355407 16.29998,12 C16.2137345,12.044978 16.1302526,12.0950672 16.04998,12.15 C15.7450214,12.3528502 15.4277423,12.5365381 15.09998,12.7 C14.6457884,12.9119647 14.2108268,13.1629041 13.79998,13.45 L13.79998,13.45 Z" id="path19" fill="#3F474E"/>
            </g>
            <path d="M85.89444,30.09517 C85.4706267,24.37187 82.5917467,19.32646 77.2578,14.95894 C69.1262333,8.31811333 56.9661367,5.89472667 40.77751,7.68878 C40.4060661,7.71469489 40.0369251,7.76689559 39.67286,7.84499 C39.23246,7.92721 38.8167367,8.00760333 38.42569,8.08617 C37.604424,8.2439897 36.7996442,8.47796709 36.02178,8.78507 C35.724149,8.85806181 35.4327018,8.95428692 35.15012,9.07286 C27.9246667,11.98914 22.9614433,16.6478767 20.26045,23.04907 C19.3079843,25.2250551 18.6763808,27.5277605 18.38539,29.88518 C18.2337183,30.8236424 18.1795,31.7752737 18.2236,32.72489 C18.2957604,35.4806614 19.1659823,38.1562936 20.72872,40.42727 C23.0457267,43.57953 26.7086433,44.4741167 31.71747,43.11103 C35.99717,41.9507633 41.9296733,42.67729 49.51498,45.29061 C57.8659467,48.19449 63.84228,49.51308 67.44398,49.24638 C72.6245467,48.8627667 77.1372667,46.4946233 80.98214,42.14195 C84.55294,38.1072167 86.1903733,34.0916233 85.89444,30.09517 M66.40048,18.06974 C67.7874333,18.71118 69.0757033,19.3599267 70.26529,20.01598 C71.7954947,20.8578804 73.239579,21.8476032 74.57687,22.97098 L74.65636,23.03951 L75.04836,23.30814 C75.4759467,23.72296 75.87887,24.1396067 76.25713,24.55808 L78.54846,29.37407 C78.9342591,32.8817301 77.3967045,36.3244878 74.52713,38.37828 C72.5135263,39.8993314 70.1645458,40.9153668 67.6772,41.34117 L66.27653,41.5193 L65.75847,41.55767 C64.4825685,41.6398389 63.201397,41.5596745 61.94569,41.3191 C60.5526251,41.0958494 59.1821903,40.7490751 57.8506,40.28288 C56.1169518,39.6384676 54.4220104,38.8943628 52.77426,38.05429 C52.690227,38.0228058 52.6116163,37.9784127 52.54126,37.92271 C51.440684,37.3756581 50.3116004,36.8879397 49.15886,36.46165 C45.4421874,35.0471183 41.4635218,34.4532563 37.49578,34.7208 C30.7363667,35.22132 26.79201,35.2157367 25.66271,34.70405 C25.2040433,34.5395767 24.8568633,33.8707533 24.62117,32.69758 C24.5316367,32.1585133 24.4613033,31.5436067 24.41017,30.85286 L24.40469,30.77886 C24.3791131,30.4321659 24.3782075,30.0840925 24.40198,29.73727 C24.3647919,27.587956 24.9013286,25.4675916 25.95631,23.59464 C27.103294,21.5169475 28.6989291,19.7210099 30.62717,18.33744 C34.3188268,15.5341481 38.7445771,13.8622454 43.36764,13.52451 C45.349534,13.3783817 47.3395665,13.380267 49.32118,13.53015 C49.4964917,13.5209136 49.6722774,13.5328802 49.84472,13.56579 C49.9957982,13.5551064 50.1476092,13.5689967 50.29424,13.60692 L50.36824,13.60144 C55.922668,14.1939269 61.3403087,15.7038621 66.40048,18.06974 Z" id="path22" fill="#091628"/>
            <path d="M49.09915,13.54659 C48.876639,13.5164617 48.6517126,13.5081923 48.42759,13.5219 C46.4503833,13.6187 44.4521667,13.7666667 42.43294,13.9658 C41.79884,14.1119667 41.1382467,14.2353 40.45116,14.3358 C38.2355876,14.7876488 36.1087903,15.598679 34.15492,16.7368 C33.5882938,17.0732072 33.1122171,17.542673 32.76792,18.10454 C32.768436,18.1621005 32.7457241,18.2174382 32.70492,18.25804 L32.71592,18.40604 C32.716444,18.463602 32.6937308,18.5189427 32.65292,18.55954 L32.66392,18.70754 L32.67492,18.85554 C32.6793429,18.8757062 32.6740127,18.8967778 32.6605331,18.9124155 C32.6470535,18.9280532 32.6269979,18.9364316 32.6064,18.93503 L32.6174,19.08303 L32.6284,19.23103 C32.6747706,19.2651597 32.7054156,19.3165496 32.7134,19.37357 L32.7244,19.52157 C32.9140157,20.4579859 33.6404518,21.193064 34.57456,21.39374 C34.9954385,21.4618782 35.4264472,21.4299638 35.8327,21.30058 C37.4168948,20.8265833 38.965009,20.2394435 40.4651,19.54369 C41.3658322,19.0824863 42.3108015,18.7133434 43.28565,18.44187 C43.77905,18.40533 44.2706133,18.3441233 44.76034,18.25825 C44.8863904,18.2435971 45.0093867,18.2093865 45.1249,18.15685 L45.2729,18.14585 C45.9754068,18.1480062 46.6723002,18.0207254 47.32869,17.77038 C48.4744367,17.83438 49.6183633,17.8737133 50.76047,17.88838 C51.2867727,17.8518035 51.804864,17.7382245 52.2982,17.55127 C52.6115499,17.445603 52.8832041,17.2430731 53.07393,16.97293 C53.1147341,16.9323282 53.137446,16.8769905 53.13693,16.81943 C53.1777594,16.7788445 53.2004943,16.7235071 53.19999,16.66594 C53.1994747,16.6083698 53.222207,16.5530264 53.26304,16.51244 C53.2625331,16.4548812 53.2852436,16.3995469 53.32604,16.35894 L53.31504,16.21094 C53.3558412,16.1703363 53.3785526,16.1149999 53.3780485,16.05744 L53.36704,15.90944 L53.36156,15.83544 L53.35056,15.68744 C53.3388716,15.5364331 53.3027731,15.3883208 53.24367,15.24887 L53.23267,15.10087 C53.186312,15.0667333 53.15567,15.0153521 53.14767,14.95834 C53.1012977,14.9242118 53.0706522,14.8728211 53.06267,14.8158 C53.0640749,14.7952004 53.055698,14.7751418 53.0400598,14.7616598 C53.0244216,14.7481778 53.003348,14.7428465 52.98318,14.74727 C52.9751822,14.6902571 52.9445398,14.6388752 52.89818,14.60474 C52.724321,14.4566984 52.5402156,14.3211306 52.34724,14.19905 C51.7600973,13.9546877 51.1479334,13.7754335 50.52172,13.6645 C50.4771493,13.630079 50.4241209,13.6083149 50.36822,13.6015 L50.29422,13.60698 C50.1475892,13.5690567 49.9957782,13.5551664 49.8447,13.56585 C49.6722574,13.5329402 49.4964717,13.5209736 49.32116,13.53021 L49.09915,13.54659 Z" id="path24" fill="#FFFFFF"/>
            <path d="M70.26529,20.01598 C71.0527872,21.1318397 71.556989,22.4225339 71.7344,23.77672 L71.7454,23.92472 C71.7917441,23.958866 71.8223682,24.0102511 71.83035,24.06726 C71.8383409,24.1242781 71.8689845,24.1756656 71.91535,24.2098 L71.96467,24.87587 C72.0340492,25.1413185 72.0544762,25.4171879 72.02495,25.68996 C71.9862973,25.8375045 71.9978655,25.9937185 72.05783,26.13396 C72.0170124,26.1745567 71.9942829,26.2298933 71.99478,26.28746 C71.9600733,26.4884733 71.92718,26.71414 71.8961,26.96446 L71.92898,27.40846 L71.94542,27.63046 C71.7422229,28.2995246 71.4654723,28.9439982 71.12024,29.55207 C70.7158839,30.287504 70.1176639,30.898023 69.39061,31.31726 C68.0024274,32.1684459 66.4945504,32.8068453 64.91719,33.2112 C64.263274,33.3603454 63.5989163,33.4593002 62.92992,33.5072 C62.8893214,33.4663911 62.8339816,33.4436783 62.77642,33.4442 C58.3688533,32.8776 54.0225,32.13284 49.73736,31.20992 C42.2134078,29.6460271 34.5148439,29.0900067 26.84425,29.55649 C26.3111497,29.0942526 25.9499068,28.4654201 25.81915,27.77205 L25.78079,27.25399 L25.67667,25.84783 L25.62187,25.10775 C25.6868376,24.5942489 25.798787,24.0877923 25.95631,23.59475 C24.9013286,25.4677016 24.3647919,27.588066 24.40198,29.73738 C24.3782075,30.0842025 24.3791131,30.4322759 24.40469,30.77897 L24.41017,30.85297 C24.46131,31.54371 24.5316433,32.1586167 24.62117,32.69769 C24.85687,33.8708567 25.20405,34.53968 25.66271,34.70416 C26.7920433,35.2158467 30.7364,35.22143 37.49578,34.72091 C41.463522,34.4533348 45.4421945,35.0471661 49.15888,36.46167 C50.3116204,36.8879597 51.440704,37.3756781 52.54128,37.92273 C52.6116363,37.9784327 52.690247,38.0228258 52.77428,38.05431 C54.4220304,38.8943828 56.1169718,39.6384876 57.85062,40.2829 C59.1822054,40.749077 60.5526334,41.0958346 61.94569,41.31907 C63.201397,41.5596445 64.4825685,41.6398089 65.75847,41.55764 L66.27653,41.51927 L67.6772,41.34114 C70.1645458,40.9153368 72.5135263,39.8993014 74.52713,38.37825 C77.3966945,36.3244633 78.9342479,32.88172 78.54846,29.37407 L76.25709,24.55807 C75.87883,24.1396033 75.4759067,23.7229567 75.04832,23.30813 L74.65632,23.0395 L74.57683,22.97097 C73.2395512,21.8475989 71.7954804,20.8578795 70.26529,20.01598 L70.26529,20.01598 Z" id="path26" fill="#4E7A8D"/>
            <path d="M71.7344,23.77672 C71.556989,22.4225339 71.0527872,21.1318397 70.26529,20.01598 C69.0756967,19.3599267 67.7874267,18.71118 66.40048,18.06974 C61.3403119,15.7038632 55.9226746,14.193928 50.36825,13.60144 C50.4241509,13.6082549 50.4771793,13.630019 50.52175,13.66444 C51.1479634,13.7753735 51.7601273,13.9546277 52.34727,14.19899 C52.5402456,14.3210706 52.724351,14.4566384 52.89821,14.60468 C52.9445698,14.6388152 52.9752122,14.6901971 52.98321,14.74721 C53.003378,14.7427865 53.0244516,14.7481178 53.0400898,14.7615998 C53.055728,14.7750818 53.0641049,14.7951404 53.0627,14.81574 C53.0706822,14.8727611 53.1013277,14.9241518 53.1477,14.95828 C53.1557,15.0152921 53.186342,15.0666733 53.2327,15.10081 L53.2437,15.24881 C53.3028031,15.3882608 53.3389016,15.5363731 53.35059,15.68738 L53.36159,15.83538 L53.36707,15.90938 L53.37807,16.05738 C53.3785826,16.1149399 53.3558712,16.1702763 53.31507,16.21088 L53.32607,16.35888 C53.2852736,16.3994869 53.2625631,16.4548212 53.26307,16.51238 C53.222237,16.5529664 53.1995047,16.6083098 53.20002,16.66588 C53.2005243,16.7234471 53.1777894,16.7787845 53.13696,16.81937 C53.137476,16.8769305 53.1147641,16.9322682 53.07396,16.97287 C52.8832341,17.2430131 52.6115799,17.445543 52.29823,17.55121 C51.804894,17.7381645 51.2868027,17.8517435 50.7605,17.88832 C49.6184,17.8736533 48.4744733,17.83432 47.32872,17.77032 C46.6723302,18.0206654 45.9754368,18.1479462 45.27293,18.14579 L45.12493,18.15679 C45.0094167,18.2093265 44.8864204,18.2435371 44.76037,18.25819 C44.27063,18.34407 43.7790667,18.4052767 43.28568,18.44181 C42.3108315,18.7132834 41.3658622,19.0824263 40.46513,19.54363 C38.965039,20.2393835 37.4169248,20.8265233 35.83273,21.30052 C35.4264772,21.4299038 34.9954685,21.4618182 34.57459,21.39368 C33.6403676,21.1931605 32.9137602,20.4581152 32.72404,19.52164 L32.71304,19.37364 C32.7050556,19.3166196 32.6744106,19.2652297 32.62804,19.2311 L32.61704,19.0831 L32.60604,18.9351 C32.6266379,18.9365016 32.6466935,18.9281232 32.6601731,18.9124855 C32.6736527,18.8968478 32.6789829,18.8757762 32.67456,18.85561 L32.66356,18.70761 L32.65256,18.55961 C32.6933708,18.5190127 32.716084,18.463672 32.71556,18.40611 L32.70456,18.25811 C32.7453641,18.2175082 32.768076,18.1621705 32.76756,18.10461 C33.1118571,17.542743 33.5879338,17.0732772 34.15456,16.73687 C36.1084303,15.598749 38.2352276,14.7877188 40.4508,14.33587 C41.13788,14.2353833 41.7984733,14.11205 42.43258,13.96587 C44.4518133,13.7667367 46.45003,13.61877 48.42723,13.52197 C48.6513526,13.5082623 48.876279,13.5165317 49.09879,13.54666 L49.32079,13.53022 C47.3391765,13.380337 45.349144,13.3784517 43.36725,13.52458 C38.7443287,13.862372 34.3187244,15.5342498 30.62717,18.33745 C28.6989291,19.7210199 27.103294,21.5169575 25.95631,23.59465 C25.798787,24.0876923 25.6868376,24.5941489 25.62187,25.10765 L25.67667,25.84773 L25.78079,27.25389 L25.81915,27.77195 C25.9499068,28.4653201 26.3111497,29.0941526 26.84425,29.55639 C34.5148439,29.0899067 42.2134078,29.6459271 49.73736,31.20982 C54.0224933,32.13274 58.3688467,32.8775 62.77642,33.4441 C62.8339816,33.4435783 62.8893214,33.4662911 62.92992,33.5071 C63.5989163,33.4592002 64.263274,33.3602454 64.91719,33.2111 C66.4945504,32.8067453 68.0024274,32.1683459 69.39061,31.31716 C70.1176505,30.8979503 70.7158693,30.2874672 71.12024,29.55207 C71.4654373,28.9440459 71.7421641,28.2996267 71.94535,27.63062 L71.92891,27.40862 L71.89603,26.96462 C71.92709,26.71428 71.9599833,26.4886133 71.99471,26.28762 C71.9942129,26.2300533 72.0169424,26.1747167 72.05776,26.13412 C71.9977955,25.9938785 71.9862273,25.8376645 72.02488,25.69012 C72.0544062,25.4173479 72.0339792,25.1414785 71.9646,24.87603 L71.91528,24.20996 C71.8689145,24.1758256 71.8382709,24.1244381 71.83028,24.06742 C71.8222982,24.0104111 71.7916741,23.959026 71.74533,23.92488 L71.7344,23.77672 Z" id="path28" fill="#90C3D0"/>
            <g id="Layer4_11_MEMBER_3_FILL" transform="translate(0.000000, 90.000000)">
                <path d="M40.19995,39.24998 C40.08825,40.0071533 40.0049167,40.77382 39.94995,41.54998 C39.7863216,43.7797982 39.7696188,46.0179681 39.89995,48.24998 C40.5665833,54.0833133 40.8999167,57.84998 40.89995,59.54998 C40.8210277,61.6763449 40.6207014,63.7964651 40.29995,65.89998 C40.0297294,67.6616499 39.1223626,69.2628855 37.74995,70.39998 C35.5166167,72.39998 32.29995,73.39998 28.09995,73.39998 C23.1015496,73.583876 18.2811304,71.5310739 14.94995,67.79998 C13.909839,66.6208521 13.0042748,65.3295608 12.25,63.94998 C11.8952,63.3139 11.5618667,62.6472333 11.25,61.94998 C9.01666667,57.08422 7.9,51.0675533 7.9,43.89998 C7.9,34.5333133 8.51666667,27.2333133 9.75,21.99998 C10.03656,20.80482 10.3032267,19.60482 10.55,18.39998 C10.73842,17.48006 10.9217533,16.5633933 11.1,15.64998 C11.39834,14.3796467 11.69834,13.11298 12,11.84998 C12.0335667,11.7044133 12.0669,11.5544133 12.1,11.39998 C12.1703067,11.2428133 12.2369733,11.0761467 12.3,10.89998 C12.6486721,9.88382696 12.8507045,8.82315716 12.9,7.74998 C12.9593385,6.69265454 12.7887543,5.63503244 12.4,4.64998 C12.3108101,4.35609662 12.1936055,4.07145694 12.05,3.79998 C11.8642335,3.67373855 11.6624531,3.57284833 11.45,3.49998 C11.2033959,3.36244182 10.9310379,3.27732995 10.65,3.24998 C10.5192267,3.28301437 10.384881,3.29980759 10.25,3.29998 C9.75006,3.43328 9.25006,3.56661333 8.75,3.69998 C8.14453746,3.88469512 7.58310008,4.19093369 7.1,4.59998 C6.20890851,5.35685775 5.60806681,6.39949481 5.4,7.54998 C4.43348184,8.54876834 3.80402472,9.8251675 3.6,11.19998 C2.99752,14.7918933 2.39752,18.3918933 1.8,21.99998 C1.46666667,24.09998 1.08333333,27.6166467 0.65,32.54998 C0.216713333,36.94998 2.48689958e-14,39.5166467 2.48689958e-14,40.24998 C2.48689958e-14,67.84998 9.41672667,81.64998 28.25,81.64998 C36.2166667,81.64998 41.8666667,79.2666467 45.2,74.49998 C47.69994,70.89998 48.94994,65.74998 48.95,59.04998 C48.9351701,56.7414904 48.7681411,54.4364905 48.45,52.14998 C48.0833333,49.64998 47.9,48.34998 47.9,48.24998 C47.90488,46.9666933 47.9215467,45.68336 47.95,44.39998 C47.94994,43.5333133 47.9332733,42.6666467 47.9,41.79998 L48,41.39998 C48.4269475,39.8830864 48.9961392,38.4098844 49.7,36.99998 C50.1973195,36.0470206 50.4058372,34.9696794 50.3,33.89998 C50.2,33.6666467 50.1,33.4166467 50,33.14998 C49.89996,32.9166467 49.7832933,32.6666467 49.65,32.39998 C49.5861392,32.2705633 49.5017096,32.1523618 49.4,32.04998 C49.3288288,31.9094204 49.2451584,31.7755476 49.15,31.64998 C48.5048314,31.0701158 47.7063693,30.6882427 46.85,30.54998 C46.7001,30.5548 46.5501,30.5548 46.4,30.54998 C45.7730801,30.5157649 45.145352,30.600593 44.55,30.79998 C44.3769343,30.8698488 44.2097345,30.9534487 44.05,31.04998 C43.8230766,31.1465043 43.6054964,31.2636628 43.4,31.39998 C41.7934973,33.7626801 40.7031073,36.4375015 40.19995,39.24998 Z" id="path30" fill="#000000"/>
                <path d="M22.34997,17.65001 C22.3180141,17.5847404 22.2652396,17.5319659 22.19997,17.50001 C21.96669,17.2333433 21.71669,16.9666767 21.44997,16.70001 C21.1416891,16.4245934 20.8573356,16.1235132 20.59997,15.80001 L20.49997,15.60001 C20.0078616,15.2042839 19.4491105,14.8995106 18.84997,14.70001 C17.4538538,14.3003075 15.9923485,14.1813478 14.54997,14.35001 C13.3780692,14.7228332 12.2264928,15.1567605 11.09997,15.65001 C10.92175,16.56343 10.7384167,17.4800967 10.54997,18.40001 C10.30327,19.60481 10.0366033,20.80481 9.74997,22.00001 C8.51663667,27.2333433 7.89997,34.5333433 7.89997,43.90001 C7.89997,51.0675833 9.01663667,57.08425 11.24997,61.95001 C11.8354767,62.20089 12.41881,62.45089 12.99997,62.70001 C14.5053161,63.3685609 16.0599123,63.9201918 17.64997,64.35001 L19.69997,64.35001 C20.86659,64.0166767 22.0332567,63.6666767 23.19997,63.30001 C24.4527899,62.8754665 25.5847775,62.1551107 26.49997,61.20001 L26.99997,60.80001 C26.9993326,60.7342173 27.0389932,60.6747265 27.09997,60.65001 C27.2621573,60.4895042 27.3972438,60.3037602 27.49997,60.10001 C27.5665633,59.90001 27.63323,59.70001 27.69997,59.50001 C27.79997,59.2333433 27.89997,58.9833433 28.000015,58.75001 C28.000015,58.6833433 28.000015,58.6166767 28.000015,58.55001 C28.000015,58.35001 28.000015,58.1666767 28.000015,58.00001 C28.000015,57.9333433 28.000015,57.8666767 28.000015,57.80001 C28.000015,57.60001 28.000015,57.4166767 28.000015,57.25001 C28.000015,57.1833433 28.000015,57.1166767 28.000015,57.05001 C27.967813,56.9882008 27.9506829,56.9196802 27.94997,56.85001 C27.8527655,56.6265032 27.785517,56.3911332 27.74997,56.15001 C27.6513133,55.8258109 27.6007747,55.4888869 27.59997,55.15001 C27.6014044,54.9654796 27.5846568,54.7812567 27.54997,54.60001 C27.5193068,54.4857749 27.5025192,54.3682614 27.49997,54.25001 C27.4048245,53.940014 27.3378857,53.6220544 27.29997,53.30001 C27.2707474,52.7231073 27.1699759,52.1520686 26.99997,51.60001 C26.79997,50.9333433 26.59997,50.25001 26.39997,49.55001 C26.3321814,49.1704559 26.2987129,48.785568 26.29997,48.40001 C26.2638284,48.3587577 26.2458081,48.3046968 26.24997,48.25001 L26.14997,47.65001 C26.1166367,47.4833433 26.0833033,47.30001 26.04997,47.10001 C26.0156454,46.8515011 25.9989371,46.600876 25.99997,46.35001 C26.00003,46.2833433 26.00003,46.2166767 25.99997,46.15001 C25.9637763,46.1087876 25.9457485,46.0547041 25.94997,46.00001 C25.8844509,45.8067233 25.85068,45.6040982 25.84997,45.40001 C25.81659,45.30001 25.7832567,45.1833433 25.74997,45.05001 C25.7166031,44.8011234 25.7166031,44.5488966 25.74997,44.30001 C25.717813,44.2382008 25.7006829,44.1696802 25.69997,44.10001 L25.59997,43.90001 C25.4666367,42.60001 25.3833033,41.30001 25.34997,40.00001 C25.2153852,37.4280706 25.3326096,34.8491337 25.69997,32.30001 C25.9005319,31.060097 26.0008566,29.8060389 25.99997,28.55001 C25.967813,28.4882008 25.9506829,28.4196802 25.94997,28.35001 C25.8835023,28.1502823 25.7819082,27.9640265 25.64997,27.80001 C25.5210845,27.6456786 25.4503217,27.451081 25.44997,27.25001 C25.4188986,26.9918499 25.3515688,26.7393628 25.24997,26.50001 C25.2178073,26.4382029 25.2006769,26.369681 25.19997,26.30001 C25.1992025,26.2303468 25.1820755,26.1618387 25.14997,26.10001 C25.152168,25.9814177 25.1352859,25.8632432 25.09997,25.75001 L25.09997,25.55001 C25.0992316,25.480343 25.082103,25.4118283 25.04997,25.35001 C25.0166367,25.21671 24.9833033,25.1000433 24.94997,25.00001 C24.94991,24.9333433 24.94991,24.8666767 24.94997,24.80001 C24.94991,24.7333433 24.94991,24.6666767 24.94997,24.60001 C24.7833033,24.0333433 24.6333033,23.4666767 24.49997,22.90001 C24.2775867,22.2251084 23.9930326,21.5723078 23.64997,20.95001 C23.0912866,19.9036108 22.6550747,18.7963038 22.34997,17.65001 Z" id="path32" fill="#3F474E"/>
                <path d="M36.79998,19.24998 C36.3051479,18.6870495 35.6899404,18.242733 34.99998,17.94998 C34.4375834,17.7544323 33.9955277,17.3123766 33.79998,16.74998 C33.6732818,15.3043717 33.2294129,13.9044773 32.49998,12.64998 C31.6693533,11.1794 27.6693533,7.99606667 20.49998,3.09998 C18.8428067,1.97756667 17.5594733,1.04423333 16.64998,0.29998 C14.7976816,1.24884697 13.3055195,2.77611873 12.39998,4.64998 C12.7887343,5.63503244 12.9593185,6.69265454 12.89998,7.74998 C12.8506845,8.82315716 12.6486521,9.88382696 12.29998,10.89998 C12.23694,11.07616 12.1702733,11.2428267 12.09998,11.39998 C12.06696,11.5544 12.0336267,11.7044 11.99998,11.84998 C11.69828,13.11298 11.39828,14.3796467 11.09998,15.64998 C12.2265028,15.1567305 13.3780792,14.7228032 14.54998,14.34998 C15.9923585,14.1813178 17.4538638,14.3002775 18.84998,14.69998 C19.4491205,14.8994806 20.0078716,15.2042539 20.49998,15.59998 L20.59998,15.79998 C20.8573456,16.1234832 21.1416991,16.4245634 21.44998,16.69998 C21.7167,16.9666467 21.9667,17.2333133 22.19998,17.49998 C22.2652496,17.5319359 22.3180241,17.5847104 22.34998,17.64998 C22.6550847,18.7962738 23.0912966,19.9035808 23.64998,20.94998 C23.9930426,21.5722778 24.2775967,22.2250784 24.49998,22.89998 C24.6333133,23.4666467 24.7833133,24.0333133 24.94998,24.59998 C24.94992,24.6666467 24.94992,24.7333133 24.94998,24.79998 C24.94992,24.8666467 24.94992,24.9333133 24.94998,24.99998 C24.9833133,25.09998 25.0166467,25.2166467 25.04998,25.34998 C25.082113,25.4117983 25.0992416,25.480313 25.09998,25.54998 L25.09998,25.74998 C25.1352959,25.8632132 25.152178,25.9813877 25.14998,26.09998 C25.1820855,26.1618087 25.1992125,26.2303168 25.19998,26.29998 C25.2006869,26.369651 25.2178173,26.4381729 25.24998,26.49998 C25.3515788,26.7393328 25.4189086,26.9918199 25.44998,27.24998 C25.4503317,27.451051 25.5210945,27.6456486 25.64998,27.79998 C25.7819182,27.9639965 25.8835123,28.1502523 25.94998,28.34998 C25.9506929,28.4196502 25.967823,28.4881708 25.99998,28.54998 C26.0008666,29.8060089 25.9005419,31.060067 25.69998,32.29998 C25.3326196,34.8491037 25.2153952,37.4280406 25.34998,39.99998 C25.3833733,41.29998 25.4667067,42.59998 25.59998,43.89998 L25.69998,44.09998 C25.7006929,44.1696502 25.717823,44.2381708 25.74998,44.29998 C25.7166131,44.5488666 25.7166131,44.8010934 25.74998,45.04998 C25.7833133,45.18328 25.8166467,45.2999467 25.84998,45.39998 C25.85069,45.6040682 25.8844609,45.8066933 25.94998,45.99998 C25.9457585,46.0546741 25.9637863,46.1087576 25.99998,46.14998 C26.00004,46.2166467 26.00004,46.2833133 25.99998,46.34998 C25.9989471,46.600846 26.0156554,46.8514711 26.04998,47.09998 C26.0833133,47.29998 26.1166467,47.4833133 26.14998,47.64998 L26.24998,48.24998 C26.2458181,48.3046668 26.2638384,48.3587277 26.29998,48.39998 C26.2987229,48.785538 26.3321914,49.1704259 26.39998,49.54998 C26.59998,50.24998 26.79998,50.9333133 26.99998,51.59998 C27.1699859,52.1520386 27.2707574,52.7230773 27.29998,53.29998 C27.3378957,53.6220244 27.4048345,53.939984 27.49998,54.24998 C27.5025292,54.3682314 27.5193168,54.4857449 27.54998,54.59998 C27.5846668,54.7812267 27.6014144,54.9654496 27.59998,55.14998 C27.6007847,55.4888569 27.6513233,55.8257809 27.74998,56.14998 C27.785527,56.3911032 27.8527755,56.6264732 27.94998,56.84998 C27.9506929,56.9196502 27.967823,56.9881708 27.99998,57.04998 C28.00004,57.1166467 28.00004,57.1833133 27.99998,57.24998 C28.00004,57.4166467 28.00004,57.59998 27.99998,57.79998 C28.00004,57.8666467 28.00004,57.9333133 27.99998,57.99998 C28.00004,58.1666467 28.00004,58.34998 27.99998,58.54998 C28.00004,58.6166467 28.00004,58.6833133 27.99998,58.74998 C27.89994,58.9833133 27.79994,59.2333133 27.69998,59.49998 C27.6333867,59.69998 27.56672,59.89998 27.49998,60.09998 C27.3972538,60.3037302 27.2621673,60.4894742 27.09998,60.64998 C27.0390032,60.6746965 26.9993426,60.7341873 26.99998,60.79998 L26.49998,61.19998 C25.5847875,62.1550807 24.4527999,62.8754365 23.19998,63.29998 C22.0333133,63.6666467 20.8666467,64.0166467 19.69998,64.34998 L17.64998,64.34998 C16.0599223,63.9201618 14.5053261,63.3685309 12.99998,62.69998 C12.4188,62.45086 11.8354667,62.20086 11.24998,61.94998 C11.5618667,62.64724 11.8952,63.3139067 12.24998,63.94998 C13.0042548,65.3295608 13.909819,66.6208521 14.94993,67.79998 C18.2811104,71.5310739 23.1015296,73.583876 28.09993,73.39998 C32.29993,73.39998 35.5165967,72.39998 37.74993,70.39998 C39.1223426,69.2628855 40.0297094,67.6616499 40.29993,65.89998 C40.6206814,63.7964651 40.8210077,61.6763449 40.89993,59.54998 C40.89993,57.84998 40.5665967,54.0833133 39.89993,48.24998 C39.7695988,46.0179681 39.7863016,43.7797982 39.94993,41.54998 C40.0049233,40.7738 40.0882567,40.0071333 40.19993,39.24998 C40.7030721,36.4375054 41.793445,33.7626843 43.39993,31.39998 C43.6054264,31.2636628 43.8230066,31.1465043 44.04993,31.04998 C44.2096645,30.9534487 44.3768643,30.8698488 44.54993,30.79998 C45.145282,30.600593 45.7730101,30.5157649 46.39993,30.54998 C46.5500833,30.5548 46.7000833,30.5548 46.84993,30.54998 C46.9866897,29.6202049 46.9697981,28.6742796 46.79993,27.74998 C46.5417147,26.2639132 45.7396524,24.9271426 44.54993,23.99998 C44.0906847,23.1759786 43.499519,22.4327989 42.79993,21.79998 C41.1605219,20.2732028 39.0369729,19.3706869 36.79998,19.24998 Z" id="path34" fill="#1E1F26"/>
            </g>
            <g id="Layer4_11_MEMBER_4_FILL" transform="translate(26.000000, 107.000000)" fill="#000000">
                <path d="M5.54998,2.84999 C5.42572,2.77693 5.29238667,2.69359667 5.14998,2.59999 C3.88631333,1.94975 2.60298,1.29975 1.29998,0.64999 C1.16731333,0.727323333 1.03398,0.810656667 0.89998,0.89999 L0.74998,1.04999 C0.988413791,1.28554202 1.19061152,1.555139 1.34998,1.84999 C1.46242221,1.9237917 1.57931096,1.99058526 1.69998,2.04999 C1.93139079,2.38089949 2.18181184,2.69809948 2.44998,2.99999 C2.84835141,3.46432522 3.20004718,3.96674776 3.49998,4.49999 C7.78507962,9.04690944 12.7021272,12.9536048 18.09998,16.09999 C20.7891174,16.7589018 23.5347991,17.1607089 26.29998,17.29999 L26.89998,16.89999 L27.39998,16.49999 C27.5414132,16.3929181 27.6750813,16.2759585 27.79998,16.14999 C27.8993833,16.0172506 28.0172406,15.8993933 28.14998,15.79999 C28.1851909,15.661569 28.2354923,15.5274321 28.29998,15.39999 L28.49998,14.99999 C28.5697199,14.8928092 28.6204628,14.7744091 28.64998,14.64999 C28.6794459,14.525554 28.7301925,14.4071453 28.79998,14.29999 L28.79998,12.79999 C28.7354923,12.6725479 28.6851909,12.538411 28.64998,12.39999 C28.620462,12.2755712 28.5697192,12.1571712 28.49998,12.04999 L28.34998,11.74999 C24.5498555,11.1048794 20.8513371,9.96170095 17.34998,8.34999 C16.5694918,8.17841018 15.8135962,7.90964733 15.09998,7.54999 C14.6629558,7.27932657 14.2452818,6.97860125 13.84998,6.64999 C12.3807241,6.20358941 10.9575681,5.617584 9.59998,4.89999 C8.87629333,4.52211667 8.14296,4.13878333 7.39998,3.74999 C6.75892135,3.50296195 6.14002586,3.20187766 5.54998,2.84999 L5.54998,2.84999 Z" id="path37"/>
            </g>
        </g>
    </g>
</svg>