<svg xmlns="http://www.w3.org/2000/svg" viewBox="0 0 137.426 153.435" version="1.1">
  <path fill="var(--body)" d="M11.553 100.473a10.357 10.357 0 0 0 7.45 5.061 30.346 30.346 0 0 0 13.4-.556 21.442 21.442 0 0 1 13.85-1.613 20.12 20.12 0 0 0 .6 5.34 16.657 16.657 0 0 0 1.85 4.615q2.565-.413 4.7-.723 4.83-.732 7.7-1a22.562 22.562 0 0 0 5.75-1.113 6.49 6.49 0 0 1 2.1-.612 17.195 17.195 0 0 0 .95-3.67 24.704 24.704 0 0 0 .45-2.67l-.2-3.17a94.307 94.307 0 0 0-5.6-16.017 20.455 20.455 0 0 1-1.8 1.557q-7.25-.786-21.6.167-14.346.962-19.9 2.78-5.504 1.828-7.6 5.507a.079.079 0 0 1 0 .055.12.12 0 0 1-.05.056q-.173.34-.35.667a20.765 20.765 0 0 0-1.7 5.34Z" transform="translate(-4.12 -1.66)"/>
  <path fill="var(--shadow)" d="M20.172 104.575a10.44 10.44 0 0 1-7.45-5.742q-.219 1.67-.35 3.47-.346 6.255 2.4 9.97a11.762 11.762 0 0 0 9.9 4.922q5.7 0 17.35-2.271 4.318-.858 7.85-1.515a20.434 20.434 0 0 1-1.85-5.237 25.768 25.768 0 0 1-.6-6.058 19.15 19.15 0 0 0-13.85 1.83 26.86 26.86 0 0 1-13.4.63Z" transform="translate(-4.12 -1.66)"/>
  <path fill="var(--outline)" d="M10.72 88.2q-6.597 6.645-6.6 18.3 0 6.45 5.7 11.4 6.65 5.8 18 5.8a19.552 19.552 0 0 0 2.95-.2q7.6-1.15 13.45-2 11.2-1.6 21.7-2.05 5.15-.25 6.75-1.6a6.81 6.81 0 0 0 1.55-1.75 3.946 3.946 0 0 0 .3-1.65 4.818 4.818 0 0 0-.85-2.35 6.899 6.899 0 0 0-3.45-2.85 7.068 7.068 0 0 0-2.1.55 24.802 24.802 0 0 1-5.75 1q-2.87.24-7.7.9-2.135.278-4.7.65-3.532.52-7.85 1.2a125.523 125.523 0 0 1-17.35 1.8 13.004 13.004 0 0 1-9.9-3.9q-2.746-2.945-2.4-7.9.131-1.427.35-2.75a17.357 17.357 0 0 1 1.7-4.8q.176-.294.35-.6a.114.114 0 0 0 .05-.05.064.064 0 0 0 0-.05q2.096-3.308 7.6-4.95 5.554-1.636 19.9-2.5 14.35-.857 21.6-.15a20.065 20.065 0 0 0 1.8-1.4q3.097-4.496-3.05-5.55-6.141-1.065-25.8-.1-19.66.963-26.25 7.55Z" transform="translate(-4.12 -1.66)"/>
  <path fill="var(--outline)" d="M141.331 61.045a106.556 106.556 0 0 0-3.05-16.35q-3.35-13.65-8.85-20.6-5.897-8.75-12.3-12.95-6.35-4.15-10.3-3.45-11.4 1.95-15.2 5.1a4.12 4.12 0 0 0-1.5 1.95 1.523 1.523 0 0 0-.05.85 26.749 26.749 0 0 0 1.2 5.45q2 6.85 3.65 14.05.6 2.6 4.65 17.6 3.75 15 3.75 21.6a119.798 119.798 0 0 1-1.05 13.85q-.15 6.25 4.15 7.6a39.586 39.586 0 0 0 8 1.05q4.15.3 7.4.3 6.55.006 11.8-7.6 5.301-7.619 6.2-11.7.95-4.077 1.45-7.65a42.518 42.518 0 0 0 .05-9.1m-23.05-38.3a65.212 65.212 0 0 1 5.65 8.15 53.367 53.367 0 0 1 5.5 12.45q.3 1.1 1.95 6a64.95 64.95 0 0 1 1.45 14.8 44.192 44.192 0 0 1-2.2 13.35 23.348 23.348 0 0 1-3.25 6.85l-2.2 2.35a8.122 8.122 0 0 1-5.1 1.75 87.327 87.327 0 0 0-9.25-.5q.8-15.6.45-18.55a85.717 85.717 0 0 1-1.85-9.2q-.8-5.6-.9-6.25-.05-.2-.95-3.25-8.25-26.9-8.25-32.5 0-.255.7-.65a23.07 23.07 0 0 1 3.2-1.3l1.15-.4a11.15 11.15 0 0 1 6.95.15q1.5.6 6.95 6.75Z" transform="translate(-4.12 -1.66)"/>
  <path fill="var(--body)" d="M126.331 48.245q-.15-.5-.3-1.1a61.642 61.642 0 0 0-4.55-12.5 34.06 34.06 0 0 0-6.95-9.65.443.443 0 0 0-.05-.2.384.384 0 0 0-.05-.15 9.411 9.411 0 0 0-1.4-1.65q-3.6-3.25-7.5-6.25-.559-.443-1.15-.9l-1.15.4a23.07 23.07 0 0 0-3.2 1.3q-.7.396-.7.65 0 5.6 8.25 32.5.9 3.05.95 3.25.1.65.9 6.25a85.717 85.717 0 0 0 1.85 9.2q.35 2.95-.45 18.55a87.327 87.327 0 0 1 9.25.5 8.122 8.122 0 0 0 5.1-1.75l2.2-2.35a42.47 42.47 0 0 0-4.1-2.15q.15-.3.3-.55a1.954 1.954 0 0 0 .15-.4 1.106 1.106 0 0 0 .05-.35 2.451 2.451 0 0 0 .85-1.5 6.528 6.528 0 0 1 .7-2.2 5.074 5.074 0 0 0 .55-2.5 2.765 2.765 0 0 0 .2-.75q.05-.3.1-.55a1.96 1.96 0 0 1 .15-.4v-.35q.1-.4.2-.75.1-.45.25-.95.15-.35.3-.75a8.466 8.466 0 0 0 0-1.3 5.679 5.679 0 0 1 .15-1.7 4.6 4.6 0 0 0 .15-1.5 7.386 7.386 0 0 0 .3-2.45q-.05-1.6 0-3.15a14.357 14.357 0 0 0-.3-3.4v-1.1a6.41 6.41 0 0 0-.1-1.15 4.99 4.99 0 0 0-.15-.75v-.95a2.805 2.805 0 0 0-.05-.55v-.35a7.38 7.38 0 0 1-.25-.8 4.747 4.747 0 0 0-.3-.9 4.623 4.623 0 0 1-.15-.55v-.4a1.106 1.106 0 0 0-.05-.35v-.6Z" transform="translate(-4.12 -1.66)"/>
  <path fill="var(--shadow)" d="M123.931 30.895a65.212 65.212 0 0 0-5.65-8.15q-5.45-6.15-6.95-6.75a11.15 11.15 0 0 0-6.95-.15q.591.457 1.15.9 3.9 3 7.5 6.25a9.411 9.411 0 0 1 1.4 1.65.384.384 0 0 1 .05.15.443.443 0 0 1 .05.2 34.06 34.06 0 0 1 6.95 9.65 61.642 61.642 0 0 1 4.55 12.5q.15.6.3 1.1v.6a1.106 1.106 0 0 1 .05.35v.4a4.623 4.623 0 0 0 .15.55 4.747 4.747 0 0 1 .3.9 7.38 7.38 0 0 0 .25.8v.35a2.805 2.805 0 0 1 .05.55v.95a4.99 4.99 0 0 1 .15.75 6.41 6.41 0 0 1 .1 1.15v1.1a14.357 14.357 0 0 1 .3 3.4q-.05 1.55 0 3.15a7.386 7.386 0 0 1-.3 2.45 4.6 4.6 0 0 1-.15 1.5 5.679 5.679 0 0 0-.15 1.7 8.466 8.466 0 0 1 0 1.3q-.15.4-.3.75-.15.5-.25.95-.1.35-.2.75v.35a1.96 1.96 0 0 0-.15.4q-.05.25-.1.55a2.765 2.765 0 0 1-.2.75 5.074 5.074 0 0 1-.55 2.5 6.528 6.528 0 0 0-.7 2.2 2.451 2.451 0 0 1-.85 1.5 1.106 1.106 0 0 1-.05.35 1.954 1.954 0 0 1-.15.4q-.15.25-.3.55a42.47 42.47 0 0 1 4.1 2.15 23.348 23.348 0 0 0 3.25-6.85 44.192 44.192 0 0 0 2.2-13.35 64.95 64.95 0 0 0-1.45-14.8q-1.65-4.9-1.95-6a53.367 53.367 0 0 0-5.5-12.45Z" transform="translate(-4.12 -1.66)"/>
  <path fill="var(--outline)" d="M122.132 83.895q.85-4.9.85-16.75a78.822 78.822 0 0 0-4.2-25.15 70.84 70.84 0 0 0-16.5-27.45 41.427 41.427 0 0 0-4.85-4.55q-1.304-.845-3.55-2.4a39.202 39.202 0 0 0-7.9-3.55 44.432 44.432 0 0 0-13.4-2.35 61.997 61.997 0 0 0-17.25 2.05q-9.49 2.354-14.85 7.35a48.84 48.84 0 0 0-9.4 12.65q-4.052 7.705-4.05 14.1 0 6.65 5.3 21.6 5.25 14.95 5.25 19.25 0 10.9 1.7 16.45 2.45 8.1 11.45 20.85a6.369 6.369 0 0 0-2.55.4l13.05 11.1q22.3-1.35 32.95-6.45 13.1-6.25 21.4-22a37 37 0 0 0 6.55-15.15m-77.15-67.1a6.48 6.48 0 0 1 1.75-1.4.204.204 0 0 1 .15-.05q3.05-1.7 6.2-3.15a21.38 21.38 0 0 1 4.8-1.6h.55a40.952 40.952 0 0 1 6.45-.75h1.5a119.01 119.01 0 0 1 13.15.5 22.597 22.597 0 0 1 6.85 1.95 29.902 29.902 0 0 1 6.3 4.35q3.444 2.955 3.75 3.2 3.9 3.2 10.7 17.25 6.9 14.2 6.9 19.45a23.576 23.576 0 0 0 .4 3.75q.403 2.351 1.1 10.35a48.836 48.836 0 0 1-1.7 16.9 28.329 28.329 0 0 1-3.3 7.5q-.415.732-.9 1.45l-9.15 11.25a1.378 1.378 0 0 1-.2.2 2.102 2.102 0 0 1-.25.25q-.407-.044-5.45 2.5-1.196.602-2.65 1.35-11.452 5.847-20.2 6.05-6.85-2.55-7.65-2.9a26.17 26.17 0 0 1-5.35-2.9 24.649 24.649 0 0 1-4.9-4.5q-.528-.605-.95-1.1-.47-.583-.8-1.05a7.291 7.291 0 0 1-.5-.7q-.097-.162-2.15-4.05a42.098 42.098 0 0 1-3.4-9.8 57.33 57.33 0 0 1-1.45-11.6 85.185 85.185 0 0 0-.8-11q-1.65-11.5-5.35-18.6a27 27 0 0 1-2.95-12.6 25.374 25.374 0 0 1 4.2-14.1 31.56 31.56 0 0 1 2.8-3.65 2.753 2.753 0 0 0 .2-.25q.327-.331.65-.65.15-.154.3-.3a3.598 3.598 0 0 1 .45-.55.582.582 0 0 0 .15-.1q.35-.45.75-.9m26.15 101.3a5.842 5.842 0 0 1-2.2-.9l2.75.9Z" transform="translate(-4.12 -1.66)"/>
  <path fill="var(--shadow)" d="M68.931 117.195a5.842 5.842 0 0 0 2.2.9h.55l-2.75-.9m-16.9-102.25q-.85.75-1.65 1.5-.7.65-1.4 1.35a.144.144 0 0 0-.05.1l-.1.2a.482.482 0 0 1-.2.25l-.1.1a.538.538 0 0 1-.1.3 6.765 6.765 0 0 0-.85 1.7.617.617 0 0 0-.1.35 3.443 3.443 0 0 0-.1.4q-.05.2-.1.45v.1q-.1.55-.15 1.1v.2l.05.2a15.159 15.159 0 0 1 .45 2.15 15.39 15.39 0 0 1 .85 2.6q.164.68.35 1.35a5.124 5.124 0 0 0 .25.5 13.369 13.369 0 0 0 3.15 4.7 7.994 7.994 0 0 1 2.45 3.95 4.233 4.233 0 0 1 .6.75 3.26 3.26 0 0 1 .2.35l.2.4a52.011 52.011 0 0 1 7.6 13.4 104.71 104.71 0 0 1 4.8 16.6 2.992 2.992 0 0 1 .3 1.1q.05.6.15 1.15a5.321 5.321 0 0 1 .05.75q.1.35.25.75.1.35.25.75.15.55.35 1.1a18.065 18.065 0 0 1 .2 2.65q.1 1.9.05 3.75v.35a1.953 1.953 0 0 1 .15.4q.05.2.1.35a3.298 3.298 0 0 0 .1 1.15l.2 1.1q.1.4.2.75a15.742 15.742 0 0 0 .5 3.05 14.772 14.772 0 0 0 1.75 4.1q6.184 7.934 12.8 9.5a30.56 30.56 0 0 0 14.25-.25q5.852-.821 10.8-7.45a28.329 28.329 0 0 0 3.3-7.5 48.836 48.836 0 0 0 1.7-16.9q-.696-8-1.1-10.35a23.576 23.576 0 0 1-.4-3.75q0-5.25-6.9-19.45-6.8-14.05-10.7-17.25-.305-.245-3.75-3.2a29.902 29.902 0 0 0-6.3-4.35 22.597 22.597 0 0 0-6.85-1.95 119.01 119.01 0 0 0-13.15-.5h-1.5v.05a.584.584 0 0 0-.15.1l-.1.1a.582.582 0 0 0-.15.1 21.793 21.793 0 0 0-5.9.9 28.005 28.005 0 0 0-3.6 1.45q-1.55 1.15-2.95 2.4Z" transform="translate(-4.12 -1.66)"/>
  <path fill="var(--body)" d="M46.731 15.395a6.48 6.48 0 0 0-1.75 1.4q-.4.45-.75.9a.582.582 0 0 1-.15.1 3.598 3.598 0 0 0-.45.55q-.15.146-.3.3-.322.319-.65.65a2.753 2.753 0 0 1-.2.25 31.56 31.56 0 0 0-2.8 3.65 25.374 25.374 0 0 0-4.2 14.1 27 27 0 0 0 2.95 12.6q3.7 7.1 5.35 18.6a85.185 85.185 0 0 1 .8 11 57.33 57.33 0 0 0 1.45 11.6 42.098 42.098 0 0 0 3.4 9.8q2.054 3.888 2.15 4.05a7.291 7.291 0 0 0 .5.7q.33.467.8 1.05.423.496.95 1.1a24.649 24.649 0 0 0 4.9 4.5 26.17 26.17 0 0 0 5.35 2.9q.8.35 7.65 2.9 8.748-.203 20.2-6.05 1.455-.748 2.65-1.35 5.044-2.544 5.45-2.5a2.102 2.102 0 0 0 .25-.25 1.378 1.378 0 0 0 .2-.2l9.15-11.25q.486-.718.9-1.45-4.948 6.628-10.8 7.45a30.56 30.56 0 0 1-14.25.25q-6.617-1.566-12.8-9.5a14.772 14.772 0 0 1-1.75-4.1 15.742 15.742 0 0 1-.5-3.05q-.1-.35-.2-.75l-.2-1.1a3.298 3.298 0 0 1-.1-1.15q-.05-.15-.1-.35a1.953 1.953 0 0 0-.15-.4v-.35q.05-1.85-.05-3.75a18.065 18.065 0 0 0-.2-2.65q-.2-.55-.35-1.1-.15-.4-.25-.75-.15-.4-.25-.75a5.321 5.321 0 0 0-.05-.75q-.1-.55-.15-1.15a2.992 2.992 0 0 0-.3-1.1 104.71 104.71 0 0 0-4.8-16.6 52.011 52.011 0 0 0-7.6-13.4l-.2-.4a3.26 3.26 0 0 0-.2-.35 4.233 4.233 0 0 0-.6-.75 7.994 7.994 0 0 0-2.45-3.95 13.369 13.369 0 0 1-3.15-4.7 5.124 5.124 0 0 1-.25-.5q-.186-.67-.35-1.35a15.39 15.39 0 0 0-.85-2.6 15.159 15.159 0 0 0-.45-2.15l-.05-.2v-.2q.05-.55.15-1.1v-.1q.05-.25.1-.45a3.443 3.443 0 0 1 .1-.4.617.617 0 0 1 .1-.35 6.765 6.765 0 0 1 .85-1.7.538.538 0 0 0 .1-.3l.1-.1a.482.482 0 0 0 .2-.25l.1-.2a.144.144 0 0 1 .05-.1q.7-.7 1.4-1.35.8-.75 1.65-1.5 1.4-1.25 2.95-2.4a28.005 28.005 0 0 1 3.6-1.45 21.793 21.793 0 0 1 5.9-.9.582.582 0 0 1 .15-.1l.1-.1a.584.584 0 0 1 .15-.1v-.05a40.952 40.952 0 0 0-6.45.75h-.55a21.38 21.38 0 0 0-4.8 1.6q-3.15 1.45-6.2 3.15a.204.204 0 0 0-.15.05Z" transform="translate(-4.12 -1.66)"/>
  <path d="M24.132 38.545a13.852 13.852 0 0 0-2.45 8.4q0 13.65 6.65 21.55 6.7 8 18.6 8 22.2 0 35.1-7.85 11.9-7.25 11.9-18.35 0-6.1-6.05-13.75-4.864-6.183-10.6-8.1-.38-.02-.8-.05a35.762 35.762 0 0 0-7.6.3q-6.282 2.016-15.2 4.35-11.3 3.035-19.25 2.65-7.95-.395-10.3 2.85m6.6 5.45q1.287-1.029 5.5-.75.638.04 1.35.05h.35l5.2-.3q3.239-.257 7.5-.85 2.844-.464 5.6-1.1 1.25-.3 12.4-4.55a9.883 9.883 0 0 1 2.2-.6 28.216 28.216 0 0 1 4.5-.2q3.155.094 7.55 7.35a27.696 27.696 0 0 1 3.25 7.4 8.99 8.99 0 0 1 0 2.95 10.543 10.543 0 0 1-.4 2q-.696 2.642-6.2 6.5a4.7 4.7 0 0 1-.6.45q-5.921 4.096-20.25 5.35a.659.659 0 0 1-.2 0 1.136 1.136 0 0 1-.25.05l-2.35.15a.922.922 0 0 1-.25.05q-12.343.98-14.85.35a7.677 7.677 0 0 1-4.05-2.15q-1.343-1.45-2.35-2.55a16.729 16.729 0 0 1-2.4-3.9 34.904 34.904 0 0 1-1.55-5.65q-.95-4.1-.95-4.45.002-4.555 1.25-5.6Z" transform="translate(-4.12 -1.66)" style="fill:#091628"/>
  <path d="M86.132 53.395a8.99 8.99 0 0 0 0-2.95 27.696 27.696 0 0 0-3.25-7.4q-4.395-7.256-7.55-7.35a28.216 28.216 0 0 0-4.5.2 9.883 9.883 0 0 0-2.2.6q-11.15 4.25-12.4 4.55-2.756.636-5.6 1.1-4.261.593-7.5.85a3.628 3.628 0 0 0 .65-.05 2.835 2.835 0 0 1-.35.25 1.11 1.11 0 0 0-.35.15 7.454 7.454 0 0 0-1.45 1.15 17.298 17.298 0 0 0-1.2 2.55 11.202 11.202 0 0 0-.45 3.4 14.017 14.017 0 0 0 1.4 6.6q2.4 4.45 8.75 6.2a34.89 34.89 0 0 0 13.05-.5 91.046 91.046 0 0 0 17.65-6q.95-.45 1.9-.95a16.03 16.03 0 0 0 3.4-2.4m-15.25-16a1.644 1.644 0 0 0 .4-.05 4.916 4.916 0 0 1 4.05 1.1 3.49 3.49 0 0 1 1.35 2.5v.2a.445.445 0 0 0-.05.2v.35l-.1.2a.741.741 0 0 1-.2.35l-.2.4q-.15.2-.25.35a.785.785 0 0 0-.15.2 3.52 3.52 0 0 1-1.9 1q-2.3.45-4.6.95a26.294 26.294 0 0 1-14.1 1.7 1.256 1.256 0 0 1-1.15-1v-.4a.443.443 0 0 1-.05-.2v-.55a.443.443 0 0 1 .05-.2v-.15a.443.443 0 0 0 .05-.2l.1-.2a.445.445 0 0 1 .05-.2.327.327 0 0 0 .15-.15.785.785 0 0 0 .15-.2l.2-.2a34.27 34.27 0 0 0 8.15-2.65 47.723 47.723 0 0 1 4.45-1.8l.5-.3a6.525 6.525 0 0 1 1.9-.7q.6-.15 1.2-.35Z" transform="translate(-4.12 -1.66)" style="fill:#90c3d0"/>
  <path d="M71.281 37.345a1.644 1.644 0 0 1-.4.05q-.6.2-1.2.35a6.525 6.525 0 0 0-1.9.7l-.5.3a47.723 47.723 0 0 0-4.45 1.8 34.27 34.27 0 0 1-8.15 2.65l-.2.2a.785.785 0 0 1-.15.2.327.327 0 0 1-.15.15.445.445 0 0 0-.05.2l-.1.2a.443.443 0 0 1-.05.2v.15a.443.443 0 0 0-.05.2v.55a.443.443 0 0 0 .05.2v.4a1.256 1.256 0 0 0 1.15 1 26.294 26.294 0 0 0 14.1-1.7q2.3-.5 4.6-.95a3.52 3.52 0 0 0 1.9-1 .785.785 0 0 1 .15-.2q.1-.15.25-.35l.2-.4a.741.741 0 0 0 .2-.35l.1-.2v-.35a.445.445 0 0 1 .05-.2v-.2a3.49 3.49 0 0 0-1.35-2.5 4.916 4.916 0 0 0-4.05-1.1Z" transform="translate(-4.12 -1.66)" style="fill:#fff"/>
  <path d="M36.231 43.245q-4.212-.279-5.5.75-1.247 1.045-1.25 5.6 0 .35.95 4.45a34.904 34.904 0 0 0 1.55 5.65 16.729 16.729 0 0 0 2.4 3.9q1.008 1.1 2.35 2.55a7.677 7.677 0 0 0 4.05 2.15q2.508.63 14.85-.35a.922.922 0 0 0 .25-.05l2.35-.15a1.136 1.136 0 0 0 .25-.05.659.659 0 0 0 .2 0q14.33-1.254 20.25-5.35a4.7 4.7 0 0 0 .6-.45q5.505-3.858 6.2-6.5a10.543 10.543 0 0 0 .4-2 16.03 16.03 0 0 1-3.4 2.4q-.95.5-1.9.95a91.046 91.046 0 0 1-17.65 6 34.89 34.89 0 0 1-13.05.5q-6.35-1.75-8.75-6.2a14.017 14.017 0 0 1-1.4-6.6 11.202 11.202 0 0 1 .45-3.4 17.298 17.298 0 0 1 1.2-2.55 7.454 7.454 0 0 1 1.45-1.15 1.11 1.11 0 0 1 .35-.15 2.835 2.835 0 0 0 .35-.25 3.628 3.628 0 0 1-.65.05l-5.2.3h-.35q-.711-.01-1.35-.05Z" transform="translate(-4.12 -1.66)" style="fill:#4e7a8d"/>
  <path fill="var(--body)" d="M40.01 132.52a17.377 17.377 0 0 0 .22 4.193 8.174 8.174 0 0 0 1.82 3.403q1.49 1.875 6.95 5.23a21.49 21.49 0 0 0 5.847 2.466 16.14 16.14 0 0 0 3.75.542q6.399 0 10.37-2.96a15.195 15.195 0 0 0 2.482-2.466 18.381 18.381 0 0 0 2.427-4.34q-.165.246-.386.542a5.859 5.859 0 0 0-.496.394 6.613 6.613 0 0 1-2.041 1.184q-.828.345-1.6.74h-1.82a14.884 14.884 0 0 0-3.254-.641 2.796 2.796 0 0 1-1.38-.493l-.11-.198a2.82 2.82 0 0 0-.827-.74 4.923 4.923 0 0 1-1.158-.937.344.344 0 0 1-.166-.148.4.4 0 0 1-.055-.197.575.575 0 0 0-.11-.148l-.11-.198a.4.4 0 0 1-.056-.197v-1.282a1.832 1.832 0 0 0 .276-.74v-1.678l.11-.394q.056-.296.11-.543a1.307 1.307 0 0 0 .056-.345v-.197q.22-.543.386-1.086a27.182 27.182 0 0 1 2.096-4.785 19.164 19.164 0 0 1 1.49-2.269q.661-.394 1.268-.838a8.542 8.542 0 0 0 1.49-1.234 1.331 1.331 0 0 0 .275-.345 8.578 8.578 0 0 0 1.379-1.085q.772-.79 1.655-1.53a4.696 4.696 0 0 0 .772-.887 5.8 5.8 0 0 0 .938-.938 36.895 36.895 0 0 1 2.702-3.009q.773-.74 1.545-1.43a59.39 59.39 0 0 1 5.516-3.65q3.034-1.727 6.177-3.207a31.423 31.423 0 0 1 10.701-2.91 5.06 5.06 0 0 0 .552.345l.11.197a.188.188 0 0 1 .055.148q-.22 1.085-.441 2.22a10.033 10.033 0 0 0-.11 1.48v.838q.772-.69 1.765-1.48c.746-.612 3.306-1.726 2.94-2.995a5.164 5.164 0 0 0-.946.434 2.161 2.161 0 0 1-.99.294.912.912 0 0 1-.843-.505c-.401-.986 1.287-1.75 1.882-2.167.28-.196 2.871-2.16 3.031-2.016l-.055-.05a12.706 12.706 0 0 0-1.6-.493 3.685 3.685 0 0 0-1.158-.394q-4.688-.69-9.266-1.332a20.615 20.615 0 0 0-6.675.099 6.243 6.243 0 0 1-1.103-.1.467.467 0 0 1-.275-.147q-2.317-3.601-7.392-3.108a15.51 15.51 0 0 1-6.012-.493 3.157 3.157 0 0 0-.276-.69 2.574 2.574 0 0 0-.276-.395l-.165-.198q-.04-.06-.11-.148a21.121 21.121 0 0 0-3.365 1.826 38.832 38.832 0 0 0-5.847 4.735q-.507.495-1.048.937l-.22.198a.813.813 0 0 1-.166.098l-.552.444a62.99 62.99 0 0 0-12.907 14.8q-6.343 9.668-7.005 11.986a18.055 18.055 0 0 0-.772 4.983Z" transform="translate(-4.12 -1.66)"/>
  <path fill="var(--shadow)" d="M68.361 120.405a9.992 9.992 0 0 1-1.62 1.141 1.439 1.439 0 0 1-.323.363 9.873 9.873 0 0 1-1.75 1.296q-.712.467-1.489.882a20.093 20.093 0 0 0-1.749 2.385 27.133 27.133 0 0 0-2.462 5.03q-.194.57-.453 1.14v.208a1.242 1.242 0 0 1-.065.363q-.064.26-.13.57l-.129.415v1.763a1.806 1.806 0 0 1-.324.778v1.348a.388.388 0 0 0 .065.208l.13.207a.616.616 0 0 1 .13.156.388.388 0 0 0 .064.207.392.392 0 0 0 .194.156 5.714 5.714 0 0 0 1.36.985 3.218 3.218 0 0 1 .972.778l.13.207a3.537 3.537 0 0 0 1.62.519 19.297 19.297 0 0 1 3.821.674h2.138q.907-.415 1.878-.778a8.028 8.028 0 0 0 2.397-1.244 6.814 6.814 0 0 1 .583-.415q.26-.311.454-.57a37.13 37.13 0 0 0 2.72-9.645 9.35 9.35 0 0 1 2.008-4.823q2.85-2.54 5.636-5.082 17.36-10.007 19.045-11.667a7.08 7.08 0 0 1 .583-.518v-.882a9.464 9.464 0 0 1 .13-1.555q.258-1.193.517-2.334a.187.187 0 0 0-.064-.155l-.13-.208a6.088 6.088 0 0 1-.648-.363 40.33 40.33 0 0 0-12.567 3.06q-3.692 1.555-7.255 3.37a70.946 70.946 0 0 0-6.477 3.837q-.907.726-1.814 1.504a40.645 40.645 0 0 0-3.174 3.163 6.503 6.503 0 0 1-1.102.985 5.146 5.146 0 0 1-.906.934q-1.037.777-1.944 1.607Z" transform="translate(-4.12 -1.66)"/>
  <path fill="var(--outline)" d="M41.249 136.14a17.426 17.426 0 0 1-.208-4.08 18.071 18.071 0 0 1 .728-4.847q.624-2.256 6.608-11.662a60.749 60.749 0 0 1 12.176-14.397l.52-.432a.762.762 0 0 0 .156-.096l.208-.192q.51-.43.989-.912a36.872 36.872 0 0 1 5.515-4.607 19.741 19.741 0 0 1 3.174-1.775l-.26-.384q-.573-.336-1.197-.672a3.398 3.398 0 0 0-1.769-.384 24.778 24.778 0 0 0-3.954.864 35.391 35.391 0 0 0-18.212 11.997q-7.232 10.174-10.094 16.845a24.944 24.944 0 0 0-1.873 6.287 58.758 58.758 0 0 0-1.04 8.062q0 6.815 7.856 12.814a32.033 32.033 0 0 0 20.033 6.526 20.58 20.58 0 0 0 12.851-4.127q6.4-4.895 7.65-14.253a18.336 18.336 0 0 1 .52-2.256q.416-1.631.468-1.967a14.818 14.818 0 0 1 1.353-3.887q.624-1.296 4.214-3.408 5.568-3.263 7.649-4.75 7.544-5.424 10.198-7.775 5.567-4.943 5.62-8.11.051-.48.103-1.008-.156-.528-.26-1.056a3.014 3.014 0 0 0-.52-1.104q-.26-.336-.52-.72a10.846 10.846 0 0 0-1.25-.576.423.423 0 0 0-.155-.048q-1.04.624-2.081 1.296a36.162 36.162 0 0 1-3.747 2.4.816.816 0 0 0-.208.144q-.416.335-.78.671l-.156.144q-.168.17-.313.336l-2.497 2.112q-.937.768-1.665 1.44a6.047 6.047 0 0 0-.468.48q-1.353 1.535-15.298 10.797-2.237 2.352-4.527 4.703a9.371 9.371 0 0 0-1.613 4.463 38.454 38.454 0 0 1-2.185 8.927 18.044 18.044 0 0 1-2.29 4.223 14.563 14.563 0 0 1-2.34 2.4 15.61 15.61 0 0 1-9.783 2.879 14.794 14.794 0 0 1-3.538-.528 19.947 19.947 0 0 1-5.515-2.4q-5.151-3.263-6.556-5.087a8.04 8.04 0 0 1-1.717-3.31Z" transform="translate(-4.12 -1.66)"/>
</svg>
