<?xml version="1.0" encoding="UTF-8"?>
<svg width="130px" height="147px" viewBox="0 0 130 147" version="1.1" xmlns="http://www.w3.org/2000/svg" xmlns:xlink="http://www.w3.org/1999/xlink">
    <title>ico-purple-player</title>
    <g id="Page-1" stroke="none" stroke-width="1" fill="none" fill-rule="evenodd">
        <g id="ico-purple-player" transform="translate(65.000000, 73.500000) scale(-1, 1) translate(-65.000000, -73.500000) " fill-rule="nonzero">
            <g id="Layer4_13_MEMBER_0_FILL" transform="translate(1.000000, 12.000000)">
                <path d="M55.12301,1.8024 C54.2416506,1.30831689 53.2745474,0.985949141 52.27301,0.8524 C52.00653,0.81078 51.7398633,0.76078 51.47301,0.7024 C49.8169619,0.302668238 48.1253475,0.0681870265 46.42301,0.00239441118 C41.8530567,-0.00133333333 36.30309,1.86533333 29.77311,5.6024 C23.28275,9.38010667 17.66605,15.4301067 12.92301,23.7524 C9.00083921,30.3521151 5.6551112,37.2777721 2.92301,44.4524 C0.99283,49.95606 0.0261966667,54.2227267 0.02311,57.2524 C0.02311,61.91902 2.07307667,67.06902 6.17301,72.7024 C10.07301,78.0357333 14.17301,81.7024 18.47301,83.7024 C23.7294833,85.59992 28.7628167,84.4165867 33.57301,80.1524 C34.3129061,79.4903655 34.8940088,78.6700237 35.27309,77.7524 C37.6297094,71.9003734 39.2910827,65.7918897 40.22309,59.5524 C42.0230167,55.88578 43.70635,52.1524467 45.27309,48.3524 C46.6612888,44.9419088 48.351309,41.6622137 50.32301,38.5524 C50.8821157,38.1274102 51.3569237,37.6017299 51.72301,37.0023944 C51.9230767,36.6357333 52.1397433,36.2524 52.37301,35.8524 C52.5160009,35.633184 52.6334318,35.3983223 52.72301,35.1524 C54.9204836,30.9232827 57.427302,26.8622369 60.22301,23.0023944 C60.62301,22.5023944 60.9896767,22.0190667 61.32301,21.5524 C64.9896433,16.6524 65.0729767,11.9357333 61.57301,7.4024 C61.53981,7.30236 61.5064767,7.18569333 61.47301,7.0524 L61.47301,6.3024 C61.1478813,4.99055179 60.2982728,3.86979168 59.12301,3.2024 C57.8954422,2.47566758 56.5358415,1.99980734 55.12301,1.8024 M51.47301,9.6024 C52.1695273,9.6928986 52.8707012,9.74298245 53.57301,9.7524 C53.620281,9.80505652 53.6703535,9.85512904 53.72301,9.9024 L53.72301,10.3024 C53.7563433,10.4357333 53.7896767,10.5524 53.82301,10.6524 C53.8582501,10.7908118 53.9085502,10.9249456 53.97301,11.0524 C54.0063433,11.1857333 54.0396767,11.3024 54.07301,11.4024 C54.27297,11.6690667 54.47297,11.9357333 54.67301,12.2024 C54.8730833,12.4358 55.0564167,12.6691333 55.22301,12.9024 C55.43853,13.1846533 55.6907567,13.43688 55.97301,13.6524 C55.7837781,14.1648197 55.5318639,14.6518537 55.22301,15.1024 C54.5281298,16.0257774 53.9877673,17.0558434 53.62301,18.1524 C53.38961,18.7857333 53.1229433,19.4190667 52.82301,20.0524 C50.8840641,22.1607817 49.2818976,24.555599 48.07301,27.1524 C47.2231114,28.9549157 46.2715809,30.707735 45.22301,32.4024 C42.3625681,35.9252502 40.0375338,39.8508516 38.32301,44.0524 C36.8563433,47.5524667 35.4063433,51.0524667 33.97301,54.5524 C33.8523041,54.6688689 33.7510225,54.8039111 33.67301,54.9524 C32.2445238,58.3012342 31.3016926,61.8369395 30.87308,65.4524 C30.6063819,67.98562 30.1382334,70.4935583 29.47308,72.9524 C29.2398,73.1858 29.0231333,73.4191333 28.82308,73.6524 C28.3317079,74.2106918 27.7966857,74.7289945 27.22308,75.2024 C26.5607888,75.6668245 25.8372114,76.0370269 25.07308,76.30245 C23.3731267,76.30245 21.6731267,76.30245 19.97308,76.30245 C19.7550757,76.2434112 19.5510736,76.1414101 19.37308,76.0024 C19.2281619,75.9188582 19.0938572,75.8181297 18.97308,75.7024 C18.81072,75.3763533 17.1607367,73.3263533 14.02313,69.5524 C12.1799139,67.4561526 10.55484,65.1777453 9.17303,62.7524 C8.96951017,62.351437 8.8021798,61.933111 8.67303,61.5024 C8.15872853,59.4268503 7.93993747,57.2891011 8.02313,55.1524 C8.02667,54.8806667 8.04331,54.5973333 8.07305,54.3024 C8.58998423,50.7761056 9.65270763,47.3517746 11.22305,44.1524 C13.32095,39.4216867 15.1376167,35.5883533 16.67305,32.6524 C18.0994151,29.9865295 19.6683791,27.3994465 21.37312,24.9024 C22.9701733,22.6328667 25.6534833,19.3328667 29.42305,15.0024 C31.8729481,12.1030347 35.1542208,10.026059 38.82305,9.0524 C40.4296621,8.68044991 42.0739573,8.49588616 43.72305,8.50223344 L43.97305,8.50223344 L48.92305,9.2024 C49.6967767,9.32896 50.5467567,9.46229 51.47299,9.60239 L51.47301,9.6024 Z" id="path6" fill="#1C003F"/>
                <path d="M26.47299,24.0524 C30.0260482,18.6138424 34.1677209,13.5834707 38.82299,9.0524 C35.1541608,10.026059 31.8728881,12.1030347 29.42299,15.0024 C25.6533367,19.3329 22.9700267,22.6329 21.37306,24.9024 C19.6683191,27.3994465 18.0993551,29.9865295 16.67299,32.6524 C15.13759,35.5884 13.3209233,39.4217333 11.22299,44.1524 C9.65264763,47.3517746 8.58992423,50.7761056 8.07299,54.3024 C10.0272735,54.0318946 12.0013478,53.9315179 13.97299,54.0024 C14.0140286,52.934855 14.2513194,51.8839958 14.67299,50.9024 C14.77299,50.6690667 14.87299,50.4357333 14.97299,50.2024 C17.3361068,40.9105364 21.2220336,32.0742767 26.47299,24.0524 L26.47299,24.0524 Z" id="path8" fill="#6B2FBB"/>
                <path d="M53.57296,9.75236 C52.8706512,9.74294245 52.1694773,9.6928586 51.47296,9.60236 C50.5466867,9.46223333 49.6966867,9.3289 48.92296,9.20236 L43.97296,8.50219344 L43.72296,8.50219344 C42.0738673,8.49584616 40.4295721,8.68040991 38.82296,9.05236 C34.1676909,13.5834307 30.0260182,18.6138024 26.47296,24.05236 C21.2220036,32.0742367 17.3360768,40.9104964 14.97296,50.20236 C14.87296,50.43576 14.77296,50.6690933 14.67296,50.90236 C14.2512894,51.8839558 14.0139986,52.934815 13.97296,54.00236 C12.0013178,53.9314779 10.0272435,54.0318546 8.07296,54.30236 C8.0433,54.5973467 8.02666,54.88068 8.02304,55.15236 C7.93984747,57.2890611 8.15863853,59.4268103 8.67294,61.50236 C8.8020898,61.933071 8.96942017,62.351397 9.17294,62.75236 C10.55475,65.1777053 12.1798239,67.4561126 14.02304,69.55236 C17.1606133,73.32636 18.8105967,75.37636 18.97299,75.70236 C19.0937672,75.8180897 19.2280719,75.9188182 19.37299,76.00236 C19.5509836,76.1413701 19.7549857,76.2433712 19.97299,76.30241 C21.6730567,76.30241 23.3730567,76.30241 25.07299,76.30241 C25.8371214,76.0369869 26.5606988,75.6667845 27.22299,75.20236 C27.7965957,74.7289545 28.3316179,74.2106518 28.82299,73.65236 C29.02295,73.4190267 29.2396167,73.1856933 29.47299,72.95236 C30.1381434,70.4935183 30.6062919,67.98558 30.87299,65.45236 C31.3016026,61.8368995 32.2444338,58.3011942 33.67292,54.95236 C33.7509325,54.8038711 33.8522141,54.6688289 33.97292,54.55236 C35.4062533,51.0524267 36.8562533,47.5524267 38.32292,44.05236 C40.0374438,39.8508116 42.3624781,35.9252102 45.22292,32.40236 C46.2714909,30.707695 47.2230214,28.9548757 48.07292,27.15236 C49.2818076,24.555559 50.8839741,22.1607417 52.82292,20.05236 C53.1229667,19.4190267 53.3896333,18.7856933 53.62292,18.15236 C53.9876773,17.0558034 54.5280398,16.0257374 55.22292,15.10236 C55.5317739,14.6518137 55.7836881,14.1647797 55.97292,13.65236 C55.6906667,13.43684 55.43844,13.1846133 55.22292,12.90236 C55.0562933,12.6690267 54.87296,12.4356933 54.67292,12.20236 C54.4729733,11.93576 54.2729733,11.6690933 54.07292,11.40236 C54.03972,11.30232 54.0063867,11.1856533 53.97292,11.05236 C53.9084602,10.9249056 53.8581601,10.7907718 53.82292,10.65236 C53.78972,10.55232 53.7563867,10.4356533 53.72292,10.30236 L53.72292,9.90236 C53.6702771,9.85508795 53.620218,9.80501546 53.57296,9.75236 Z" id="path10" fill="#3B177C"/>
            </g>
            <g id="Layer4_13_MEMBER_1_FILL" transform="translate(0.000000, 85.000000)">
                <path d="M66.50783,28.75713 C67.2665473,25.9298008 66.3740838,22.9158941 64.19825,20.95753 C59.63327,16.39753 55.0683167,11.8375667 50.50339,7.27764 C50.4700567,7.33536 50.4473133,7.34147 50.43516,7.29597 C50.2496867,7.15041 50.0437233,6.97378 49.81727,6.76608 C48.3243881,6.09636854 46.8738398,5.33602732 45.47374,4.48931 C42.8627198,2.79017926 40.0688126,1.39022012 37.14474,0.31585 C36.9229282,0.227045126 36.6953123,0.153487428 36.46348,0.09569 C36.2843115,0.116567053 36.1041857,0.128192485 35.92382,0.13052 C35.7682134,0.122823094 35.6129826,0.151898681 35.47071,0.21539 C35.2841154,0.219098588 35.0975225,0.207903016 34.91271,0.18191 C34.7972766,0.217959669 34.6882016,0.271866207 34.58945,0.34167 C34.4826566,0.410547368 34.3807749,0.486757332 34.28454,0.56975 C34.0437756,0.675074233 33.8228752,0.820941922 33.63146,1.001 L33.30831,1.16082 C33.2015054,1.22971332 33.0996137,1.30593999 33.00337,1.38895 C32.9565041,1.53277904 32.8956706,1.67167475 32.82174,1.80365 C32.6677264,2.0016748 32.5279332,2.21036037 32.40341,2.42814 L32.22841,2.73128 L32.00341,3.12101 C32.0344535,3.6001662 31.9904633,4.08123102 31.87303,4.54681 C31.672125,6.00975163 31.3079745,7.44558429 30.78739,8.82745 C30.49393,9.73567667 30.17162,10.6272967 29.82046,11.50231 C29.759326,11.6039323 29.7148471,11.7146824 29.68871,11.83036 L29.63871,11.91699 C28.93641,13.66691 26.84141,15.7290067 23.35371,18.10328 C22.2341633,18.8424933 20.20494,20.0573133 17.26604,21.74774 C13.64208,23.1580533 10.9332667,24.24993 9.1396,25.02337 C6.19381415,26.1522983 3.71086281,28.2350809 2.08671,30.93957 C0.15345,34.2881833 -0.436443333,38.64334 0.31703,44.00504 C1.07055,49.3667333 4.81202667,54.08634 11.54146,58.16386 C18.2707933,62.2413333 26.2473367,62.4586667 35.47109,58.81586 C44.6826833,55.1274733 51.45163,51.70314 55.77793,48.54286 C59.6233167,45.68236 62.16265,43.1839833 63.39593,41.04773 L64.29093,39.19738 C65.1006703,37.196006 65.7344676,35.1278767 66.18513,33.01646 C66.3940284,31.7792162 66.4991377,30.5266753 66.49936,29.27192 C66.4795703,29.1007182 66.4824282,28.927655 66.50786,28.7572 M42.33322,12.02918 C43.4012667,12.6458 44.4716,13.22524 45.54422,13.7675 C49.7094,18.0197267 53.8374367,22.2697267 57.92833,26.5175 C58.1323662,26.7466035 58.3198777,26.9899053 58.48945,27.24557 C58.4749376,27.3298307 58.4473909,27.4113172 58.4078,27.4871 C58.3864777,27.6439404 58.35468,27.7991774 58.31262,27.95177 C58.2871882,28.122225 58.2843303,28.2952882 58.30412,28.46649 C58.56908,30.27445 57.7258,33.50182 55.77428,38.1486 C55.5409467,38.5527533 53.69428,40.08466 50.23428,42.74432 C48.300612,44.3557038 46.2433059,45.8126419 44.08136,47.10168 C42.9508267,47.52664 40.5824933,48.29548 36.97636,49.4082 C33.8750888,50.3586463 30.825144,51.4691348 27.83879,52.7352 C25.5070387,53.8242064 22.9027805,54.1906267 20.36106,53.78732 C18.209054,53.3702267 16.1536648,52.5555969 14.30023,51.38518 C12.7073351,50.1890847 11.4323134,48.6203534 10.58703,46.81662 C10.049899,45.8766124 9.56958145,44.9052614 9.14866,43.90779 C9.11592793,43.7814918 9.07079183,43.6587384 9.01391,43.54132 L8.16843,41.20566 C7.40623,38.7257533 7.37515333,36.8795633 8.0752,35.66709 C8.7752,34.45463 10.3163567,33.2852067 12.69867,32.15882 C14.1281167,31.48294 16.66535,30.3882067 20.31037,28.87462 C22.9658633,27.7263292 25.5090953,26.3341465 27.90737,24.71597 C29.1425523,23.8548833 30.321272,22.9155109 31.43628,21.90363 C33.4167194,20.1590894 35.1307216,18.1336495 36.52362,15.89191 L36.84862,15.32897 C37.24536,14.4418167 37.63151,13.6062933 38.00707,12.8224 C38.3343554,12.0583989 38.6133018,11.274584 38.84226,10.47559 C40.0445687,10.9018207 41.211768,11.4212621 42.33322,12.02918 L42.33322,12.02918 Z" id="path13" fill="#1C003F"/>
                <path d="M32.61736,32.45803 C32.5977688,32.3016967 32.5922434,32.1439209 32.60085,31.9866 C32.09263,31.0004067 31.6070933,30.0080433 31.14424,29.00951 C30.6038067,27.81225 30.0322667,26.63551 29.42962,25.47929 C28.9375744,25.195306 28.4292949,24.9404283 27.9074,24.71597 C25.5091253,26.3341465 22.9658933,27.7263292 20.3104,28.87462 C16.66528,30.38822 14.1280467,31.4829533 12.6987,32.15882 C10.3163467,33.28526 8.77519,34.4546833 8.07523,35.66709 C7.37523,36.87955 7.40630667,38.72574 8.16846,41.20566 C8.09527333,40.9325333 8.02815,40.6820933 7.96709,40.45434 C9.72924147,41.7764421 11.707884,42.7820358 13.81459,43.42618 C14.1663723,43.5412334 14.5301657,43.6156509 14.89887,43.64798 C16.8650892,43.9217634 18.8687537,43.6629515 20.70087,42.89854 C20.78228,42.8783334 20.8599133,42.8451739 20.9308,42.80033 C21.1813411,42.5637255 21.4567549,42.354933 21.75223,42.1776 C21.9955954,42.0162663 22.2512662,41.8743124 22.51688,41.75305 C22.7296467,41.6475852 22.9523199,41.5634158 23.18165,41.50177 C24.19799,40.7413833 25.24926,40.0204233 26.33546,39.33889 C27.6183663,38.5980938 28.819613,37.7241319 29.91929,36.73149 C30.6456633,36.07319 31.3432667,35.3982367 32.0121,34.70663 L32.1121,34.53342 L32.2121,34.3602 L32.3871,34.05711 C32.3901583,33.9874976 32.409569,33.9195842 32.44376,33.85887 C32.5171398,33.6053319 32.5701352,33.3463337 32.60224,33.08435 C32.6444988,32.8781385 32.6496191,32.6660404 32.61736,32.45803 L32.61736,32.45803 Z" id="path15" fill="#6B2FBB"/>
                <path d="M45.54426,13.7675 C44.4715933,13.2252467 43.40126,12.6458067 42.33326,12.02918 C41.2118177,11.4212635 40.0446285,10.9018221 38.84233,10.47559 C38.6133718,11.274584 38.3344254,12.0583989 38.00714,12.8224 C37.6315333,13.6063133 37.2453833,14.4418367 36.84869,15.32897 L36.52369,15.89191 C35.1307916,18.1336495 33.4167894,20.1590894 31.43635,21.90363 C30.321342,22.9155109 29.1426223,23.8548833 27.90744,24.71597 C28.4293349,24.9404283 28.9376144,25.195306 29.42966,25.47929 C30.0322667,26.63549 30.6038067,27.81223 31.14428,29.00951 C31.60708,30.00797 32.0926167,31.0003333 32.60089,31.9866 C32.5922834,32.1439209 32.5978088,32.3016967 32.6174,32.45803 C32.6496525,32.6660416 32.6445254,32.8781397 32.60226,33.08435 C32.5701552,33.3463337 32.5171598,33.6053319 32.44378,33.85887 C32.409589,33.9195842 32.3901783,33.9874976 32.38712,34.05711 L32.21212,34.3602 L32.11212,34.53342 L32.01212,34.70663 C31.3433267,35.3982367 30.6457233,36.07319 29.91931,36.73149 C28.819633,37.7241319 27.6183863,38.5980938 26.33548,39.33889 C25.24922,40.0204367 24.19795,40.7413967 23.18167,41.50177 C22.9523399,41.5634158 22.7296667,41.6475852 22.5169,41.75305 C22.2512862,41.8743124 21.9956154,42.0162663 21.75225,42.1776 C21.4567749,42.354933 21.1813611,42.5637255 20.93082,42.80033 C20.8599333,42.8451739 20.7823,42.8783334 20.70089,42.89854 C18.8687737,43.6629515 16.8651092,43.9217634 14.89889,43.64798 C14.5301857,43.6156509 14.1663923,43.5412334 13.81461,43.42618 C11.707904,42.7820358 9.72926147,41.7764421 7.96711,40.45434 C8.02807,40.6820067 8.09519333,40.9324467 8.16848,41.20566 L9.01396,43.54132 C9.07084183,43.6587384 9.11597793,43.7814918 9.14871,43.90779 C9.56963145,44.9052614 10.049949,45.8766124 10.58708,46.81662 C11.4323634,48.6203534 12.7073851,50.1890847 14.30028,51.38518 C16.1537148,52.5555969 18.209104,53.3702267 20.36111,53.78732 C22.9028305,54.1906267 25.5070887,53.8242064 27.83884,52.7352 C30.825194,51.4691348 33.8751388,50.3586463 36.97641,49.4082 C40.58259,48.2955333 42.9509233,47.5266933 44.08141,47.10168 C46.2433559,45.8126419 48.300662,44.3557038 50.23433,42.74432 C53.69427,40.08464 55.5409367,38.5527333 55.77433,38.1486 C57.72583,33.50176 58.56911,30.27439 58.30417,28.46649 C58.2843803,28.2952882 58.2872382,28.122225 58.31267,27.95177 C58.35473,27.7991774 58.3865277,27.6439404 58.40785,27.4871 C58.4474409,27.4113172 58.4749876,27.3298307 58.4895,27.24557 C58.3199277,26.9899053 58.1324162,26.7466035 57.92838,26.5175 C53.8375733,22.2697333 49.7095333,18.0197333 45.54426,13.7675 Z" id="path17" fill="#3B177C"/>
            </g>
            <g id="Layer4_13_MEMBER_2_FILL" transform="translate(19.000000, 0.000000)">
                <path d="M72.27304,0.40238 C62.6867333,-0.4717 55.12004,0.0783 49.57296,2.05238 C45.1733183,3.53761151 40.9079504,5.39430107 36.82296,7.60238 C33.8695933,9.35275333 29.8695933,12.61942 24.82296,17.40238 C19.7654667,22.21854 14.4321333,31.26854 8.82296,44.55238 C3.25412,57.88234 0.470786667,69.7490067 0.472958728,80.15238 C0.472958728,93.6189933 4.50629333,103.83566 12.57296,110.80238 C15.9292589,113.615843 19.6452479,115.969863 23.62296,117.80238 C26.1561667,119.03566 29.7561433,120.652327 34.42289,122.65238 C42.46683,124.163673 47.6168533,124.863673 49.87296,124.75238 C52.3314385,124.602125 54.7398391,123.991545 56.9729587,122.95238 C59.41192,121.888527 64.7285867,119.12186 72.92296,114.65238 C75.0063816,113.341897 76.7532337,111.560828 78.02306,109.45238 C78.92306,108.119 80.05636,106.185667 81.42296,103.65238 C84.18968,97.8190467 86.80638,92.3190467 89.27306,87.15238 C94.1064333,76.9857133 97.53974,70.30238 99.57298,67.10238 C101.53978,64.0356667 103.38978,59.419 105.12298,53.25238 C106.45636,47.65238 107.12298,44.8190467 107.12298,44.75238 C107.12298,31.98376 103.705707,21.6170933 96.87298,13.65238 C90.06378,5.69038 81.86378,1.27371333 72.27298,0.40238 M60.27298,7.70238 C60.3745046,7.69694522 60.475103,7.68017434 60.5729,7.65238 C64.4096249,7.48615808 68.2533847,7.60314208 72.0729,8.00238 C77.3406,8.47204 83.1572933,11.7553733 89.52298,17.85238 C91.479608,19.7424117 93.1625457,21.896572 94.52298,24.25238 C97.5588733,29.5042133 99.0755133,35.9042133 99.0729034,43.45238 C99.0729034,44.7524267 97.6562333,49.13576 94.8229,56.60238 C91.5563,65.20238 88.5729833,71.2690467 85.87295,74.80238 C85.1729967,75.7356667 83.6063067,79.0356667 81.17288,84.70238 C77.9396,92.1690467 75.9562667,96.65238 75.22288,98.15238 C71.9561533,104.919047 68.12282,109.635713 63.72288,112.30238 C59.5562533,114.802447 53.8062533,116.05238 46.47288,116.05238 C45.0452558,115.997905 43.6241673,115.830718 42.22288,115.55238 C41.97398,115.50606 41.7073133,115.45606 41.42288,115.40238 C40.0372459,115.101338 38.6346914,114.884276 37.22288,114.75238 C35.5889733,114.75006 31.3223067,112.80006 24.42288,108.90238 C24.14248,108.761507 23.8591467,108.611507 23.57288,108.45238 C17.18934,104.774767 13.38934,101.524767 12.17288,98.70238 C11.94082,98.1357133 11.7074867,97.5357133 11.47288,96.90238 C10.4421864,94.2358573 9.55754197,91.5151584 8.82288,88.75238 C8.12970968,86.1905543 7.74366549,83.5553831 7.67288,80.90238 C7.65982,80.13108 7.67648667,79.3644133 7.72288,78.60238 C7.94840563,75.8497578 8.41689684,73.1224697 9.12288,70.45238 C10.0562133,67.15238 10.6395467,64.8857133 10.87288,63.65238 C11.5822836,60.0703559 12.6027948,56.55704 13.92281,53.15238 L15.97281,48.05238 C18.73953,42.5857133 21.13953,38.1190467 23.17281,34.65238 C25.7395767,30.45238 27.17291,28.1357133 27.47281,27.70238 C30.23953,23.7357133 32.3728633,21.1357133 33.87281,19.90238 C36.1831321,17.8864222 38.6035179,16.0001905 41.12281,14.25238 C42.04005,13.71826 42.9567167,13.2015933 43.87281,12.70238 C46.2379076,11.6551331 48.6581387,10.7371144 51.12281,9.95238 C52.7514767,9.41655333 54.2514767,8.96655333 55.62281,8.60238 L60.27298,7.70238 Z" id="path20" fill="#1C003F"/>
                <path d="M55.57296,8.8024 C55.3236047,8.82779076 55.0723153,8.82779076 54.82296,8.8024 C55.1022933,8.74546 55.3689767,8.67879333 55.62301,8.6024 C54.2516767,8.9666 52.7516767,9.4166 51.12301,9.9524 C48.6583387,10.7371344 46.2381076,11.6551531 43.87301,12.7024 C42.9568767,13.20166 42.04021,13.7183267 41.12301,14.2524 C38.6037179,16.0002105 36.1833321,17.8864422 33.87301,19.9024 C32.37301,21.1357333 30.2396767,23.7357333 27.47301,27.7024 C27.1730767,28.1357333 25.7397433,30.4524 23.17301,34.6524 C21.1396767,38.1190667 18.7396767,42.5857333 15.97301,48.0524 L13.92301,53.1524 C12.6029948,56.55706 11.5824836,60.0703759 10.87308,63.6524 C10.63968,64.8857333 10.0563467,67.1524 9.12308,70.4524 C8.41709684,73.1224897 7.94860563,75.8497778 7.72308,78.6024 C7.67668667,79.36436 7.66002,80.1310267 7.67308,80.9024 C7.69066,81.0757333 7.70732667,81.2424 7.72308,81.4024 C7.75724816,82.1061082 7.90936399,82.7990804 8.17308,83.4524 C9.85165087,88.1335735 12.5698216,92.3731986 16.12315,95.8524 C16.9097154,96.6410639 17.7628554,97.3603977 18.67308,98.0024 C23.5508394,101.527391 29.2818278,103.685129 35.27318,104.2524 C38.5166098,104.585601 41.7872667,104.552056 45.02318,104.1524 C46.7712518,103.112005 48.6561494,102.321021 50.62318,101.8024 C54.4289108,98.7718434 57.461863,94.882125 59.47318,90.4524 C59.5704944,89.6625553 59.7722576,88.8891295 60.07318,88.1524 C60.7398133,86.5857333 61.35648,84.9857333 61.92318,83.3524 C62.52318,81.5523533 63.07318,79.7856867 63.57318,78.0524 C63.9262619,76.740306 64.6774006,75.569927 65.72318,74.7024 C66.0231133,74.2024 66.3064467,73.7190667 66.57318,73.2524 C67.17328,72.2523267 67.7566133,71.28566 68.32318,70.3524 C69.22318,68.8524 70.1898467,67.3857333 71.22318,65.9524 C71.9901119,64.8854655 72.8795195,63.9121515 73.87318,63.0524 C74.0723042,62.4869875 74.3971054,61.9741165 74.82313,61.5524 C75.4897633,60.8524 76.1230967,60.1357333 76.72313,59.4024 C77.5529061,58.3761431 78.1499901,57.181975 78.47313,55.9024 C78.8009179,54.5815125 79.3595033,53.3289269 80.12313,52.2024 C80.1880984,51.6740595 80.3581005,51.1640534 80.62313,50.7024 C80.9537686,49.9767134 81.2213977,49.2239409 81.42306,48.4524 C81.6605074,47.4067612 81.9953008,46.3856415 82.42306,45.4024 C82.8663536,44.4435066 83.2504081,43.4583232 83.57306,42.4524 C83.6730299,42.1859872 83.8075101,41.9338368 83.97306,41.7024 C83.9732523,41.5675203 83.9900452,41.4331769 84.02306,41.3024 C84.0584378,40.9264593 84.1424734,40.5567024 84.27306,40.2024 L84.57298,39.4024 C84.7761894,38.9236984 84.9108496,38.4187226 84.97298,37.9024 C85.0465361,37.5166758 85.1815907,37.1452757 85.37298,36.8024 C85.5984271,36.4501976 85.7989181,36.0826308 85.97298,35.7024 L85.97298,33.8024 C85.97298,33.1690667 85.9896467,32.5524 86.02298,31.9524 C86.0563133,31.5524 86.0896467,31.1690667 86.12298,30.8024 C86.1526646,30.4135332 86.2724956,30.0369214 86.47298,29.7024 L86.47298,20.6524 C86.4396467,20.55236 86.4063133,20.4356933 86.37298,20.3024 C86.3087183,20.1787617 86.2744612,20.0417334 86.27298,19.9024 C86.2062,19.6690667 86.1395067,19.4357333 86.0729,19.2024 C86.0397,19.0691 86.0063667,18.9357667 85.9729,18.8024 C85.9434121,18.6779712 85.8926671,18.5595662 85.8229,18.4524 C85.5192725,18.1141115 85.2512237,17.7455076 85.02298,17.3524 C84.9547294,17.183503 84.8526347,17.0303609 84.72298,16.9024 C84.5229133,16.6690667 84.3229133,16.4190667 84.12298,16.1524 C83.95636,15.9190667 83.7896933,15.6690667 83.62298,15.4024 C81.6834661,13.7649247 79.44094,12.5247398 77.02298,11.7524 C74.298,10.78578 72.3313333,10.13578 71.12298,9.8024 C68.428255,9.27703516 65.7078617,8.89317599 62.97298,8.6524 C60.5059959,8.51906295 58.0325144,8.56920095 55.57296,8.8024 Z" id="path22" fill="#6B2FBB"/>
                <path d="M60.57296,7.65238 C60.475163,7.68017434 60.3745646,7.69694522 60.27304,7.70238 L55.62304,8.60238 C55.36904,8.6788 55.1023567,8.74546667 54.82299,8.80238 C55.0723453,8.82777076 55.3236347,8.82777076 55.57299,8.80238 C58.0325377,8.56918194 60.5060125,8.51904394 62.97299,8.65238 C65.7078717,8.89315599 68.428265,9.27701516 71.12299,9.80238 C72.33137,10.1357133 74.2980367,10.7857133 77.02299,11.75238 C79.44095,12.5247198 81.6834761,13.7649047 83.62299,15.40238 C83.7897367,15.6690467 83.9564033,15.9190467 84.12299,16.15238 C84.3229367,16.4190467 84.5229367,16.6690467 84.72299,16.90238 C84.8526447,17.0303409 84.9547394,17.183483 85.02299,17.35238 C85.2512337,17.7454876 85.5192825,18.1140915 85.82291,18.45238 C85.8926771,18.5595462 85.9434221,18.6779512 85.97291,18.80238 C86.0062433,18.9357133 86.0395767,19.0690467 86.07291,19.20238 C86.1395767,19.43578 86.20627,19.6691133 86.27299,19.90238 C86.2744712,20.0417134 86.3087283,20.1787417 86.37299,20.30238 C86.4061967,20.4357133 86.43953,20.55238 86.47299,20.65238 L86.47299,29.70238 C86.2725056,30.0369014 86.1526746,30.4135132 86.12299,30.80238 C86.0896567,31.1690467 86.0563233,31.55238 86.02299,31.95238 C85.9896567,32.55238 85.97299,33.1690467 85.97299,33.80238 L85.97299,35.70238 C85.7989281,36.0826108 85.5984371,36.4501776 85.37299,36.80238 C85.1816007,37.1452557 85.0465461,37.5166558 84.97299,37.90238 C84.9108596,38.4187026 84.7761994,38.9236784 84.57299,39.40238 L84.27307,40.20238 C84.1424834,40.5566824 84.0584478,40.9264393 84.02307,41.30238 C83.9900552,41.4331569 83.9732623,41.5675003 83.97307,41.70238 C83.8075201,41.9338168 83.6730399,42.1859672 83.57307,42.45238 C83.2504181,43.4583032 82.8663636,44.4434866 82.42307,45.40238 C81.9953108,46.3856215 81.6605174,47.4067412 81.42307,48.45238 C81.2214077,49.2239209 80.9537786,49.9766934 80.62314,50.70238 C80.3581105,51.1640334 80.1881084,51.6740395 80.12314,52.20238 C79.3595133,53.3289069 78.8009279,54.5814925 78.47314,55.90238 C78.1500001,57.181955 77.5529161,58.3761231 76.72314,59.40238 C76.12314,60.1357133 75.4898067,60.85238 74.82314,61.55238 C74.3971154,61.9740965 74.0723142,62.4869675 73.87319,63.05238 C72.8795295,63.9121315 71.9901219,64.8854455 71.22319,65.95238 C70.1898567,67.3857133 69.22319,68.85238 68.32319,70.35238 C67.7565233,71.2856667 67.17319,72.2523333 66.57319,73.25238 C66.30659,73.7190467 66.0232567,74.20238 65.72319,74.70238 C64.6774106,75.569907 63.9262719,76.740286 63.57319,78.05238 C63.07319,79.78566 62.52319,81.5523267 61.92319,83.35238 C61.3565233,84.9857133 60.7398567,86.5857133 60.07319,88.15238 C59.7722676,88.8891095 59.5705044,89.6625353 59.47319,90.45238 C57.461873,94.882105 54.4289208,98.7718234 50.62319,101.80238 C48.6561594,102.321001 46.7712618,103.111985 45.02319,104.15238 C41.7872767,104.552036 38.5166198,104.585581 35.27319,104.25238 C29.2818378,103.685109 23.5508494,101.527371 18.67309,98.00238 C17.7628654,97.3603777 16.9097254,96.6410439 16.12316,95.85238 C12.5698316,92.3731786 9.85166087,88.1335535 8.17309,83.45238 C7.90937399,82.7990604 7.75725816,82.1060882 7.72309,81.40238 C7.70733667,81.24238 7.69067,81.0757133 7.67309,80.90238 C7.74387549,83.5553831 8.12991968,86.1905543 8.82309,88.75238 C9.55775197,91.5151584 10.4423964,94.2358573 11.47309,96.90238 C11.70771,97.53568 11.9410433,98.13568 12.17309,98.70238 C13.3895167,101.524767 17.1895167,104.774767 23.57309,108.45238 C23.85935,108.61156 24.1426833,108.76156 24.42309,108.90238 C31.3224967,112.80002 35.5891633,114.75002 37.22309,114.75238 C38.6349014,114.884276 40.0374559,115.101338 41.42309,115.40238 C41.70751,115.456033 41.9741767,115.506033 42.22309,115.55238 C43.6243773,115.830718 45.0454658,115.997905 46.47309,116.05238 C53.8064633,116.05238 59.5564633,114.802447 63.72309,112.30238 C68.12309,109.63576 71.9564233,104.919093 75.22309,98.15238 C75.9563633,96.65238 77.9396967,92.1690467 81.17309,84.70238 C83.6064233,79.0357133 85.1731133,75.7357133 85.87316,74.80238 C88.5731067,71.2690467 91.5564233,65.20238 94.82311,56.60238 C97.65637,49.1357133 99.0731133,44.75238 99.0731133,43.45238 C99.0756833,35.90416 97.5590433,29.50416 94.52319,24.25238 C93.1627557,21.896572 91.479818,19.7424117 89.52319,17.85238 C83.15759,11.7554 77.3408967,8.47206667 72.07311,8.00238 C68.253545,7.6031347 64.4097348,7.4861507 60.57296,7.65238 Z" id="path24" fill="#3B177C"/>
            </g>
            <g id="Layer4_13_MEMBER_2_MEMBER_0_FILL" transform="translate(53.000000, 74.000000)">
                <path d="M21.87301,24.10239 C21.8326952,24.1911645 21.7823688,24.2750419 21.72301,24.35239 C21.77147,24.2930033 21.82147,24.2263367 21.87301,24.15239 C21.8803433,24.1531767 21.8803433,24.13651 21.87301,24.10239 M37.32296,9.55239 C36.4344133,9.38259 35.2677467,9.19925667 33.82296,9.00239 C27.0741997,9.46108758 20.5530549,11.6290729 14.87301,15.30239 L14.82296,15.35239 C12.6157379,16.7637213 10.2040595,17.826209 7.67296,18.50239 C7.98110143,19.6597814 8.3652691,20.7955815 8.82296,21.90239 C9.44619814,23.4657592 9.89882102,25.0918488 10.17296,26.75239 C10.3055478,27.7672658 10.5746485,28.7595749 10.97296,29.70239 C10.89096,29.48443 10.8076267,29.2510967 10.72296,29.00239 C10.9043533,28.0728167 11.1043533,27.1394833 11.32296,26.20239 C11.4547863,25.743112 11.555037,25.2753532 11.62301,24.80239 L11.92294,23.10239 C11.9254308,22.9946081 11.9603109,22.8900723 12.02304,22.80239 C12.1238983,22.6333589 12.1917654,22.4467243 12.22304,22.25239 C12.2506081,22.1668647 12.2840201,22.0833346 12.32304,22.00239 L12.32304,21.90239 C12.3524934,21.8771444 12.3705346,21.841098 12.37309,21.80239 C12.3755902,21.7636936 12.3935913,21.727641 12.42302,21.70239 C12.4237688,21.6327244 12.4408969,21.5642121 12.47302,21.50239 L12.57302,21.40239 C12.5710559,21.3886109 12.5756954,21.3747114 12.585542,21.3648745 C12.5953887,21.3550377 12.6092929,21.3504122 12.62307,21.35239 C12.65628,21.28568 12.68972,21.25229 12.72307,21.25239 C12.767587,21.2114864 12.8181909,21.1777505 12.87307,21.15239 L12.97307,21.05239 C13.0397367,21.0524567 13.0897367,21.0524567 13.12307,21.05239 C13.1927246,21.051679 13.2612293,21.0345486 13.32302,21.00239 C13.46144,21.0376041 13.5955765,21.0879053 13.72302,21.15239 C13.8292436,21.1888312 13.9301329,21.2392758 14.02302,21.30239 C14.2828825,21.6459416 14.4074427,22.0730053 14.37302,22.50239 C14.4393067,22.5786833 14.5059567,22.6620167 14.57297,22.75239 C15.29807,23.72663 15.99807,24.7099633 16.67296,25.70239 C17.84301,24.30065 18.95971,22.85065 20.02307,21.35239 C20.8208059,20.2389277 21.3978705,18.9829636 21.72307,17.65239 L21.72307,17.40239 C21.7161683,17.2621068 21.7509646,17.1229215 21.82307,17.00239 L21.92307,16.90239 L22.02317,16.80239 C22.0212113,16.7886358 22.0258334,16.774761 22.0356494,16.7649294 C22.0454653,16.7550977 22.0593327,16.7504533 22.07309,16.75239 L22.27317,16.65239 L22.37317,16.55239 C22.4063767,16.5524567 22.4563767,16.5524567 22.52317,16.55239 C22.5928415,16.5516869 22.6613643,16.5345562 22.72317,16.50239 C23.0331828,16.5954147 23.3219586,16.748296 23.57317,16.95239 C23.6003312,16.9913716 23.6341884,17.0252288 23.67317,17.05239 C23.68489,17.07571 23.68489,17.09231 23.67317,17.10239 C23.9623089,17.4255037 24.1531286,17.8244905 24.22317,18.25239 C24.2325175,18.318729 24.2325175,18.386051 24.22317,18.45239 C24.2430221,18.4840332 24.2597667,18.5175225 24.27317,18.55239 C24.43979,19.0857233 24.6064567,19.65239 24.77317,20.25239 C25.0402036,21.9433438 25.0233051,23.6669967 24.72317,25.35239 C24.6224305,26.0552498 24.4377793,26.7434953 24.17317,27.40239 C23.8948079,28.1766492 23.5255601,28.9151448 23.07317,29.60239 C23.1935271,29.3438011 23.2938389,29.0763474 23.37322,28.80239 C22.696978,30.7185943 21.7362202,32.5221223 20.52322,34.15239 C19.3608174,35.7087761 18.6046673,37.5303443 18.32314,39.45239 C18.2549439,40.0915408 18.086197,40.7159043 17.82314,41.30239 L17.82314,43.55239 L17.82314,43.55239 C19.09414,43.84939 20.3608233,44.14939 21.62319,44.45239 L26.72319,44.45239 C28.4232633,43.9190567 30.1232633,43.4190567 31.82319,42.95239 C34.7704681,42.077495 37.4519406,40.4789351 39.62324,38.30239 C40.45662,37.00239 41.3065967,35.70239 42.17317,34.40239 C43.7493236,32.0537532 44.947223,29.4723645 45.72317,26.75239 C46.1898367,25.2190567 46.6065033,23.70239 46.97317,22.20239 L46.97317,20.30239 C46.9706421,20.1841369 46.9538541,20.0666208 46.92317,19.95239 C46.68989,19.2190567 46.4732567,18.4690567 46.27327,17.70239 C46.0822168,16.8953193 45.8143278,16.1083953 45.47327,15.35239 C45.2065433,14.65239 44.9565433,13.9357233 44.72327,13.20239 C44.478073,12.998861 44.2443792,12.7818596 44.02327,12.55239 C43.5819001,12.1237881 43.1143331,11.7230164 42.62327,11.35239 C41.8909109,10.8103939 41.0580633,10.4194766 40.1732,10.20239 C39.19708,9.96879667 38.247,9.75213333 37.32296,9.5524 L37.32296,9.55239 Z" id="path27" fill="#6B2FBB"/>
                <path d="M23.67294,17.0524 C23.6339584,17.0252388 23.6001012,16.9913816 23.57294,16.9524 C23.3217286,16.748306 23.0329528,16.5954247 22.72294,16.5024 C22.6611343,16.5345662 22.5926115,16.5516969 22.52294,16.5524 C22.45616,16.5524667 22.40616,16.5524667 22.37294,16.5524 L22.27294,16.6524 L22.07286,16.7524 C22.0591027,16.7504633 22.0452353,16.7551077 22.0354194,16.7649394 C22.0256034,16.774771 22.0209813,16.7886458 22.02294,16.8024 L21.92284,16.9024 L21.82284,17.0024 C21.7507346,17.1229315 21.7159383,17.2621168 21.72284,17.4024 L21.72284,17.6524 C21.3976405,18.9829736 20.8205759,20.2389377 20.02284,21.3524 C18.9595067,22.8506933 17.8428067,24.3006933 16.67274,25.7024 C15.9978133,24.7099667 15.2978133,23.7266333 14.57274,22.7524 C14.5056133,22.662 14.4389633,22.5786667 14.37279,22.5024 C14.4072127,22.0730153 14.2826525,21.6459516 14.02279,21.3024 C13.9299029,21.2392858 13.8290136,21.1888412 13.72279,21.1524 C13.5953465,21.0879153 13.46121,21.0376141 13.32279,21.0024 C13.2609993,21.0345586 13.1924946,21.051689 13.12284,21.0524 C13.0895067,21.0524667 13.0395067,21.0524667 12.97284,21.0524 L12.87284,21.1524 C12.8179609,21.1777605 12.767357,21.2114964 12.72284,21.2524 C12.68951,21.25233 12.65607,21.28572 12.62284,21.3524 C12.6090629,21.3504222 12.5951587,21.3550477 12.585312,21.3648845 C12.5754654,21.3747214 12.5708259,21.3886209 12.57279,21.4024 L12.47279,21.5024 C12.4406669,21.5642221 12.4235388,21.6327344 12.42279,21.7024 C12.3933613,21.727651 12.3753602,21.7637036 12.37286,21.8024 C12.3703046,21.841108 12.3522634,21.8771544 12.32281,21.9024 L12.32281,22.0024 C12.2837901,22.0833446 12.2503781,22.1668747 12.22281,22.2524 C12.1915354,22.4467343 12.1236683,22.6333689 12.02281,22.8024 C11.9600809,22.8900823 11.9252008,22.9946181 11.92271,23.1024 L11.62278,24.8024 C11.554807,25.2753632 11.4545563,25.743122 11.32273,26.2024 C11.10411,27.1395333 10.90411,28.0728667 10.72273,29.0024 C10.8073233,29.2510667 10.8906567,29.4844 10.97273,29.7024 L12.12273,31.5024 C12.13982,31.51796 12.15655,31.53474 12.17266,31.5524 C12.2394333,31.2190667 12.2894333,30.9024 12.32266,30.6024 L12.32266,30.0524 L12.42266,29.8524 C12.423395,29.7827326 12.4405239,29.7142171 12.47266,29.6524 L12.47266,25.7024 C12.4704717,25.5143551 12.50442,25.3276398 12.57266,25.1524 L12.72266,25.0024 C12.7713216,24.919878 12.840138,24.8510616 12.92266,24.8024 C13.06194,24.69114 13.1952733,24.5744733 13.32266,24.4524 C13.3589969,24.4425761 13.3929987,24.4255752 13.42266,24.4024 C13.5892867,24.3690133 13.77262,24.33568 13.97266,24.3024 C14.1219533,24.3322533 14.2719533,24.3655867 14.42266,24.4024 C14.4335699,24.423971 14.451089,24.4414901 14.47266,24.4524 C14.5970974,24.4818619 14.7155067,24.5326087 14.82266,24.6024 L15.02274,24.8024 C15.1244015,24.9048224 15.2088252,25.0230156 15.27274,25.1524 C15.3633141,25.3261357 15.4305614,25.5110659 15.47274,25.7024 C15.6714733,25.9578933 15.8548067,26.2078933 16.02274,26.4524 C16.4269283,27.0112891 16.7943693,27.5958542 17.12274,28.2024 C17.1972957,28.2968991 17.2641596,28.3972201 17.32269,28.5024 C17.3521443,28.5276448 17.3701857,28.5636917 17.37274,28.6024 C18.00604,28.1024 18.6060167,27.5857333 19.17267,27.0524 L21.72267,24.3524 C21.7820288,24.2750519 21.8323552,24.1911745 21.87267,24.1024 C21.8800033,24.13652 21.8800033,24.1531867 21.87267,24.1524 C22.0215967,23.9784 22.17158,23.7950667 22.32262,23.6024 C22.3773109,23.6065951 22.4313843,23.5885706 22.47262,23.5524 C22.5581683,23.5248956 22.6417027,23.4914819 22.72262,23.4524 C22.8520233,23.5162831 22.9702214,23.6007103 23.07262,23.7024 C23.1392867,23.8024 23.22262,23.9190667 23.32262,24.0524 C23.393778,24.192967 23.4774492,24.3268409 23.57262,24.4524 C23.6464919,24.5820202 23.7132832,24.7155494 23.7727,24.8524 C23.8273667,24.9650667 23.8773333,25.0817333 23.9226,25.2024 C24.0257866,25.4453384 24.1093862,25.6961373 24.1726,25.9524 C24.1667663,25.9901163 24.1493122,26.0250734 24.12267,26.0524 C24.1255909,26.1384863 24.1084565,26.2240729 24.07262,26.3024 C24.0781723,26.3727214 24.0606468,26.4429359 24.0227,26.5024 L23.3727,28.8024 C23.2933189,29.0763574 23.1930071,29.3438111 23.07265,29.6024 C23.5250401,28.9151548 23.8942879,28.1766592 24.17265,27.4024 C24.4372593,26.7435053 24.6219105,26.0552598 24.72265,25.3524 C25.0227851,23.6670067 25.0396836,21.9433538 24.77265,20.2524 C24.6060233,19.6524 24.4393567,19.0857333 24.27265,18.5524 C24.2592467,18.5175325 24.2425021,18.4840432 24.22265,18.4524 C24.2319975,18.386061 24.2319975,18.318739 24.22265,18.2524 C24.1526086,17.8245005 23.9617889,17.4255137 23.67265,17.1024 C23.68437,17.09233 23.68437,17.07573 23.67265,17.0524 M33.82265,9.0024 C35.2674833,9.19928667 36.43415,9.38262 37.32265,9.5524 C38.24673,9.75217333 39.19673,9.96884 40.17265,10.2024 C41.0575133,10.4194866 41.8903609,10.8104039 42.62272,11.3524 C43.1137831,11.7230264 43.5813501,12.1237981 44.02272,12.5524 C44.2438292,12.7818696 44.477523,12.998871 44.72272,13.2024 C44.9559933,13.9358 45.2059933,14.6524667 45.47272,15.3524 C45.8137778,16.1084053 46.0816668,16.8953293 46.27272,17.7024 C46.4726733,18.4690667 46.6893067,19.2190667 46.92262,19.9524 C46.9533041,20.0666308 46.9700921,20.1841469 46.97262,20.3024 L46.97262,22.2024 C46.6059533,23.7024 46.1892867,25.2190667 45.72262,26.7524 C44.946673,29.4723745 43.7487736,32.0537632 42.17262,34.4024 C41.30604,35.7024 40.4560633,37.0024 39.62269,38.3024 C37.4513906,40.4789451 34.7699181,42.077505 31.82264,42.9524 C30.1226933,43.4190667 28.4226933,43.9190667 26.72264,44.4524 L21.62264,44.4524 C20.3603067,44.14942 19.0936233,43.84942 17.82259,43.5524 L17.82259,43.9524 C17.9577279,44.3257001 18.0581695,44.7106619 18.12264,45.1024 C18.2106658,45.5483981 18.3447164,45.9840627 18.52264,46.4024 C19.005204,47.5152681 19.608813,48.5716306 20.32256,49.5524 C22.18926,51.1524 25.6559267,51.9524 30.72256,51.9524 C33.6142793,52.0106248 36.4557777,51.191297 38.87256,49.6024 C41.2469467,48.07402 43.7469467,45.3073533 46.37256,41.3024 C46.4829067,41.07358 46.5995733,40.8402467 46.72256,40.6024 C47.4558333,38.2690667 48.1058333,36.0857333 48.67256,34.0524 C49.80598,30.1189933 50.2560133,27.5689933 50.02266,26.4024 C49.9928632,24.7058699 49.808771,23.0155691 49.47266,21.3524 C48.6937503,17.1279166 46.7349009,13.2102178 43.82266,10.0524 C43.6227133,9.98568667 43.4060467,9.91902 43.17266,9.8524 C42.90606,9.7524 42.6227267,9.6524 42.32266,9.5524 C42.0893933,9.48568667 41.8393933,9.40235333 41.57266,9.3024 C41.4917527,9.2632955 41.4082167,9.2298811 41.32266,9.2024 C38.8325013,8.92979053 36.3241103,8.86288405 33.82296,9.00236 L33.82265,9.0024 Z" id="path29" fill="#3B177C"/>
                <path d="M41.32296,9.20237 C41.4085167,9.2298511 41.4920527,9.2632655 41.57296,9.30237 C41.8396933,9.40237 42.0896933,9.48570333 42.32296,9.55237 C42.6230133,9.65237 42.9063467,9.75237 43.17296,9.85237 C43.40636,9.91903667 43.6230267,9.98570333 43.82296,10.05237 C46.7352009,13.2101878 48.6940503,17.1278866 49.47296,21.35237 C49.809071,23.0155391 49.9931632,24.7058399 50.02296,26.40237 C50.2562333,27.5690367 49.8062,30.1190367 48.67286,34.05237 C48.1061933,36.0857033 47.4561933,38.2690367 46.72286,40.60237 C46.5999333,40.84029 46.4832667,41.0736233 46.37286,41.30237 C43.7472467,45.3073167 41.2472467,48.0739833 38.87286,49.60237 C36.4560777,51.191267 33.6145793,52.0105948 30.72286,51.95237 C25.6561933,51.95237 22.1895267,51.15237 20.32286,49.55237 C19.609113,48.5716006 19.005504,47.5152381 18.52294,46.40237 C18.3450164,45.9840327 18.2109658,45.5483681 18.12294,45.10237 C18.0584695,44.7106319 17.9580279,44.3256701 17.82289,43.95237 L17.82289,43.55237 L17.82289,43.55237 L17.82289,41.30237 C18.085947,40.7158843 18.2546939,40.0915208 18.32289,39.45237 C18.6044173,37.5303243 19.3605674,35.7087561 20.52297,34.15237 C21.7359702,32.5221023 22.696728,30.7185743 23.37297,28.80237 L24.02297,26.50237 C24.0609168,26.4429059 24.0784423,26.3726914 24.07289,26.30237 C24.1087265,26.2240429 24.1258609,26.1384563 24.12294,26.05237 C24.1495822,26.0250434 24.1670363,25.9900863 24.17287,25.95237 C24.1096562,25.6961073 24.0260566,25.4453084 23.92287,25.20237 C23.8775833,25.0816433 23.8276167,24.9649767 23.77297,24.85237 C23.7135532,24.7155194 23.6467619,24.5819902 23.57289,24.45237 C23.4777192,24.3268109 23.394048,24.192937 23.32289,24.05237 C23.22289,23.9190367 23.1395567,23.80237 23.07289,23.70237 C22.9704914,23.6006803 22.8522933,23.5162531 22.72289,23.45237 C22.6419727,23.4914519 22.5584383,23.5248656 22.47289,23.55237 C22.4316543,23.5885406 22.3775809,23.6065651 22.32289,23.60237 C22.17177,23.7951233 22.0217867,23.9784567 21.87294,24.15237 C21.8214267,24.22637 21.7714267,24.2930367 21.72294,24.35237 L19.17294,27.05237 C18.6062733,27.5857033 18.0062967,28.10237 17.37301,28.60237 C17.3704557,28.5636617 17.3524143,28.5276148 17.32296,28.50237 C17.2644296,28.3971901 17.1975657,28.2968691 17.12301,28.20237 C16.7946393,27.5958242 16.4271983,27.0112591 16.02301,26.45237 C15.85501,26.2078633 15.6716767,25.9578633 15.47301,25.70237 C15.4308314,25.5110359 15.3635841,25.3261057 15.27301,25.15237 C15.2090952,25.0229856 15.1246715,24.9047924 15.02301,24.80237 L14.82293,24.60237 C14.7157767,24.5325787 14.5973674,24.4818319 14.47293,24.45237 C14.451359,24.4414601 14.4338399,24.423941 14.42293,24.40237 C14.2722633,24.3654967 14.1222633,24.3321633 13.97293,24.30237 C13.7728633,24.3357033 13.58953,24.3690367 13.42293,24.40237 C13.3932687,24.4255452 13.3592669,24.4425461 13.32293,24.45237 C13.19549,24.5744433 13.0621567,24.69111 12.92293,24.80237 C12.840408,24.8510316 12.7715916,24.919848 12.72293,25.00237 L12.57293,25.15237 C12.50469,25.3276098 12.4707417,25.5143251 12.47293,25.70237 L12.47293,29.65237 C12.4407939,29.7141871 12.423665,29.7827026 12.42293,29.85237 L12.32293,30.05237 L12.32293,30.60237 C12.28973,30.90237 12.23973,31.2190367 12.17293,31.55237 C12.1062633,31.78565 12.0395967,32.03565 11.97293,32.30237 C11.9116783,32.4824476 11.8615833,32.6661292 11.82293,32.85237 C11.72293,33.15237 11.6229567,33.4357033 11.52301,33.70237 C10.1993549,37.5554758 9.70519173,41.6448762 10.07293,45.70237 C10.6141859,48.8618629 12.1985219,51.7488752 14.57293,53.90237 C14.8705433,54.1777567 15.1705433,54.4444233 15.47293,54.70237 C17.4602944,56.7956414 19.9860937,58.300741 22.77293,59.05237 C24.8869618,59.6543198 27.074874,59.9572615 29.27293,59.9524283 C32.7321177,59.8980533 36.1340041,59.0604029 39.22293,57.50237 C41.0894832,56.5958013 42.9085191,55.5944972 44.67293,54.50237 C48.0487833,51.60437 51.06545,47.15437 53.72293,41.15237 C56.41983,35.1850767 57.8531633,30.26841 58.0234441,26.40237 C58.0508435,21.192556 56.9417172,16.0393842 54.77293,11.30237 C53.0060428,7.12923215 49.6100776,3.85971244 45.37293,2.25237 C40.6266597,0.420568612 35.4511805,0.00375149338 30.47293,1.05237 C24.2711749,2.10183653 18.2570642,4.05600134 12.62293,6.85237 C12.0618183,6.96003595 11.4936388,7.02687784 10.92286,7.05237 C10.5827733,7.06135 10.2327967,7.06135 9.87293,7.05237 C7.53807242,7.6415164 5.11705991,7.81081797 2.72293,7.55237 L2.72293,8.10237 C3.01300185,8.6619945 3.55073703,9.05138894 4.17293,9.15237 C5.14230893,9.34456777 6.09522924,9.61204479 7.02303,9.95237 C6.94777119,10.0285467 6.86386894,10.0956685 6.77303,10.15237 C5.5891301,10.8852557 4.49792091,11.7582231 3.52303,12.75237 C2.75936333,13.34819 2.00936333,13.94819 1.27303,14.55237 C0.95871953,14.7649401 0.673015149,15.0170026 0.42293,15.30237 C0.193918701,15.5252332 0.0672457921,15.8328674 0.0727466162,16.15237 C0.075448077,16.191077 0.0934752176,16.2271313 0.12293,16.25237 L0.12293,16.50237 C0.125131673,16.606386 0.182187244,16.7014786 0.27293,16.75237 C0.904074796,17.0884352 1.57643556,17.3405705 2.27293,17.50237 C3.47826333,17.6802167 5.27823,18.01355 7.67283,18.50237 C10.2039295,17.826189 12.6156079,16.7637013 14.82283,15.35237 L14.87288,15.30237 C20.5529249,11.6290529 27.0740697,9.46106758 33.82283,9.00237 C36.3241221,8.86285709 38.8326579,8.92975022 41.32296,9.20237 Z" id="path31" fill="#1C003F"/>
            </g>
            <g id="Layer4_13_MEMBER_3_FILL" transform="translate(59.000000, 15.000000)">
                <path d="M18.62301,1.8024 C14.45639,2.9024 10.3063667,6.11906667 6.17294,11.4524 C2.07294,16.6858 0.17294,21.6191333 0.47294,26.2524 C0.772873333,30.8524 2.67287333,33.8357333 6.17294,35.2024 C9.2710752,36.4049688 12.4659374,37.3416824 15.72294,38.0024 C18.5563133,38.5357333 20.82298,38.9524 22.52294,39.2524 C24.6562733,39.6190333 31.70624,41.4190333 43.67284,44.6524 C45.2760368,45.1246626 46.8069474,45.8144136 48.22284,46.7024 C48.4229133,46.7691133 49.53958,47.3691133 51.57284,48.5024 C53.3212882,49.472988 55.2389408,50.100892 57.22284,50.3524 C61.38946,50.6524 64.6727933,48.6690667 67.07284,44.4024 C69.1821398,40.4001297 70.3614361,35.9735985 70.52292,31.4524 C70.6562533,29.3524 70.70622,27.7690667 70.67282,26.7024 C70.6712453,24.9326331 70.2605525,23.1871886 69.47282,21.6024 C68.9113015,20.0121344 68.1195395,18.5128404 67.12282,17.1524 C65.2144302,14.6738055 62.8775345,12.5570521 60.22282,10.9024 C58.3537468,9.63241672 56.4176075,8.46405676 54.42282,7.4024 C51.009623,5.89184669 47.4818993,4.6546273 43.87289,3.7024 C39.6065075,2.40333409 35.2423614,1.45024836 30.82284,0.8524 C26.7333813,0.35914918 22.5866988,0.682047913 18.62289,1.8024 M9.12289,19.7024 C10.1542879,17.7268971 11.505931,15.93597 13.12289,14.4024 C16.8990998,10.559326 22.2104093,8.62960483 27.57284,9.1524 C34.9527062,9.60271272 42.1961062,11.3458674 48.97284,14.3024 C49.0481733,14.34324 49.11484,14.3765733 49.17284,14.4024 L49.57284,14.5524 C49.7022697,14.6266038 49.8358191,14.6933785 49.97284,14.7524 L49.92284,14.7524 C50.2374133,14.8886333 50.5374133,15.0219667 50.82284,15.1524 C53.261766,16.2200036 55.5619516,17.5799674 57.67284,19.2024 C57.8447133,19.3657333 58.01138,19.5157333 58.17284,19.6524 C58.63512,20.11462 59.0517867,20.5312867 59.42284,20.9024 C60.8510625,22.2694973 61.916468,23.9706544 62.52294,25.8524 C63.0722337,27.3216989 63.3270735,28.8847163 63.27294,30.4524 C63.1911592,32.5242679 62.6624146,34.553965 61.72294,36.4024 C60.4562067,38.9357867 58.6228733,40.11912 56.22294,39.9524 C54.1078601,39.9068551 52.0340152,39.3584002 50.17294,38.3524 C48.3582458,37.2040272 46.4106417,36.2805831 44.37301,35.6024 C42.9700567,35.1690667 41.1533667,34.6857333 38.92294,34.1524 L38.87301,34.1524 C38.55905,34.0974733 38.2257167,34.0308067 37.87301,33.9524 L36.87301,33.7024 C36.0749167,33.5521267 35.2249,33.38546 34.32296,33.2024 C30.22296,32.36902 26.47296,31.7023533 23.07296,31.2024 C19.0609201,30.595042 15.1448035,29.4689484 11.42296,27.8524 C8.95629333,26.6524 7.75629333,25.5524 7.82296,24.5524 C7.95572274,22.8697649 8.39638208,21.2258196 9.12301,19.70237 L9.12289,19.7024 Z" id="path34" fill="#091628"/>
                <path d="M49.97299,14.75236 C49.8359691,14.6933385 49.7024197,14.6265638 49.57299,14.55236 L49.17299,14.40236 C49.11499,14.37654 49.0483233,14.3432067 48.97299,14.30236 C49.2538234,14.5185855 49.5777808,14.672039 49.92299,14.75236 L49.97299,14.75236 M9.52304,22.30236 C9.11396288,21.5011346 8.97371051,20.5894942 9.12304,19.70236 C8.39641562,21.2258003 7.95575636,22.8697351 7.82299,24.55236 C7.75632333,25.55236 8.95632333,26.65236 11.42299,27.85236 C15.1448335,29.4689084 19.0609501,30.595002 23.07299,31.20236 C26.47299,31.70236 30.22299,32.3690267 34.32299,33.20236 C35.22499,33.38546 36.0750067,33.5521267 36.87304,33.70236 L37.87304,33.95236 C38.2258267,34.0307867 38.55916,34.0974533 38.87304,34.15236 L38.92297,34.15236 C41.1533167,34.6856933 42.9700067,35.1690267 44.37304,35.60236 C46.4106717,36.2805431 48.3582758,37.2039872 50.17297,38.35236 C52.0340452,39.3583602 54.1078901,39.9068151 56.22297,39.95236 C58.62297,40.11898 60.4563033,38.9356467 61.72297,36.40236 C62.6624446,34.553925 63.1911892,32.5242279 63.27297,30.45236 C63.3271035,28.8846763 63.0722637,27.3216589 62.52297,25.85236 C61.916498,23.9706144 60.8510925,22.2694573 59.42287,20.90236 C59.0517833,20.5312733 58.6351167,20.1146067 58.17287,19.65236 C58.01137,19.51564 57.8447033,19.36564 57.67287,19.20236 C55.5619816,17.5799274 53.261796,16.2199636 50.82287,15.15236 C51.32287,15.7190267 51.8395533,16.30236 52.37292,16.90236 C52.4193977,16.9557624 52.4695176,17.0058823 52.52292,17.05236 C53.8007527,18.7517657 54.5642824,20.7820604 54.72292,22.90236 C54.7533062,24.80977 53.8354572,26.6080047 52.27292,27.70236 C50.17292,29.30236 46.8395867,30.1190267 42.27292,30.15236 C40.4191809,30.2254429 38.562581,30.1418122 36.72292,29.90236 C34.32292,29.3356933 31.9062533,28.8356933 29.47292,28.40236 C27.2401333,28.00392 24.0234667,27.4372533 19.82292,26.70236 C15.6222533,26.0002667 12.9389467,25.2336 11.773,24.40236 C10.8975601,23.8501817 10.1342113,23.1377237 9.52304,22.3024 L9.52304,22.30236 Z" id="path36" fill="#4E7A8D"/>
                <path d="M9.12301,19.70237 C8.97368051,20.5895042 9.11393288,21.5011446 9.52301,22.30237 C10.1341892,23.1377119 10.8975521,23.8501839 11.77301,24.40237 C12.9388967,25.23361 15.6222033,26.0002767 19.82293,26.70237 C24.02337,27.43729 27.2400367,28.0039567 29.47293,28.40237 C31.9062633,28.8357033 34.32293,29.3357033 36.72293,29.90237 C38.562591,30.1418222 40.4191909,30.2254529 42.27293,30.15237 C46.8395967,30.1190367 50.17293,29.30237 52.27293,27.70237 C53.8354672,26.6080147 54.7533162,24.80978 54.72293,22.90237 C54.5642924,20.7820704 53.8007627,18.7517757 52.52293,17.05237 C52.4695276,17.0058923 52.4194077,16.9557724 52.37293,16.90237 C51.8395967,16.30233 51.3229133,15.7189967 50.82288,15.15237 C50.53748,15.0219367 50.23748,14.8886033 49.92288,14.75237 L49.92288,14.75237 C49.5776708,14.672049 49.2537134,14.5185955 48.97288,14.30237 C42.1961462,11.3458374 34.9527462,9.60268272 27.57288,9.15237 C22.2104493,8.62957483 16.8991398,10.559296 13.12293,14.40237 C11.505971,15.93594 10.1543279,17.7268671 9.12293,19.70237 M30.27293,15.80237 C29.9942638,15.7994031 29.7202081,15.7308891 29.47293,15.60237 C25.7728633,15.90237 22.1061967,16.2857033 18.47293,16.75237 C18.0597238,16.7800105 17.6619213,16.5905807 17.42293,16.25237 C17.3320935,16.1412492 17.2485838,16.0243356 17.17293,15.90237 C17.16693,15.9160367 17.1502867,15.9160367 17.123,15.90237 C16.7080001,15.6595087 16.4033173,15.2652133 16.273,14.80237 L16.273,14.40237 C16.2408639,14.3405529 16.223735,14.2720374 16.223,14.20237 C16.2290792,14.1494425 16.2461069,14.0983595 16.273,14.05237 L16.273,13.85237 C16.3050978,13.790542 16.3221985,13.7220295 16.32292,13.65237 L16.32292,13.45237 C18.4618456,11.6500846 21.1760553,10.6743883 23.97292,10.70237 C25.2146293,10.7047518 26.4536822,10.5875441 27.67292,10.35237 C27.8078,10.352182 27.9421439,10.335389 28.07292,10.30237 C29.3465211,10.1308778 30.6420557,10.2331555 31.87297,10.60237 C32.1596634,10.6911363 32.4298833,10.826258 32.6729,11.00237 C32.8126205,11.0554141 32.9466325,11.1224201 33.0729,11.20237 C33.6052045,11.5342036 33.9967589,12.0503435 34.1729,12.65237 L34.1729,13.05237 C34.16869,13.1070627 34.1867164,13.1611418 34.2229,13.20237 C34.1895667,13.40237 34.1562333,13.60237 34.1229,13.80237 C34.0841397,14.2146885 33.9080647,14.6020535 33.6229,14.90237 C33.3381291,15.1903452 33.0190477,15.4422331 32.67283,15.65237 C31.8841154,15.8163247 31.0760337,15.8668443 30.27304,15.8024 L30.27293,15.80237 Z" id="path38" fill="#90C3D0"/>
                <path d="M29.47299,15.60239 C29.7202681,15.7309091 29.9943238,15.7994231 30.27299,15.80239 C31.0760187,15.8668547 31.8841381,15.8163451 32.67289,15.65239 C33.0191077,15.4422531 33.3381891,15.1903652 33.62296,14.90239 C33.9081247,14.6020735 34.0841997,14.2147085 34.12296,13.80239 C34.1561667,13.60239 34.1895,13.40239 34.22296,13.20239 C34.1867764,13.1611618 34.16875,13.1070827 34.17296,13.05239 L34.17296,12.65239 C33.9968189,12.0503635 33.6052645,11.5342236 33.07296,11.20239 C32.9466925,11.1224401 32.8126805,11.0554341 32.67296,11.00239 C32.4299433,10.826278 32.1597234,10.6911563 31.87303,10.60239 C30.6421157,10.2331755 29.3465811,10.1308978 28.07298,10.30239 C27.9422039,10.335409 27.80786,10.352202 27.67298,10.35239 C26.4537422,10.5875641 25.2146893,10.7047718 23.97298,10.70239 C21.1761153,10.6744083 18.4619056,11.6501046 16.32298,13.45239 L16.32298,13.65239 C16.3222585,13.7220495 16.3051578,13.790562 16.27306,13.85239 L16.27306,14.05239 C16.2461669,14.0983795 16.2291392,14.1494625 16.22306,14.20239 C16.223795,14.2720574 16.2409239,14.3405729 16.27306,14.40239 L16.27306,14.80239 C16.4033773,15.2652333 16.7080601,15.6595287 17.12306,15.90239 C17.1503933,15.9160567 17.1670367,15.9160567 17.17299,15.90239 C17.2486438,16.0243556 17.3321535,16.1412692 17.42299,16.25239 C17.6619813,16.5906007 18.0597838,16.7800305 18.47299,16.75239 C22.10629,16.28575 25.7729567,15.9024167 29.47299,15.60239 Z" id="path40" fill="#FFFFFF"/>
            </g>
        </g>
    </g>
</svg>